<svg width="376" height="345" viewBox="0 0 376 345" fill="none" xmlns="http://www.w3.org/2000/svg">
<g clip-path="url(#clip0)">
<g opacity="0.5">
<path opacity="0.5" d="M57.04 61.3318H55.5504V70.268H57.04V61.3318Z" fill="#47E6B1"/>
<path opacity="0.5" d="M60.5159 66.5883V65.0114H52.0746V66.5883H60.5159Z" fill="#47E6B1"/>
</g>
<g opacity="0.5">
<path opacity="0.5" d="M109.992 255.817H108.502V264.753H109.992V255.817Z" fill="#47E6B1"/>
<path opacity="0.5" d="M113.463 261.073V259.496H105.022V261.073H113.463Z" fill="#47E6B1"/>
</g>
<g opacity="0.5">
<path opacity="0.5" d="M35.872 152.015H34.3824V160.952H35.872V152.015Z" fill="#47E6B1"/>
<path opacity="0.5" d="M39.3478 157.272V155.695H30.9066V157.272H39.3478Z" fill="#47E6B1"/>
</g>
<g opacity="0.5">
<path opacity="0.5" d="M296.67 0H295.181V8.93623H296.67V0Z" fill="#47E6B1"/>
<path opacity="0.5" d="M300.146 5.25662V3.67963L291.705 3.67963V5.25662H300.146Z" fill="#47E6B1"/>
</g>
<g opacity="0.5">
<path opacity="0.5" d="M45.3154 22.2245H43.8257V31.1608H45.3154V22.2245Z" fill="#47E6B1"/>
<path opacity="0.5" d="M48.7867 27.4812V25.9042H40.3454V27.4812H48.7867Z" fill="#47E6B1"/>
</g>
<path opacity="0.5" d="M73.8555 223.927C73.4453 223.737 73.1151 223.394 72.9279 222.964C72.7407 222.534 72.7094 222.045 72.8401 221.592C72.8612 221.523 72.8747 221.451 72.8803 221.379C72.9104 221.164 72.8698 220.945 72.7652 220.758C72.6607 220.571 72.4986 220.427 72.3062 220.352C72.1138 220.276 71.9027 220.273 71.7083 220.343C71.5139 220.413 71.3481 220.551 71.2386 220.735C71.1975 220.794 71.163 220.857 71.1357 220.924C70.9566 221.359 70.633 221.708 70.2264 221.906C69.8198 222.104 69.3585 222.138 68.9303 221.999C68.865 221.977 68.7975 221.963 68.729 221.957C68.526 221.925 68.3189 221.968 68.1423 222.078C67.9657 222.189 67.8304 222.361 67.7591 222.564C67.6878 222.768 67.6848 222.992 67.7506 223.197C67.8164 223.403 67.9471 223.579 68.1207 223.695C68.1761 223.738 68.2362 223.775 68.2996 223.804C68.7099 223.993 69.04 224.336 69.2272 224.766C69.4144 225.197 69.4457 225.685 69.3151 226.138C69.294 226.207 69.2805 226.279 69.2748 226.351C69.2447 226.566 69.2854 226.786 69.3899 226.972C69.4944 227.159 69.6565 227.303 69.8489 227.378C70.0414 227.454 70.2525 227.457 70.4468 227.387C70.6412 227.317 70.807 227.179 70.9165 226.995C70.9576 226.937 70.9921 226.873 71.0194 226.806C71.1985 226.372 71.5221 226.022 71.9288 225.824C72.3354 225.626 72.7966 225.593 73.2248 225.731C73.2901 225.753 73.3577 225.768 73.4261 225.774C73.6291 225.805 73.8363 225.762 74.0129 225.652C74.1895 225.541 74.3248 225.369 74.3961 225.166C74.4674 224.962 74.4704 224.739 74.4045 224.533C74.3387 224.327 74.208 224.151 74.0345 224.036C73.979 223.992 73.919 223.956 73.8555 223.927Z" fill="#4D8AF0"/>
<path opacity="0.5" d="M66.4745 308.861C66.0642 308.671 65.7341 308.329 65.5469 307.898C65.3596 307.468 65.3284 306.98 65.459 306.526C65.4801 306.457 65.4936 306.386 65.4993 306.313C65.5293 306.098 65.4887 305.879 65.3842 305.692C65.2796 305.505 65.1176 305.362 64.9251 305.286C64.7327 305.211 64.5216 305.208 64.3272 305.277C64.1329 305.347 63.967 305.485 63.8575 305.669C63.8165 305.728 63.7819 305.791 63.7547 305.859C63.5764 306.293 63.2539 306.642 62.8482 306.841C62.4425 307.041 61.9818 307.075 61.5537 306.938C61.4884 306.916 61.4209 306.902 61.3524 306.896C61.1494 306.864 60.9423 306.907 60.7657 307.018C60.5891 307.128 60.4538 307.3 60.3825 307.503C60.3112 307.707 60.3082 307.931 60.374 308.136C60.4398 308.342 60.5705 308.518 60.7441 308.634C60.7995 308.677 60.8596 308.714 60.923 308.743C61.3333 308.932 61.6634 309.275 61.8506 309.705C62.0378 310.136 62.0691 310.624 61.9385 311.077C61.9174 311.146 61.9038 311.218 61.8982 311.29C61.8681 311.505 61.9088 311.725 62.0133 311.912C62.1178 312.098 62.2799 312.242 62.4723 312.317C62.6648 312.393 62.8759 312.396 63.0702 312.326C63.2646 312.256 63.4304 312.118 63.5399 311.934C63.581 311.876 63.6155 311.812 63.6428 311.745C63.8219 311.311 64.1455 310.961 64.5522 310.763C64.9588 310.565 65.42 310.532 65.8482 310.67C65.9135 310.692 65.9811 310.707 66.0495 310.713C66.2525 310.744 66.4597 310.701 66.6363 310.591C66.8129 310.48 66.9482 310.309 67.0195 310.105C67.0908 309.901 67.0938 309.678 67.0279 309.472C66.9621 309.266 66.8315 309.091 66.6579 308.975C66.6012 308.929 66.5397 308.891 66.4745 308.861Z" fill="#4D8AF0"/>
<path opacity="0.5" d="M338.009 120.855C337.599 120.665 337.268 120.322 337.081 119.892C336.894 119.461 336.863 118.973 336.993 118.52C337.014 118.451 337.028 118.379 337.034 118.307C337.064 118.092 337.023 117.873 336.919 117.686C336.814 117.499 336.652 117.355 336.46 117.28C336.267 117.204 336.056 117.201 335.862 117.271C335.667 117.341 335.501 117.479 335.392 117.663C335.351 117.722 335.316 117.785 335.289 117.852C335.111 118.286 334.788 118.636 334.383 118.835C333.977 119.034 333.516 119.069 333.088 118.932C333.023 118.91 332.955 118.895 332.887 118.889C332.684 118.857 332.477 118.901 332.3 119.011C332.123 119.122 331.988 119.293 331.917 119.497C331.846 119.701 331.843 119.924 331.908 120.13C331.974 120.336 332.105 120.511 332.278 120.627C332.334 120.671 332.394 120.707 332.457 120.736C332.868 120.926 333.198 121.268 333.385 121.699C333.572 122.129 333.603 122.618 333.473 123.071C333.452 123.14 333.438 123.212 333.433 123.284C333.403 123.499 333.443 123.718 333.548 123.905C333.652 124.092 333.814 124.235 334.007 124.311C334.199 124.386 334.41 124.39 334.605 124.32C334.799 124.25 334.965 124.112 335.074 123.928C335.115 123.869 335.15 123.806 335.177 123.739C335.356 123.304 335.68 122.955 336.087 122.757C336.493 122.558 336.954 122.525 337.383 122.664C337.448 122.686 337.515 122.7 337.584 122.706C337.787 122.738 337.994 122.695 338.171 122.584C338.347 122.474 338.483 122.302 338.554 122.098C338.625 121.895 338.628 121.671 338.562 121.466C338.496 121.26 338.366 121.084 338.192 120.968C338.136 120.923 338.074 120.885 338.009 120.855Z" fill="#4D8AF0"/>
<path opacity="0.5" d="M325.72 210.52C325.31 210.33 324.98 209.988 324.793 209.557C324.606 209.127 324.574 208.638 324.705 208.185C324.726 208.116 324.74 208.044 324.745 207.972C324.775 207.757 324.735 207.538 324.63 207.351C324.526 207.164 324.364 207.021 324.171 206.945C323.979 206.87 323.768 206.867 323.573 206.936C323.379 207.006 323.213 207.144 323.104 207.328C323.062 207.387 323.028 207.45 323.001 207.517C322.822 207.952 322.498 208.301 322.091 208.499C321.685 208.698 321.223 208.731 320.795 208.592C320.73 208.57 320.662 208.556 320.594 208.55C320.391 208.518 320.184 208.561 320.007 208.672C319.831 208.782 319.695 208.954 319.624 209.158C319.553 209.361 319.55 209.585 319.615 209.791C319.681 209.996 319.812 210.172 319.986 210.288C320.041 210.331 320.101 210.368 320.164 210.397C320.575 210.586 320.905 210.929 321.092 211.359C321.279 211.79 321.311 212.278 321.18 212.731C321.159 212.801 321.145 212.872 321.14 212.944C321.11 213.159 321.15 213.379 321.255 213.566C321.359 213.753 321.521 213.896 321.714 213.971C321.906 214.047 322.117 214.05 322.312 213.98C322.506 213.911 322.672 213.772 322.781 213.589C322.823 213.53 322.857 213.466 322.884 213.399C323.063 212.965 323.387 212.615 323.794 212.417C324.2 212.219 324.662 212.186 325.09 212.324C325.155 212.346 325.223 212.361 325.291 212.367C325.494 212.399 325.701 212.356 325.878 212.245C326.054 212.134 326.19 211.963 326.261 211.759C326.332 211.555 326.335 211.332 326.269 211.126C326.204 210.92 326.073 210.745 325.899 210.629C325.844 210.585 325.784 210.549 325.72 210.52Z" fill="#4D8AF0"/>
<path opacity="0.5" d="M334.878 31.8285C334.467 31.6389 334.137 31.2963 333.95 30.8658C333.763 30.4354 333.731 29.9471 333.862 29.4938C333.883 29.4246 333.897 29.3531 333.902 29.2807C333.932 29.0658 333.892 28.8465 333.787 28.6595C333.683 28.4726 333.521 28.3293 333.328 28.2538C333.136 28.1784 332.925 28.1752 332.73 28.2449C332.536 28.3146 332.37 28.4529 332.261 28.6366C332.219 28.6954 332.185 28.7589 332.158 28.8261C331.979 29.2604 331.655 29.6099 331.248 29.8081C330.842 30.0063 330.38 30.0394 329.952 29.9011C329.887 29.8787 329.819 29.8644 329.751 29.8584C329.548 29.8266 329.341 29.8697 329.164 29.9803C328.988 30.091 328.852 30.2625 328.781 30.4663C328.71 30.67 328.707 30.8934 328.773 31.0992C328.838 31.305 328.969 31.4805 329.143 31.5964C329.198 31.6399 329.258 31.6765 329.322 31.7054C329.732 31.895 330.062 32.2376 330.249 32.668C330.436 33.0985 330.468 33.5868 330.337 34.0401C330.316 34.1092 330.302 34.1807 330.297 34.2532C330.267 34.4681 330.307 34.6874 330.412 34.8743C330.516 35.0613 330.678 35.2045 330.871 35.28C331.063 35.3555 331.274 35.3587 331.469 35.289C331.663 35.2193 331.829 35.081 331.938 34.8972C331.98 34.8385 332.014 34.7749 332.041 34.7078C332.22 34.2735 332.544 33.924 332.951 33.7258C333.357 33.5276 333.819 33.4945 334.247 33.6328C334.312 33.6551 334.38 33.6694 334.448 33.6754C334.651 33.7072 334.858 33.6642 335.035 33.5535C335.211 33.4429 335.347 33.2713 335.418 33.0676C335.489 32.8639 335.492 32.6404 335.427 32.4346C335.361 32.2289 335.23 32.0533 335.056 31.9374C335.001 31.8939 334.941 31.8574 334.878 31.8285Z" fill="#4D8AF0"/>
<path opacity="0.5" d="M363.606 264.848C363.195 264.658 362.865 264.315 362.678 263.885C362.491 263.454 362.459 262.966 362.59 262.513C362.611 262.444 362.625 262.372 362.63 262.3C362.66 262.085 362.62 261.866 362.515 261.679C362.411 261.492 362.249 261.348 362.056 261.273C361.864 261.197 361.653 261.194 361.458 261.264C361.264 261.334 361.098 261.472 360.989 261.656C360.948 261.714 360.913 261.778 360.886 261.845C360.707 262.279 360.383 262.629 359.976 262.827C359.57 263.025 359.109 263.058 358.68 262.92C358.615 262.898 358.548 262.883 358.479 262.877C358.276 262.846 358.069 262.889 357.892 262.999C357.716 263.11 357.58 263.282 357.509 263.485C357.438 263.689 357.435 263.912 357.501 264.118C357.566 264.324 357.697 264.5 357.871 264.615C357.926 264.659 357.986 264.696 358.05 264.724C358.46 264.914 358.79 265.257 358.977 265.687C359.164 266.118 359.196 266.606 359.065 267.059C359.044 267.128 359.03 267.2 359.025 267.272C358.995 267.487 359.035 267.706 359.14 267.893C359.244 268.08 359.407 268.224 359.599 268.299C359.791 268.375 360.002 268.378 360.197 268.308C360.391 268.238 360.557 268.1 360.667 267.916C360.708 267.858 360.742 267.794 360.769 267.727C360.949 267.292 361.272 266.943 361.679 266.745C362.085 266.547 362.547 266.514 362.975 266.652C363.04 266.674 363.108 266.688 363.176 266.694C363.379 266.726 363.586 266.683 363.763 266.573C363.939 266.462 364.075 266.29 364.146 266.087C364.217 265.883 364.22 265.659 364.155 265.454C364.089 265.248 363.958 265.072 363.784 264.956C363.729 264.913 363.669 264.876 363.606 264.848Z" fill="#4D8AF0"/>
<path opacity="0.5" d="M2.97924 125.23C4.62465 125.23 5.95851 123.818 5.95851 122.076C5.95851 120.334 4.62465 118.922 2.97924 118.922C1.33383 118.922 -3.29018e-05 120.334 -3.29018e-05 122.076C-3.29018e-05 123.818 1.33383 125.23 2.97924 125.23Z" fill="#F55F44"/>
<path opacity="0.5" d="M335.428 72.3375C337.073 72.3375 338.407 70.9254 338.407 69.1836C338.407 67.4417 337.073 66.0296 335.428 66.0296C333.782 66.0296 332.448 67.4417 332.448 69.1836C332.448 70.9254 333.782 72.3375 335.428 72.3375Z" fill="#F55F44"/>
<path opacity="0.5" d="M199.924 191.066C201.777 191.066 203.279 189.476 203.279 187.514C203.279 185.552 201.777 183.962 199.924 183.962C198.072 183.962 196.569 185.552 196.569 187.514C196.569 189.476 198.072 191.066 199.924 191.066Z" fill="#F55F44"/>
<path opacity="0.5" d="M199.924 191.066C201.777 191.066 203.279 189.476 203.279 187.514C203.279 185.552 201.777 183.962 199.924 183.962C198.072 183.962 196.569 185.552 196.569 187.514C196.569 189.476 198.072 191.066 199.924 191.066Z" fill="#F55F44"/>
<path opacity="0.5" d="M372.432 167.17C374.077 167.17 375.411 165.757 375.411 164.016C375.411 162.274 374.077 160.862 372.432 160.862C370.786 160.862 369.452 162.274 369.452 164.016C369.452 165.757 370.786 167.17 372.432 167.17Z" fill="#F55F44"/>
<path opacity="0.5" d="M131.594 25.9373C133.446 25.9373 134.949 24.3471 134.949 22.3856C134.949 20.424 133.446 18.8338 131.594 18.8338C129.741 18.8338 128.238 20.424 128.238 22.3856C128.238 24.3471 129.741 25.9373 131.594 25.9373Z" fill="#47E6B1"/>
<path opacity="0.5" d="M322.75 297.434C324.396 297.434 325.729 296.022 325.729 294.28C325.729 292.538 324.396 291.126 322.75 291.126C321.105 291.126 319.771 292.538 319.771 294.28C319.771 296.022 321.105 297.434 322.75 297.434Z" fill="#F55F44"/>
<path d="M137.199 180.685C135.436 186.742 138.093 193.902 143.251 197.089C145.416 198.425 147.908 199.097 150.006 200.547C154.564 203.691 156.363 209.71 157.843 215.251C159.543 221.62 161.248 228.354 159.691 234.762C158.698 238.849 156.439 242.462 155.155 246.459C154.081 249.807 153.707 253.362 154.059 256.877C154.247 258.743 154.685 260.666 155.893 262.058C157.638 264.047 160.447 264.346 162.97 264.824C168.304 265.892 173.323 268.283 177.615 271.801C181.907 275.319 185.351 279.865 187.663 285.064" stroke="url(#paint0_linear)" stroke-width="2.39112" stroke-miterlimit="10"/>
<path d="M137.74 180.685C135.977 186.742 138.635 193.902 143.792 197.089C145.958 198.425 148.449 199.097 150.547 200.547C155.106 203.691 156.904 209.71 158.385 215.251C160.084 221.62 161.789 228.354 160.232 234.762C159.239 238.849 156.98 242.462 155.696 246.459C154.622 249.807 154.248 253.362 154.6 256.877C154.788 258.743 155.226 260.666 156.434 262.058C158.179 264.047 160.988 264.346 163.511 264.824C168.845 265.892 173.864 268.283 178.156 271.801C182.449 275.319 185.892 279.865 188.204 285.064" stroke="#535461" stroke-width="2.39112" stroke-miterlimit="10"/>
<path d="M204.456 135.412C200.108 141.829 195.594 148.729 195.223 156.618C194.655 168.737 203.812 178.649 207.9 189.986C209.673 194.98 210.475 200.301 210.259 205.631C210.043 210.961 208.813 216.19 206.643 221.005C204.648 225.371 201.803 229.709 202.17 234.544C202.38 237.494 203.776 240.18 204.899 242.893C207.655 249.694 208.857 257.086 208.409 264.471C207.96 271.856 205.873 279.025 202.318 285.396" stroke="url(#paint1_linear)" stroke-width="2.39112" stroke-miterlimit="10"/>
<path d="M204.993 135.412C200.649 141.853 196.135 148.734 195.755 156.618C195.187 168.737 204.344 178.649 208.433 189.986C210.205 194.98 211.007 200.301 210.791 205.631C210.575 210.961 209.345 216.19 207.176 221.005C205.181 225.371 202.336 229.709 202.702 234.544C202.913 237.494 204.308 240.18 205.431 242.893C208.187 249.694 209.389 257.086 208.941 264.471C208.492 271.856 206.406 279.025 202.85 285.396" stroke="#535461" stroke-width="2.39112" stroke-miterlimit="10"/>
<path d="M265.464 193.13L267.566 211.273C267.844 213.683 268.081 216.312 266.86 218.376C265.701 220.323 263.527 221.251 261.836 222.691C256.285 227.426 256.79 236.476 258.705 243.741C260.619 251.005 263.375 258.81 260.713 265.799C259.613 268.683 257.671 271.113 256.24 273.822C253.784 278.451 252.811 283.797 253.466 289.061" stroke="url(#paint2_linear)" stroke-width="2.39112" stroke-miterlimit="10"/>
<path d="M265.987 193.13L268.09 211.273C268.367 213.683 268.604 216.312 267.383 218.376C266.224 220.323 264.05 221.251 262.359 222.691C256.808 227.426 257.313 236.476 259.228 243.741C261.143 251.005 263.898 258.81 261.237 265.799C260.136 268.683 258.195 271.113 256.763 273.822C254.307 278.451 253.334 283.797 253.99 289.061" stroke="#535461" stroke-width="2.39112" stroke-miterlimit="10"/>
<g opacity="0.7">
<path opacity="0.7" d="M319.981 118.563C319.977 110.075 318.077 101.709 314.435 94.1476C310.792 86.5865 305.512 80.0449 299.025 75.0574C292.538 70.07 285.028 66.7783 277.109 65.4512C269.19 64.1242 261.087 64.7995 253.462 67.422C253.882 64.4001 254.098 61.3506 254.111 58.2963C254.131 44.3569 249.036 30.9541 239.901 20.9148C230.766 10.8756 218.305 4.98466 205.146 4.48465C191.987 3.98463 179.159 8.91458 169.368 18.2347C159.576 27.5548 153.587 40.5364 152.663 54.4414C145.036 51.8133 136.93 51.1339 129.007 52.4585C121.084 53.7832 113.57 57.0744 107.079 62.063C100.589 67.0516 95.3056 73.5959 91.6622 81.1606C88.0188 88.7253 86.1186 97.0956 86.1171 105.587C86.1171 132.58 104.905 170.939 129.352 177.735L133.159 180.036L131.092 187.533H143.332L140.674 180.027L144.463 177.735C163.368 172.483 178.868 148.374 184.939 125.249C188.262 127.591 191.921 129.35 195.773 130.459L199.58 132.76L197.545 140.238H209.784L207.127 132.732L210.916 130.44C213.724 129.64 216.428 128.477 218.968 126.978C222.238 152.92 239.635 184.592 261.648 190.706L265.455 193.007L263.388 200.504H275.627L272.961 192.998L276.75 190.706C301.215 183.91 319.981 145.537 319.981 118.563Z" fill="url(#paint3_linear)"/>
</g>
<path d="M145.278 184.758H133.432L135.508 177.238H142.611L145.278 184.758Z" fill="#F55F44"/>
<path d="M188.204 105.464C188.204 134.2 166.2 176.295 139.06 176.295C111.92 176.295 89.915 134.195 89.915 105.464C89.915 91.6647 95.0929 78.431 104.31 68.6738C113.527 58.9166 126.027 53.435 139.062 53.435C152.096 53.435 164.597 58.9166 173.814 68.6738C183.031 78.431 188.209 91.6647 188.209 105.464H188.204Z" fill="#F55F44"/>
<path d="M142.611 177.55H135.508L131.361 175.045H146.758L142.611 177.55Z" fill="#535461"/>
<path opacity="0.1" d="M121.296 65.0303C121.296 65.0303 100.571 76.9406 97.6092 100.761L121.296 65.0303Z" fill="white"/>
<path d="M209.547 139.021H197.701L199.777 131.5H206.881L209.547 139.021Z" fill="#4D8AF0"/>
<path d="M252.473 59.7264C252.473 88.4625 230.469 130.558 203.329 130.558C176.189 130.558 154.184 88.4578 154.184 59.7264C154.184 45.9276 159.362 32.6939 168.579 22.9367C177.796 13.1794 190.296 7.69788 203.331 7.69788C216.365 7.69788 228.866 13.1794 238.083 22.9367C247.3 32.6939 252.478 45.9276 252.478 59.7264H252.473Z" fill="#6C63FF"/>
<path d="M206.881 131.813H199.777L195.63 129.303H211.027L206.881 131.813Z" fill="#535461"/>
<path opacity="0.1" d="M185.565 19.2932C185.565 19.2932 164.84 31.2034 161.878 55.0239L185.565 19.2932Z" fill="white"/>
<path d="M273.275 197.34H261.429L263.505 189.815H270.608L273.275 197.34Z" fill="#3AD29F"/>
<path d="M316.201 118.042C316.201 146.778 294.197 188.873 267.057 188.873C239.916 188.873 217.907 146.778 217.907 118.042C217.907 104.243 223.085 91.0091 232.302 81.2518C241.519 71.4946 254.02 66.013 267.054 66.013C280.089 66.013 292.59 71.4946 301.806 81.2518C311.023 91.0091 316.201 104.243 316.201 118.042Z" fill="#3AD29F"/>
<path d="M270.608 190.128H263.505L259.358 187.623H274.755L270.608 190.128Z" fill="#535461"/>
<path opacity="0.1" d="M249.293 77.6083C249.293 77.6083 228.568 89.5185 225.606 113.339L249.293 77.6083Z" fill="white"/>
<g opacity="0.5">
<path opacity="0.5" d="M231.01 206.206C228.16 203.18 224.005 201.977 219.308 202.815C214.915 203.601 210.517 206.13 206.93 209.919C205.89 211.025 205.017 212.293 204.34 213.679C203.68 212.246 202.814 210.931 201.772 209.781C198.247 205.922 193.89 203.322 189.492 202.469C184.813 201.522 180.64 202.673 177.736 205.647C174.833 208.621 173.643 213.001 174.368 217.983C175.048 222.643 177.365 227.336 180.895 231.186C188.312 239.289 203.114 236.126 203.74 235.984L203.924 235.941L204.492 236.078C205.118 236.23 219.867 239.663 227.413 231.698C230.992 227.909 233.394 223.264 234.155 218.613C234.982 213.636 233.859 209.237 231.01 206.206ZM201.253 231.305C197.674 231.816 188.759 232.508 184.335 227.673C181.49 224.561 179.629 220.848 179.096 217.207C178.613 213.892 179.311 211.05 181.074 209.26C181.761 208.561 182.584 208.028 183.485 207.697C185.15 207.128 186.927 207.033 188.638 207.423C192.056 208.1 195.509 210.184 198.354 213.295C202.778 218.097 201.848 227.531 201.253 231.3V231.305ZM229.484 217.756C228.894 221.384 226.975 225.068 224.076 228.122C219.571 232.858 210.656 232.02 207.1 231.437C206.567 227.649 205.789 218.23 210.294 213.475C213.192 210.421 216.677 208.398 220.104 207.792C221.821 207.434 223.597 207.561 225.253 208.162C226.149 208.509 226.964 209.059 227.641 209.772C229.368 211.604 230.021 214.436 229.484 217.751V217.756Z" fill="url(#paint4_linear)"/>
</g>
<path d="M205.194 234.951L203.785 235.264C203.186 235.396 189.023 238.422 181.924 230.67C178.551 226.986 176.332 222.496 175.661 218.035C174.963 213.267 176.108 209.075 178.882 206.229C181.655 203.383 185.65 202.303 190.128 203.189C194.319 204.018 198.488 206.504 201.861 210.193C208.956 217.945 205.655 232.839 205.512 233.469L205.194 234.951ZM184.379 208.199C183.517 208.516 182.73 209.027 182.071 209.696C180.389 211.424 179.718 214.124 180.179 217.301C180.689 220.782 182.469 224.339 185.194 227.317C189.43 231.944 197.961 231.281 201.383 230.793C201.951 227.189 202.846 218.182 198.609 213.555C195.885 210.581 192.584 208.583 189.309 207.939C187.673 207.565 185.972 207.655 184.379 208.199Z" fill="#6C63FF"/>
<path d="M203.101 235.018L202.787 233.531C202.653 232.896 199.593 217.945 206.813 210.326C210.249 206.703 214.454 204.292 218.659 203.54C223.132 202.734 227.127 203.885 229.842 206.783C232.558 209.682 233.645 213.887 232.871 218.623C232.146 223.069 229.856 227.516 226.42 231.139C219.2 238.759 205.087 235.472 204.501 235.33L203.101 235.018ZM224.349 208.626C222.767 208.052 221.07 207.929 219.428 208.27C216.145 208.858 212.812 210.795 210.034 213.716C205.722 218.267 206.456 227.284 206.979 230.902C210.392 231.452 218.914 232.271 223.222 227.725C225.995 224.798 227.829 221.275 228.398 217.78C228.912 214.612 228.286 211.898 226.631 210.141C225.982 209.468 225.204 208.952 224.349 208.626Z" fill="#6C63FF"/>
<g opacity="0.5">
<path opacity="0.5" d="M272.174 231.035H134.837V260.126H141.972V344.322H265.039V260.126H272.174V231.035Z" fill="url(#paint5_linear)"/>
</g>
<path d="M263.482 239.829H143.528V342.892H263.482V239.829Z" fill="#444053"/>
<path d="M214.803 258.232H192.203V342.887H214.803V258.232Z" fill="#6C63FF"/>
<path opacity="0.1" d="M263.482 234.307H143.528V260.074H263.482V234.307Z" fill="black"/>
<path d="M270.438 232.465H136.577V258.232H270.438V232.465Z" fill="#535461"/>
<path d="M214.803 232.465H192.203V258.232H214.803V232.465Z" fill="#6C63FF"/>
</g>
<defs>
<linearGradient id="paint0_linear" x1="136.206" y1="232.886" x2="188.065" y2="232.886" gradientUnits="userSpaceOnUse">
<stop stop-color="#808080" stop-opacity="0.25"/>
<stop offset="0.54" stop-color="#808080" stop-opacity="0.12"/>
<stop offset="1" stop-color="#808080" stop-opacity="0.1"/>
</linearGradient>
<linearGradient id="paint1_linear" x1="9490.17" y1="79734.8" x2="10029.8" y2="79734.8" gradientUnits="userSpaceOnUse">
<stop stop-color="#808080" stop-opacity="0.25"/>
<stop offset="0.54" stop-color="#808080" stop-opacity="0.12"/>
<stop offset="1" stop-color="#808080" stop-opacity="0.1"/>
</linearGradient>
<linearGradient id="paint2_linear" x1="11079.3" y1="57325.6" x2="11580.9" y2="57325.6" gradientUnits="userSpaceOnUse">
<stop stop-color="#808080" stop-opacity="0.25"/>
<stop offset="0.54" stop-color="#808080" stop-opacity="0.12"/>
<stop offset="1" stop-color="#808080" stop-opacity="0.1"/>
</linearGradient>
<linearGradient id="paint3_linear" x1="148431" y1="99962.6" x2="148431" y2="18829.6" gradientUnits="userSpaceOnUse">
<stop stop-color="#808080" stop-opacity="0.25"/>
<stop offset="0.54" stop-color="#808080" stop-opacity="0.12"/>
<stop offset="1" stop-color="#808080" stop-opacity="0.1"/>
</linearGradient>
<linearGradient id="paint4_linear" x1="38566" y1="20620.2" x2="38566" y2="18063.6" gradientUnits="userSpaceOnUse">
<stop stop-color="#808080" stop-opacity="0.25"/>
<stop offset="0.54" stop-color="#808080" stop-opacity="0.12"/>
<stop offset="1" stop-color="#808080" stop-opacity="0.1"/>
</linearGradient>
<linearGradient id="paint5_linear" x1="62612.3" y1="82599.7" x2="62612.3" y2="55499.2" gradientUnits="userSpaceOnUse">
<stop stop-color="#808080" stop-opacity="0.25"/>
<stop offset="0.54" stop-color="#808080" stop-opacity="0.12"/>
<stop offset="1" stop-color="#808080" stop-opacity="0.1"/>
</linearGradient>
<clipPath id="clip0">
<rect width="375.406" height="344.322" fill="white"/>
</clipPath>
</defs>
</svg>
