<svg width="410" height="263" viewBox="0 0 410 263" fill="none" xmlns="http://www.w3.org/2000/svg">
<g clip-path="url(#clip0)">
<path d="M409.433 0.232056H0.174683V262.339H409.433V0.232056Z" fill="#E2E2E2"/>
<path d="M397.73 28.7776H11.8773V251.088H397.73V28.7776Z" fill="white"/>
<path d="M409.258 0H0V17.3868H409.258V0Z" fill="#6C63FF"/>
<path d="M12.9204 12.3792C14.8479 12.3792 16.4105 10.8166 16.4105 8.88909C16.4105 6.96156 14.8479 5.39899 12.9204 5.39899C10.9929 5.39899 9.4303 6.96156 9.4303 8.88909C9.4303 10.8166 10.9929 12.3792 12.9204 12.3792Z" fill="white"/>
<path d="M25.1523 12.3792C27.0799 12.3792 28.6424 10.8166 28.6424 8.88909C28.6424 6.96156 27.0799 5.39899 25.1523 5.39899C23.2248 5.39899 21.6622 6.96156 21.6622 8.88909C21.6622 10.8166 23.2248 12.3792 25.1523 12.3792Z" fill="white"/>
<path d="M37.3841 12.3792C39.3117 12.3792 40.8742 10.8166 40.8742 8.88909C40.8742 6.96156 39.3117 5.39899 37.3841 5.39899C35.4566 5.39899 33.894 6.96156 33.894 8.88909C33.894 10.8166 35.4566 12.3792 37.3841 12.3792Z" fill="white"/>
<path d="M246.619 79.3586H163.502V151.953H246.619V79.3586Z" fill="#E2E2E2"/>
<path d="M192.21 84.6934L194.762 94.8989L193.668 109.843L203.509 117.497L206.789 91.983L204.967 85.7869L192.21 84.6934Z" fill="#FFB8B8"/>
<path d="M201.322 107.656L203.144 97.8148L206.789 90.8895L215.901 127.703L195.126 130.619L189.659 101.096L194.321 93.1362L197.677 99.2728L201.322 107.656Z" fill="white"/>
<path d="M224.765 151.952H190.201L190.388 149.207L198.403 144.106H209.339L224.649 150.667L224.765 151.952Z" fill="#2F2E41"/>
<path d="M199.135 90.1607C203.966 90.1607 207.883 86.2443 207.883 81.4131C207.883 76.5819 203.966 72.6654 199.135 72.6654C194.304 72.6654 190.387 76.5819 190.387 81.4131C190.387 86.2443 194.304 90.1607 199.135 90.1607Z" fill="#FFB8B8"/>
<path d="M232.304 123.694L223.922 116.767L224.759 134.886L224.841 136.625L224.946 138.923L225.178 143.937L225.551 151.953H207.303L206.058 148.114L205.564 151.953H188.875C188.759 149.94 188.695 147.514 188.8 145.066C188.864 142.819 189.151 140.584 189.655 138.394C189.968 136.904 190.59 135.497 191.481 134.264L188.201 122.601L186.741 129.889L176.538 130.617C176.538 130.617 176.544 130.43 176.561 130.081V130.076C176.707 126.487 177.783 106.174 183.099 102.19L193.924 91.5507C193.924 91.5507 193.93 92.3243 194.035 93.6273V93.6331C194.116 94.7383 194.268 96.2216 194.541 97.9376V97.955C195.152 101.823 196.362 106.855 198.77 111.299C199.66 112.939 200.381 114.335 200.969 115.522C203.511 120.67 203.511 121.874 203.511 121.874L204.563 109.327L204.569 109.28L204.575 109.234L205.977 92.4349L206.186 89.9278V89.922C206.186 89.922 222.828 92.7141 227.93 100.369C232.031 106.512 239.656 116.429 242.495 120.088C242.53 120.129 242.559 120.17 242.594 120.21L243.019 120.763C243.1 120.868 243.176 120.961 243.24 121.048C243.309 121.135 243.368 121.205 243.414 121.269L243.6 121.507L232.304 123.694Z" fill="#6C63FF"/>
<path d="M204.238 128.432C204.842 128.432 205.331 127.942 205.331 127.338C205.331 126.734 204.842 126.245 204.238 126.245C203.634 126.245 203.145 126.734 203.145 127.338C203.145 127.942 203.634 128.432 204.238 128.432Z" fill="#2F2E41"/>
<path d="M205.696 138.273C206.3 138.273 206.789 137.783 206.789 137.179C206.789 136.575 206.3 136.086 205.696 136.086C205.092 136.086 204.602 136.575 204.602 137.179C204.602 137.783 205.092 138.273 205.696 138.273Z" fill="#2F2E41"/>
<path d="M227.93 141.189L224.649 144.469L222.462 138.637L224.839 136.628L227.93 141.189Z" fill="#FFB8B8"/>
<path d="M186.378 142.647L189.659 145.927L190.388 138.637L188.201 137.908L186.378 142.647Z" fill="#FFB8B8"/>
<path d="M188.93 74.6811C188.93 74.6811 186.378 71.4444 188.93 69.8261V70.6352C188.93 70.6352 194.397 64.5666 197.677 66.1849L200.593 65.3757V66.1849L202.416 65.3757L202.051 66.5895H204.602L203.509 67.3986C203.509 67.3986 211.892 66.994 206.789 73.0627C206.789 73.0627 209.215 76.7013 206.909 78.7255C206.909 78.7255 204.967 74.2765 202.416 75.4902C201.724 75.849 200.945 76.0016 200.169 75.9299C199.394 75.8582 198.655 75.5651 198.042 75.0856C198.042 75.0856 192.939 74.6811 193.668 77.1085C194.397 79.536 194.032 80.3452 194.032 80.3452C194.032 80.3452 192.21 81.5589 192.574 82.368C192.939 83.1772 192.939 85.6047 192.939 85.6047C192.939 85.6047 191.117 82.7726 190.388 83.1772C189.659 83.5818 185.649 79.536 188.93 74.6811Z" fill="#2F2E41"/>
<path d="M177.995 129.161L176.537 130.095V130.983C176.62 132.546 177.124 134.057 177.995 135.357C179.453 137.544 187.472 144.834 187.472 144.834L189.659 137.179L186.743 129.89L184.92 127.703L177.995 129.161Z" fill="#6C63FF"/>
<path d="M238.5 119.684L242.499 120.09L243.602 121.506C243.602 121.506 244.331 124.787 242.873 126.609C241.415 128.432 228.658 143.376 228.658 143.376L223.191 136.815L232.668 125.151L232.303 123.693L238.5 119.684Z" fill="#6C63FF"/>
<path d="M372.494 78.6456H288.562V151.952H372.494V78.6456Z" fill="#E2E2E2"/>
<path d="M340.418 94.5807L321.465 94.945L318.913 77.4498H340.418V94.5807Z" fill="#2F2E41"/>
<path d="M349.712 97.3143C349.712 97.3143 356.273 97.3143 357.002 104.24C357.731 111.165 355.18 129.024 355.18 129.024L352.993 151.987H347.854L348.255 134.492L349.712 109.342L345.339 104.604L349.712 97.3143Z" fill="#A0616A"/>
<path d="M322.74 97.3143C322.74 97.3143 316.544 95.8563 310.712 104.239C310.712 104.239 295.769 115.174 300.507 119.183C305.245 123.193 318.002 125.744 318.002 125.744C318.002 125.744 313.264 135.585 316.18 135.95C319.096 136.314 323.469 125.38 322.376 123.557C321.283 121.735 317.273 120.641 317.273 120.641L307.797 115.903C307.797 115.903 319.956 105.458 320.619 109.951L324.198 108.249L322.74 97.3143Z" fill="#A0616A"/>
<path d="M336.226 84.9218C336.996 87.5363 338.347 89.9432 340.177 91.9628C342.007 93.9824 344.27 95.5626 346.797 96.5853L337.32 104.604L326.021 97.3143C326.021 97.3143 330.03 94.7629 328.937 89.2956L336.226 84.9218Z" fill="#A0616A"/>
<path d="M328.937 90.7535C333.768 90.7535 337.684 86.837 337.684 82.0058C337.684 77.1746 333.768 73.2582 328.937 73.2582C324.106 73.2582 320.189 77.1746 320.189 82.0058C320.189 86.837 324.106 90.7535 328.937 90.7535Z" fill="#A0616A"/>
<path d="M321.283 96.5853L327.935 95.2812C327.935 95.2812 330.03 100.23 336.955 99.5012C343.881 98.7722 345.101 95.7809 345.101 95.7809L351.535 97.3142C351.535 97.3142 347.89 101.324 349.712 109.342C349.712 109.342 350.441 122.464 346.432 127.202L346.068 134.492C346.068 134.492 350.806 146.884 348.254 151.987H312.535C312.535 151.987 313.993 133.763 320.554 129.024L322.012 125.744C322.012 125.744 319.096 112.987 320.554 110.8C320.554 110.8 321.647 96.9498 321.283 96.5853Z" fill="#6C63FF"/>
<path d="M345.568 90.2255C343.582 89.135 342.658 86.6875 342.592 84.4231C342.526 82.1586 343.075 79.9175 343.118 77.6525C343.14 77.1891 343.101 76.7248 343.001 76.2718C342.836 75.7096 342.58 75.1784 342.241 74.6999C339.659 70.7432 335.17 67.9599 330.442 67.9161C329.759 67.9071 329.081 68.0318 328.446 68.2831C327.957 68.4789 327.797 68.4549 327.704 69.0551C326.584 68.6856 325.369 68.7243 324.275 69.1642C323.191 69.6048 322.18 70.2069 321.276 70.95C320.739 71.3494 320.232 71.7881 319.76 72.2626C317.261 74.8511 316.686 78.8404 317.41 82.3646C317.645 83.5103 316.516 84.6164 315.582 85.3201C314.648 86.0238 313.569 86.67 313.11 87.7459C312.669 88.7809 312.911 89.9646 312.822 91.0862C312.722 92.1465 312.328 93.1578 311.684 94.0059C311.04 94.8541 310.172 95.5054 309.177 95.8862C309.38 96.1291 309.645 96.3128 309.944 96.4178C310.242 96.5228 310.564 96.5453 310.874 96.4828C311.521 96.3464 312.127 96.0579 312.642 95.6413C314.575 94.2083 315.959 92.1553 316.561 89.8251C316.836 91.0732 316.729 92.3605 316.719 93.6384C316.743 95.0645 316.481 96.4809 315.947 97.8035C315.404 99.1325 314.41 100.227 313.139 100.895C314.365 101.496 315.715 101.061 316.754 100.175C317.749 99.2304 318.468 98.0322 318.834 96.7094C319.531 94.598 319.813 92.3719 319.666 90.1534C320.806 92.0726 321.223 94.3361 320.841 96.5354C320.442 98.7778 319.271 100.81 317.532 102.28C320.565 102.254 323.548 101.503 326.232 100.089C326.925 99.7746 327.536 99.3041 328.017 98.7143C328.88 97.5163 328.676 95.8823 328.434 94.4254C328.242 93.2735 329.682 91.6082 328.857 90.781C328.644 90.5658 328.362 90.4316 328.061 90.4014C325.077 89.9754 322.393 88.2617 321.1 85.5386C320.542 84.4191 320.235 83.1905 320.204 81.9397C320.204 80.6254 320.5 79.3282 321.071 78.1443C321.642 76.9604 322.472 75.9202 323.499 75.1011C324.527 74.282 325.726 73.705 327.008 73.413C328.289 73.1209 329.62 73.1213 330.901 73.4142C332.182 73.7071 333.381 74.2848 334.408 75.1046C335.435 75.9243 336.265 76.965 336.835 78.1493C337.404 79.3335 337.7 80.631 337.7 81.9452C337.699 83.2595 337.403 84.5567 336.832 85.7406C336.737 87.5039 336.444 89.2509 335.96 90.9491C335.337 93.1208 334.28 95.3368 332.325 96.4696C333.008 96.7624 333.743 96.9179 334.487 96.9273C336.94 97.1977 339.52 97.138 341.74 96.0605C343.961 94.983 345.726 92.6885 345.568 90.2255Z" fill="#2F2E41"/>
<path d="M339.325 80.0012C332.767 77.373 326.303 76.8124 320.007 80.0012V74.7038C320.007 74.2507 320.096 73.802 320.269 73.3834C320.443 72.9648 320.697 72.5845 321.017 72.2641C321.338 71.9437 321.718 71.6896 322.137 71.5162C322.555 71.3428 323.004 71.2535 323.457 71.2535H336.599C337.322 71.2535 338.015 71.5407 338.526 72.0519C339.037 72.5631 339.325 73.2564 339.325 73.9793V80.0012Z" fill="#2F2E41"/>
<path d="M337.684 83.2816C338.439 83.2816 339.051 82.3025 339.051 81.0947C339.051 79.8869 338.439 78.9078 337.684 78.9078C336.929 78.9078 336.318 79.8869 336.318 81.0947C336.318 82.3025 336.929 83.2816 337.684 83.2816Z" fill="#A0616A"/>
<path d="M126.465 79.1376H43.0919V151.953H126.465V79.1376Z" fill="#E2E2E2"/>
<path d="M90.7557 96.6815L72.8961 96.3171V71.5323L90.7557 73.3546V96.6815Z" fill="#2F2E41"/>
<path d="M107.112 151.953H68.5172C68.7676 150.55 69.1977 149.185 69.7969 147.892C70.8905 145.886 72.2575 141.511 73.351 137.637C73.985 135.392 74.526 133.315 74.8692 131.972C75.1193 130.989 75.2648 130.395 75.2648 130.395L94.216 122.74C94.216 122.74 94.7512 123.712 95.6121 125.346C95.6234 125.371 95.6371 125.394 95.6528 125.416C96.2635 126.574 97.0314 128.063 97.8806 129.767H97.8865C100.993 135.956 105.233 145.042 107.112 151.953Z" fill="#2F2E41"/>
<path d="M76.541 86.1117L73.9896 98.8687L82.7373 99.5977C82.7373 99.5977 84.1952 88.2986 84.5597 87.9341C84.9242 87.5696 76.541 86.1117 76.541 86.1117Z" fill="#FFB8B8"/>
<path d="M82.1905 90.3033C87.0217 90.3033 90.9382 86.3868 90.9382 81.5556C90.9382 76.7244 87.0217 72.808 82.1905 72.808C77.3593 72.808 73.4429 76.7244 73.4429 81.5556C73.4429 86.3868 77.3593 90.3033 82.1905 90.3033Z" fill="#FFB8B8"/>
<path d="M73.9895 95.2238C73.9895 95.2238 82.3727 97.0462 82.7371 96.6817C83.1016 96.3172 92.9427 98.1397 93.6717 101.42C94.4007 104.7 92.5782 117.457 92.5782 117.457C92.5782 117.457 96.5876 119.28 96.2231 120.009C95.8586 120.738 98.41 121.467 97.681 122.56C96.952 123.654 83.8306 142.607 77.6343 142.242C71.4381 141.878 60.139 100.691 60.139 100.691C60.139 100.691 60.5035 95.5883 65.2418 95.5883C69.9801 95.5883 73.9895 95.2238 73.9895 95.2238Z" fill="#6C63FF"/>
<path d="M97.8634 124.565C97.8634 124.565 92.7542 125.721 93.6687 128.059C94.5831 130.397 100.05 129.668 100.05 129.668L97.8634 124.565Z" fill="#FFB8B8"/>
<path d="M81.9192 151.953H68.5172C68.4765 152.162 68.43 152.377 68.3834 152.593C67.7386 152.326 67.0733 152.112 66.3941 151.953C66.2428 151.918 66.1556 151.9 66.1556 151.9C66.1556 151.9 63.2355 140.965 59.2277 127.481C55.6736 115.516 59.2859 103.26 60.1468 100.648V100.642C60.2573 100.317 60.3213 100.142 60.3213 100.142L63.602 97.5944L74.8692 131.972L77.8183 140.965C77.8183 140.965 77.9114 141.465 78.0684 142.239C78.5454 144.542 79.639 149.259 80.7325 150.08C81.2775 150.596 81.6853 151.239 81.9192 151.953Z" fill="#6C63FF"/>
<path d="M88.7512 100.144L93.2998 100.617L103.695 113.63C103.695 113.63 107.704 117.275 105.153 118.733C102.602 120.191 101.508 123.107 101.508 123.107C101.508 123.107 104.789 130.397 100.05 131.49C100.05 131.49 96.7699 124.2 95.6765 123.471C94.583 122.742 97.1344 119.827 97.1344 119.827L88.7512 114.359L88.7512 100.144Z" fill="#6C63FF"/>
<path d="M82.1905 67.3407C82.1905 67.3407 71.9849 65.5183 70.1625 74.6304C69.7256 76.7461 69.437 78.8897 69.2988 81.0456C69.012 86.3259 67.5646 91.478 65.0597 96.1351L81.4615 100.873C81.4615 100.873 77.0877 93.9482 77.8167 91.0323C77.9518 90.3009 77.9417 89.5501 77.7868 88.8226C76.0864 87.7747 74.7959 86.1763 74.1299 84.2932C73.464 82.4101 73.4627 80.3557 74.1264 78.4718C74.79 76.5879 76.0785 74.9879 77.7777 73.9379C79.4768 72.8879 81.4842 72.4511 83.466 72.7003C85.4478 72.9495 87.2846 73.8695 88.6709 75.3075C90.0572 76.7454 90.9096 78.6146 91.0862 80.6042C91.2628 82.5937 90.753 84.5838 89.6416 86.2435C88.5302 87.9031 86.8842 89.1323 84.9773 89.7267C83.7576 92.3806 83.0941 95.2511 84.7419 97.2285C86.8242 99.7733 89.2823 101.986 92.0316 103.789C92.0316 103.789 90.2092 95.0416 93.1251 89.9388C96.041 84.836 93.1251 68.0697 82.1905 67.3407Z" fill="#2F2E41"/>
<path d="M91.2544 79.03L74.1531 80.0331L73.6826 72.0207L88.5664 71.4857L91.2544 79.03Z" fill="#2F2E41"/>
<path d="M46.5171 181.991C48.1233 181.991 49.4255 180.689 49.4255 179.082C49.4255 177.476 48.1233 176.174 46.5171 176.174C44.9108 176.174 43.6086 177.476 43.6086 179.082C43.6086 180.689 44.9108 181.991 46.5171 181.991Z" fill="#E2E2E2"/>
<path d="M46.5171 198.278C48.1233 198.278 49.4255 196.976 49.4255 195.37C49.4255 193.763 48.1233 192.461 46.5171 192.461C44.9108 192.461 43.6086 193.763 43.6086 195.37C43.6086 196.976 44.9108 198.278 46.5171 198.278Z" fill="#E2E2E2"/>
<path d="M46.5171 214.565C48.1233 214.565 49.4255 213.263 49.4255 211.657C49.4255 210.05 48.1233 208.748 46.5171 208.748C44.9108 208.748 43.6086 210.05 43.6086 211.657C43.6086 213.263 44.9108 214.565 46.5171 214.565Z" fill="#E2E2E2"/>
<path d="M113.992 176.756H58.7324V181.409H113.992V176.756Z" fill="#E2E2E2"/>
<path d="M113.992 193.043H58.7324V197.696H113.992V193.043Z" fill="#E2E2E2"/>
<path d="M113.992 209.33H58.7324V213.983H113.992V209.33Z" fill="#E2E2E2"/>
<path d="M172.777 181.991C174.384 181.991 175.686 180.689 175.686 179.082C175.686 177.476 174.384 176.174 172.777 176.174C171.171 176.174 169.869 177.476 169.869 179.082C169.869 180.689 171.171 181.991 172.777 181.991Z" fill="#E2E2E2"/>
<path d="M172.777 198.278C174.384 198.278 175.686 196.976 175.686 195.37C175.686 193.763 174.384 192.461 172.777 192.461C171.171 192.461 169.869 193.763 169.869 195.37C169.869 196.976 171.171 198.278 172.777 198.278Z" fill="#E2E2E2"/>
<path d="M172.777 214.565C174.384 214.565 175.686 213.263 175.686 211.657C175.686 210.05 174.384 208.748 172.777 208.748C171.171 208.748 169.869 210.05 169.869 211.657C169.869 213.263 171.171 214.565 172.777 214.565Z" fill="#E2E2E2"/>
<path d="M240.252 176.756H184.993V181.409H240.252V176.756Z" fill="#E2E2E2"/>
<path d="M240.252 193.043H184.993V197.696H240.252V193.043Z" fill="#E2E2E2"/>
<path d="M240.252 209.33H184.993V213.983H240.252V209.33Z" fill="#E2E2E2"/>
<path d="M298.244 181.991C299.851 181.991 301.153 180.689 301.153 179.082C301.153 177.476 299.851 176.174 298.244 176.174C296.638 176.174 295.336 177.476 295.336 179.082C295.336 180.689 296.638 181.991 298.244 181.991Z" fill="#E2E2E2"/>
<path d="M298.244 198.278C299.851 198.278 301.153 196.976 301.153 195.37C301.153 193.763 299.851 192.461 298.244 192.461C296.638 192.461 295.336 193.763 295.336 195.37C295.336 196.976 296.638 198.278 298.244 198.278Z" fill="#E2E2E2"/>
<path d="M298.244 214.565C299.851 214.565 301.153 213.263 301.153 211.657C301.153 210.05 299.851 208.748 298.244 208.748C296.638 208.748 295.336 210.05 295.336 211.657C295.336 213.263 296.638 214.565 298.244 214.565Z" fill="#E2E2E2"/>
<path d="M365.72 176.756H310.46V181.409H365.72V176.756Z" fill="#E2E2E2"/>
<path d="M365.72 193.043H310.46V197.696H365.72V193.043Z" fill="#E2E2E2"/>
<path d="M365.72 209.33H310.46V213.983H365.72V209.33Z" fill="#E2E2E2"/>
</g>
<defs>
<clipPath id="clip0">
<rect width="409.433" height="262.339" fill="white"/>
</clipPath>
</defs>
</svg>
