<svg width="72" height="72" viewBox="0 0 72 72" fill="none" xmlns="http://www.w3.org/2000/svg">
<path d="M63 34.5001C63.0103 38.4597 62.0852 42.3657 60.3 45.9001C58.1833 50.1353 54.9292 53.6976 50.9023 56.1879C46.8754 58.6782 42.2347 59.9982 37.5 60.0001C33.5404 60.0104 29.6343 59.0853 26.1 57.3001L9 63.0001L14.7 45.9001C12.9148 42.3657 11.9897 38.4597 12 34.5001C12.0018 29.7653 13.3218 25.1246 15.8122 21.0977C18.3025 17.0708 21.8648 13.8168 26.1 11.7001C29.6343 9.91488 33.5404 8.98976 37.5 9.00009H39C45.253 9.34506 51.1591 11.9844 55.5874 16.4127C60.0157 20.8409 62.655 26.747 63 33.0001V34.5001Z" stroke="#DFE6F5" stroke-width="1.5" stroke-linecap="round" stroke-linejoin="round"/>
</svg>
