<svg width="72" height="72" viewBox="0 0 72 72" fill="none" xmlns="http://www.w3.org/2000/svg">
<path d="M63.63 47.6702C61.7215 52.1837 58.7363 56.1609 54.9356 59.2541C51.1349 62.3474 46.6343 64.4625 41.8273 65.4146C37.0203 66.3666 32.0533 66.1267 27.3604 64.7156C22.6676 63.3046 18.3919 60.7655 14.907 57.3202C11.4222 53.875 8.83443 49.6285 7.36989 44.9521C5.90536 40.2757 5.60867 35.3117 6.50578 30.4941C7.40289 25.6766 9.46648 21.1521 12.5161 17.3163C15.5658 13.4805 19.5086 10.4502 24 8.49023" stroke="#DFE6F5" stroke-width="1.5" stroke-linecap="round" stroke-linejoin="round"/>
<path d="M66 36C66 32.0603 65.224 28.1593 63.7164 24.5195C62.2087 20.8797 59.999 17.5726 57.2132 14.7868C54.4274 12.001 51.1203 9.79126 47.4805 8.28361C43.8407 6.77597 39.9397 6 36 6V36H66Z" stroke="#DFE6F5" stroke-width="1.5" stroke-linecap="round" stroke-linejoin="round"/>
</svg>
