<svg width="72" height="72" viewBox="0 0 72 72" fill="none" xmlns="http://www.w3.org/2000/svg">
<path d="M51 63V57C51 53.8174 49.7357 50.7652 47.4853 48.5147C45.2348 46.2643 42.1826 45 39 45H15C11.8174 45 8.76516 46.2643 6.51472 48.5147C4.26428 50.7652 3 53.8174 3 57V63" stroke="#DFE6F5" stroke-width="1.5" stroke-linecap="round" stroke-linejoin="round"/>
<path d="M27 33C33.6274 33 39 27.6274 39 21C39 14.3726 33.6274 9 27 9C20.3726 9 15 14.3726 15 21C15 27.6274 20.3726 33 27 33Z" stroke="#DFE6F5" stroke-width="1.5" stroke-linecap="round" stroke-linejoin="round"/>
<path d="M69 62.9996V56.9996C68.998 54.3408 68.1131 51.758 66.4841 49.6566C64.8551 47.5552 62.5744 46.0544 60 45.3896" stroke="#DFE6F5" stroke-width="1.5" stroke-linecap="round" stroke-linejoin="round"/>
<path d="M48 9.38965C50.5812 10.0506 52.8691 11.5518 54.5029 13.6566C56.1367 15.7614 57.0235 18.3501 57.0235 21.0146C57.0235 23.6792 56.1367 26.2679 54.5029 28.3727C52.8691 30.4775 50.5812 31.9787 48 32.6396" stroke="#DFE6F5" stroke-width="1.5" stroke-linecap="round" stroke-linejoin="round"/>
</svg>
