<svg width="720" height="595" viewBox="0 0 720 595" fill="none" xmlns="http://www.w3.org/2000/svg">
<g clip-path="url(#clip0)">
<path opacity="0.1" d="M644.318 591.328C679.116 591.328 707.325 583.716 707.325 574.326C707.325 564.936 679.116 557.324 644.318 557.324C609.521 557.324 581.312 564.936 581.312 574.326C581.312 583.716 609.521 591.328 644.318 591.328Z" fill="#6C63FF"/>
<path opacity="0.1" d="M88.1371 594.16C122.934 594.16 151.143 586.548 151.143 577.158C151.143 567.768 122.934 560.156 88.1371 560.156C53.3397 560.156 25.1308 567.768 25.1308 577.158C25.1308 586.548 53.3397 594.16 88.1371 594.16Z" fill="#6C63FF"/>
<path d="M430.955 161.001C430.955 161.001 422.1 157.075 393.942 171.189C365.784 185.304 362.247 183.503 354.971 181.344C347.696 179.185 343.643 178.676 335.801 166.906C335.801 166.906 330.287 134.264 324.957 129.204C319.626 124.144 296.95 132.084 296.95 132.084C296.95 132.084 269.767 138.897 264.587 99.215C264.587 99.215 268.263 69.3019 263.259 60.1237C263.259 60.1237 273.329 64.8881 290.033 57.2019C306.736 49.5156 320.048 65.4519 320.048 65.4519C320.048 65.4519 324.252 77.3456 323.824 84.4337C323.396 91.5219 326.045 94.1825 334.001 90.7588C334.001 90.7588 337.903 84.6881 332.371 74.6575C326.838 64.6269 322.892 57.1469 324.441 49.3575C325.989 41.5681 330.42 30.795 344.681 25.3637C358.943 19.9325 378.315 18.915 387.617 14.6869C396.919 10.4587 399.166 7.70874 399.166 7.70874C399.166 7.70874 393.432 13.9925 406.932 40.5369C420.432 67.0812 411.822 78.6106 411.822 78.6106C411.822 78.6106 404.648 97.2831 372.99 95.7981C372.99 95.7981 342.485 97.015 359.144 111.15C359.144 111.15 369.799 108.778 385.722 103.251C401.645 97.7231 413.144 120.541 415.995 136.423C418.846 152.304 430.955 161.001 430.955 161.001Z" fill="#6C63FF"/>
<path d="M389.939 27.8594L390.109 27.8112C391.33 32.8781 377.692 53.2488 366.042 69.4256L365.903 69.3088C382.349 46.4769 390.889 31.7575 389.939 27.8594Z" fill="#444053"/>
<path d="M366.149 68.9719L366.218 69.1781C356.91 82.11 345.204 97.5375 335.832 108.964C334.939 110.057 334.051 111.198 333.195 112.367L332.931 112.126C333.787 110.958 334.68 109.809 335.574 108.689C344.939 97.2969 356.847 81.8969 366.149 68.9719Z" fill="#444053"/>
<path d="M333.157 111.824L333.34 112.168C316.284 135.426 315.157 171.54 315.088 171.856L311.488 167.319C311.564 167.003 315.982 135.24 333.157 111.824Z" fill="#444053"/>
<path d="M411.174 148.385C411.174 148.385 391.034 136.966 375.394 141.063C359.755 145.161 324.415 126.584 324.415 126.584C324.415 126.584 309.43 119.929 306.422 112.353C306.422 112.353 296.144 100.487 295.559 94.3406C294.973 88.1944 284.966 72.7531 278.44 72.155" stroke="#444053" stroke-width="1.08326" stroke-miterlimit="10"/>
<path d="M408.267 159.378C408.267 159.378 398.121 151.926 399.317 143.242" stroke="#444053" stroke-width="1.08326" stroke-miterlimit="10"/>
<path d="M392.727 169.01C392.727 169.01 378.252 163.263 376.792 140.747" stroke="#444053" stroke-width="1.08326" stroke-miterlimit="10"/>
<path d="M369.359 174.84C369.359 174.84 355.513 162.293 360.113 140.376" stroke="#444053" stroke-width="1.08326" stroke-miterlimit="10"/>
<path d="M341.276 168.708C341.276 168.708 332.056 147.594 340.257 133.858" stroke="#444053" stroke-width="1.08326" stroke-miterlimit="10"/>
<path d="M411.413 134.47C411.413 134.47 400.934 138.1 403.181 144.095" stroke="#444053" stroke-width="1.08326" stroke-miterlimit="10"/>
<path d="M398.75 113.701C398.75 113.701 384.734 118.561 384.401 140.217" stroke="#444053" stroke-width="1.08326" stroke-miterlimit="10"/>
<path d="M379.24 108.703C379.24 108.703 366.489 125.89 367.427 141.531" stroke="#444053" stroke-width="1.08326" stroke-miterlimit="10"/>
<path d="M356.885 115.447C356.885 115.447 344.215 128.674 345.833 136.038" stroke="#444053" stroke-width="1.08326" stroke-miterlimit="10"/>
<path d="M349.244 110.772C349.244 110.772 337.361 113.102 335.7 108.84" stroke="#444053" stroke-width="1.08326" stroke-miterlimit="10"/>
<path d="M333.806 95.1038C333.806 95.1038 339.81 103.787 341.358 101.841" stroke="#444053" stroke-width="1.08326" stroke-miterlimit="10"/>
<path d="M393.313 89.6106C393.313 89.6106 363.367 91.9687 356.583 82.1237" stroke="#444053" stroke-width="1.08326" stroke-miterlimit="10"/>
<path d="M327.506 51.3444C327.506 51.3444 341.559 84.2962 351.762 88.4694" stroke="#444053" stroke-width="1.08326" stroke-miterlimit="10"/>
<path d="M342.245 35.6487C342.245 35.6487 350.88 65.9606 361.573 75.4206" stroke="#444053" stroke-width="1.08326" stroke-miterlimit="10"/>
<path d="M405.919 64.5994C405.919 64.5994 383.142 75.2763 369.466 64.4756" stroke="#444053" stroke-width="0.812446" stroke-miterlimit="10"/>
<path d="M362.536 29.1862C362.536 29.1862 367.741 51.4681 374.752 56.8512" stroke="#444053" stroke-width="0.812446" stroke-miterlimit="10"/>
<path d="M402.476 39.6432C402.476 39.6432 389.681 44.9369 384.898 40.8807" stroke="#444053" stroke-width="0.812446" stroke-miterlimit="10"/>
<path d="M322.842 102.384C322.842 102.384 322.842 121.806 318.002 123.188" stroke="#444053" stroke-width="1.08326" stroke-miterlimit="10"/>
<path d="M283.273 127.547C283.273 127.547 302.494 129.348 311.362 118.513" stroke="#444053" stroke-width="1.08326" stroke-miterlimit="10"/>
<path d="M317.883 79.4425C317.883 79.4425 313.231 99.1394 300.399 104.447" stroke="#444053" stroke-width="1.08326" stroke-miterlimit="10"/>
<path d="M271.743 106.798C271.743 106.798 285.35 111.968 297.05 98.8094" stroke="#444053" stroke-width="1.08326" stroke-miterlimit="10"/>
<path d="M302.752 62.5094C302.752 62.5094 301.494 79.2363 293.142 87.0669" stroke="#444053" stroke-width="1.08326" stroke-miterlimit="10"/>
<path d="M272.247 81.3056C272.247 81.3056 283.538 81.395 286.181 77.3731" stroke="#444053" stroke-width="1.08326" stroke-miterlimit="10"/>
<path opacity="0.1" d="M372.568 95.4063C327.631 103.594 282.625 99.1875 239.299 93.0825C195.973 86.9775 152.748 79.1813 107.717 80.7075C78.7657 81.6975 46.5608 87.9125 26.528 106.984C7.25664 125.333 4.49999 150.42 4.68251 173.108C4.82097 190.171 6.28741 207.847 16.8671 221.569C24.2119 231.091 35.4398 238.008 43.9301 246.814C73.5105 277.463 65.121 324.942 46.3909 365.147C37.5797 384.012 26.8112 402.526 20.9014 421.866C14.9916 441.205 14.4063 462.036 25.5336 478.048C36.5727 493.923 57.6881 503.066 79.6594 507.968C124.275 517.916 173.794 512.781 221.689 505.638C327.701 489.749 432.529 464.051 537.054 438.4C575.742 428.913 614.599 419.37 651.82 405.4C672.489 397.659 693.516 387.917 706.752 372.51C723.549 352.951 723.701 325.953 707.104 309.576C679.261 282.076 616.972 287.246 595.328 255.951C583.408 238.764 588.26 215.65 597.367 195.334C616.878 151.747 655.112 108.95 649.605 65.1494C645.829 35.0644 619.156 9.87439 583.722 2.91002C546.589 -4.38436 499.129 7.79815 478.126 37.7113C456.501 68.5938 412.244 88.1875 372.568 95.4063Z" fill="#6C63FF"/>
<path d="M638.264 104.103H55.8755C51.5341 104.103 48.0146 107.948 48.0146 112.69V465.618C48.0146 470.361 51.5341 474.205 55.8755 474.205H638.264C642.605 474.205 646.125 470.361 646.125 465.618V112.69C646.125 107.948 642.605 104.103 638.264 104.103Z" fill="url(#paint0_linear)"/>
<path d="M637.382 109.307H56.8258C52.4844 109.307 48.965 113.152 48.965 117.894V464.387C48.965 469.13 52.4844 472.974 56.8258 472.974H637.382C641.724 472.974 645.243 469.13 645.243 464.387V117.894C645.243 113.152 641.724 109.307 637.382 109.307Z" fill="white"/>
<path d="M637.382 109.307H56.8258C52.4844 109.307 48.965 113.152 48.965 117.894V464.387C48.965 469.13 52.4844 472.974 56.8258 472.974H637.382C641.724 472.974 645.243 469.13 645.243 464.387V117.894C645.243 113.152 641.724 109.307 637.382 109.307Z" fill="white"/>
<path opacity="0.04" d="M637.382 109.307H56.8258C52.4844 109.307 48.965 113.152 48.965 117.894V464.387C48.965 469.13 52.4844 472.974 56.8258 472.974H637.382C641.724 472.974 645.243 469.13 645.243 464.387V117.894C645.243 113.152 641.724 109.307 637.382 109.307Z" fill="#5A5773"/>
<path d="M642.216 105.134H51.9671C51.1642 105.134 50.3942 105.483 49.8265 106.103C49.2588 106.723 48.9398 107.564 48.9398 108.441V122.425H645.218V108.469C645.221 108.035 645.146 107.604 644.997 107.201C644.848 106.799 644.628 106.432 644.349 106.122C644.07 105.813 643.739 105.566 643.373 105.397C643.007 105.227 642.613 105.138 642.216 105.134Z" fill="#5A5773"/>
<path d="M60.8727 118.245C63.1321 118.245 64.9637 116.244 64.9637 113.776C64.9637 111.308 63.1321 109.307 60.8727 109.307C58.6134 109.307 56.7818 111.308 56.7818 113.776C56.7818 116.244 58.6134 118.245 60.8727 118.245Z" fill="white"/>
<path d="M71.8867 118.245C74.1461 118.245 75.9776 116.244 75.9776 113.776C75.9776 111.308 74.1461 109.307 71.8867 109.307C69.6274 109.307 67.7958 111.308 67.7958 113.776C67.7958 116.244 69.6274 118.245 71.8867 118.245Z" fill="white"/>
<path d="M82.9007 118.245C85.16 118.245 86.9916 116.244 86.9916 113.776C86.9916 111.308 85.16 109.307 82.9007 109.307C80.6413 109.307 78.8098 111.308 78.8098 113.776C78.8098 116.244 80.6413 118.245 82.9007 118.245Z" fill="white"/>
<path d="M579.669 202.931H95.293C91.751 202.931 88.8797 206.068 88.8797 209.937V465.962C88.8797 469.831 91.751 472.968 95.293 472.968H579.669C583.211 472.968 586.082 469.831 586.082 465.962V209.937C586.082 206.068 583.211 202.931 579.669 202.931Z" fill="white"/>
<path opacity="0.2" d="M208.385 140.774H70.2252C68.8835 140.774 67.7958 141.962 67.7958 143.428V154.517C67.7958 155.983 68.8835 157.171 70.2252 157.171H208.385C209.726 157.171 210.814 155.983 210.814 154.517V143.428C210.814 141.962 209.726 140.774 208.385 140.774Z" fill="#5A5773"/>
<path opacity="0.2" d="M478.07 234.274H339.91C338.569 234.274 337.481 235.462 337.481 236.928V248.017C337.481 249.483 338.569 250.671 339.91 250.671H478.07C479.412 250.671 480.499 249.483 480.499 248.017V236.928C480.499 235.462 479.412 234.274 478.07 234.274Z" fill="#6C63FF"/>
<path opacity="0.2" d="M558.371 280.186H339.91C338.569 280.186 337.481 281.374 337.481 282.839V293.929C337.481 295.394 338.569 296.582 339.91 296.582H558.371C559.713 296.582 560.801 295.394 560.801 293.929V282.839C560.801 281.374 559.713 280.186 558.371 280.186Z" fill="#6C63FF"/>
<path opacity="0.2" d="M558.371 306.998H339.91C338.569 306.998 337.481 308.186 337.481 309.652V320.741C337.481 322.207 338.569 323.395 339.91 323.395H558.371C559.713 323.395 560.801 322.207 560.801 320.741V309.652C560.801 308.186 559.713 306.998 558.371 306.998Z" fill="#6C63FF"/>
<path opacity="0.2" d="M558.371 333.811H339.91C338.569 333.811 337.481 334.999 337.481 336.464V347.554C337.481 349.019 338.569 350.207 339.91 350.207H558.371C559.713 350.207 560.801 349.019 560.801 347.554V336.464C560.801 334.999 559.713 333.811 558.371 333.811Z" fill="#6C63FF"/>
<path opacity="0.2" d="M558.371 360.623H339.91C338.569 360.623 337.481 361.811 337.481 363.277V374.366C337.481 375.832 338.569 377.02 339.91 377.02H558.371C559.713 377.02 560.801 375.832 560.801 374.366V363.277C560.801 361.811 559.713 360.623 558.371 360.623Z" fill="#6C63FF"/>
<path opacity="0.2" d="M558.371 390.186H118.265C116.923 390.186 115.836 391.374 115.836 392.839V403.929C115.836 405.394 116.923 406.583 118.265 406.583H558.371C559.713 406.583 560.801 405.394 560.801 403.929V392.839C560.801 391.374 559.713 390.186 558.371 390.186Z" fill="#6C63FF"/>
<path opacity="0.2" d="M558.371 416.998H118.265C116.923 416.998 115.836 418.186 115.836 419.652V430.741C115.836 432.207 116.923 433.395 118.265 433.395H558.371C559.713 433.395 560.801 432.207 560.801 430.741V419.652C560.801 418.186 559.713 416.998 558.371 416.998Z" fill="#6C63FF"/>
<path opacity="0.2" d="M558.371 443.811H118.265C116.923 443.811 115.836 444.999 115.836 446.464V457.554C115.836 459.019 116.923 460.207 118.265 460.207H558.371C559.713 460.207 560.801 459.019 560.801 457.554V446.464C560.801 444.999 559.713 443.811 558.371 443.811Z" fill="#6C63FF"/>
<path d="M459 454.652C459 454.652 462.732 459.981 457.275 468.031C451.819 476.082 447.325 482.874 449.144 487.893C449.144 487.893 457.37 472.947 464.073 472.768C470.775 472.589 466.37 463.638 459 454.652Z" fill="#6C63FF"/>
<path opacity="0.1" d="M459 454.652C459.325 455.167 459.581 455.73 459.762 456.323C466.301 464.711 469.781 472.541 463.5 472.734C457.647 472.919 450.623 484.352 448.943 487.233C448.995 487.467 449.063 487.697 449.144 487.921C449.144 487.921 457.37 472.974 464.073 472.796C470.776 472.617 466.37 463.638 459 454.652Z" fill="black"/>
<path d="M465.936 461.445C465.936 463.322 465.747 464.841 465.508 464.841C465.269 464.841 465.08 463.322 465.08 461.445C465.08 459.568 465.319 460.455 465.558 460.455C465.797 460.455 465.936 459.568 465.936 461.445Z" fill="#FFD037"/>
<path d="M468.321 463.686C466.81 464.58 465.495 465.123 465.382 464.896C465.269 464.669 466.401 463.755 467.899 462.834C469.397 461.913 468.812 462.586 468.925 462.834C469.038 463.081 469.825 462.786 468.321 463.686Z" fill="#FFD037"/>
<path d="M439.288 454.652C439.288 454.652 435.556 459.981 441.006 468.031C446.457 476.082 450.963 482.874 449.144 487.893C449.144 487.893 440.912 472.947 434.215 472.768C427.519 472.589 431.918 463.638 439.288 454.652Z" fill="#6C63FF"/>
<path opacity="0.1" d="M439.288 454.652C438.959 455.166 438.701 455.728 438.52 456.323C431.987 464.711 428.507 472.541 434.788 472.734C440.641 472.919 447.659 484.352 449.339 487.233C449.289 487.467 449.223 487.697 449.144 487.921C449.144 487.921 440.912 472.974 434.215 472.796C427.519 472.617 431.918 463.638 439.288 454.652Z" fill="black"/>
<path d="M432.346 461.445C432.346 463.322 432.541 464.841 432.78 464.841C433.02 464.841 433.208 463.322 433.208 461.445C433.208 459.568 432.969 460.469 432.736 460.469C432.504 460.469 432.346 459.568 432.346 461.445Z" fill="#FFD037"/>
<path d="M429.967 463.686C431.478 464.58 432.793 465.123 432.906 464.896C433.02 464.669 431.887 463.755 430.389 462.834C428.891 461.913 429.476 462.586 429.363 462.834C429.25 463.081 428.457 462.786 429.967 463.686Z" fill="#FFD037"/>
<path opacity="0.1" d="M449.144 528.669C470.695 528.669 488.165 525.742 488.165 522.131C488.165 518.52 470.695 515.593 449.144 515.593C427.593 515.593 410.123 518.52 410.123 522.131C410.123 525.742 427.593 528.669 449.144 528.669Z" fill="#6C63FF"/>
<path d="M469.24 480.709L469.051 482.373L468.793 484.724L468.68 485.707L468.422 488.058L468.308 489.041L468.044 491.386L465.061 518.129C464.79 520.515 461.222 522.378 456.879 522.378H441.384C437.073 522.378 433.51 520.515 433.246 518.129L430.25 491.406L429.992 489.062L429.879 488.079L429.615 485.728L429.508 484.744L429.243 482.393L429.055 480.729C428.91 479.354 430.842 478.241 433.278 478.241H465.01C467.446 478.22 469.378 479.354 469.24 480.709Z" fill="#65617D"/>
<path d="M469.039 482.373L468.781 484.724H429.508L429.243 482.373H469.039Z" fill="#9D9CB5"/>
<path d="M468.667 485.7L468.409 488.051H429.879L429.615 485.7H468.667Z" fill="#9D9CB5"/>
<path d="M468.296 489.034L468.031 491.386H430.25L429.992 489.034H468.296Z" fill="#9D9CB5"/>
<path opacity="0.2" d="M300.556 225.179H121.185C118.231 225.179 115.836 227.795 115.836 231.023V371.644C115.836 374.871 118.231 377.488 121.185 377.488H300.556C303.51 377.488 305.906 374.871 305.906 371.644V231.023C305.906 227.795 303.51 225.179 300.556 225.179Z" fill="#6C63FF"/>
<path d="M708.073 394.572C708.313 393.884 706.538 389.952 706.538 389.759C706.538 389.567 704.706 387.388 704.706 386.171C704.706 384.954 702.283 382.321 702.283 382.321C702.283 382.321 699.029 380.849 698.677 377.639C698.325 374.428 694.781 374.373 694.775 374.373C694.775 374.373 694.775 374.084 694.775 373.638C694.847 372.37 694.699 371.099 694.341 369.891C693.923 369.004 693.201 368.335 692.333 368.028C692.333 368.028 691.974 365.525 691.269 364.755C690.876 364.306 690.594 363.754 690.448 363.153C690.303 362.552 690.3 361.921 690.438 361.318C690.797 360.108 689.966 357.028 688.255 356.574C686.543 356.12 684.585 355.419 684.585 355.419L684.113 355.508L683.881 355.419C683.465 355.506 683.044 355.563 682.622 355.591C682.26 355.602 681.906 355.476 681.621 355.233C681.029 354.546 676.24 353.171 675.327 353.171C674.415 353.171 671.897 351.885 671.897 351.885C671.897 351.885 670.122 350.414 669.38 349.768C668.637 349.121 667.347 346.777 667.152 346.419V346.371C666.935 345.825 666.756 345.262 666.617 344.687C667.482 343.698 668.221 342.586 668.813 341.38C668.876 341.256 668.933 341.133 668.99 341.002C669.12 341.002 669.249 340.981 669.373 340.94L669.531 340.871C669.829 340.702 670.093 340.471 670.309 340.19C670.525 339.909 670.688 339.585 670.79 339.235C670.834 339.095 670.872 338.953 670.903 338.809C670.903 338.761 670.903 338.713 670.903 338.664L670.959 338.376C670.956 338.321 670.956 338.266 670.959 338.211L670.997 337.922V337.757C670.997 337.633 670.997 337.516 671.041 337.393C671.079 336.931 671.14 336.472 671.224 336.018C671.576 334.278 672.539 332.807 673.213 331.205C673.307 330.978 673.401 330.744 673.483 330.518C673.565 330.291 673.647 330.002 673.716 329.741L673.773 329.5C673.817 329.308 673.855 329.115 673.892 328.923C673.93 328.73 673.892 328.751 673.936 328.661C673.974 328.4 674.006 328.132 674.031 327.857C674.143 326.323 673.927 324.781 673.401 323.354C672.961 322.151 672.3 321.064 671.853 319.861C671.174 318.039 670.991 315.97 670.166 314.231C669.494 312.819 668.384 311.715 667.035 311.116C665.686 310.516 664.186 310.46 662.803 310.958C661.544 311.481 660.399 312.491 659.096 312.945C657.346 313.557 655.483 313.096 653.671 312.828C651.858 312.56 649.894 312.526 648.409 313.818C646.735 315.303 646.282 318.094 644.708 319.724C644.079 320.411 643.229 320.844 642.531 321.477C642.04 321.907 641.662 322.471 641.436 323.113L641.398 323.244C641.382 323.3 641.369 323.357 641.36 323.416C641.346 323.479 641.336 323.543 641.329 323.608C641.325 323.652 641.325 323.695 641.329 323.739C641.316 323.853 641.316 323.968 641.329 324.083C641.337 324.191 641.352 324.299 641.373 324.406V324.495C641.373 324.584 641.417 324.674 641.448 324.763C641.48 324.853 641.448 324.798 641.448 324.811C641.448 324.825 641.518 325.011 641.555 325.107L641.612 325.251C641.612 325.293 641.612 325.334 641.662 325.368C641.887 325.846 642.071 326.345 642.21 326.86C642.283 327.186 642.263 327.529 642.153 327.843C642.004 328.2 641.79 328.521 641.524 328.785C640.346 330.121 639.437 331.711 638.855 333.453C638.784 333.655 638.721 333.854 638.666 334.051H638.748C638.917 334.104 639.09 334.143 639.264 334.168C639.363 334.175 639.462 334.175 639.56 334.168C639.965 334.194 640.371 334.162 640.769 334.072L641.071 333.989C641.482 333.872 641.882 333.713 642.266 333.515C642.266 333.646 642.266 333.776 642.266 333.907C642.266 334.038 642.266 334.051 642.266 334.127C642.27 336.964 642.999 339.744 644.37 342.153C645.74 344.563 647.7 346.507 650.027 347.767C650.027 347.904 650.058 348.042 650.077 348.179L650.115 348.53L649.957 348.365C649.957 348.365 648.894 347.788 647.887 349.451C647.148 350.543 646.146 351.388 644.992 351.892C644.992 351.892 634.229 353.748 633.814 355.288L628.779 355.611C628.779 355.611 627.004 355.866 626.828 359.908C626.652 363.951 625.708 364.329 625.708 364.329C625.708 364.329 623.637 368.309 623.82 370.358C623.842 370.983 623.704 371.603 623.422 372.147C623.139 372.691 622.723 373.138 622.221 373.438L621.988 377.096C621.988 377.096 620.037 376.773 619.471 379.275C619.245 380.6 618.741 381.85 617.998 382.926C617.998 382.926 614.744 385.882 614.568 388.378L612.554 389.753C612.554 389.753 607.884 388.598 606.82 386.549C606.82 386.549 606.694 386.411 606.493 386.212V386.164C605.794 385.476 604.315 383.936 604.542 384.287C604.681 384.609 604.714 384.973 604.636 385.318L604.29 384.899L603.359 383.771C603.359 383.771 595.806 376.044 591.401 375.432C591.344 375.308 591.055 374.057 590.299 374.848C589.674 375.475 589.174 376.237 588.831 377.085C588.487 377.933 588.308 378.849 588.304 379.777C588.3 380.704 588.471 381.622 588.807 382.474C589.142 383.326 589.636 384.093 590.255 384.727L597.329 391.939L597.512 392.083L599.029 394.214C598.771 394.902 598.557 395.534 598.399 396.126V396.188L598.286 396.559C598.273 396.599 598.262 396.64 598.255 396.683C598.217 396.806 598.185 396.923 598.154 397.04L598.097 397.246C598.097 397.288 598.097 397.329 598.097 397.37C597.927 398.016 597.82 398.511 597.77 398.786L597.373 398.649L597.757 398.834V398.896C597.757 398.986 597.757 399.034 597.757 399.034L598.122 399.206C600.193 400.189 610.527 405.146 611.056 405.895C611.585 406.644 615.55 409.168 619.099 407.112C622.649 405.056 623.411 401.921 623.411 401.921C623.411 401.921 626.841 396.724 626.96 395.954C627.08 395.184 629.736 394.29 629.736 394.29C629.736 394.29 629.975 402.877 628.615 406.026C627.256 409.174 624.713 423.083 624.713 423.083C624.88 423.057 625.05 423.057 625.217 423.083L625.066 423.887C625.274 423.844 625.487 423.844 625.695 423.887C625.506 425.468 624.436 432.824 624.436 432.824C624.436 432.824 624.084 436.159 623.492 437.314C622.901 438.469 622.863 444.498 622.863 444.498L621.913 448.857C621.913 448.857 622.038 449.159 622.271 449.606C622.908 451.09 623.837 452.402 624.99 453.449C624.914 454.135 624.753 454.805 624.512 455.443C624.145 456.418 623.983 457.471 624.04 458.523C624.04 458.523 623.039 463.459 623.152 464.869C623.266 466.278 622.523 469.743 622.523 469.743L621.459 480.901C621.459 480.901 620.755 490.581 621.107 493.214C621.276 495.279 621.196 497.36 620.868 499.402C620.868 499.402 621.579 507.033 621.403 507.865C621.227 508.697 620.339 512.293 620.868 514.279C621.397 516.266 621.107 521.718 621.107 521.718C621.107 521.718 621.459 528.903 621.875 531.213C622.097 532.961 622.056 534.738 621.755 536.472C621.755 536.472 621.34 541.408 621.164 541.408C620.987 541.408 619.452 544.804 622.58 548.139C625.708 551.473 623.769 550.958 623.769 550.958C623.769 550.958 621.252 549.583 621.579 552.374C621.856 554.993 622.246 554.313 622.284 554.237L621.692 556.348L622.108 556.409L621.768 556.856C621.411 557.356 621.011 557.817 620.572 558.231C620.112 558.723 619.838 559.385 619.804 560.088C619.804 560.088 615.43 565.285 611.352 567.911C609.206 569.286 607.355 570.462 606.55 571.438C605.82 572.304 605.92 573.006 607.45 573.556C610.641 574.711 616.261 575.288 620.276 573.81C622.682 572.941 624.847 571.42 626.57 569.389C626.57 569.389 629.087 567.973 631.605 568.489C634.122 569.004 639.057 565.478 639.057 565.478L638.962 564.57L638.704 561.944C638.538 561.724 638.415 561.469 638.343 561.194C638.272 560.919 638.253 560.632 638.289 560.349C638.32 559.572 638.25 558.794 638.081 558.039C638.037 557.784 637.993 557.53 637.949 557.296L638.402 557.2C638.402 557.2 637.817 553.934 638.88 553.288C639.944 552.642 639.642 544.248 639.642 544.248C639.642 544.248 638.289 542.323 637.578 542.006C636.866 541.69 637.515 537.703 637.641 537.194C637.766 536.685 638.704 526.737 638.704 526.737C638.704 526.737 638.345 523.602 638.817 522.254C639.29 520.907 638.226 515.709 638.226 515.709C638.128 515.471 638.103 515.205 638.157 514.95C638.21 514.696 638.338 514.468 638.522 514.3C639.151 513.53 638.937 506.669 638.937 506.669C638.937 506.669 638.88 503.231 638.88 502.303C638.88 501.375 639.585 498.137 640.24 497.051C640.894 495.964 640.473 492.561 640.473 492.561L640.511 492.307C640.511 492.211 640.51 492.087 640.561 491.943L640.611 491.599C640.9 489.72 641.286 487.861 641.769 486.03C642.537 483.342 643.425 478.598 643.425 478.598L648.919 462.937L648.982 462.751C648.982 462.751 651.499 467.88 651.499 472.631C651.499 472.631 652.129 478.337 651.978 479.877C651.827 481.417 652.387 488.656 652.387 488.656C652.387 488.656 653.155 499.044 653.155 499.491C653.155 499.938 654.105 507.954 654.697 509.178C655.288 510.402 654.105 514.114 653.746 514.499C653.387 514.884 653.866 524.31 653.866 524.31C653.866 524.31 652.978 531.749 652.802 533.289C652.626 534.829 651.915 540.728 652.506 543.038C653.098 545.348 652.859 545.664 652.859 545.664C652.859 545.664 654.992 548.043 653.746 548.235C653.294 548.343 652.868 548.555 652.497 548.858C652.126 549.16 651.818 549.545 651.594 549.987C651.37 550.43 651.235 550.919 651.198 551.423C651.161 551.927 651.223 552.434 651.38 552.91C652.121 555.257 652.991 557.553 653.985 559.785L654.967 559.558V560.321L655.036 564.144C655.036 564.144 655.452 567.794 655.213 568.633C655.043 569.238 654.804 572.112 654.69 573.618C654.646 574.168 654.621 574.532 654.621 574.532C654.621 574.532 654.621 577.928 661.185 576.904C667.75 575.879 668.927 573.054 668.927 573.054L668.977 572.703C669.071 572.057 669.285 570.682 669.462 569.912C669.694 568.888 667.573 564.268 667.573 564.268C667.573 564.268 667.221 561.126 666.629 560.424C666.381 560.009 666.218 559.54 666.151 559.049C666.101 558.788 666.05 558.52 666.013 558.259C666.161 558.278 666.308 558.305 666.453 558.341C666.453 558.341 666.094 556.1 667.46 555.392C668.826 554.684 668.461 553.213 668.285 552.573C668.108 551.934 668.813 548.338 668.813 548.338C668.713 547.98 668.704 547.599 668.787 547.235C668.871 546.872 669.043 546.54 669.285 546.276C670.116 545.375 670.764 539.091 670.764 539.091L670.884 514.85C670.884 514.85 671.299 510.553 670.827 508.821C670.355 507.088 669.883 503.754 670.531 502.853C671.18 501.953 670.588 497.793 670.588 497.793C670.588 497.793 670.588 489.007 671.476 486.793C672.363 484.579 672.067 470.823 672.067 470.823L672.3 461.782C672.3 461.782 674.232 459.788 673.779 449.407C675.837 449.263 678.185 449.18 678.512 449.496C679.141 450.074 683.358 453.023 685.844 451.16C686.87 450.39 687.856 449.557 688.796 448.664L687.751 429.414C688.38 430.487 688.796 431.195 688.796 431.195C688.796 428.507 695.776 419.783 695.776 419.783C695.776 419.783 702.277 410.611 703.693 409.525C705.109 408.439 707.891 402.65 707.891 402.65C708.302 401.55 708.777 400.48 709.313 399.446C709.968 398.353 707.841 395.273 708.073 394.572ZM692.824 401.303C691.049 401.495 687.323 405.923 687.267 406.885C687.137 407.52 686.867 408.11 686.48 408.604C686.48 408.219 686.423 407.827 686.392 407.428C685.976 401.756 685.523 394.854 685.762 394.187C686.115 393.032 685.995 387.834 685.995 387.834L686.064 387.731C687.254 391.76 690.955 396.504 690.955 396.504C690.955 396.504 691.584 398.566 692.377 398.614C693.17 398.663 692.824 401.303 692.824 401.303Z" fill="url(#paint1_linear)"/>
<path d="M598.041 399.838C598.041 399.838 600.199 387.463 607.129 387.463L612.201 398.855L608.822 401.399C608.822 401.399 601.477 401.619 598.041 399.838Z" fill="#65617D"/>
<path opacity="0.1" d="M612.201 398.821L608.822 401.365C608.822 401.365 603.655 401.543 599.96 400.553C599.301 400.394 598.658 400.164 598.041 399.866L598.078 399.666V399.625C598.394 398.074 598.832 396.556 599.387 395.088C599.601 394.531 599.841 393.96 600.105 393.389C601.118 391.258 602.547 389.161 604.51 388.13C605.23 387.733 606.016 387.499 606.82 387.443H607.129L607.242 387.697L608.954 391.547L612.201 398.821Z" fill="black"/>
<path d="M669.764 450.115C669.764 450.115 677.045 449.352 677.687 449.929C678.329 450.507 682.464 453.429 684.906 451.579C687.348 449.73 685.724 443.329 685.724 443.054C685.724 442.779 685.491 433.698 685.491 433.698L681.124 427.269L675.648 416.008L664.458 414.798L664.747 432.673L664.691 441.838L669.764 450.115Z" fill="#65617D"/>
<path opacity="0.1" d="M669.764 450.115C669.764 450.115 677.045 449.352 677.687 449.929C678.329 450.507 682.464 453.429 684.906 451.579C687.348 449.73 685.724 443.329 685.724 443.054C685.724 442.779 685.491 433.698 685.491 433.698L681.124 427.269L675.648 416.008L664.458 414.798L664.747 432.673L664.691 441.838L669.764 450.115Z" fill="black"/>
<path d="M605.675 387.113C605.675 387.113 605.089 394.874 600.64 395.005C600.64 395.005 599.381 394.18 597.694 392.798C593.805 389.615 587.625 383.503 589.336 377.818C591.785 369.671 603.667 384.693 603.667 384.693L604.586 385.813L605.675 387.113Z" fill="#FBBEBE"/>
<path opacity="0.1" d="M605.675 387.113C605.675 387.113 605.089 394.874 600.64 395.005C600.64 395.005 599.381 394.18 597.694 392.798L597.317 392.269C598.071 392.689 598.9 392.924 599.746 392.956C600.411 392.985 601.068 392.792 601.63 392.402C602.192 392.013 602.633 391.446 602.893 390.777C603.37 389.777 603.79 388.746 604.152 387.69C604.36 387.074 604.509 386.435 604.599 385.786L605.675 387.113Z" fill="black"/>
<path d="M603.749 401.179L602.755 399.804L599.4 395.088L597.694 392.674C598.446 393.095 599.273 393.33 600.118 393.362C600.783 393.393 601.441 393.201 602.004 392.812C602.567 392.422 603.006 391.853 603.264 391.183C603.732 390.185 604.142 389.156 604.492 388.103C605.045 386.384 605.033 385.504 604.838 385.201C604.643 384.899 606.096 386.356 606.764 387.071L607.085 387.401L607.204 387.663L608.96 391.375C608.964 391.428 608.964 391.481 608.96 391.533C609.086 392.702 609.652 400.12 603.749 401.179Z" fill="#E7EFFD"/>
<path d="M638.654 564.969C638.654 564.969 633.757 568.475 631.309 567.959C629.614 567.726 627.893 568.037 626.356 568.853C624.673 570.866 622.548 572.378 620.182 573.246C616.217 574.711 610.685 574.133 607.538 572.992C606.053 572.449 605.933 571.748 606.65 570.888C607.368 570.029 609.269 568.764 611.383 567.389C615.405 564.776 619.716 559.627 619.716 559.627C619.743 558.928 620.013 558.267 620.471 557.778C620.904 557.363 621.299 556.902 621.648 556.403C622.278 555.598 622.863 554.753 622.863 554.753L637.282 555.344C637.282 555.344 637.527 556.478 637.722 557.64C637.886 558.389 637.954 559.16 637.924 559.929C637.888 560.211 637.906 560.497 637.977 560.77C638.047 561.043 638.168 561.298 638.333 561.518L638.591 564.116L638.654 564.969Z" fill="#65617D"/>
<path d="M668.75 569.382C668.58 570.146 668.366 571.507 668.272 572.132C668.272 572.346 668.228 572.483 668.228 572.483C668.228 572.483 667.064 575.281 660.594 576.299C654.124 577.316 654.13 573.947 654.13 573.947L654.193 573.033C654.306 571.548 654.539 568.695 654.709 568.09C654.942 567.265 654.539 563.635 654.539 563.635L654.47 559.84L654.42 557.207L665.119 555.997C665.188 556.872 665.303 557.742 665.465 558.602C665.527 559.093 665.689 559.563 665.937 559.977C666.516 560.665 666.869 563.793 666.869 563.793C666.869 563.793 669.002 568.365 668.75 569.382Z" fill="#65617D"/>
<path opacity="0.1" d="M637.282 555.344C637.282 555.344 637.527 556.478 637.722 557.64C636.168 557.949 629.371 559.235 627.653 558.328C625.727 557.31 621.592 556.739 621.592 556.739L621.661 556.478C622.29 555.674 622.876 554.828 622.876 554.828L637.282 555.344Z" fill="black"/>
<path opacity="0.1" d="M665.503 558.623C662.79 558.121 656.83 559.311 654.489 559.861L654.438 557.227L665.138 556.017C665.213 556.893 665.335 557.763 665.503 558.623Z" fill="black"/>
<path d="M671.564 462.146L671.337 471.084C671.337 471.084 671.627 484.765 670.752 486.896C669.877 489.028 669.877 497.779 669.877 497.779C669.877 497.779 670.462 501.904 669.82 502.805C669.178 503.706 669.644 507.006 670.11 508.724C670.576 510.443 670.166 514.706 670.166 514.706L670.053 538.768C670.053 538.768 669.424 545.004 668.593 545.898C668.354 546.165 668.185 546.497 668.103 546.86C668.021 547.222 668.03 547.602 668.127 547.96C668.127 547.96 667.429 551.521 667.605 552.161C667.781 552.8 668.127 554.258 666.793 554.959C665.459 555.66 665.799 557.888 665.799 557.888C662.595 557.056 653.507 559.263 653.507 559.263C652.526 557.05 651.668 554.775 650.939 552.449C650.782 551.978 650.719 551.475 650.755 550.975C650.79 550.474 650.922 549.988 651.143 549.548C651.364 549.108 651.669 548.725 652.036 548.424C652.404 548.123 652.826 547.911 653.274 547.802C654.495 547.616 652.399 545.258 652.399 545.258C652.399 545.258 652.632 544.942 652.047 542.646C651.462 540.349 652.166 534.499 652.343 532.973C652.519 531.446 653.387 524.035 653.387 524.035C653.387 524.035 652.922 514.678 653.274 514.3C653.627 513.922 654.785 510.223 654.206 509.02C653.627 507.817 652.689 499.856 652.689 499.395C652.689 498.934 651.934 488.636 651.934 488.636C651.934 488.636 651.235 481.444 651.411 479.918C651.587 478.392 650.939 472.727 650.939 472.727C650.939 468.018 648.422 462.923 648.422 462.923L648.359 463.109L642.946 478.756C642.946 478.756 642.071 483.466 641.316 486.14C640.839 487.948 640.459 489.784 640.177 491.64L640.127 491.984L640.076 492.341L640.038 492.596C640.038 492.596 640.441 495.964 639.799 497.051C639.084 498.694 638.633 500.459 638.465 502.269C638.465 503.163 638.522 506.6 638.522 506.6C638.522 506.6 638.754 513.406 638.113 514.163C637.936 514.328 637.813 514.551 637.761 514.798C637.709 515.046 637.731 515.305 637.823 515.538C637.823 515.538 638.868 520.694 638.402 522.028C637.936 523.361 638.289 526.483 638.289 526.483C638.289 526.483 637.357 536.348 637.238 536.857C637.118 537.366 636.482 541.312 637.181 541.628C637.88 541.944 639.22 543.856 639.22 543.856C639.22 543.856 639.51 552.195 638.465 552.828C637.42 553.46 637.993 556.712 637.993 556.712C637.993 556.712 629.547 558.493 627.627 557.475C625.708 556.458 621.566 555.887 621.566 555.887L622.145 553.824C622.108 553.9 621.724 554.581 621.453 551.975C621.157 549.225 623.606 550.6 623.606 550.6C623.606 550.6 625.531 551.109 622.441 547.802C619.351 544.495 620.868 541.119 621.044 541.119C621.22 541.119 621.623 536.218 621.623 536.218C621.921 534.497 621.961 532.734 621.743 530.999C621.334 528.71 620.987 521.581 620.987 521.581C620.987 521.581 621.277 516.17 620.748 514.197C620.22 512.224 621.101 508.697 621.277 507.831C621.453 506.964 620.748 499.429 620.748 499.429C621.077 497.387 621.157 495.307 620.987 493.242C620.635 490.629 621.333 481.018 621.333 481.018L622.385 469.949C622.385 469.949 623.14 466.512 623.014 465.137C622.888 463.762 623.889 458.839 623.889 458.839C623.832 457.794 623.991 456.749 624.355 455.78C624.94 454.508 625.173 450.28 625.173 450.28L630.768 436.283L633.506 423.908L670.5 423.523C670.5 423.523 670.632 424.595 670.859 426.541C671.085 428.486 671.4 431.353 671.752 434.921C672.073 438.153 672.426 441.954 672.772 446.183C673.899 459.726 671.564 462.146 671.564 462.146Z" fill="#3F3D56"/>
<path d="M668.121 350.709L659.505 360.781C659.505 360.781 648.44 355.969 649.605 354.284C650.052 353.645 649.982 351.624 649.724 349.396C649.315 345.869 648.466 341.834 648.466 341.834C648.466 341.834 667.806 338.396 666.17 341.958C665.649 343.301 665.607 344.809 666.05 346.186C666.517 347.804 667.216 349.331 668.121 350.709Z" fill="#FBBEBE"/>
<path opacity="0.1" d="M666.145 341.923C665.553 343.229 665.27 343.353 665.641 344.756C663.124 347.719 659.895 350.943 655.892 350.943C653.752 350.946 651.64 350.405 649.724 349.362C649.315 345.835 648.466 341.799 648.466 341.799C648.466 341.799 667.781 338.362 666.145 341.923Z" fill="black"/>
<path d="M669.764 335.433C669.764 339.451 668.303 343.304 665.702 346.145C663.101 348.986 659.574 350.582 655.896 350.582C652.217 350.582 648.69 348.986 646.089 346.145C643.488 343.304 642.027 339.451 642.027 335.433C642.027 335.358 642.027 335.289 642.027 335.213C642.041 333.224 642.412 331.258 643.121 329.426C643.83 327.594 644.863 325.932 646.16 324.536C647.456 323.14 648.992 322.036 650.68 321.288C652.367 320.541 654.172 320.163 655.993 320.178C657.814 320.192 659.614 320.598 661.291 321.373C662.968 322.147 664.49 323.275 665.768 324.691C667.046 326.108 668.056 327.786 668.741 329.629C669.425 331.472 669.771 333.444 669.757 335.433H669.764Z" fill="#FBBEBE"/>
<path opacity="0.1" d="M671.772 435.361C669.934 435.361 663.816 435.43 656.981 435.554H656.9L654.64 435.595H654.571C646.464 435.733 638.478 434.007 635.268 434.33C628.452 435.018 637.716 427.455 637.716 427.455C642.796 428.798 648.02 429.374 653.243 429.167L655.207 429.057C661.4 428.672 667.624 428.039 670.878 426.994C671.105 428.947 671.419 431.807 671.772 435.361Z" fill="black"/>
<path d="M671.772 434.976C669.934 434.976 663.816 435.052 656.981 435.169H656.9L654.64 435.21H654.571C646.464 435.354 638.478 433.622 635.268 433.952C628.452 434.639 637.716 427.077 637.716 427.077C642.795 428.424 648.02 429 653.243 428.789L655.207 428.679C661.4 428.301 667.624 427.661 670.878 426.616C671.105 428.562 671.419 431.422 671.772 434.976Z" fill="#5F5D7E"/>
<path opacity="0.1" d="M652.167 354.91L641.467 360.41L633.191 430.288C633.191 430.288 638.088 427.868 640.882 429.394C643.676 430.92 652.299 429.524 652.299 429.524C652.299 429.524 658.592 429.139 659.524 429.909C660.455 430.679 671.413 426.726 671.413 426.726C671.413 426.726 673.395 421.914 671.878 421.123C670.362 420.333 672.344 412.873 672.344 412.873L671.413 362.466L669.525 355.976L664.49 352.662L659.366 357.117L656.918 357.502L652.167 354.91Z" fill="black"/>
<path d="M652.166 354.147L641.467 359.647L633.172 429.531C633.172 429.531 638.069 427.111 640.863 428.638C643.657 430.164 652.28 428.768 652.28 428.768C652.28 428.768 658.573 428.383 659.505 429.146C660.436 429.909 671.394 425.97 671.394 425.97C671.394 425.97 673.376 421.158 671.859 420.367C670.343 419.576 672.325 412.117 672.325 412.117L671.394 361.709L669.506 355.219L664.471 351.906L659.348 356.361L656.899 356.746L652.166 354.147Z" fill="#E7EFFD"/>
<path opacity="0.1" d="M651.99 357.392C651.99 357.392 655.08 361.4 655.024 362.204C654.967 363.009 654.848 365.009 654.848 365.009L652.519 370.159C652.519 370.159 651.26 376.587 651.26 377.928C651.26 379.268 649.221 390.846 649.221 390.846L646.722 408.686L643.632 432.061L646.779 437.981L650.511 434.543L655.464 392.922L656.509 384.713C656.509 384.713 657.617 369.946 657.617 368.419C657.498 366.564 657.288 364.716 656.987 362.885C656.987 362.885 657.749 359.063 660.896 358.176C664.043 357.289 660.657 357.983 660.657 357.983L658.857 356.395L657.283 357.083C657.283 357.083 652.922 355.611 651.99 357.392Z" fill="black"/>
<path d="M651.644 357.007C651.644 357.007 654.728 361.015 654.671 361.819C654.615 362.624 654.495 364.618 654.495 364.618L652.166 369.774C652.166 369.774 650.908 376.202 650.908 377.536C650.908 378.869 648.869 390.454 648.869 390.454L646.427 408.274L643.336 431.649L646.483 437.568L650.209 434.131L655.162 392.509L656.213 384.301C656.213 384.301 657.321 369.533 657.321 368.007C657.202 366.149 656.992 364.299 656.692 362.466C656.692 362.466 657.447 358.65 660.594 357.756C663.741 356.863 660.361 357.571 660.361 357.571L658.555 355.976L656.981 356.663C656.981 356.663 652.576 355.226 651.644 357.007Z" fill="#6C63FF"/>
<path opacity="0.1" d="M649.605 350.324C649.605 350.324 649.139 350.709 649.02 353.253C648.9 355.797 647.27 361.503 647.27 361.503C647.27 361.503 653.331 356.924 656.358 357.433L649.605 350.324Z" fill="black"/>
<path d="M649.605 349.561C649.605 349.561 649.139 349.946 649.02 352.49C648.9 355.034 647.27 360.74 647.27 360.74C647.27 360.74 653.331 356.161 656.358 356.67L649.605 349.561Z" fill="#E7EFFD"/>
<path opacity="0.1" d="M666.151 348.289L656.597 357.454C656.597 357.454 664.634 362.672 665.685 363.944C666.736 365.216 667.781 351.473 667.781 351.473L666.151 348.289Z" fill="black"/>
<path d="M666.497 347.526L656.943 356.691C656.943 356.691 664.987 361.909 666.032 363.181C667.076 364.452 668.127 350.709 668.127 350.709L666.497 347.526Z" fill="#E7EFFD"/>
<path opacity="0.1" d="M649.951 350.324C649.951 350.324 648.906 349.754 647.912 351.411C647.186 352.489 646.198 353.325 645.061 353.824C645.061 353.824 634.456 355.673 634.047 357.199L629.094 357.516C629.094 357.516 627.344 357.77 627.206 361.785C627.067 365.8 626.098 366.171 626.098 366.171C626.098 366.171 624.059 370.117 624.21 372.152C624.232 372.772 624.097 373.385 623.819 373.925C623.542 374.466 623.132 374.911 622.636 375.212L629.918 395.892C629.918 395.892 630.151 404.424 628.811 407.538C627.47 410.653 624.965 424.471 624.965 424.471C624.965 424.471 626.016 424.217 625.953 424.98C625.89 425.743 624.694 434.083 624.694 434.083C624.694 434.083 624.342 437.389 623.763 438.538C623.184 439.686 623.134 445.66 623.134 445.66L622.202 449.991C622.202 449.991 624.411 455.402 627.791 454.639C631.171 453.876 637.282 439.424 637.282 439.424L641.184 423.832L644.217 408.432L645.092 397.996L646.489 374.889L648.529 359.619C648.529 359.619 650.769 351.411 649.951 350.324Z" fill="black"/>
<path d="M649.605 349.561C649.605 349.561 648.554 348.991 647.566 350.648C646.837 351.726 645.847 352.561 644.708 353.061C644.708 353.061 634.104 354.91 633.694 356.436L628.748 356.753C628.748 356.753 626.998 357.007 626.822 361.015C626.645 365.023 625.714 365.408 625.714 365.408C625.714 365.408 623.675 369.354 623.826 371.389C623.85 372.009 623.715 372.623 623.437 373.164C623.159 373.704 622.749 374.149 622.252 374.449L629.559 395.156C629.559 395.156 629.792 403.688 628.452 406.803C627.111 409.917 624.606 423.736 624.606 423.736C624.606 423.736 625.657 423.481 625.601 424.244C625.544 425.008 624.342 433.34 624.342 433.34C624.342 433.34 623.996 436.654 623.411 437.795C622.825 438.936 622.781 444.924 622.781 444.924L621.85 449.256C621.85 449.256 624.065 454.666 627.445 453.896C630.824 453.126 636.942 438.689 636.942 438.689L640.844 423.096L643.871 407.696L644.708 397.219L646.106 374.112L648.145 358.843C648.145 358.843 650.417 350.648 649.605 349.561Z" fill="#65617D"/>
<path opacity="0.1" d="M612.201 398.821L608.822 401.364C608.822 401.364 603.655 401.543 599.96 400.553L598.072 399.639L597.694 399.46L598.085 399.598C599.585 400.182 601.214 400.244 602.748 399.776C607.531 398.016 607.003 389.395 606.814 387.443C606.814 387.243 606.783 387.119 606.776 387.071V387.119C606.843 387.236 606.917 387.349 606.997 387.456L607.21 387.704L608.96 391.375C608.964 391.428 608.964 391.481 608.96 391.533L612.201 398.821Z" fill="black"/>
<path d="M623.908 373.94L622.278 374.449L622.045 378.072C622.045 378.072 620.157 377.756 619.597 380.238C619.373 381.553 618.875 382.795 618.143 383.868C618.143 383.868 614.939 386.796 614.763 389.278L612.78 390.612C612.78 390.612 608.18 389.464 607.116 387.429C607.116 387.429 609.218 403.846 598.028 399.804C598.028 399.804 610.552 405.785 611.138 406.617C611.723 407.449 615.543 409.862 619.062 407.827C622.58 405.792 623.316 402.671 623.316 402.671C623.316 402.671 626.696 397.514 626.809 396.751C626.922 395.988 629.547 395.094 629.547 395.094L634.582 381.86L623.908 373.94Z" fill="#65617D"/>
<path opacity="0.1" d="M664.81 355.928L666.497 347.526C666.497 347.526 667.259 350.276 668.014 350.902L670.531 352.964C670.531 352.964 673.049 354.236 673.911 354.236C674.773 354.236 679.506 355.611 680.085 356.299C680.664 356.986 682.999 356.491 682.999 356.491C682.999 356.491 684.919 357.179 686.612 357.639C688.305 358.1 689.129 361.139 688.764 362.349C688.624 362.951 688.625 363.581 688.768 364.183C688.911 364.784 689.191 365.335 689.582 365.786C690.281 366.549 690.633 369.031 690.633 369.031C691.489 369.337 692.199 369.999 692.61 370.874C693.195 372.249 693.019 375.329 693.019 375.329L684.34 388.694C684.34 388.694 684.453 393.85 684.107 394.998C683.761 396.146 685.328 415.623 685.328 415.623L687.134 449.098C686.208 449.986 685.235 450.815 684.22 451.579C683.698 451.834 683.175 439.741 683.175 439.301C683.175 438.861 669.713 417.301 669.713 417.301C669.713 417.301 667.907 414.118 667.907 413.416C667.907 412.715 666.22 406.287 666.22 406.287L663.659 393.912L664.81 355.928Z" fill="black"/>
<path d="M693.73 374.607C693.73 375.047 693.73 375.336 693.73 375.336L685.057 388.687C685.057 388.687 685.177 393.843 684.824 394.991C684.623 395.679 685.064 402.506 685.454 408.129C685.75 412.186 686.02 415.609 686.02 415.609L686.788 429.806L687.827 449.056C686.9 449.945 685.927 450.773 684.913 451.538C684.39 451.793 683.868 439.699 683.868 439.253C683.868 438.806 670.406 417.253 670.406 417.253C670.406 417.253 668.599 414.069 668.599 413.368C668.599 412.667 666.913 406.239 666.913 406.239L664.351 393.864L665.515 355.934L666.504 347.533C666.504 347.533 667.964 350.283 668.719 350.902L671.236 353.006C671.236 353.006 673.754 354.278 674.616 354.278C675.478 354.278 680.211 355.653 680.79 356.34C681.369 357.028 683.704 356.533 683.704 356.533C683.704 356.533 685.63 357.22 687.317 357.681C689.003 358.141 689.834 361.18 689.469 362.39C689.329 362.992 689.331 363.623 689.474 364.224C689.617 364.825 689.897 365.376 690.287 365.828C690.986 366.591 691.338 369.073 691.338 369.073C692.194 369.378 692.904 370.04 693.315 370.915C693.657 372.108 693.798 373.359 693.73 374.607Z" fill="#65617D"/>
<path opacity="0.1" d="M622.51 544.179C622.8 544.179 635.035 544.688 634.802 546.853C634.569 549.019 622.51 544.179 622.51 544.179Z" fill="black"/>
<path opacity="0.1" d="M625.248 547.781C625.248 547.781 633.462 549.246 631.309 550.58C629.157 551.913 625.248 547.781 625.248 547.781Z" fill="black"/>
<path opacity="0.1" d="M655.779 542.783C655.779 542.783 669.411 544.055 667.372 545.705C665.333 547.355 660.499 547.616 660.266 547.678C660.033 547.74 655.779 542.783 655.779 542.783Z" fill="black"/>
<path opacity="0.1" d="M654.149 549.335C654.149 549.335 661.701 550.71 661.953 552.326C662.205 553.941 654.149 549.335 654.149 549.335Z" fill="black"/>
<path opacity="0.1" d="M658.341 511.021C658.341 511.021 665.264 512.801 665.685 514.011L658.341 511.021Z" fill="black"/>
<path opacity="0.1" d="M631.617 516.493C631.617 516.493 628.005 517.641 631.504 519.931C635.003 522.22 631.617 516.493 631.617 516.493Z" fill="black"/>
<path opacity="0.1" d="M647.622 455.333C648.032 455.333 654.382 453.044 656.597 454.061C658.181 454.707 659.854 455.052 661.544 455.079L647.622 455.333Z" fill="black"/>
<path opacity="0.1" d="M648.441 462.586L648.378 463.219L642.946 478.756C642.946 478.756 642.071 483.466 641.316 486.14C640.839 487.948 640.459 489.784 640.177 491.64L644.985 459.073L648.441 462.586Z" fill="black"/>
<path d="M656.899 435.169L654.64 435.21H654.571L653.243 428.796L655.206 428.679L656.899 435.169Z" fill="#3F3D56"/>
<path d="M684.384 427.4L682.936 428.706L678.09 433.058C678.09 433.058 664.987 440.696 661.374 433.443C658.189 427.049 673.049 422.484 676.63 421.488L677.392 421.288L684.384 427.4Z" fill="#FBBEBE"/>
<path opacity="0.1" d="M628.395 364.838C628.395 364.838 630.957 366.109 631.542 367.89C632.127 369.671 628.395 364.838 628.395 364.838Z" fill="black"/>
<path opacity="0.1" d="M620.471 383.929C620.471 383.929 616.745 388.893 618.256 390.804C619.766 392.716 620.471 383.929 620.471 383.929Z" fill="black"/>
<path opacity="0.1" d="M687.122 367.656C687.122 367.656 683.629 368.041 683.509 371.348L687.122 367.656Z" fill="black"/>
<path opacity="0.1" d="M654.728 419.824C655.08 419.439 663.117 406.459 664.987 407.607L654.728 419.824Z" fill="black"/>
<path opacity="0.1" d="M669.764 335.433C669.764 337.928 669.2 340.384 668.121 342.583H668.02C667.139 342.377 666.68 341.263 666.013 340.562C665.6 340.132 665.074 339.855 664.51 339.768C663.945 339.682 663.37 339.791 662.866 340.081C662.355 340.414 661.94 340.896 661.666 341.473C661.393 342.05 661.272 342.699 661.317 343.346C660.877 341.284 661.015 339.139 660.581 337.097C660.147 335.055 658.844 332.972 657.057 332.972C656.289 332.972 655.389 333.281 654.835 332.649C654.501 332.271 654.432 331.673 654.206 331.212C652.947 328.95 649.045 330.091 647.459 331.253C645.873 332.415 644.029 334.258 642.059 335.248C642.085 331.231 643.572 327.39 646.191 324.57C648.81 321.751 652.347 320.183 656.024 320.212C659.702 320.241 663.218 321.865 665.799 324.726C668.38 327.587 669.815 331.451 669.789 335.468L669.764 335.433Z" fill="black"/>
<path d="M654.18 330.792C654.432 331.253 654.501 331.851 654.81 332.236C655.364 332.862 656.264 332.539 657.032 332.552C658.819 332.587 660.128 334.656 660.556 336.677C660.984 338.699 660.852 340.885 661.299 342.92C661.248 342.273 661.366 341.624 661.638 341.047C661.911 340.47 662.328 339.99 662.841 339.661C663.345 339.373 663.919 339.264 664.484 339.349C665.048 339.434 665.573 339.709 665.988 340.136C666.655 340.823 667.114 341.957 667.995 342.157C668.876 342.356 669.72 341.435 670.034 340.424C670.261 339.38 670.429 338.322 670.538 337.255C670.934 335.275 672.124 333.646 672.778 331.755C673.559 329.458 673.539 326.928 672.722 324.646C672.281 323.45 671.633 322.377 671.192 321.209C670.519 319.401 670.343 317.352 669.525 315.626C668.868 314.229 667.777 313.132 666.446 312.535C665.116 311.938 663.635 311.878 662.268 312.367C661.009 312.89 659.901 313.894 658.618 314.347C656.893 314.952 655.055 314.499 653.274 314.224C651.493 313.949 649.498 313.928 648.088 315.207C646.439 316.685 645.986 319.456 644.438 321.071C643.808 321.759 642.978 322.185 642.291 322.811C641.921 323.109 641.619 323.499 641.41 323.948C641.201 324.396 641.092 324.892 641.089 325.396C641.196 326.716 642.348 327.912 641.939 329.136C641.788 329.488 641.574 329.804 641.31 330.064C640.012 331.551 639.047 333.347 638.49 335.309C641.637 336.368 644.985 332.614 647.421 330.841C649.02 329.679 652.903 328.537 654.18 330.792Z" fill="#7C5C5C"/>
<path opacity="0.1" d="M684.384 427.4L682.936 428.706C681.678 426.376 676.404 421.728 676.404 421.728L676.63 421.488L677.392 421.288L684.384 427.4Z" fill="black"/>
<path d="M685.781 425.042C685.781 425.042 685.265 426.458 684.724 427.682C684.183 428.906 683.597 430.019 683.572 429.119C683.509 427.331 676.756 421.35 676.756 421.35L677.669 420.374L678.732 419.246L685.781 425.042Z" fill="#E7EFFD"/>
<path opacity="0.1" d="M686.014 415.623L686.782 429.82C684.969 426.747 680.003 418.868 676.812 419.123L684.56 409.388C684.882 408.996 685.178 408.58 685.447 408.143C685.743 412.199 686.014 415.623 686.014 415.623Z" fill="black"/>
<path opacity="0.1" d="M685.781 425.042C685.781 425.042 685.265 426.458 684.724 427.682C682.691 424.643 679.903 421.047 677.669 420.374L678.732 419.246L685.781 425.042Z" fill="black"/>
<path d="M691.609 373.555L693.705 375.336C693.705 375.336 697.204 375.404 697.55 378.581C697.897 381.757 701.106 383.228 701.106 383.228C701.106 383.228 703.492 385.841 703.492 387.051C703.492 388.261 705.298 390.419 705.298 390.612C705.298 390.804 707.048 394.682 706.815 395.383C706.582 396.084 708.703 399.137 708.036 400.285C707.512 401.315 707.046 402.378 706.639 403.468C706.639 403.468 703.901 409.195 702.504 410.274C701.106 411.354 694.699 420.463 694.699 420.463C694.699 420.463 687.82 429.112 687.82 431.786C687.82 431.786 681.124 419.569 677.159 419.886L684.906 410.151C684.906 410.151 686.247 408.556 686.31 407.607C686.373 406.658 690.036 402.258 691.785 402.066C691.785 402.066 692.075 399.46 691.32 399.391C690.564 399.323 689.922 397.329 689.922 397.329C689.922 397.329 684.793 390.708 684.736 386.508C684.68 382.307 691.609 373.555 691.609 373.555Z" fill="#65617D"/>
<path opacity="0.1" d="M694.699 379.598C694.699 379.598 689.803 383.544 690.854 384.823C691.905 386.102 694.699 379.598 694.699 379.598Z" fill="black"/>
<path opacity="0.1" d="M694.932 395.892C694.932 395.892 704.02 392.709 704.952 395.892H694.932Z" fill="black"/>
<path opacity="0.1" d="M638.654 564.969C638.654 564.969 633.757 568.475 631.309 567.959C629.614 567.726 627.893 568.037 626.356 568.853C624.673 570.866 622.548 572.378 620.182 573.246C616.217 574.711 610.685 574.133 607.538 572.992C606.053 572.449 605.933 571.748 606.65 570.888C610.068 571.631 617.715 573.109 619.773 572.036C622.041 570.721 624.222 569.232 626.299 567.581C626.299 567.581 631.334 566.818 632.008 566.818C632.505 566.818 636.376 565.072 638.559 564.068L638.654 564.969Z" fill="black"/>
<path opacity="0.1" d="M668.291 572.153C668.291 572.366 668.247 572.504 668.247 572.504C668.247 572.504 667.083 575.302 660.613 576.319C654.143 577.337 654.149 573.968 654.149 573.968L654.212 573.054C656.257 573.906 660.726 574.848 668.291 572.153Z" fill="black"/>
<path opacity="0.1" d="M630.812 378.835C630.812 378.835 630.812 393.348 629.679 394.778C628.546 396.208 630.812 378.835 630.812 378.835Z" fill="black"/>
<path opacity="0.1" d="M683.333 383.517L685.026 388.701C685.026 388.701 685.693 383.613 683.333 383.517Z" fill="black"/>
<g opacity="0.1">
<path opacity="0.1" d="M642.14 327.884C642.568 326.695 641.448 325.519 641.303 324.241C641.153 324.6 641.088 324.995 641.115 325.389C641.19 326.358 641.845 327.259 642.015 328.139C642.064 328.058 642.106 327.973 642.14 327.884Z" fill="black"/>
<path opacity="0.1" d="M661.475 341.593C661.059 339.586 661.185 337.468 660.757 335.454C660.329 333.439 659.02 331.329 657.233 331.329C656.465 331.329 655.565 331.631 655.011 331.006C654.671 330.628 654.608 330.029 654.382 329.562C653.123 327.307 649.221 328.455 647.629 329.61C645.25 331.336 641.964 334.959 638.918 334.134C638.773 334.519 638.635 334.911 638.522 335.316C641.669 336.375 645.017 332.621 647.452 330.848C649.045 329.693 652.928 328.551 654.206 330.806C654.457 331.267 654.527 331.865 654.835 332.25C655.389 332.876 656.289 332.553 657.057 332.566C658.844 332.601 660.153 334.67 660.581 336.691C661.009 338.713 660.877 340.899 661.324 342.934C661.292 342.48 661.344 342.025 661.475 341.593Z" fill="black"/>
<path opacity="0.1" d="M670.236 339.208C669.921 340.218 669.09 341.146 668.19 340.94C667.29 340.734 666.856 339.62 666.189 338.919C665.775 338.492 665.249 338.216 664.686 338.13C664.122 338.044 663.547 338.151 663.042 338.438C662.556 338.755 662.156 339.209 661.884 339.751C661.612 340.294 661.477 340.906 661.494 341.524C661.727 340.746 662.216 340.09 662.866 339.682C663.37 339.394 663.945 339.285 664.509 339.37C665.073 339.455 665.598 339.73 666.013 340.156C666.68 340.844 667.139 341.978 668.02 342.178C668.901 342.377 669.745 341.456 670.059 340.445C670.23 339.851 670.338 339.237 670.38 338.616C670.345 338.817 670.296 339.014 670.236 339.208Z" fill="black"/>
<path opacity="0.1" d="M672.98 330.531C672.35 332.415 671.136 334.044 670.739 336.031C670.664 336.43 670.613 336.843 670.569 337.255C670.972 335.275 672.149 333.653 672.803 331.755C673.096 330.907 673.276 330.018 673.339 329.115C673.252 329.596 673.132 330.07 672.98 330.531Z" fill="black"/>
</g>
<path d="M588.782 376.614C588.861 376.614 588.926 376.544 588.926 376.456C588.926 376.369 588.861 376.298 588.782 376.298C588.702 376.298 588.638 376.369 588.638 376.456C588.638 376.544 588.702 376.614 588.782 376.614Z" fill="#E6E8EC"/>
<path d="M644.28 380.004H538.571C536.274 380.004 534.411 382.038 534.411 384.548V518.611C534.411 521.12 536.274 523.155 538.571 523.155H644.28C646.578 523.155 648.441 521.12 648.441 518.611V384.548C648.441 382.038 646.578 380.004 644.28 380.004Z" fill="white"/>
<path opacity="0.1" d="M644.28 380.004H538.571C536.274 380.004 534.411 382.038 534.411 384.548V518.611C534.411 521.12 536.274 523.155 538.571 523.155H644.28C646.578 523.155 648.441 521.12 648.441 518.611V384.548C648.441 382.038 646.578 380.004 644.28 380.004Z" fill="#5A5773"/>
<path d="M638.465 387.305H544.387C542.089 387.305 540.227 389.34 540.227 391.849V511.309C540.227 513.819 542.089 515.854 544.387 515.854H638.465C640.763 515.854 642.625 513.819 642.625 511.309V391.849C642.625 389.34 640.763 387.305 638.465 387.305Z" fill="white"/>
<path d="M621.579 413.086H558.919C556.823 413.086 555.124 414.942 555.124 417.232V435.423C555.124 437.713 556.823 439.569 558.919 439.569H621.579C623.675 439.569 625.374 437.713 625.374 435.423V417.232C625.374 414.942 623.675 413.086 621.579 413.086Z" fill="#6C63FF"/>
<path d="M622.8 449.256H557.704V454.659H622.8V449.256Z" fill="#6C63FF"/>
<path d="M636.212 460.661H546.64V466.065H636.212V460.661Z" fill="#6C63FF"/>
<path d="M636.212 472.665H546.64V478.069H636.212V472.665Z" fill="#6C63FF"/>
<path d="M636.212 484.669H546.64V490.072H636.212V484.669Z" fill="#6C63FF"/>
<path d="M264.336 332.683H4.16014C1.86256 332.683 0 334.718 0 337.228V471.29C0 473.8 1.86256 475.834 4.16014 475.834H264.336C266.633 475.834 268.496 473.8 268.496 471.29V337.228C268.496 334.718 266.633 332.683 264.336 332.683Z" fill="white"/>
<path opacity="0.1" d="M264.336 332.683H4.16014C1.86256 332.683 0 334.718 0 337.228V471.29C0 473.8 1.86256 475.834 4.16014 475.834H264.336C266.633 475.834 268.496 473.8 268.496 471.29V337.228C268.496 334.718 266.633 332.683 264.336 332.683Z" fill="#5A5773"/>
<path d="M250.634 339.984H17.8552C15.5577 339.984 13.6951 342.019 13.6951 344.529V463.989C13.6951 466.499 15.5577 468.533 17.8552 468.533H250.634C252.932 468.533 254.794 466.499 254.794 463.989V344.529C254.794 342.019 252.932 339.984 250.634 339.984Z" fill="white"/>
<path d="M210.392 365.772H52.5776C50.4817 365.772 48.7825 367.629 48.7825 369.918V388.109C48.7825 390.399 50.4817 392.255 52.5776 392.255H210.392C212.488 392.255 214.187 390.399 214.187 388.109V369.918C214.187 367.629 212.488 365.772 210.392 365.772Z" fill="#6C63FF"/>
<path d="M208.12 401.935H54.8496V407.339H208.12V401.935Z" fill="#6C63FF"/>
<path d="M239.696 413.341H28.7937V418.744H239.696V413.341Z" fill="#6C63FF"/>
<path d="M239.696 425.344H28.7937V430.748H239.696V425.344Z" fill="#6C63FF"/>
<path d="M239.696 437.348H28.7937V442.752H239.696V437.348Z" fill="#6C63FF"/>
<path d="M65.6245 578.842C66.3734 575.859 66.8832 573.232 66.8832 573.232C66.8972 571.238 67.3782 569.281 68.2804 567.547V566.722L68.4944 560.665C68.1617 559.55 67.7405 558.469 67.2357 557.434C66.3042 555.488 67.5504 548.551 67.5504 548.551C67.5504 548.551 71.5972 538.878 70.9175 532.601C70.2378 526.324 79.4895 505.218 79.4895 505.218C79.5142 503.138 79.3199 501.062 78.9105 499.031C78.8361 498.607 78.815 498.175 78.8476 497.745C78.8444 497.692 78.8444 497.639 78.8476 497.587V497.635C79.1182 493.51 82.3657 485.947 82.3657 485.947L82.4853 471.235C82.4853 471.235 80.8867 462.49 84.3734 450.988C85.6007 446.973 86.4063 443.756 86.935 441.267C86.9979 440.985 87.0546 440.717 87.1049 440.456C80.7609 439.122 75.9147 438.036 75.9147 438.036C75.9147 438.036 80.2133 421.274 82.8378 418.421C85.4623 415.568 87.7657 406.342 87.7657 406.342C87.7657 406.342 89.4902 394.448 87.514 390.873C85.5378 387.298 85.4497 381.248 85.4497 381.248C85.4497 381.248 80.7797 377.24 80.2385 375.528C79.6972 373.816 78.835 369.959 78.9042 367.966C78.9734 365.972 79.6406 364.184 79.4769 363.119C79.3133 362.053 81.0567 358.107 80.3203 356.168C80.1371 355.573 80.0519 354.947 80.0685 354.319C80.0685 354.319 80.0685 354.319 80.0685 354.264C80.1209 352.599 80.3211 350.943 80.6664 349.321C82.0972 348.099 83.7489 347.222 85.5126 346.749L85.6322 346.296L85.9469 345.12C86.1016 345.015 86.2613 344.918 86.4252 344.831L86.4567 344.398L86.5574 342.686L85.9532 338.781C84.6944 332.003 92.9518 331.349 92.9518 331.349C93.4833 330.34 94.3372 329.582 95.3497 329.218C97.0238 328.654 95.2741 339.331 94.4748 339.984C93.8455 340.473 91.9574 343.766 91.0448 345.381L90.8937 345.649C91.0262 345.787 91.1483 345.937 91.2587 346.096L90.8623 348.413L90.7993 348.764C91.3188 349.525 91.7324 350.366 92.0266 351.259C92.0266 351.259 90.4595 352.992 90.6923 355.013C90.7602 356.585 90.5464 358.157 90.0629 359.64C90.1511 359.537 91.2525 358.334 92.2972 358.678C93.342 359.021 96.2497 360.114 96.2497 360.114C96.2497 360.114 98.4336 360.63 98.2133 361.153C97.993 361.675 99.6168 364.068 99.6168 364.068L105.741 358.203C105.81 358.018 105.873 357.839 105.936 357.653C106.218 356.789 106.428 355.898 106.565 354.993C105.919 354.8 105.288 354.554 104.677 354.257C104.063 353.999 103.515 353.584 103.078 353.047C102.512 352.249 102.449 351.191 102.229 350.221C101.826 348.324 100.882 346.605 100.221 344.783C99.1124 341.726 98.82 338.389 99.3776 335.158C99.5121 334.168 99.857 333.226 100.385 332.408C101.404 330.999 103.173 330.483 104.488 329.383C105.804 328.283 106.685 326.544 108.195 325.739C109.567 325.011 111.197 325.176 112.701 325.506C115.622 326.157 118.407 327.395 120.915 329.156C121.758 329.754 122.683 330.442 123.684 330.284C124.514 330.042 125.246 329.502 125.761 328.751C125.758 328.719 125.758 328.686 125.761 328.654L125.83 328.579C126.402 330.122 126.655 331.784 126.573 333.446C126.573 333.701 126.573 333.962 126.522 334.216C126.522 334.306 126.522 334.395 126.522 334.484C126.516 334.56 126.516 334.636 126.522 334.711C126.519 334.825 126.532 334.939 126.56 335.048C126.671 335.387 126.849 335.695 127.083 335.949C127.254 336.179 127.405 336.425 127.536 336.684C127.536 336.595 127.492 336.506 127.466 336.416C127.823 337.034 128.011 337.749 128.008 338.479C128.022 339.011 127.843 339.527 127.51 339.916C127.206 340.224 126.873 340.496 126.516 340.727C126.835 343.224 126.446 345.767 125.402 348.015C124.358 350.263 122.708 352.108 120.676 353.301C120.6 353.48 120.524 353.666 120.455 353.851C119.518 356.036 119.066 358.432 119.134 360.843C119.134 361.015 119.134 361.187 119.184 361.359C119.234 361.531 119.329 361.544 119.392 361.641C119.392 361.641 129.147 362.156 131.526 359.977C133.905 357.798 137.127 365.773 137.127 365.773C137.127 365.773 140.601 366.659 141.325 365.951C142.049 365.243 146.134 366.048 146.134 366.048C147.865 364.488 150.075 363.708 152.314 363.868C153.721 362.791 155.262 361.939 156.89 361.338L157.003 361.297C157.715 361.044 158.47 360.971 159.212 361.084C159.212 361.084 164.165 356.959 165.644 354.683C167.123 352.408 174.065 344.068 174.065 344.027L174.109 343.614L174.229 342.363C174.424 342.407 174.621 342.435 174.82 342.446L174.971 342.013C175.397 340.804 175.912 339.636 176.513 338.52C176.513 338.52 176.57 336.932 176.161 336.519C175.752 336.107 176.557 330.332 176.557 330.332C176.557 330.332 181.271 319.469 184.852 327.878C184.852 327.878 191.99 333.522 185.62 339.476C185.62 339.476 183.103 340.672 182.744 341.683C182.492 342.37 181.592 344.171 180.988 345.388L180.717 345.931L180.787 346L180.661 347.031L180.61 347.437C181.737 348.2 182.499 348.943 182.291 349.499C181.916 350.401 181.647 351.35 181.492 352.325C181.492 352.325 172.592 363.531 171.321 368.474C171.321 368.474 147.997 382.321 140.482 383.063L141.52 390.516C141.643 392.527 141.673 394.544 141.608 396.559C141.451 398.14 142.2 405.366 142.2 405.366C142.2 405.366 143.125 415.994 144.176 417.521C145.227 419.047 144.806 425.386 144.806 425.386C144.963 428.433 145.359 431.46 145.989 434.433C146.945 438.496 145.989 443.432 145.989 443.432C145.989 443.432 149.457 453.106 140.583 446.272C140.583 446.272 136.127 445.784 130.991 445.378C130.991 445.557 130.991 445.749 130.991 445.935C130.991 446.664 130.959 447.448 130.941 448.272C130.815 453.724 130.582 461.232 130.154 466.904C129.399 476.934 125.899 496.693 125.899 496.693L125.547 506.676C125.697 507.622 125.751 508.583 125.71 509.542C125.651 513.065 124.675 516.496 122.897 519.436L121.959 526.07C121.959 526.07 120.166 530.387 120.04 533.007C120.036 533.221 120.053 533.436 120.09 533.646C120.136 533.985 120.151 534.328 120.134 534.671C120.134 537.696 118.196 544.859 118.196 544.859C118.196 544.859 117.837 552.154 116.824 552.532C115.955 552.862 117.818 556.787 118.372 557.915C118.393 557.848 118.407 557.779 118.416 557.709L118.536 557.929C118.721 558.528 118.804 559.16 118.781 559.792C118.819 560.292 118.726 560.794 118.513 561.24C118.3 561.685 117.976 562.055 117.579 562.308C115.634 563.497 114.577 564.508 116.176 565.003C116.766 565.129 117.35 565.287 117.925 565.477L118.02 565.237C118.245 565.343 118.431 565.531 118.545 565.769C118.66 566.006 118.696 566.28 118.649 566.543C118.605 567.408 118.37 568.248 117.963 568.991C117.188 570.867 116.216 572.639 115.068 574.271L114.3 574.147C114.404 574.469 114.543 574.776 114.715 575.061C114.991 575.534 115.366 575.928 115.811 576.209C116.219 576.497 116.677 576.689 117.157 576.773C117.7 576.817 118.227 576.984 118.707 577.265C119.186 577.546 119.606 577.933 119.939 578.402C120.883 579.853 121.443 581.799 119.41 583.401L112.166 585.793C112.166 585.793 99.8056 587.024 100.561 584.04C101.316 581.056 101.82 578.43 101.82 578.43C101.833 576.585 102.238 574.768 103.003 573.122C103.143 572.855 103.298 572.598 103.469 572.352L103.034 572.284C103.034 572.284 102.317 565.581 101.134 564.281C100.869 563.972 100.813 563.745 100.882 563.594C100.775 563.229 101.09 563.03 101.511 562.906C101.511 562.989 101.568 563.078 101.593 563.167C101.988 563.095 102.388 563.065 102.789 563.078C102.789 563.078 103.311 559.606 102.059 558.266C101.958 558.118 101.886 557.948 101.849 557.768C101.812 557.588 101.811 557.401 101.845 557.221C101.847 556.742 101.909 556.265 102.027 555.804C102.04 555.833 102.054 555.861 102.071 555.887C102.839 552.752 105.218 547.816 105.218 547.816C105.218 547.816 105.426 544.646 104.671 543.34C103.915 542.034 105.382 526.111 105.382 526.111C105.382 526.111 105.35 518.384 106.376 514.829C107.402 511.275 105.552 506.957 105.552 506.957C105.552 506.957 105.552 506.875 105.583 506.731C105.585 506.71 105.585 506.689 105.583 506.669C105.583 506.669 105.646 506.194 105.747 505.459V505.534C106.024 503.472 106.534 499.821 106.873 498.116C107.358 495.703 107.27 484.05 107.27 484.05L105.64 479.031L102.134 487.46L98.3581 498.735C98.3581 498.735 96.5895 501.072 96.4699 503.547C96.4699 503.671 96.4699 503.788 96.4699 503.912C96.4855 504.166 96.4855 504.421 96.4699 504.675C96.4752 506.119 96.0609 507.527 95.2867 508.697C95.2867 508.697 94.1979 514.052 92.7692 515.366C91.3406 516.679 91.2273 519.326 91.2273 519.326C91.2273 519.326 89.2511 527.081 88.4014 528.421C87.6902 529.549 87.5392 532.732 87.514 533.708C87.514 533.887 87.514 533.99 87.514 533.99C87.514 533.99 87.1804 536.781 87.1049 539.132C87.1049 539.421 87.1049 539.703 87.1049 539.964C87.1018 539.946 87.1018 539.928 87.1049 539.909C87.081 540.548 87.1275 541.187 87.2434 541.814C87.2434 541.814 87.2434 541.889 87.2434 541.931V541.532C87.5424 543.142 87.6586 544.786 87.5895 546.427C87.5329 549.239 87.0231 552.552 85.393 554.443C82.5734 557.716 80.893 557.193 80.893 557.193C80.893 557.193 82.0448 561.476 83.6119 562.391C83.6723 562.425 83.7292 562.467 83.7818 562.514C83.7818 562.432 83.7818 562.349 83.8259 562.274C83.9924 562.494 84.1153 562.749 84.1868 563.024C84.2583 563.298 84.2768 563.586 84.2413 563.869C84.2916 565.732 83.1084 568.681 82.0385 570.056C81.6489 570.449 81.1748 570.728 80.6601 570.867C80.7385 570.933 80.8205 570.992 80.9056 571.046C81.0802 571.159 81.2609 571.26 81.4469 571.349C81.7007 571.484 81.9726 571.574 82.2525 571.617C82.7956 571.657 83.3246 571.823 83.8043 572.104C84.284 572.385 84.7034 572.774 85.0343 573.246C85.9783 574.69 86.5385 576.636 84.5056 578.237L77.2616 580.63C77.2616 580.63 64.8629 581.826 65.6245 578.842Z" fill="url(#paint2_linear)"/>
<path d="M112.418 585.807L119.436 583.408C121.406 581.799 120.864 579.853 119.952 578.403C119.637 577.938 119.234 577.553 118.77 577.274C118.306 576.995 117.792 576.829 117.264 576.787C116.795 576.702 116.349 576.508 115.955 576.216C115.527 575.933 115.166 575.541 114.904 575.075C114.431 574.177 114.194 573.154 114.218 572.119C114.218 572.119 106.703 569.369 104.538 571.713C104.156 572.139 103.831 572.623 103.576 573.15C102.833 574.803 102.437 576.616 102.417 578.458C102.417 578.458 101.939 581.077 101.203 584.068C100.466 587.058 112.418 585.807 112.418 585.807Z" fill="#2D293D"/>
<path d="M78.6776 580.657L85.6951 578.258C87.665 576.649 87.1237 574.704 86.2112 573.26C85.8961 572.793 85.4922 572.406 85.0272 572.126C84.5621 571.846 84.0471 571.679 83.5175 571.637C83.2459 571.598 82.9821 571.51 82.737 571.376C82.5574 571.285 82.3829 571.181 82.2147 571.067C80.3265 569.822 80.4713 566.942 80.4713 566.942C80.4713 566.942 72.9566 564.192 70.7916 566.536C70.5012 566.853 70.2437 567.203 70.0238 567.581C69.1441 569.328 68.6769 571.287 68.6643 573.281C68.6643 573.281 68.1797 575.907 67.4496 578.891C66.7196 581.874 78.6776 580.657 78.6776 580.657Z" fill="#2D293D"/>
<path opacity="0.1" d="M104.532 571.713C104.152 572.139 103.829 572.623 103.576 573.15L114.904 575.068C114.431 574.17 114.194 573.147 114.218 572.112C114.218 572.112 106.722 569.369 104.532 571.713Z" fill="black"/>
<path opacity="0.1" d="M70.0238 567.609L69.942 569.939C71.6035 573.205 80.1944 572.868 82.7371 571.376C82.5574 571.285 82.383 571.181 82.2147 571.067C80.3266 569.822 80.4713 566.942 80.4713 566.942C80.4713 566.942 72.9566 564.192 70.7916 566.536C70.4997 566.861 70.2421 567.221 70.0238 567.609Z" fill="black"/>
<path d="M69.0231 557.516C69.5231 558.554 69.9441 559.634 70.2818 560.747L69.9734 569.094C71.786 572.669 81.8937 571.926 83.3161 570.084C84.7385 568.241 86.3622 563.326 84.8455 562.418C83.3287 561.511 82.2147 557.221 82.2147 557.221C82.2147 557.221 83.8448 557.716 86.5825 554.471C89.3203 551.226 88.8042 543.656 88.3762 541.841C87.9483 540.026 88.6595 534.018 88.6595 534.018C88.6595 534.018 88.7098 529.783 89.5343 528.442C90.3588 527.101 92.2783 519.346 92.2783 519.346C92.2783 519.346 92.3664 516.699 93.7699 515.386C95.1734 514.073 96.2371 508.711 96.2371 508.711C97.079 507.398 97.4772 505.806 97.3636 504.208C97.1685 501.554 99.2014 498.776 99.2014 498.776L102.896 487.501L106.294 479.066L107.862 484.105C107.862 484.105 107.937 495.758 107.465 498.171C106.993 500.584 106.206 507.013 106.206 507.013C106.206 507.013 107.994 511.323 106.999 514.884C106.005 518.446 106.017 526.166 106.017 526.166C106.017 526.166 104.583 542.096 105.313 543.395C106.043 544.694 105.835 547.864 105.835 547.864C105.835 547.864 101.543 557.001 102.751 558.328C103.959 559.654 103.456 563.14 103.456 563.14C103.456 563.14 100.75 563.023 101.864 564.343C102.978 565.663 103.576 572.311 103.576 572.311L115.225 574.284C116.341 572.644 117.283 570.87 118.032 568.997C119.719 565.154 117.869 565.498 116.327 565.01C114.785 564.522 115.804 563.504 117.686 562.315C119.568 561.126 118.605 558.224 118.605 558.224C118.605 558.224 115.98 552.924 116.969 552.546C117.957 552.168 118.303 544.873 118.303 544.873C118.303 544.873 120.543 536.279 120.141 533.935C119.738 531.591 121.972 526.07 121.972 526.07L122.878 519.443C125.085 515.753 125.999 511.317 125.452 506.951L125.817 496.693C125.817 496.693 129.241 476.969 130.009 466.904C130.487 460.483 130.727 451.703 130.834 446.224C130.897 443.144 130.922 441.109 130.922 441.109L89.2762 434.591C89.1314 436.87 88.7964 439.13 88.2755 441.343C87.7657 443.838 86.979 447.056 85.7581 451.071C82.3469 462.573 83.8699 471.318 83.8699 471.318L83.7378 486.03C83.7378 486.03 79.7098 495.71 80.3706 499.127C80.7654 501.16 80.9512 503.236 80.9245 505.314C80.9245 505.314 71.9622 526.407 72.6168 532.656C73.2713 538.906 69.3378 548.613 69.3378 548.613C69.3378 548.613 68.1231 555.571 69.0231 557.516Z" fill="#575988"/>
<path opacity="0.05" d="M94.8713 503.438L82.2084 501.031C82.2084 501.031 89.1377 509.391 94.8713 503.438Z" fill="black"/>
<path opacity="0.1" d="M84.5245 487.55C84.5245 487.55 83.8951 492.444 86.6077 494.424C86.5825 494.411 81.7049 493.359 84.5245 487.55Z" fill="black"/>
<path opacity="0.1" d="M85.8587 471.929C85.8587 471.929 96.1615 481.946 100.057 481.321C103.953 480.695 85.8587 471.929 85.8587 471.929Z" fill="black"/>
<path opacity="0.1" d="M110.499 508.594C110.499 508.594 118.51 510.945 118.63 514.493C118.75 518.04 110.499 508.594 110.499 508.594Z" fill="black"/>
<path opacity="0.05" d="M107.157 552.594C107.157 552.594 118.485 555.399 115.2 556.849C111.915 558.3 106.534 559.345 106.534 559.345C106.534 559.345 102.845 559.414 107.157 552.594Z" fill="black"/>
<g opacity="0.05">
<path opacity="0.05" d="M117.422 559.469C117.715 559.284 117.967 559.031 118.158 558.726C118.35 558.421 118.477 558.074 118.529 557.709L118.636 557.936C118.636 557.936 119.606 560.83 117.717 562.061C117.503 562.191 117.302 562.329 117.088 562.459C116.755 562.377 116.39 562.308 116.043 562.198C114.508 561.682 115.534 560.665 117.422 559.469Z" fill="black"/>
<path opacity="0.05" d="M102.732 558.011C102.43 557.681 102.474 556.87 102.732 555.832C103.166 556.791 103.353 557.86 103.273 558.926C103.159 558.58 102.974 558.267 102.732 558.011Z" fill="black"/>
<path opacity="0.05" d="M106.345 505.486C106.72 506.757 106.932 508.078 106.974 509.412C106.789 508.484 106.523 507.577 106.181 506.703C106.181 506.703 106.25 506.229 106.345 505.486Z" fill="black"/>
<path opacity="0.05" d="M80.3956 498.838C80.3318 498.455 80.3086 498.065 80.3266 497.676C80.4458 498.474 80.5211 499.209 80.565 499.855C80.5148 499.526 80.4584 499.189 80.3956 498.838Z" fill="black"/>
<path opacity="0.05" d="M105.294 543.086C105.105 542.318 105.036 541.52 105.092 540.728C105.417 541.681 105.57 542.694 105.545 543.711C105.484 543.493 105.4 543.283 105.294 543.086Z" fill="black"/>
<path opacity="0.05" d="M102.197 562.906C102.724 565.054 103.093 567.246 103.299 569.458L114.948 571.431C116.069 569.793 117.013 568.019 117.762 566.144C117.913 565.808 118.026 565.505 118.127 565.23C118.813 565.608 119.064 566.419 118.057 568.702C117.308 570.572 116.366 572.344 115.25 573.982L103.576 572.023C103.576 572.023 102.946 565.326 101.82 564.013C101.297 563.36 101.687 563.064 102.197 562.906Z" fill="black"/>
<path opacity="0.05" d="M118.328 544.584C118.328 544.584 117.976 551.879 116.994 552.257C116.547 551.026 116.257 549.871 116.698 549.699C117.68 549.314 118.038 542.027 118.038 542.027C118.038 542.027 120.279 533.44 119.876 531.089C119.473 528.737 121.701 523.231 121.701 523.231L122.614 516.596C124.82 512.906 125.734 508.471 125.188 504.104L125.547 493.847C125.547 493.847 128.958 474.088 129.701 464.057C130.173 457.636 130.412 448.857 130.525 443.378C130.525 442.388 130.563 441.508 130.576 440.765L130.909 440.82C130.909 440.82 130.909 442.882 130.821 445.928C130.714 451.428 130.475 460.194 129.996 466.615C129.254 476.639 125.849 496.404 125.849 496.404L125.484 506.655C126.03 511.021 125.119 515.455 122.916 519.147L121.997 525.781C121.997 525.781 119.763 531.281 120.166 533.646C120.569 536.011 118.328 544.584 118.328 544.584Z" fill="black"/>
<path opacity="0.05" d="M83.0266 567.244C84.0279 565.78 84.72 564.092 85.0531 562.301C86.2049 563.525 84.6755 568.042 83.3224 569.795C81.9692 571.548 71.7923 572.38 69.9797 568.812L70.0489 566.798C72.5664 569.74 81.6797 568.991 83.0266 567.244Z" fill="black"/>
<path opacity="0.05" d="M68.7336 554.656C69.2336 555.694 69.6546 556.775 69.9923 557.888L69.9357 559.366C69.6718 558.63 69.3735 557.909 69.042 557.207C68.7647 556.364 68.6532 555.467 68.7147 554.574L68.7336 554.656Z" fill="black"/>
<path opacity="0.05" d="M82.8063 556.939C82.4659 556.11 82.1757 555.258 81.9378 554.388C81.9378 554.388 83.5679 554.876 86.2993 551.604C88.2881 549.218 88.5588 544.578 88.3951 541.525C88.8231 543.347 89.3329 550.882 86.6014 554.154C84.8014 556.299 83.4861 556.829 82.8063 556.939Z" fill="black"/>
<path opacity="0.05" d="M88.6657 533.701C88.4212 535.779 88.2825 537.87 88.2504 539.964C88.2129 539.631 88.1582 539.301 88.0867 538.974C87.665 537.153 88.3636 531.151 88.3636 531.151C88.3636 531.151 88.4203 526.916 89.2385 525.575C90.0567 524.234 91.9825 516.479 91.9825 516.479C91.9825 516.479 92.0769 513.839 93.4804 512.519C94.8839 511.199 95.9476 505.844 95.9476 505.844C96.7866 504.529 97.1846 502.939 97.0741 501.341C96.879 498.687 98.9119 495.909 98.9119 495.909L102.606 484.634L106.005 476.199L107.572 481.245C107.572 481.245 107.572 481.864 107.572 482.854L106.313 478.729L102.915 487.157L99.2203 498.439C99.2203 498.439 97.1874 501.189 97.3825 503.871C97.4961 505.469 97.0979 507.061 96.256 508.374C96.256 508.374 95.1923 513.729 93.7888 515.042C92.3853 516.356 92.2972 519.003 92.2972 519.003C92.2972 519.003 90.3713 526.758 89.5532 528.105C88.735 529.453 88.6657 533.701 88.6657 533.701Z" fill="black"/>
</g>
<path d="M87.3881 338.85L87.9797 342.741L87.879 344.46L87.8035 345.725L91.8252 346.351L92.3098 345.457C93.2035 343.841 95.0539 340.548 95.6392 340.053C96.407 339.4 98.1189 328.723 96.4951 329.287C95.5049 329.66 94.6756 330.419 94.1664 331.418C94.1664 331.418 86.1986 332.078 87.3881 338.85Z" fill="#FFCDD3"/>
<path opacity="0.1" d="M87.8035 345.725L91.8252 346.351L92.3098 345.457C91.791 344.765 91.0699 344.288 90.2677 344.108C89.4656 343.928 88.631 344.055 87.9042 344.467L87.8035 345.725Z" fill="black"/>
<path d="M86.7084 347.774L91.9888 349.348L92.1272 348.482L92.5112 346.165C92.2346 345.731 91.8822 345.361 91.4742 345.077C91.0661 344.792 90.6106 344.598 90.1338 344.507C89.657 344.416 89.1684 344.428 88.6961 344.544C88.2238 344.66 87.7771 344.877 87.3818 345.182L87.0797 346.357L86.7084 347.774Z" fill="#DCE6F2"/>
<path d="M173.272 342.906L178.836 346.481C178.836 346.481 179.069 345.993 179.396 345.326C179.981 344.109 180.85 342.281 181.095 341.621C181.466 340.61 183.883 339.407 183.883 339.407C190.057 333.446 183.153 327.816 183.153 327.816C179.692 319.408 175.122 330.277 175.122 330.277C175.122 330.277 174.336 336.073 174.732 336.464C175.129 336.856 175.072 338.465 175.072 338.465C174.486 339.582 173.985 340.75 173.574 341.958C173.379 342.528 173.272 342.906 173.272 342.906Z" fill="#FFCDD3"/>
<path opacity="0.1" d="M173.272 342.906L178.836 346.481C178.836 346.481 179.069 345.993 179.396 345.326C178.615 344.563 175.859 341.889 174.921 341.999C174.473 342.048 174.022 342.048 173.574 341.999C173.379 342.528 173.272 342.906 173.272 342.906Z" fill="black"/>
<path d="M172.624 344.742L178.918 348.448L179.094 346.949L179.22 345.918C179.22 345.918 175.645 342.301 174.55 342.384C173.991 342.445 173.427 342.42 172.876 342.308L172.762 343.559L172.624 344.742Z" fill="#DCE6F2"/>
<path d="M101.971 365.14C101.971 365.14 129.707 369.746 124.565 367.684C120.984 366.24 119.631 363.662 119.429 360.857C119.36 358.45 119.791 356.058 120.688 353.858C121.417 351.968 122.317 350.162 123.376 348.468C123.376 348.468 102.531 334.78 106.382 346.591C106.978 348.378 107.319 350.254 107.396 352.153C107.456 354.039 107.205 355.92 106.653 357.708C105.749 360.609 104.128 363.181 101.971 365.14Z" fill="#FFCDD3"/>
<path opacity="0.1" d="M106.408 346.591C107.003 348.378 107.345 350.254 107.421 352.153C109.359 354.071 111.562 354.044 114.388 354.161C116.559 354.257 118.938 354.931 120.682 353.858C121.41 351.968 122.311 350.162 123.369 348.468C123.369 348.468 102.556 334.78 106.408 346.591Z" fill="black"/>
<path d="M115.181 354.993C121.545 354.993 126.705 349.357 126.705 342.404C126.705 335.452 121.545 329.816 115.181 329.816C108.817 329.816 103.657 335.452 103.657 342.404C103.657 349.357 108.817 354.993 115.181 354.993Z" fill="#FFCDD3"/>
<path opacity="0.1" d="M101.971 365.14C101.971 365.14 129.707 369.746 124.565 367.684C120.984 366.24 119.631 363.662 119.429 360.857C118.101 359.159 115.357 357.859 113.589 357.151C111.979 356.489 110.221 356.383 108.554 356.849C107.889 357.032 107.253 357.321 106.666 357.708C105.758 360.611 104.133 363.183 101.971 365.14Z" fill="black"/>
<path opacity="0.1" d="M86.7084 347.774L91.9888 349.348L92.1272 348.482C91.5893 347.606 90.8175 346.932 89.9166 346.552C89.0158 346.172 88.0297 346.104 87.0923 346.358L86.7084 347.774Z" fill="black"/>
<path opacity="0.1" d="M172.624 344.742L178.917 348.448L179.094 346.949C177.054 345.66 174.929 344.539 172.737 343.594L172.624 344.742Z" fill="black"/>
<path opacity="0.1" d="M88.2503 441.343C98.9497 443.659 114.243 446.726 116.704 446.018C118.75 445.433 125.201 445.777 130.808 446.224C130.871 443.144 130.897 441.109 130.897 441.109L89.251 434.591C89.1062 436.87 88.7712 439.13 88.2503 441.343Z" fill="black"/>
<path d="M77.5951 438.125C77.5951 438.125 112.878 446.279 116.736 445.172C120.594 444.065 140.117 446.258 140.117 446.258C148.695 453.078 145.353 443.412 145.353 443.412C145.353 443.412 146.303 438.476 145.353 434.413C144.744 431.436 144.363 428.41 144.214 425.365C144.214 425.365 144.636 419.026 143.622 417.507C142.609 415.988 141.734 405.352 141.734 405.352C141.734 405.352 141.023 398.126 141.174 396.545C141.325 394.964 141.099 390.502 141.099 390.502L140.098 383.049C147.392 382.3 169.98 368.426 169.98 368.426C171.239 363.504 179.855 352.215 179.855 352.215C180.01 351.242 180.272 350.293 180.636 349.389C181.265 347.726 172.687 343.979 172.687 343.979C172.687 343.979 165.883 352.373 164.473 354.642C163.064 356.911 158.236 361.049 158.236 361.049C157.518 360.94 156.785 361.013 156.097 361.263H155.983C154.41 361.872 152.926 362.726 151.578 363.799C149.397 363.651 147.249 364.432 145.586 365.979C145.586 365.979 141.64 365.181 140.941 365.889C140.243 366.598 136.876 365.718 136.876 365.718C136.876 365.718 133.729 357.756 131.457 359.936C129.185 362.115 119.706 361.613 119.706 361.613C118.517 359.729 115.496 358.293 113.608 357.536C111.998 356.87 110.239 356.765 108.573 357.234C107.85 357.428 107.162 357.756 106.54 358.203L100.599 364.088C100.599 364.088 99.0315 361.696 99.2455 361.173C99.4594 360.651 97.3574 360.142 97.3574 360.142C97.3574 360.142 94.5818 359.069 93.5308 358.712C92.4797 358.354 91.4539 359.564 91.3658 359.674C91.8462 358.191 92.06 356.62 91.9951 355.048C91.7748 353.026 93.2853 351.287 93.2853 351.287C90.2203 342.054 82.3091 349.348 82.3091 349.348C82.3091 349.348 81.2581 354.278 81.9692 356.223C82.6804 358.169 80.9874 362.108 81.1385 363.174C81.2895 364.239 80.6539 366.013 80.5846 368.021C80.5154 370.028 81.3462 373.878 81.8434 375.583C82.3406 377.288 86.8783 381.303 86.8783 381.303C86.8783 381.303 86.9602 387.339 88.8672 390.928C90.7741 394.517 89.1 406.397 89.1 406.397C89.1 406.397 86.8343 415.616 84.3105 418.476C81.7867 421.336 77.5951 438.125 77.5951 438.125Z" fill="#656691"/>
<path opacity="0.1" d="M131.822 370.736C131.822 370.736 133.011 367.299 133.987 367.017C134.965 366.67 135.919 366.25 136.844 365.759L136.265 364.432C136.265 364.432 132.59 365.374 131.973 366.494C131.356 367.615 131.822 370.736 131.822 370.736Z" fill="black"/>
<path opacity="0.1" d="M151.546 363.841C151.704 364.906 160.282 366.219 160.282 366.219L156.097 361.263H155.99C154.401 361.881 152.904 362.749 151.546 363.841Z" fill="black"/>
<path d="M176.979 351.218C177.407 351.218 177.753 350.84 177.753 350.373C177.753 349.905 177.407 349.527 176.979 349.527C176.551 349.527 176.205 349.905 176.205 350.373C176.205 350.84 176.551 351.218 176.979 351.218Z" fill="#575988"/>
<path d="M175.928 352.868C176.355 352.868 176.702 352.49 176.702 352.023C176.702 351.556 176.355 351.177 175.928 351.177C175.5 351.177 175.154 351.556 175.154 352.023C175.154 352.49 175.5 352.868 175.928 352.868Z" fill="#575988"/>
<path d="M174.902 354.388C175.33 354.388 175.676 354.009 175.676 353.542C175.676 353.075 175.33 352.696 174.902 352.696C174.475 352.696 174.128 353.075 174.128 353.542C174.128 354.009 174.475 354.388 174.902 354.388Z" fill="#575988"/>
<path d="M173.832 356.038C174.26 356.038 174.606 355.659 174.606 355.192C174.606 354.725 174.26 354.346 173.832 354.346C173.405 354.346 173.058 354.725 173.058 355.192C173.058 355.659 173.405 356.038 173.832 356.038Z" fill="#575988"/>
<path d="M82.6049 351.954C82.9525 351.954 83.2343 351.646 83.2343 351.266C83.2343 350.887 82.9525 350.579 82.6049 350.579C82.2573 350.579 81.9755 350.887 81.9755 351.266C81.9755 351.646 82.2573 351.954 82.6049 351.954Z" fill="#575988"/>
<path d="M82.4538 353.508C82.8014 353.508 83.0832 353.2 83.0832 352.82C83.0832 352.44 82.8014 352.133 82.4538 352.133C82.1062 352.133 81.8244 352.44 81.8244 352.82C81.8244 353.2 82.1062 353.508 82.4538 353.508Z" fill="#575988"/>
<path d="M82.3091 355.061C82.6567 355.061 82.9385 354.753 82.9385 354.374C82.9385 353.994 82.6567 353.686 82.3091 353.686C81.9615 353.686 81.6797 353.994 81.6797 354.374C81.6797 354.753 81.9615 355.061 82.3091 355.061Z" fill="#575988"/>
<path opacity="0.1" d="M130.764 399.384C130.859 399.268 107.981 428.445 91.6552 410.343C91.6552 410.343 118.278 415.431 130.764 399.384Z" fill="black"/>
<path opacity="0.1" d="M142.748 415.561C142.748 415.561 129.676 415.403 128.165 419.446L128.014 423.715C128.378 423.955 128.792 424.09 129.217 424.108C129.641 424.126 130.063 424.026 130.443 423.818C131.79 423.096 139.834 419.047 142.546 421.274L142.748 415.561Z" fill="black"/>
<path d="M142.502 415.548C142.502 415.548 130.009 415.396 128.562 419.253L128.417 423.323C128.764 423.554 129.16 423.683 129.567 423.7C129.973 423.717 130.376 423.62 130.739 423.419C131.998 422.732 139.72 418.875 142.313 420.993L142.502 415.548Z" fill="#656691"/>
<path opacity="0.1" d="M136.712 384.294C135.257 387.608 133.446 390.721 131.318 393.568C128.992 396.716 126.212 399.429 123.086 401.598C123.086 401.598 136.422 386.219 136.712 384.294Z" fill="black"/>
<path opacity="0.1" d="M141.564 367.904C141.564 367.904 139.047 378.086 133.288 381.338L141.564 367.904Z" fill="black"/>
<path opacity="0.1" d="M144.868 369.079C144.931 368.894 146.517 377.288 137.184 381.503C137.184 381.503 141.13 380.217 144.868 369.079Z" fill="black"/>
<path opacity="0.1" d="M88.1056 359.798C88.2504 359.798 83.4671 362.858 82.1454 364.308C82.1769 364.308 85.3552 359.468 88.1056 359.798Z" fill="black"/>
<path d="M117.894 353.941C117.776 354.608 117.432 355.202 116.931 355.604C116.586 355.769 116.211 355.842 115.836 355.817C112.317 355.914 108.655 355.927 105.464 354.312C104.867 354.053 104.337 353.637 103.922 353.102C103.368 352.304 103.292 351.252 103.097 350.276C102.707 348.379 101.794 346.667 101.159 344.845C100.088 341.778 99.8118 338.448 100.359 335.22C100.486 334.233 100.819 333.292 101.335 332.47C102.317 331.061 104.035 330.545 105.306 329.438C106.578 328.331 107.434 326.599 108.906 325.787C110.228 325.059 111.808 325.217 113.262 325.554C116.115 326.207 118.829 327.451 121.255 329.218C122.066 329.816 122.96 330.497 123.929 330.339C124.76 330.087 125.485 329.528 125.981 328.757C126.604 330.506 126.833 332.392 126.648 334.257C126.604 334.53 126.604 334.81 126.648 335.082C126.756 335.418 126.927 335.725 127.152 335.983C127.976 337.117 128.461 338.877 127.567 339.95C127.177 340.417 126.592 340.637 126.214 341.139C125.534 341.992 125.704 343.271 125.679 344.405C125.702 344.799 125.6 345.19 125.389 345.512C125.194 345.692 124.96 345.816 124.709 345.87C124.458 345.924 124.198 345.907 123.955 345.821C123.469 345.64 122.956 345.566 122.444 345.601C121.898 345.773 121.421 346.141 121.091 346.646C119.385 348.805 118.68 351.259 117.894 353.941Z" fill="#2D293D"/>
<g opacity="0.1">
<path opacity="0.1" d="M103.575 352.112C103.989 352.651 104.519 353.07 105.117 353.329C108.308 354.944 111.971 354.924 115.489 354.834C115.866 354.86 116.242 354.785 116.585 354.614C117.087 354.216 117.431 353.623 117.548 352.957C118.322 350.269 119.039 347.822 120.745 345.636C121.074 345.128 121.551 344.757 122.098 344.584C122.61 344.552 123.122 344.626 123.608 344.804C123.852 344.892 124.112 344.91 124.363 344.855C124.615 344.801 124.849 344.677 125.043 344.494C125.254 344.176 125.356 343.787 125.333 343.394C125.333 342.26 125.188 340.981 125.868 340.122C126.245 339.647 126.831 339.434 127.221 338.939C127.474 338.589 127.637 338.17 127.691 337.727C127.745 337.285 127.689 336.834 127.529 336.423C128.108 337.516 128.329 338.898 127.573 339.799C127.183 340.266 126.604 340.486 126.22 340.988C125.541 341.841 125.717 343.119 125.692 344.254C125.715 344.649 125.611 345.041 125.396 345.361C125.201 345.542 124.966 345.665 124.715 345.72C124.464 345.774 124.204 345.757 123.961 345.67C123.478 345.489 122.966 345.415 122.457 345.45C121.907 345.622 121.428 345.993 121.097 346.502C119.398 348.681 118.68 351.136 117.9 353.817C117.889 354.092 117.826 354.361 117.714 354.608C117.603 354.855 117.446 355.074 117.253 355.251C117.06 355.428 116.836 355.56 116.594 355.637C116.352 355.714 116.098 355.736 115.848 355.701C112.33 355.79 108.667 355.804 105.47 354.188C104.873 353.928 104.344 353.513 103.928 352.978C103.72 352.664 103.565 352.313 103.469 351.94C103.5 352 103.536 352.058 103.575 352.112Z" fill="black"/>
<path opacity="0.1" d="M126.623 334.725C126.467 334.526 126.355 334.291 126.296 334.038C126.252 333.765 126.252 333.485 126.296 333.212C126.448 331.674 126.32 330.118 125.918 328.634L125.981 328.558C126.61 330.305 126.841 332.192 126.655 334.058C126.626 334.279 126.615 334.502 126.623 334.725Z" fill="black"/>
</g>
<path opacity="0.1" d="M119.675 361.654C119.675 361.654 105.199 363.133 104.004 360.713L119.675 361.654Z" fill="black"/>
<path opacity="0.1" d="M91.9385 353.975C91.9385 353.975 83.9392 353.652 82.0699 356.849L91.9385 353.975Z" fill="black"/>
<path d="M273.149 236.051H273.149C269.133 236.051 265.282 237.708 262.442 240.657C259.603 243.607 258.007 247.607 258.007 251.778V271.148H288.291V251.778C288.291 247.607 286.696 243.607 283.856 240.657C281.016 237.708 277.165 236.051 273.149 236.051Z" fill="#F7DF18"/>
<path d="M302.317 281.743C302.317 281.743 317.777 276.611 320.328 281.246C322.878 285.881 320.965 292.835 320.328 295.483C319.69 298.132 314.908 329.255 302.158 320.978C289.407 312.701 302.317 281.743 302.317 281.743Z" fill="#3F3D56"/>
<path opacity="0.1" d="M302.317 281.743C302.317 281.743 317.777 276.611 320.328 281.246C322.878 285.881 320.965 292.835 320.328 295.483C319.69 298.132 314.908 329.255 302.158 320.978C289.407 312.701 302.317 281.743 302.317 281.743Z" fill="black"/>
<path d="M305.345 292.503H318.415C318.415 292.503 325.202 289.191 321.33 284.06C317.459 278.928 303.114 283.564 303.114 283.564L305.345 292.503Z" fill="#FFB6B6"/>
<path d="M225.971 318.329L213.22 331.573C213.22 331.573 202.7 330.249 200.469 334.222C198.237 338.195 215.77 338.526 215.77 338.526L233.94 319.654L225.971 318.329Z" fill="#FFB6B6"/>
<path d="M299.926 355.412L302.476 380.576C302.476 380.576 301.52 394.813 307.258 403.422C312.996 412.03 318.096 446.134 318.096 446.134C318.096 446.134 324.79 462.357 318.734 463.351C312.677 464.344 312.677 452.756 312.677 452.756L309.17 439.843C309.17 439.843 300.245 422.957 297.057 411.037C297.057 411.037 287.175 395.807 287.175 388.522C287.175 381.238 283.35 355.412 283.35 355.412H299.926Z" fill="#FFB6B6"/>
<path d="M280.162 359.054L274.424 389.847C274.424 389.847 274.105 402.097 272.83 407.064C272.83 407.064 272.193 424.943 269.961 432.228C267.73 439.512 266.136 450.438 266.136 450.438L267.73 453.418L266.136 464.013L262.311 469.973L258.167 466.331L259.123 445.803C259.123 445.803 257.21 415.341 259.761 408.719L261.355 370.643L261.673 359.054H280.162Z" fill="#FFB6B6"/>
<path d="M290.044 284.888L301.52 359.717C301.52 359.717 286.219 358.061 281.437 362.034C276.656 366.008 259.761 363.69 259.761 363.69L258.913 294.865L264.542 281.577L283.987 279.922L290.044 284.888Z" fill="#6C63FF"/>
<path d="M280.481 260.056C280.481 260.056 278.887 275.286 280.481 276.942C282.075 278.597 263.267 276.942 263.267 276.942C263.267 276.942 268.368 261.049 267.73 259.062C267.092 257.076 280.481 260.056 280.481 260.056Z" fill="#FFB6B6"/>
<path opacity="0.1" d="M280.481 260.056C280.481 260.056 278.887 275.286 280.481 276.942C282.075 278.597 263.267 276.942 263.267 276.942C263.267 276.942 268.368 261.049 267.73 259.062C267.092 257.076 280.481 260.056 280.481 260.056Z" fill="black"/>
<path d="M273.149 271.644L280.481 268.002C280.481 268.002 284.306 266.678 284.306 268.664C284.306 270.651 286.856 270.982 285.9 272.969C284.944 274.955 278.568 281.908 255.298 279.922C255.298 279.922 250.516 278.266 245.097 282.239C245.097 282.239 247.966 274.624 261.673 265.022L273.149 271.644Z" fill="#3F3D56"/>
<path d="M284.306 271.313C284.306 271.313 288.131 274.293 288.131 274.955C288.131 275.617 304.708 324.62 304.708 324.62C304.708 324.62 335.31 357.73 332.76 360.379C330.21 363.028 329.253 365.014 325.428 365.676C325.428 365.676 316.821 380.576 295.782 378.258L280.481 299.125L274.743 286.213C274.743 286.213 276.337 340.513 271.874 340.513H266.136C266.136 340.513 265.499 381.9 261.992 381.9C258.486 381.9 254.979 380.576 255.298 378.92C255.617 377.265 256.254 360.379 256.254 360.379C256.254 360.379 247.328 365.345 247.328 362.365C247.328 359.386 250.516 335.215 250.516 335.215L252.429 277.604L259.761 272.306L284.306 271.313Z" fill="#4C4C78"/>
<path d="M286.538 275.286H288.132C290.331 275.155 292.525 275.611 294.507 276.611L316.821 279.591C316.821 279.591 310.127 280.253 308.852 288.199C307.577 296.146 306.302 301.112 305.664 301.443C305.027 301.774 309.171 326.276 301.839 329.587C294.507 332.898 289.407 326.938 287.494 317.998C285.581 309.058 278.887 278.928 278.887 278.928L286.538 275.286Z" fill="#444053"/>
<path d="M250.835 276.942L244.46 282.239C244.46 282.239 244.141 286.544 240.316 290.186C236.49 293.828 221.827 320.316 222.464 320.978C223.102 321.64 245.416 323.296 244.141 330.58C242.866 337.864 252.11 337.533 252.11 337.533L260.398 285.55L250.835 276.942Z" fill="#444053"/>
<path d="M318.955 292.4L340.109 270.899C340.109 270.899 356.938 265.76 353.919 261.966C350.901 258.171 335.589 265.042 335.589 265.042L316.003 281.647L317.793 292.014C317.815 292.143 317.87 292.262 317.953 292.36C318.036 292.458 318.143 292.531 318.262 292.571C318.382 292.61 318.509 292.615 318.631 292.585C318.754 292.555 318.866 292.491 318.955 292.4Z" fill="#FFB6B6"/>
<path d="M321.284 449.114L325.428 464.013C325.428 464.013 328.934 475.697 321.284 476.69C313.633 477.683 315.227 471.061 315.227 471.061L314.247 460.616C314.247 460.616 320.189 465.534 320.646 459.047C320.899 454.869 320.074 450.697 318.256 446.961L321.284 449.114Z" fill="#2F2E41"/>
<path d="M265.18 474.608L266.136 469.973H268.049L269.643 468.317C269.643 468.317 267.73 461.033 269.005 457.722C270.28 454.411 269.643 450.769 266.136 450.438C266.136 450.438 268.368 460.371 262.948 465.669C262.948 465.669 257.97 468.67 258.228 465.017L258.167 460.886L256.892 466.331C256.892 466.331 255.935 471.628 254.342 472.953C252.748 474.277 253.704 477.257 258.167 476.595C262.63 475.933 265.18 474.608 265.18 474.608Z" fill="#2F2E41"/>
<path d="M274.584 285.385C274.055 285.385 273.627 284.94 273.627 284.391C273.627 283.843 274.055 283.398 274.584 283.398C275.112 283.398 275.54 283.843 275.54 284.391C275.54 284.94 275.112 285.385 274.584 285.385Z" fill="#2F2E41"/>
<path d="M273.309 264.526C267.147 264.526 262.151 259.337 262.151 252.937C262.151 246.537 267.147 241.349 273.309 241.349C279.47 241.349 284.466 246.537 284.466 252.937C284.466 259.337 279.47 264.526 273.309 264.526Z" fill="#FFB6B6"/>
<path d="M285.422 253.599L276.815 242.673C276.815 242.673 267.252 254.592 260.558 254.261L259.283 247.308L265.658 240.686L273.627 238.7L281.278 240.355L287.575 246.989L285.422 253.599Z" fill="#F7DF18"/>
</g>
<defs>
<linearGradient id="paint0_linear" x1="347.073" y1="474.205" x2="347.073" y2="104.103" gradientUnits="userSpaceOnUse">
<stop stop-color="#808080" stop-opacity="0.25"/>
<stop offset="0.54" stop-color="#808080" stop-opacity="0.12"/>
<stop offset="1" stop-color="#808080" stop-opacity="0.1"/>
</linearGradient>
<linearGradient id="paint1_linear" x1="128926" y1="228578" x2="128926" y2="125271" gradientUnits="userSpaceOnUse">
<stop stop-color="#808080" stop-opacity="0.25"/>
<stop offset="0.54" stop-color="#808080" stop-opacity="0.12"/>
<stop offset="1" stop-color="#808080" stop-opacity="0.1"/>
</linearGradient>
<linearGradient id="paint2_linear" x1="-107822" y1="226315" x2="-103432" y2="125843" gradientUnits="userSpaceOnUse">
<stop stop-color="#808080" stop-opacity="0.25"/>
<stop offset="0.54" stop-color="#808080" stop-opacity="0.12"/>
<stop offset="1" stop-color="#808080" stop-opacity="0.1"/>
</linearGradient>
<clipPath id="clip0">
<rect width="720" height="594" fill="white" transform="translate(0 0.214996)"/>
</clipPath>
</defs>
</svg>
