<svg width="1064" height="527" viewBox="0 0 1064 527" fill="none" xmlns="http://www.w3.org/2000/svg">
<path d="M2.69592 216.788C2.69592 216.788 143.784 52.3347 408.885 241.5C673.987 430.666 1060.41 337.207 1060.41 337.207V526.821H2.69592V216.788Z" fill="#D9F0FD" fill-opacity="0.25"/>
<line x1="3.5946" y1="400.561" x2="1064" y2="400.561" stroke="#66A2FB" stroke-opacity="0.32" stroke-width="0.898649"/>
<line y1="276.548" x2="1060.41" y2="276.548" stroke="#66A2FB" stroke-opacity="0.32" stroke-width="0.898649"/>
<line x1="3.5946" y1="95.0204" x2="1064" y2="95.0204" stroke="#66A2FB" stroke-width="0.898649"/>
<path d="M585.267 76.5239H582.584V66.1819L579.381 67.1753V64.9936L584.98 62.9883H585.267V76.5239ZM598.478 66.5997C598.478 67.2557 598.314 67.8375 597.986 68.345C597.658 68.8525 597.206 69.2579 596.631 69.5612C597.287 69.8768 597.806 70.3131 598.19 70.8702C598.574 71.421 598.766 72.0709 598.766 72.8197C598.766 74.0204 598.357 74.9705 597.54 75.6698C596.723 76.363 595.612 76.7096 594.208 76.7096C592.803 76.7096 591.689 76.3599 590.865 75.6605C590.042 74.9612 589.631 74.0142 589.631 72.8197C589.631 72.0709 589.823 71.4179 590.206 70.8609C590.59 70.3039 591.107 69.8706 591.757 69.5612C591.181 69.2579 590.729 68.8525 590.401 68.345C590.079 67.8375 589.918 67.2557 589.918 66.5997C589.918 65.4485 590.302 64.5325 591.07 63.8517C591.837 63.1647 592.88 62.8212 594.198 62.8212C595.51 62.8212 596.55 63.1616 597.318 63.8424C598.091 64.517 598.478 65.4361 598.478 66.5997ZM596.074 72.6248C596.074 72.0368 595.903 71.5664 595.563 71.2137C595.223 70.8609 594.765 70.6845 594.189 70.6845C593.62 70.6845 593.165 70.8609 592.824 71.2137C592.484 71.5603 592.314 72.0306 592.314 72.6248C592.314 73.2004 592.481 73.6646 592.815 74.0173C593.149 74.3701 593.613 74.5465 594.208 74.5465C594.789 74.5465 595.244 74.3763 595.572 74.0359C595.906 73.6955 596.074 73.2251 596.074 72.6248ZM595.795 66.7297C595.795 66.2036 595.656 65.7827 595.377 65.4671C595.099 65.1452 594.706 64.9843 594.198 64.9843C593.697 64.9843 593.307 65.139 593.028 65.4485C592.75 65.758 592.611 66.185 592.611 66.7297C592.611 67.2681 592.75 67.7013 593.028 68.0294C593.307 68.3574 593.7 68.5214 594.208 68.5214C594.715 68.5214 595.105 68.3574 595.377 68.0294C595.656 67.7013 595.795 67.2681 595.795 66.7297ZM609.683 70.9352C609.683 72.8043 609.297 74.234 608.523 75.2242C607.749 76.2145 606.617 76.7096 605.125 76.7096C603.652 76.7096 602.526 76.2238 601.746 75.2521C600.966 74.2804 600.567 72.8878 600.548 71.0744V68.5864C600.548 66.6987 600.938 65.2659 601.718 64.288C602.504 63.3102 603.634 62.8212 605.107 62.8212C606.58 62.8212 607.706 63.3071 608.486 64.2788C609.266 65.2443 609.665 66.6337 609.683 68.4471V70.9352ZM607 68.2058C607 67.0855 606.846 66.2717 606.536 65.7641C606.233 65.2505 605.756 64.9936 605.107 64.9936C604.475 64.9936 604.008 65.2381 603.705 65.727C603.408 66.2098 603.25 66.9679 603.231 68.0015V71.2879C603.231 72.3896 603.38 73.2097 603.677 73.7481C603.98 74.2804 604.463 74.5465 605.125 74.5465C605.781 74.5465 606.255 74.2897 606.546 73.776C606.836 73.2623 606.988 72.4762 607 71.4179V68.2058ZM620.601 70.9352C620.601 72.8043 620.214 74.234 619.441 75.2242C618.667 76.2145 617.534 76.7096 616.043 76.7096C614.57 76.7096 613.443 76.2238 612.663 75.2521C611.884 74.2804 611.484 72.8878 611.466 71.0744V68.5864C611.466 66.6987 611.856 65.2659 612.636 64.288C613.422 63.3102 614.551 62.8212 616.024 62.8212C617.497 62.8212 618.624 63.3071 619.403 64.2788C620.183 65.2443 620.582 66.6337 620.601 68.4471V70.9352ZM617.918 68.2058C617.918 67.0855 617.763 66.2717 617.454 65.7641C617.151 65.2505 616.674 64.9936 616.024 64.9936C615.393 64.9936 614.926 65.2381 614.622 65.727C614.325 66.2098 614.167 66.9679 614.149 68.0015V71.2879C614.149 72.3896 614.297 73.2097 614.594 73.7481C614.898 74.2804 615.38 74.5465 616.043 74.5465C616.699 74.5465 617.172 74.2897 617.463 73.776C617.754 73.2623 617.906 72.4762 617.918 71.4179V68.2058ZM637.061 65.2628H632.92V76.5239H630.135V65.2628H626.051V63.0069H637.061V65.2628ZM643.513 68.9949C643.148 68.9454 642.826 68.9206 642.548 68.9206C641.533 68.9206 640.867 69.2641 640.552 69.9511V76.5239H637.869V66.479H640.403L640.477 67.6766C641.016 66.7544 641.762 66.2933 642.715 66.2933C643.012 66.2933 643.29 66.3335 643.55 66.414L643.513 68.9949ZM650.355 76.5239C650.231 76.2826 650.142 75.9824 650.086 75.6234C649.436 76.3475 648.591 76.7096 647.551 76.7096C646.567 76.7096 645.75 76.4249 645.101 75.8555C644.457 75.2861 644.135 74.5682 644.135 73.7017C644.135 72.6372 644.528 71.8202 645.314 71.2508C646.106 70.6814 647.248 70.3936 648.74 70.3874H649.975V69.8118C649.975 69.3476 649.854 68.9763 649.612 68.6978C649.377 68.4193 649.003 68.28 648.489 68.28C648.037 68.28 647.681 68.3883 647.422 68.605C647.168 68.8216 647.041 69.1187 647.041 69.4962H644.358C644.358 68.9144 644.537 68.376 644.896 67.8808C645.255 67.3857 645.763 66.9989 646.419 66.7204C647.075 66.4357 647.811 66.2933 648.628 66.2933C649.866 66.2933 650.847 66.6059 651.571 67.231C652.302 67.8499 652.667 68.7225 652.667 69.849V74.203C652.673 75.1561 652.806 75.8772 653.066 76.3661V76.5239H650.355ZM648.136 74.6579C648.532 74.6579 648.898 74.5713 649.232 74.398C649.566 74.2185 649.814 73.9802 649.975 73.6831V71.9564H648.972C647.629 71.9564 646.914 72.4205 646.827 73.3489L646.818 73.5067C646.818 73.8409 646.936 74.1164 647.171 74.333C647.406 74.5496 647.728 74.6579 648.136 74.6579ZM657.197 66.479L657.281 67.6395C657.999 66.742 658.961 66.2933 660.168 66.2933C661.233 66.2933 662.025 66.6059 662.545 67.231C663.065 67.8561 663.331 68.7906 663.343 70.0346V76.5239H660.66V70.0996C660.66 69.5302 660.536 69.1187 660.289 68.8649C660.041 68.605 659.63 68.475 659.054 68.475C658.299 68.475 657.733 68.7968 657.355 69.4405V76.5239H654.672V66.479H657.197ZM670.826 73.7481C670.826 73.4201 670.662 73.1632 670.334 72.9776C670.012 72.7857 669.492 72.6155 668.774 72.467C666.385 71.9656 665.19 70.9506 665.19 69.4219C665.19 68.5307 665.559 67.788 666.295 67.1938C667.038 66.5935 668.007 66.2933 669.201 66.2933C670.476 66.2933 671.494 66.5935 672.255 67.1938C673.023 67.7942 673.407 68.574 673.407 69.5333H670.724C670.724 69.1496 670.6 68.834 670.352 68.5864C670.105 68.3326 669.718 68.2058 669.192 68.2058C668.74 68.2058 668.39 68.3079 668.143 68.5121C667.895 68.7164 667.771 68.9763 667.771 69.2919C667.771 69.589 667.911 69.8304 668.189 70.0161C668.474 70.1956 668.95 70.3534 669.619 70.4895C670.287 70.6195 670.85 70.768 671.308 70.9352C672.726 71.455 673.434 72.3556 673.434 73.6367C673.434 74.5527 673.041 75.2954 672.255 75.8648C671.469 76.428 670.454 76.7096 669.21 76.7096C668.369 76.7096 667.62 76.5611 666.964 76.264C666.314 75.9607 665.803 75.5491 665.432 75.0293C665.061 74.5032 664.875 73.9369 664.875 73.3303H667.419C667.443 73.8069 667.62 74.1721 667.948 74.4258C668.276 74.6796 668.715 74.8064 669.266 74.8064C669.78 74.8064 670.167 74.7105 670.426 74.5187C670.693 74.3206 670.826 74.0638 670.826 73.7481ZM680.991 76.5239C680.867 76.2826 680.778 75.9824 680.722 75.6234C680.072 76.3475 679.227 76.7096 678.188 76.7096C677.204 76.7096 676.387 76.4249 675.737 75.8555C675.093 75.2861 674.771 74.5682 674.771 73.7017C674.771 72.6372 675.164 71.8202 675.95 71.2508C676.742 70.6814 677.884 70.3936 679.376 70.3874H680.611V69.8118C680.611 69.3476 680.49 68.9763 680.249 68.6978C680.013 68.4193 679.639 68.28 679.125 68.28C678.673 68.28 678.318 68.3883 678.058 68.605C677.804 68.8216 677.677 69.1187 677.677 69.4962H674.994C674.994 68.9144 675.174 68.376 675.532 67.8808C675.891 67.3857 676.399 66.9989 677.055 66.7204C677.711 66.4357 678.448 66.2933 679.265 66.2933C680.502 66.2933 681.483 66.6059 682.207 67.231C682.938 67.8499 683.303 68.7225 683.303 69.849V74.203C683.309 75.1561 683.442 75.8772 683.702 76.3661V76.5239H680.991ZM678.772 74.6579C679.169 74.6579 679.534 74.5713 679.868 74.398C680.202 74.2185 680.45 73.9802 680.611 73.6831V71.9564H679.608C678.265 71.9564 677.55 72.4205 677.463 73.3489L677.454 73.5067C677.454 73.8409 677.572 74.1164 677.807 74.333C678.042 74.5496 678.364 74.6579 678.772 74.6579ZM689.542 74.5465C690.037 74.5465 690.439 74.4103 690.748 74.138C691.058 73.8657 691.219 73.5036 691.231 73.0518H693.747C693.741 73.7326 693.555 74.3577 693.19 74.9271C692.825 75.4903 692.324 75.9298 691.686 76.2454C691.055 76.5549 690.355 76.7096 689.588 76.7096C688.152 76.7096 687.019 76.2547 686.19 75.3449C685.361 74.4289 684.946 73.1663 684.946 71.5572V71.3808C684.946 69.8335 685.358 68.5988 686.181 67.6766C687.004 66.7544 688.134 66.2933 689.569 66.2933C690.826 66.2933 691.832 66.6523 692.587 67.3702C693.348 68.082 693.735 69.032 693.747 70.2203H691.231C691.219 69.7004 691.058 69.2796 690.748 68.9577C690.439 68.6297 690.03 68.4657 689.523 68.4657C688.898 68.4657 688.424 68.6947 688.103 69.1527C687.787 69.6045 687.629 70.341 687.629 71.3622V71.6407C687.629 72.6743 687.787 73.417 688.103 73.8688C688.418 74.3206 688.898 74.5465 689.542 74.5465ZM698.491 64.0095V66.479H700.208V68.4471H698.491V73.4603C698.491 73.8317 698.562 74.0978 698.705 74.2587C698.847 74.4196 699.119 74.5001 699.521 74.5001C699.819 74.5001 700.082 74.4784 700.311 74.4351V76.4682C699.785 76.6291 699.243 76.7096 698.686 76.7096C696.804 76.7096 695.845 75.7596 695.808 73.8595V68.4471H694.341V66.479H695.808V64.0095H698.491ZM704.535 76.5239H701.842V66.479H704.535V76.5239ZM701.685 63.8796C701.685 63.4773 701.818 63.1462 702.084 62.8862C702.356 62.6263 702.724 62.4963 703.189 62.4963C703.647 62.4963 704.012 62.6263 704.284 62.8862C704.556 63.1462 704.692 63.4773 704.692 63.8796C704.692 64.288 704.553 64.6223 704.275 64.8822C704.002 65.1421 703.64 65.2721 703.189 65.2721C702.737 65.2721 702.372 65.1421 702.093 64.8822C701.821 64.6223 701.685 64.288 701.685 63.8796ZM706.336 71.4086C706.336 70.4122 706.528 69.524 706.911 68.7442C707.295 67.9644 707.846 67.3609 708.564 66.9339C709.288 66.5068 710.127 66.2933 711.08 66.2933C712.435 66.2933 713.54 66.708 714.394 67.5373C715.254 68.3667 715.734 69.4931 715.833 70.9166L715.851 71.6036C715.851 73.1447 715.421 74.3825 714.561 75.317C713.701 76.2454 712.546 76.7096 711.098 76.7096C709.65 76.7096 708.493 76.2454 707.626 75.317C706.766 74.3887 706.336 73.1261 706.336 71.5293V71.4086ZM709.019 71.6036C709.019 72.5567 709.198 73.287 709.557 73.7945C709.916 74.2958 710.43 74.5465 711.098 74.5465C711.748 74.5465 712.256 74.2989 712.621 73.8038C712.986 73.3025 713.168 72.5041 713.168 71.4086C713.168 70.4741 712.986 69.7499 712.621 69.2362C712.256 68.7225 711.742 68.4657 711.08 68.4657C710.424 68.4657 709.916 68.7225 709.557 69.2362C709.198 69.7438 709.019 70.5329 709.019 71.6036ZM719.973 66.479L720.057 67.6395C720.775 66.742 721.737 66.2933 722.944 66.2933C724.009 66.2933 724.801 66.6059 725.321 67.231C725.841 67.8561 726.107 68.7906 726.119 70.0346V76.5239H723.436V70.0996C723.436 69.5302 723.312 69.1187 723.065 68.8649C722.817 68.605 722.406 68.475 721.83 68.475C721.075 68.475 720.509 68.7968 720.131 69.4405V76.5239H717.448V66.479H719.973ZM733.602 73.7481C733.602 73.4201 733.438 73.1632 733.11 72.9776C732.788 72.7857 732.268 72.6155 731.55 72.467C729.161 71.9656 727.967 70.9506 727.967 69.4219C727.967 68.5307 728.335 67.788 729.071 67.1938C729.814 66.5935 730.783 66.2933 731.977 66.2933C733.252 66.2933 734.27 66.5935 735.032 67.1938C735.799 67.7942 736.183 68.574 736.183 69.5333H733.5C733.5 69.1496 733.376 68.834 733.128 68.5864C732.881 68.3326 732.494 68.2058 731.968 68.2058C731.516 68.2058 731.166 68.3079 730.919 68.5121C730.671 68.7164 730.548 68.9763 730.548 69.2919C730.548 69.589 730.687 69.8304 730.965 70.0161C731.25 70.1956 731.727 70.3534 732.395 70.4895C733.063 70.6195 733.627 70.768 734.085 70.9352C735.502 71.455 736.211 72.3556 736.211 73.6367C736.211 74.5527 735.818 75.2954 735.032 75.8648C734.246 76.428 733.231 76.7096 731.986 76.7096C731.145 76.7096 730.396 76.5611 729.74 76.264C729.09 75.9607 728.579 75.5491 728.208 75.0293C727.837 74.5032 727.651 73.9369 727.651 73.3303H730.195C730.22 73.8069 730.396 74.1721 730.724 74.4258C731.052 74.6796 731.491 74.8064 732.042 74.8064C732.556 74.8064 732.943 74.7105 733.203 74.5187C733.469 74.3206 733.602 74.0638 733.602 73.7481ZM745.643 71.7614V76.5239H742.858V63.0069H748.131C749.146 63.0069 750.037 63.1926 750.804 63.5639C751.578 63.9353 752.172 64.4644 752.587 65.1514C753.002 65.8322 753.209 66.609 753.209 67.4816C753.209 68.8061 752.754 69.8521 751.844 70.6195C750.941 71.3808 749.687 71.7614 748.084 71.7614H745.643ZM745.643 69.5055H748.131C748.867 69.5055 749.427 69.3322 749.811 68.9856C750.201 68.639 750.396 68.1439 750.396 67.5002C750.396 66.838 750.201 66.3026 749.811 65.8941C749.421 65.4856 748.883 65.2752 748.196 65.2628H745.643V69.5055ZM759.448 76.7096C757.975 76.7096 756.774 76.2578 755.846 75.3542C754.923 74.4506 754.462 73.2468 754.462 71.7428V71.4829C754.462 70.4741 754.657 69.5735 755.047 68.7813C755.437 67.9829 755.988 67.3702 756.7 66.9432C757.418 66.5099 758.235 66.2933 759.151 66.2933C760.525 66.2933 761.605 66.7266 762.391 67.593C763.183 68.4595 763.579 69.688 763.579 71.2787V72.3741H757.182C757.269 73.0302 757.529 73.5562 757.962 73.9523C758.402 74.3485 758.956 74.5465 759.624 74.5465C760.658 74.5465 761.465 74.1721 762.047 73.4232L763.365 74.8993C762.963 75.4687 762.418 75.9143 761.731 76.2361C761.044 76.5518 760.283 76.7096 759.448 76.7096ZM759.141 68.4657C758.609 68.4657 758.176 68.6452 757.842 69.0042C757.513 69.3631 757.303 69.8768 757.21 70.5452H760.942V70.3317C760.93 69.7376 760.769 69.2796 760.46 68.9577C760.15 68.6297 759.711 68.4657 759.141 68.4657ZM770.755 68.9949C770.39 68.9454 770.068 68.9206 769.79 68.9206C768.775 68.9206 768.109 69.2641 767.794 69.9511V76.5239H765.111V66.479H767.645L767.719 67.6766C768.258 66.7544 769.004 66.2933 769.957 66.2933C770.254 66.2933 770.532 66.3335 770.792 66.414L770.755 68.9949ZM783.975 72.9776C783.975 72.4515 783.789 72.0492 783.418 71.7707C783.047 71.486 782.378 71.1889 781.413 70.8795C780.447 70.5638 779.683 70.2544 779.12 69.9511C777.585 69.1217 776.817 68.0046 776.817 66.5997C776.817 65.8694 777.022 65.2195 777.43 64.6501C777.845 64.0745 778.436 63.6258 779.203 63.304C779.977 62.9821 780.843 62.8212 781.803 62.8212C782.768 62.8212 783.628 62.9976 784.384 63.3504C785.139 63.697 785.723 64.189 786.138 64.8265C786.559 65.464 786.769 66.1881 786.769 66.9989H783.984C783.984 66.38 783.789 65.9003 783.399 65.5599C783.01 65.2133 782.462 65.04 781.756 65.04C781.075 65.04 780.546 65.1855 780.169 65.4764C779.791 65.7611 779.602 66.1386 779.602 66.609C779.602 67.0484 779.822 67.4166 780.262 67.7137C780.707 68.0108 781.36 68.2893 782.22 68.5493C783.805 69.0258 784.959 69.6169 785.683 70.3224C786.407 71.028 786.769 71.9068 786.769 72.959C786.769 74.1287 786.327 75.0478 785.442 75.7162C784.557 76.3785 783.365 76.7096 781.868 76.7096C780.828 76.7096 779.881 76.5208 779.027 76.1433C778.173 75.7596 777.52 75.2366 777.068 74.5744C776.622 73.9121 776.4 73.1447 776.4 72.272H779.194C779.194 73.7636 780.085 74.5094 781.868 74.5094C782.53 74.5094 783.047 74.3763 783.418 74.1102C783.789 73.8378 783.975 73.4603 783.975 72.9776ZM793.11 76.7096C791.637 76.7096 790.436 76.2578 789.508 75.3542C788.586 74.4506 788.125 73.2468 788.125 71.7428V71.4829C788.125 70.4741 788.32 69.5735 788.71 68.7813C789.1 67.9829 789.65 67.3702 790.362 66.9432C791.08 66.5099 791.897 66.2933 792.813 66.2933C794.187 66.2933 795.267 66.7266 796.053 67.593C796.845 68.4595 797.241 69.688 797.241 71.2787V72.3741H790.845C790.932 73.0302 791.192 73.5562 791.625 73.9523C792.064 74.3485 792.618 74.5465 793.287 74.5465C794.32 74.5465 795.128 74.1721 795.71 73.4232L797.028 74.8993C796.626 75.4687 796.081 75.9143 795.394 76.2361C794.707 76.5518 793.946 76.7096 793.11 76.7096ZM792.804 68.4657C792.272 68.4657 791.838 68.6452 791.504 69.0042C791.176 69.3631 790.966 69.8768 790.873 70.5452H794.605V70.3317C794.592 69.7376 794.432 69.2796 794.122 68.9577C793.813 68.6297 793.373 68.4657 792.804 68.4657ZM802.951 74.5465C803.446 74.5465 803.848 74.4103 804.158 74.138C804.467 73.8657 804.628 73.5036 804.641 73.0518H807.156C807.15 73.7326 806.965 74.3577 806.599 74.9271C806.234 75.4903 805.733 75.9298 805.095 76.2454C804.464 76.5549 803.765 76.7096 802.997 76.7096C801.561 76.7096 800.429 76.2547 799.599 75.3449C798.77 74.4289 798.355 73.1663 798.355 71.5572V71.3808C798.355 69.8335 798.767 68.5988 799.59 67.6766C800.413 66.7544 801.543 66.2933 802.979 66.2933C804.235 66.2933 805.241 66.6523 805.996 67.3702C806.757 68.082 807.144 69.032 807.156 70.2203H804.641C804.628 69.7004 804.467 69.2796 804.158 68.9577C803.848 68.6297 803.44 68.4657 802.932 68.4657C802.307 68.4657 801.834 68.6947 801.512 69.1527C801.196 69.6045 801.038 70.341 801.038 71.3622V71.6407C801.038 72.6743 801.196 73.417 801.512 73.8688C801.828 74.3206 802.307 74.5465 802.951 74.5465ZM808.27 71.4086C808.27 70.4122 808.462 69.524 808.846 68.7442C809.23 67.9644 809.781 67.3609 810.499 66.9339C811.223 66.5068 812.061 66.2933 813.014 66.2933C814.37 66.2933 815.475 66.708 816.329 67.5373C817.189 68.3667 817.669 69.4931 817.768 70.9166L817.786 71.6036C817.786 73.1447 817.356 74.3825 816.496 75.317C815.635 76.2454 814.481 76.7096 813.033 76.7096C811.585 76.7096 810.427 76.2454 809.561 75.317C808.701 74.3887 808.27 73.1261 808.27 71.5293V71.4086ZM810.953 71.6036C810.953 72.5567 811.133 73.287 811.492 73.7945C811.851 74.2958 812.365 74.5465 813.033 74.5465C813.683 74.5465 814.19 74.2989 814.555 73.8038C814.921 73.3025 815.103 72.5041 815.103 71.4086C815.103 70.4741 814.921 69.7499 814.555 69.2362C814.19 68.7225 813.677 68.4657 813.014 68.4657C812.358 68.4657 811.851 68.7225 811.492 69.2362C811.133 69.7438 810.953 70.5329 810.953 71.6036ZM821.908 66.479L821.992 67.6395C822.71 66.742 823.672 66.2933 824.879 66.2933C825.943 66.2933 826.736 66.6059 827.256 67.231C827.775 67.8561 828.042 68.7906 828.054 70.0346V76.5239H825.371V70.0996C825.371 69.5302 825.247 69.1187 825 68.8649C824.752 68.605 824.34 68.475 823.765 68.475C823.01 68.475 822.443 68.7968 822.066 69.4405V76.5239H819.383V66.479H821.908ZM829.679 71.4272C829.679 69.8613 830.028 68.6142 830.728 67.6859C831.433 66.7575 832.396 66.2933 833.615 66.2933C834.593 66.2933 835.4 66.6585 836.038 67.3888V62.2642H838.73V76.5239H836.307L836.177 75.4563C835.509 76.2918 834.648 76.7096 833.596 76.7096C832.414 76.7096 831.464 76.2454 830.746 75.317C830.034 74.3825 829.679 73.0859 829.679 71.4272ZM832.362 71.6221C832.362 72.5629 832.526 73.2839 832.854 73.7852C833.182 74.2866 833.658 74.5372 834.283 74.5372C835.113 74.5372 835.697 74.1875 836.038 73.4882V69.524C835.704 68.8247 835.125 68.475 834.302 68.475C833.008 68.475 832.362 69.524 832.362 71.6221Z" fill="#F4BD27"/>
<rect x="882.024" y="458.075" width="55.7162" height="65.6013" fill="#C4C4C4"/>
<rect x="882.024" y="458.075" width="55.7162" height="65.6013" fill="url(#paint0_linear)"/>
<rect x="882.024" y="458.075" width="55.7162" height="65.6013" stroke="#C4C4C4" stroke-width="0.898649"/>
<rect x="700.497" y="401.46" width="55.7162" height="122.216" fill="#C4C4C4"/>
<rect x="700.497" y="401.46" width="55.7162" height="122.216" fill="url(#paint1_linear)"/>
<rect x="700.497" y="401.46" width="55.7162" height="122.216" stroke="#C4C4C4" stroke-width="0.898649"/>
<rect x="518.97" y="374.5" width="55.7162" height="149.176" fill="#CBCDDA"/>
<rect x="518.97" y="374.5" width="55.7162" height="149.176" fill="url(#paint2_linear)"/>
<rect x="518.97" y="374.5" width="55.7162" height="149.176" stroke="#C4C4C4" stroke-width="0.898649"/>
<rect x="337.442" y="230.716" width="55.7162" height="292.959" fill="#C4C4C4"/>
<rect x="337.442" y="230.716" width="55.7162" height="292.959" fill="url(#paint3_linear)"/>
<rect x="337.442" y="230.716" width="55.7162" height="292.959" stroke="#CBCDDA" stroke-width="0.898649"/>
<rect x="155.466" y="95.4697" width="56.6149" height="428.655" fill="#6C63FF" fill-opacity="0.5"/>
<line x1="3.5946" y1="523.676" x2="1064" y2="523.676" stroke="#66A2FB" stroke-width="0.898649"/>
<line x1="3.14528" y1="525.41" x2="3.14528" y2="0.599121" stroke="#66A2FB" stroke-width="0.898649"/>
<path d="M139.901 62.0915L140.319 64.1896L140.83 62.1843L143.763 52.223H144.794L147.69 62.1843L148.192 64.2082L148.637 62.0915L151.079 52.223H152.249L148.786 65.74H147.69L144.627 55.1659L144.283 53.829L143.949 55.1659L140.811 65.74H139.716L136.262 52.223H137.432L139.901 62.0915ZM157.782 65.9257C156.928 65.9257 156.154 65.7152 155.461 65.2944C154.774 64.8735 154.239 64.2886 153.855 63.5398C153.471 62.7847 153.279 61.9399 153.279 61.0053V60.6061C153.279 59.6406 153.465 58.771 153.836 57.9974C154.214 57.2238 154.737 56.6172 155.405 56.1778C156.074 55.7322 156.798 55.5094 157.578 55.5094C158.797 55.5094 159.762 55.9271 160.474 56.7627C161.192 57.592 161.551 58.7277 161.551 60.1698V60.7918H154.384V61.0053C154.384 62.1441 154.709 63.0941 155.359 63.8554C156.015 64.6105 156.838 64.988 157.828 64.988C158.422 64.988 158.945 64.8797 159.397 64.6631C159.855 64.4465 160.27 64.0999 160.641 63.6233L161.337 64.1525C160.52 65.3346 159.335 65.9257 157.782 65.9257ZM157.578 56.4563C156.742 56.4563 156.036 56.7627 155.461 57.3754C154.891 57.9881 154.545 58.8113 154.421 59.8449H160.446V59.7242C160.415 58.7587 160.14 57.9727 159.62 57.3661C159.1 56.7596 158.419 56.4563 157.578 56.4563ZM171.8 60.8196C171.8 62.3855 171.454 63.6295 170.76 64.5517C170.067 65.4677 169.136 65.9257 167.966 65.9257C166.567 65.9257 165.509 65.4058 164.791 64.366L164.745 65.74H163.705V51.4803H164.81V57.1526C165.515 56.0571 166.561 55.5094 167.947 55.5094C169.136 55.5094 170.073 55.9643 170.76 56.8741C171.454 57.7777 171.8 59.0372 171.8 60.6525V60.8196ZM170.686 60.6247C170.686 59.3002 170.429 58.279 169.916 57.5611C169.402 56.8369 168.678 56.4749 167.743 56.4749C167.031 56.4749 166.428 56.6513 165.933 57.0041C165.438 57.3506 165.063 57.8612 164.81 58.5359V63.0663C165.367 64.3289 166.351 64.9602 167.762 64.9602C168.678 64.9602 169.393 64.5981 169.906 63.874C170.426 63.1498 170.686 62.0668 170.686 60.6247ZM183.693 53.1977H179.06V65.74H177.918V53.1977H173.295V52.223H183.693V53.1977ZM186.728 57.394C187.093 56.7936 187.561 56.3294 188.13 56.0014C188.7 55.6734 189.322 55.5094 189.996 55.5094C191.073 55.5094 191.875 55.8127 192.401 56.4192C192.927 57.0257 193.193 57.9355 193.199 59.1486V65.74H192.094V59.1393C192.088 58.2419 191.896 57.5735 191.519 57.134C191.147 56.6946 190.55 56.4749 189.727 56.4749C189.04 56.4749 188.43 56.6915 187.898 57.1247C187.372 57.5518 186.982 58.1305 186.728 58.8608V65.74H185.624V51.4803H186.728V57.394ZM199.948 65.9257C199.094 65.9257 198.32 65.7152 197.627 65.2944C196.94 64.8735 196.405 64.2886 196.021 63.5398C195.638 62.7847 195.446 61.9399 195.446 61.0053V60.6061C195.446 59.6406 195.631 58.771 196.003 57.9974C196.38 57.2238 196.903 56.6172 197.572 56.1778C198.24 55.7322 198.964 55.5094 199.744 55.5094C200.963 55.5094 201.929 55.9271 202.64 56.7627C203.358 57.592 203.717 58.7277 203.717 60.1698V60.7918H196.55V61.0053C196.55 62.1441 196.875 63.0941 197.525 63.8554C198.181 64.6105 199.004 64.988 199.995 64.988C200.589 64.988 201.112 64.8797 201.564 64.6631C202.022 64.4465 202.436 64.0999 202.808 63.6233L203.504 64.1525C202.687 65.3346 201.502 65.9257 199.948 65.9257ZM199.744 56.4563C198.908 56.4563 198.203 56.7627 197.627 57.3754C197.058 57.9881 196.711 58.8113 196.588 59.8449H202.613V59.7242C202.582 58.7587 202.306 57.9727 201.786 57.3661C201.267 56.7596 200.586 56.4563 199.744 56.4563ZM205.268 60.569C205.268 59.6035 205.453 58.7339 205.825 57.9603C206.202 57.1866 206.731 56.5863 207.412 56.1592C208.099 55.726 208.876 55.5094 209.742 55.5094C211.079 55.5094 212.162 55.9798 212.992 56.9205C213.821 57.8551 214.236 59.096 214.236 60.6433V60.8753C214.236 61.847 214.047 62.7228 213.669 63.5026C213.298 64.2763 212.772 64.8735 212.091 65.2944C211.41 65.7152 210.634 65.9257 209.761 65.9257C208.43 65.9257 207.347 65.4584 206.512 64.5238C205.682 63.5831 205.268 62.3391 205.268 60.7918V60.569ZM206.382 60.8753C206.382 62.076 206.691 63.0632 207.31 63.8368C207.935 64.6043 208.752 64.988 209.761 64.988C210.764 64.988 211.574 64.6043 212.193 63.8368C212.818 63.0632 213.131 62.0451 213.131 60.7825V60.569C213.131 59.8015 212.989 59.0991 212.704 58.4616C212.419 57.8241 212.02 57.3321 211.506 56.9855C210.993 56.6327 210.405 56.4563 209.742 56.4563C208.752 56.4563 207.945 56.8462 207.319 57.6261C206.694 58.3997 206.382 59.4147 206.382 60.6711V60.8753ZM221.18 56.642C220.945 56.5987 220.694 56.577 220.428 56.577C219.735 56.577 219.147 56.772 218.664 57.1619C218.188 57.5456 217.847 58.1057 217.643 58.8422V65.74H216.538V55.6951H217.624L217.643 57.2918C218.231 56.1035 219.175 55.5094 220.474 55.5094C220.784 55.5094 221.028 55.5496 221.208 55.6301L221.18 56.642ZM226.295 64.1432L229.229 55.6951H230.427L226.137 67.4482L225.915 67.9681C225.364 69.1873 224.513 69.797 223.362 69.797C223.096 69.797 222.811 69.7536 222.508 69.667L222.498 68.7479L223.074 68.8036C223.618 68.8036 224.058 68.6674 224.392 68.3951C224.733 68.129 225.02 67.6679 225.256 67.0119L225.748 65.6564L221.96 55.6951H223.176L226.295 64.1432Z" fill="black"/>
<path d="M351.155 215.107C350.758 215.67 350.136 216.109 349.289 216.425C348.447 216.741 347.503 216.899 346.457 216.899C345.399 216.899 344.458 216.645 343.635 216.137C342.812 215.63 342.174 214.912 341.722 213.983C341.271 213.055 341.042 211.991 341.035 210.79V209.082C341.035 207.206 341.509 205.727 342.456 204.644C343.403 203.555 344.675 203.01 346.271 203.01C347.664 203.01 348.784 203.366 349.632 204.078C350.48 204.783 350.984 205.758 351.145 207.002H350.003C349.836 206.012 349.431 205.263 348.787 204.756C348.15 204.242 347.314 203.985 346.281 203.985C345.018 203.985 344.018 204.434 343.282 205.331C342.545 206.229 342.177 207.494 342.177 209.128V210.725C342.177 211.752 342.351 212.662 342.697 213.454C343.05 214.24 343.551 214.85 344.201 215.283C344.857 215.716 345.609 215.933 346.457 215.933C347.441 215.933 348.286 215.778 348.991 215.469C349.449 215.265 349.79 215.026 350.013 214.754V211.263H346.383V210.298H351.155V215.107ZM355.239 208.367C355.605 207.767 356.072 207.302 356.641 206.974C357.211 206.646 357.833 206.482 358.507 206.482C359.584 206.482 360.386 206.786 360.912 207.392C361.438 207.999 361.704 208.908 361.71 210.121V216.713H360.605V210.112C360.599 209.215 360.407 208.546 360.03 208.107C359.658 207.667 359.061 207.448 358.238 207.448C357.551 207.448 356.941 207.664 356.409 208.098C355.883 208.525 355.493 209.103 355.239 209.834V216.713H354.135V202.453H355.239V208.367ZM363.957 211.542C363.957 210.576 364.142 209.707 364.514 208.933C364.891 208.16 365.42 207.559 366.101 207.132C366.788 206.699 367.565 206.482 368.431 206.482C369.768 206.482 370.851 206.953 371.681 207.893C372.51 208.828 372.925 210.069 372.925 211.616V211.848C372.925 212.82 372.736 213.696 372.358 214.476C371.987 215.249 371.461 215.846 370.78 216.267C370.099 216.688 369.323 216.899 368.45 216.899C367.119 216.899 366.036 216.431 365.201 215.497C364.371 214.556 363.957 213.312 363.957 211.765V211.542ZM365.071 211.848C365.071 213.049 365.38 214.036 365.999 214.81C366.624 215.577 367.441 215.961 368.45 215.961C369.453 215.961 370.263 215.577 370.882 214.81C371.507 214.036 371.82 213.018 371.82 211.755V211.542C371.82 210.774 371.678 210.072 371.393 209.434C371.108 208.797 370.709 208.305 370.195 207.958C369.682 207.606 369.094 207.429 368.431 207.429C367.441 207.429 366.634 207.819 366.008 208.599C365.383 209.373 365.071 210.388 365.071 211.644V211.848ZM381.243 214.16C381.243 213.609 381.02 213.167 380.575 212.832C380.135 212.498 379.47 212.238 378.579 212.052C377.687 211.861 376.994 211.644 376.499 211.403C376.01 211.155 375.645 210.855 375.403 210.502C375.168 210.149 375.051 209.722 375.051 209.221C375.051 208.429 375.382 207.776 376.044 207.262C376.706 206.742 377.554 206.482 378.588 206.482C379.708 206.482 380.605 206.761 381.28 207.318C381.961 207.869 382.301 208.59 382.301 209.481H381.187C381.187 208.893 380.94 208.404 380.445 208.014C379.956 207.624 379.337 207.429 378.588 207.429C377.857 207.429 377.27 207.593 376.824 207.921C376.384 208.243 376.165 208.664 376.165 209.184C376.165 209.685 376.347 210.075 376.712 210.354C377.084 210.626 377.755 210.877 378.727 211.106C379.705 211.335 380.435 211.579 380.918 211.839C381.407 212.099 381.769 212.411 382.004 212.777C382.239 213.142 382.357 213.584 382.357 214.104C382.357 214.952 382.013 215.63 381.326 216.137C380.646 216.645 379.754 216.899 378.653 216.899C377.483 216.899 376.533 216.617 375.803 216.054C375.079 215.484 374.717 214.766 374.717 213.9H375.831C375.874 214.55 376.146 215.057 376.648 215.422C377.155 215.781 377.823 215.961 378.653 215.961C379.426 215.961 380.052 215.791 380.528 215.45C381.005 215.11 381.243 214.68 381.243 214.16ZM386.59 204.096V206.668H388.67V207.578H386.59V214.271C386.59 214.828 386.689 215.243 386.887 215.515C387.092 215.788 387.429 215.924 387.899 215.924C388.085 215.924 388.385 215.893 388.8 215.831L388.846 216.741C388.555 216.846 388.159 216.899 387.658 216.899C386.897 216.899 386.343 216.679 385.996 216.239C385.65 215.794 385.476 215.141 385.476 214.281V207.578H383.629V206.668H385.476V204.096H386.59Z" fill="black"/>
<path d="M504.973 352.355L505.391 354.453L505.902 352.448L508.835 342.486H509.866L512.762 352.448L513.263 354.472L513.709 352.355L516.151 342.486H517.32L513.858 356.003H512.762L509.699 345.429L509.355 344.092L509.021 345.429L505.883 356.003H504.787L501.334 342.486H502.504L504.973 352.355ZM518.351 350.832C518.351 349.867 518.537 348.997 518.908 348.224C519.285 347.45 519.815 346.85 520.495 346.423C521.182 345.989 521.959 345.773 522.826 345.773C524.162 345.773 525.246 346.243 526.075 347.184C526.904 348.118 527.319 349.359 527.319 350.907V351.139C527.319 352.11 527.13 352.986 526.753 353.766C526.381 354.54 525.855 355.137 525.174 355.558C524.494 355.979 523.717 356.189 522.844 356.189C521.514 356.189 520.43 355.722 519.595 354.787C518.766 353.847 518.351 352.602 518.351 351.055V350.832ZM519.465 351.139C519.465 352.339 519.774 353.327 520.393 354.1C521.018 354.868 521.835 355.251 522.844 355.251C523.847 355.251 524.658 354.868 525.277 354.1C525.902 353.327 526.214 352.309 526.214 351.046V350.832C526.214 350.065 526.072 349.362 525.787 348.725C525.502 348.088 525.103 347.596 524.59 347.249C524.076 346.896 523.488 346.72 522.826 346.72C521.835 346.72 521.028 347.11 520.403 347.889C519.778 348.663 519.465 349.678 519.465 350.935V351.139ZM534.263 346.905C534.028 346.862 533.777 346.84 533.511 346.84C532.818 346.84 532.23 347.035 531.747 347.425C531.271 347.809 530.93 348.369 530.726 349.106V356.003H529.621V345.958H530.707L530.726 347.555C531.314 346.367 532.258 345.773 533.558 345.773C533.867 345.773 534.111 345.813 534.291 345.893L534.263 346.905ZM535.396 350.888C535.396 349.328 535.742 348.088 536.436 347.165C537.135 346.237 538.082 345.773 539.276 345.773C540.632 345.773 541.665 346.308 542.377 347.379V341.744H543.482V356.003H542.442L542.396 354.667C541.684 355.682 540.638 356.189 539.258 356.189C538.1 356.189 537.166 355.725 536.454 354.797C535.749 353.862 535.396 352.602 535.396 351.018V350.888ZM536.519 351.083C536.519 352.364 536.776 353.376 537.29 354.119C537.803 354.855 538.527 355.224 539.462 355.224C540.83 355.224 541.801 354.62 542.377 353.413V348.697C541.801 347.391 540.836 346.738 539.481 346.738C538.546 346.738 537.819 347.107 537.299 347.843C536.779 348.573 536.519 349.653 536.519 351.083ZM547.808 350.498V356.003H546.666V342.486H551.271C552.676 342.486 553.784 342.845 554.594 343.563C555.411 344.281 555.82 345.268 555.82 346.525C555.82 347.794 555.427 348.775 554.641 349.468C553.861 350.155 552.728 350.498 551.243 350.498H547.808ZM547.808 349.533H551.271C552.379 349.533 553.223 349.27 553.805 348.744C554.387 348.218 554.678 347.484 554.678 346.543C554.678 345.609 554.387 344.866 553.805 344.315C553.23 343.758 552.41 343.474 551.345 343.461H547.808V349.533ZM562.764 346.905C562.529 346.862 562.278 346.84 562.012 346.84C561.319 346.84 560.731 347.035 560.248 347.425C559.772 347.809 559.431 348.369 559.227 349.106V356.003H558.122V345.958H559.208L559.227 347.555C559.815 346.367 560.759 345.773 562.058 345.773C562.368 345.773 562.612 345.813 562.792 345.893L562.764 346.905ZM568.232 356.189C567.378 356.189 566.604 355.979 565.911 355.558C565.224 355.137 564.689 354.552 564.305 353.803C563.921 353.048 563.73 352.203 563.73 351.269V350.87C563.73 349.904 563.915 349.034 564.287 348.261C564.664 347.487 565.187 346.881 565.855 346.441C566.524 345.996 567.248 345.773 568.028 345.773C569.247 345.773 570.213 346.191 570.924 347.026C571.642 347.855 572.001 348.991 572.001 350.433V351.055H564.834V351.269C564.834 352.408 565.159 353.358 565.809 354.119C566.465 354.874 567.288 355.251 568.279 355.251C568.873 355.251 569.396 355.143 569.847 354.927C570.305 354.71 570.72 354.363 571.091 353.887L571.788 354.416C570.971 355.598 569.786 356.189 568.232 356.189ZM568.028 346.72C567.192 346.72 566.487 347.026 565.911 347.639C565.342 348.252 564.995 349.075 564.871 350.108H570.896V349.988C570.866 349.022 570.59 348.236 570.07 347.63C569.55 347.023 568.87 346.72 568.028 346.72ZM580.18 353.45C580.18 352.9 579.957 352.457 579.512 352.123C579.072 351.789 578.407 351.529 577.516 351.343C576.625 351.151 575.931 350.935 575.436 350.693C574.947 350.446 574.582 350.145 574.341 349.793C574.106 349.44 573.988 349.013 573.988 348.511C573.988 347.719 574.319 347.066 574.981 346.553C575.644 346.033 576.491 345.773 577.525 345.773C578.645 345.773 579.543 346.051 580.217 346.608C580.898 347.159 581.239 347.88 581.239 348.771H580.124C580.124 348.183 579.877 347.695 579.382 347.305C578.893 346.915 578.274 346.72 577.525 346.72C576.795 346.72 576.207 346.884 575.761 347.212C575.322 347.534 575.102 347.954 575.102 348.474C575.102 348.976 575.285 349.366 575.65 349.644C576.021 349.916 576.693 350.167 577.664 350.396C578.642 350.625 579.372 350.87 579.855 351.129C580.344 351.389 580.706 351.702 580.941 352.067C581.177 352.432 581.294 352.875 581.294 353.395C581.294 354.243 580.951 354.92 580.264 355.428C579.583 355.935 578.692 356.189 577.59 356.189C576.42 356.189 575.47 355.907 574.74 355.344C574.016 354.775 573.654 354.057 573.654 353.19H574.768C574.811 353.84 575.083 354.348 575.585 354.713C576.092 355.072 576.761 355.251 577.59 355.251C578.364 355.251 578.989 355.081 579.465 354.741C579.942 354.4 580.18 353.97 580.18 353.45ZM589.817 353.45C589.817 352.9 589.594 352.457 589.148 352.123C588.709 351.789 588.043 351.529 587.152 351.343C586.261 351.151 585.568 350.935 585.073 350.693C584.584 350.446 584.219 350.145 583.977 349.793C583.742 349.44 583.624 349.013 583.624 348.511C583.624 347.719 583.956 347.066 584.618 346.553C585.28 346.033 586.128 345.773 587.161 345.773C588.282 345.773 589.179 346.051 589.854 346.608C590.535 347.159 590.875 347.88 590.875 348.771H589.761C589.761 348.183 589.513 347.695 589.018 347.305C588.529 346.915 587.91 346.72 587.161 346.72C586.431 346.72 585.843 346.884 585.398 347.212C584.958 347.534 584.738 347.954 584.738 348.474C584.738 348.976 584.921 349.366 585.286 349.644C585.658 349.916 586.329 350.167 587.301 350.396C588.279 350.625 589.009 350.87 589.492 351.129C589.981 351.389 590.343 351.702 590.578 352.067C590.813 352.432 590.931 352.875 590.931 353.395C590.931 354.243 590.587 354.92 589.9 355.428C589.219 355.935 588.328 356.189 587.226 356.189C586.057 356.189 585.107 355.907 584.376 355.344C583.652 354.775 583.29 354.057 583.29 353.19H584.404C584.448 353.84 584.72 354.348 585.221 354.713C585.729 355.072 586.397 355.251 587.226 355.251C588 355.251 588.625 355.081 589.102 354.741C589.578 354.4 589.817 353.97 589.817 353.45Z" fill="black"/>
<path d="M704.477 369.446H705.628V378.943C705.628 380.224 705.257 381.246 704.514 382.007C703.778 382.768 702.787 383.149 701.543 383.149C700.231 383.149 699.223 382.805 698.517 382.118C697.811 381.431 697.459 380.472 697.459 379.24H698.601C698.601 380.218 698.857 380.955 699.371 381.45C699.885 381.939 700.609 382.183 701.543 382.183C702.404 382.183 703.103 381.899 703.642 381.329C704.186 380.76 704.465 379.986 704.477 379.008V369.446ZM708.107 377.792C708.107 376.827 708.293 375.957 708.664 375.183C709.042 374.41 709.571 373.809 710.252 373.382C710.939 372.949 711.715 372.733 712.582 372.733C713.919 372.733 715.002 373.203 715.831 374.144C716.66 375.078 717.075 376.319 717.075 377.866V378.098C717.075 379.07 716.886 379.946 716.509 380.726C716.137 381.499 715.611 382.097 714.931 382.518C714.25 382.938 713.473 383.149 712.6 383.149C711.27 383.149 710.187 382.682 709.351 381.747C708.522 380.806 708.107 379.562 708.107 378.015V377.792ZM709.221 378.098C709.221 379.299 709.531 380.286 710.149 381.06C710.775 381.827 711.592 382.211 712.6 382.211C713.603 382.211 714.414 381.827 715.033 381.06C715.658 380.286 715.97 379.268 715.97 378.006V377.792C715.97 377.025 715.828 376.322 715.543 375.685C715.259 375.047 714.859 374.555 714.346 374.209C713.832 373.856 713.244 373.679 712.582 373.679C711.592 373.679 710.784 374.069 710.159 374.849C709.534 375.623 709.221 376.638 709.221 377.894V378.098ZM718.765 377.792C718.765 376.827 718.95 375.957 719.322 375.183C719.699 374.41 720.228 373.809 720.909 373.382C721.596 372.949 722.373 372.733 723.239 372.733C724.576 372.733 725.659 373.203 726.489 374.144C727.318 375.078 727.733 376.319 727.733 377.866V378.098C727.733 379.07 727.544 379.946 727.166 380.726C726.795 381.499 726.269 382.097 725.588 382.518C724.907 382.938 724.131 383.149 723.258 383.149C721.927 383.149 720.844 382.682 720.009 381.747C719.179 380.806 718.765 379.562 718.765 378.015V377.792ZM719.879 378.098C719.879 379.299 720.188 380.286 720.807 381.06C721.432 381.827 722.249 382.211 723.258 382.211C724.261 382.211 725.071 381.827 725.69 381.06C726.315 380.286 726.628 379.268 726.628 378.006V377.792C726.628 377.025 726.486 376.322 726.201 375.685C725.916 375.047 725.517 374.555 725.003 374.209C724.49 373.856 723.902 373.679 723.239 373.679C722.249 373.679 721.441 374.069 720.816 374.849C720.191 375.623 719.879 376.638 719.879 377.894V378.098ZM731.047 372.918L731.084 374.552C731.455 373.946 731.92 373.491 732.477 373.187C733.034 372.884 733.653 372.733 734.333 372.733C735.918 372.733 736.924 373.382 737.351 374.682C737.71 374.057 738.189 373.577 738.79 373.243C739.39 372.903 740.052 372.733 740.776 372.733C742.93 372.733 744.029 373.908 744.072 376.26V382.963H742.958V376.344C742.952 375.446 742.757 374.781 742.373 374.348C741.996 373.915 741.377 373.698 740.516 373.698C739.718 373.71 739.043 373.97 738.492 374.478C737.942 374.979 737.635 375.592 737.573 376.316V382.963H736.459V376.26C736.453 375.4 736.249 374.759 735.847 374.339C735.451 373.912 734.838 373.698 734.008 373.698C733.309 373.698 732.709 373.899 732.207 374.301C731.706 374.698 731.335 375.289 731.093 376.075V382.963H729.979V372.918H731.047ZM748.138 382.963H747.024V368.703H748.138V382.963ZM757.505 382.963C757.394 382.647 757.323 382.18 757.292 381.561C756.902 382.069 756.404 382.462 755.797 382.74C755.197 383.013 754.559 383.149 753.885 383.149C752.919 383.149 752.136 382.88 751.536 382.341C750.942 381.803 750.645 381.122 750.645 380.299C750.645 379.321 751.05 378.547 751.861 377.978C752.678 377.408 753.814 377.124 755.268 377.124H757.283V375.982C757.283 375.264 757.06 374.701 756.614 374.292C756.175 373.878 755.531 373.67 754.683 373.67C753.91 373.67 753.269 373.868 752.761 374.264C752.254 374.66 752 375.137 752 375.694L750.886 375.685C750.886 374.886 751.258 374.196 752 373.614C752.743 373.027 753.656 372.733 754.739 372.733C755.859 372.733 756.741 373.014 757.385 373.577C758.035 374.134 758.369 374.914 758.387 375.917V380.67C758.387 381.642 758.49 382.369 758.694 382.852V382.963H757.505ZM754.015 382.165C754.757 382.165 755.42 381.985 756.001 381.626C756.589 381.267 757.017 380.788 757.283 380.187V377.978H755.296C754.188 377.99 753.322 378.194 752.697 378.591C752.071 378.98 751.759 379.519 751.759 380.206C751.759 380.769 751.966 381.236 752.381 381.608C752.802 381.979 753.346 382.165 754.015 382.165Z" fill="black"/>
<path d="M883.527 444.071V430.554H887.306C888.414 430.554 889.407 430.808 890.286 431.316C891.165 431.817 891.849 432.538 892.338 433.479C892.833 434.419 893.08 435.49 893.08 436.691V437.935C893.08 439.142 892.836 440.212 892.347 441.147C891.858 442.081 891.168 442.803 890.277 443.31C889.391 443.818 888.373 444.071 887.222 444.071H883.527ZM884.669 431.529V443.106H887.231C888.655 443.106 889.797 442.635 890.657 441.695C891.517 440.748 891.948 439.47 891.948 437.861V436.672C891.948 435.119 891.524 433.875 890.676 432.94C889.828 432.006 888.711 431.535 887.324 431.529H884.669ZM900.368 434.973C900.133 434.93 899.882 434.908 899.616 434.908C898.923 434.908 898.335 435.103 897.852 435.493C897.375 435.877 897.035 436.437 896.831 437.174V444.071H895.726V434.026H896.812L896.831 435.623C897.419 434.435 898.363 433.841 899.662 433.841C899.972 433.841 900.216 433.881 900.396 433.961L900.368 434.973ZM908.593 442.799C907.925 443.771 906.857 444.257 905.39 444.257C904.32 444.257 903.506 443.948 902.949 443.329C902.392 442.703 902.107 441.781 902.095 440.562V434.026H903.199V440.423C903.199 442.335 903.973 443.291 905.52 443.291C907.129 443.291 908.148 442.626 908.575 441.295V434.026H909.689V444.071H908.612L908.593 442.799ZM920.662 439.151C920.662 440.717 920.315 441.961 919.622 442.883C918.929 443.799 918.001 444.257 916.837 444.257C915.463 444.257 914.411 443.774 913.681 442.809V447.933H912.576V434.026H913.606L913.662 435.447C914.386 434.376 915.435 433.841 916.809 433.841C918.01 433.841 918.951 434.296 919.631 435.205C920.318 436.115 920.662 437.378 920.662 438.993V439.151ZM919.548 438.956C919.548 437.675 919.285 436.663 918.759 435.92C918.233 435.178 917.499 434.806 916.559 434.806C915.878 434.806 915.293 434.97 914.804 435.298C914.315 435.626 913.941 436.103 913.681 436.728V441.546C913.947 442.122 914.327 442.561 914.823 442.864C915.318 443.168 915.903 443.319 916.577 443.319C917.512 443.319 918.239 442.948 918.759 442.205C919.285 441.456 919.548 440.373 919.548 438.956ZM929.472 444.071C929.361 443.756 929.29 443.288 929.259 442.669C928.869 443.177 928.371 443.57 927.764 443.848C927.164 444.121 926.526 444.257 925.852 444.257C924.886 444.257 924.103 443.988 923.503 443.449C922.909 442.911 922.612 442.23 922.612 441.407C922.612 440.429 923.017 439.655 923.828 439.086C924.645 438.517 925.78 438.232 927.235 438.232H929.249V437.09C929.249 436.372 929.027 435.809 928.581 435.4C928.142 434.986 927.498 434.778 926.65 434.778C925.876 434.778 925.236 434.976 924.728 435.372C924.221 435.769 923.967 436.245 923.967 436.802L922.853 436.793C922.853 435.994 923.224 435.304 923.967 434.723C924.71 434.135 925.623 433.841 926.706 433.841C927.826 433.841 928.708 434.122 929.352 434.685C930.001 435.243 930.336 436.022 930.354 437.025V441.778C930.354 442.75 930.456 443.477 930.661 443.96V444.071H929.472ZM925.982 443.273C926.724 443.273 927.386 443.093 927.968 442.734C928.556 442.375 928.983 441.896 929.249 441.295V439.086H927.263C926.155 439.098 925.288 439.303 924.663 439.699C924.038 440.089 923.726 440.627 923.726 441.314C923.726 441.877 923.933 442.345 924.348 442.716C924.768 443.087 925.313 443.273 925.982 443.273ZM934.569 444.071H933.455V429.812H934.569V444.071Z" fill="black"/>
<defs>
<linearGradient id="paint0_linear" x1="909.882" y1="457.625" x2="909.882" y2="524.125" gradientUnits="userSpaceOnUse">
<stop stop-color="white"/>
<stop offset="1" stop-color="white" stop-opacity="0"/>
</linearGradient>
<linearGradient id="paint1_linear" x1="728.355" y1="401.01" x2="728.355" y2="524.125" gradientUnits="userSpaceOnUse">
<stop stop-color="white"/>
<stop offset="1" stop-color="white" stop-opacity="0"/>
</linearGradient>
<linearGradient id="paint2_linear" x1="546.828" y1="374.051" x2="546.828" y2="524.125" gradientUnits="userSpaceOnUse">
<stop stop-color="white"/>
<stop offset="1" stop-color="white" stop-opacity="0"/>
</linearGradient>
<linearGradient id="paint3_linear" x1="365.301" y1="230.267" x2="365.301" y2="524.125" gradientUnits="userSpaceOnUse">
<stop stop-color="white"/>
<stop offset="1" stop-color="white" stop-opacity="0"/>
</linearGradient>
</defs>
</svg>
