<svg width="898" height="661" viewBox="0 0 898 661" fill="none" xmlns="http://www.w3.org/2000/svg">
<g clip-path="url(#clip0)">
<path opacity="0.1" d="M646.972 542.653C663.769 548.737 684.262 545.033 703.326 545.464C705.933 545.528 708.695 545.699 710.791 546.747C712.886 547.795 713.91 549.5 715.347 550.963C720.684 556.38 731.593 558.127 741.194 557.201C750.794 556.275 759.526 553.237 768.559 550.922C784.162 546.909 801.991 545.09 817.383 549.46C818.796 549.971 820.293 550.208 821.794 550.158C825.173 549.801 826.172 546.909 828.536 545.236C832.792 542.239 842.043 543.051 843.92 539.095C845.016 536.78 842.49 534.409 839.745 532.825C829.186 526.773 814.183 525.774 800.415 526.708C786.648 527.643 773.091 530.217 759.283 530.226C742.046 530.226 725.387 526.278 708.321 524.653C696.495 523.533 683.588 523.679 672.501 526.977C660.479 530.559 657.832 538.584 646.972 542.653Z" fill="#6C63FF"/>
<path d="M493.485 477.942C616.345 477.942 715.942 465.547 715.942 450.256C715.942 434.966 616.345 422.571 493.485 422.571C370.626 422.571 271.028 434.966 271.028 450.256C271.028 465.547 370.626 477.942 493.485 477.942Z" fill="#9D9CB5"/>
<path opacity="0.1" d="M9.12979 634.309C41.0678 645.047 80.0318 638.517 116.267 639.272C121.23 639.378 126.477 639.686 130.457 641.538C134.437 643.39 136.394 646.412 139.124 648.979C149.277 658.555 170.087 661.609 188.265 659.985C206.444 658.36 223.119 652.983 240.25 648.881C269.921 641.798 303.833 638.582 333.091 646.298C335.771 647.005 338.598 647.825 341.481 647.541C347.898 646.907 349.807 641.774 354.291 638.833C362.413 633.537 379.982 634.975 383.532 627.998C385.62 623.937 380.819 619.713 375.596 616.919C355.598 606.229 326.991 604.467 300.82 606.116C274.649 607.765 248.908 612.313 222.607 612.329C189.89 612.37 158.212 605.376 125.721 602.517C103.246 600.535 78.7078 600.779 57.6297 606.579C34.8053 612.939 29.7774 627.113 9.12979 634.309Z" fill="#6C63FF"/>
<path opacity="0.1" d="M16.497 349.246C30.5978 409.516 60.4483 461.614 107.624 486.867C205.664 539.347 426.768 512.274 591.787 481.181C675.171 465.52 750.859 422.252 806.662 358.343L16.497 349.246Z" fill="#6C63FF"/>
<path opacity="0.1" d="M881.844 65.5576H791.302C789.227 65.5576 787.238 64.7335 785.771 63.2665C784.304 61.7996 783.48 59.8101 783.48 57.7355C783.48 55.661 784.304 53.6714 785.771 52.2045C787.238 50.7376 789.227 49.9135 791.302 49.9135H806.946C804.914 49.848 802.987 48.9948 801.573 47.5342C800.159 46.0737 799.368 44.1204 799.368 42.0874C799.368 40.0543 800.159 38.101 801.573 36.6405C802.987 35.18 804.914 34.3267 806.946 34.2613H795.769C793.737 34.1958 791.81 33.3426 790.396 31.882C788.982 30.4215 788.191 28.4682 788.191 26.4352C788.191 24.4021 788.982 22.4488 790.396 20.9883C791.81 19.5277 793.737 18.6745 795.769 18.609H843.026C832.54 13.7355 820.324 10.2672 806.166 8.4477C677.309 -8.098 631.303 2.86749 615.066 14.1091C595.044 27.9988 572.707 38.217 548.843 43.1392C469.306 59.5387 320.663 79.2766 185.893 36.8199C118.906 15.7012 69.1313 51.3755 39.2889 110.963H897.561C896.441 93.6455 893.086 77.6602 886.929 63.6569C885.517 64.8802 883.712 65.5549 881.844 65.5576Z" fill="#6C63FF"/>
<path opacity="0.1" d="M8.81303 223.444C5.33546 258.492 6.51812 293.846 12.3301 328.583L807.271 357.653C829.4 332.199 847.98 303.864 862.504 273.422L8.81303 223.444ZM323.222 298.464H307.578C309.652 298.464 311.642 299.288 313.109 300.755C314.576 302.222 315.4 304.212 315.4 306.286C315.4 308.361 314.576 310.35 313.109 311.817C311.642 313.284 309.652 314.108 307.578 314.108H217.035C214.961 314.108 212.971 313.284 211.504 311.817C210.037 310.35 209.213 308.361 209.213 306.286C209.213 304.212 210.037 302.222 211.504 300.755C212.971 299.288 214.961 298.464 217.035 298.464H232.679C230.647 298.399 228.721 297.545 227.306 296.085C225.892 294.624 225.101 292.671 225.101 290.638C225.101 288.605 225.892 286.652 227.306 285.191C228.721 283.73 230.647 282.877 232.679 282.812H221.503C219.471 282.746 217.544 281.893 216.13 280.433C214.716 278.972 213.925 277.019 213.925 274.986C213.925 272.953 214.716 270.999 216.13 269.539C217.544 268.078 219.471 267.225 221.503 267.16H312.045C314.077 267.225 316.004 268.078 317.418 269.539C318.832 270.999 319.623 272.953 319.623 274.986C319.623 277.019 318.832 278.972 317.418 280.433C316.004 281.893 314.077 282.746 312.045 282.812H323.222C324.271 282.778 325.316 282.955 326.295 283.334C327.274 283.712 328.167 284.283 328.921 285.013C329.675 285.743 330.274 286.617 330.684 287.583C331.093 288.55 331.304 289.588 331.304 290.638C331.304 291.687 331.093 292.726 330.684 293.693C330.274 294.659 329.675 295.533 328.921 296.263C328.167 296.993 327.274 297.564 326.295 297.942C325.316 298.32 324.271 298.498 323.222 298.464Z" fill="#6C63FF"/>
<path opacity="0.1" d="M897.602 111.507L29.7124 132.617C19.1531 159.763 12.1595 190.442 8.92673 222.242H882.388C888.089 203.561 892.307 184.46 895.003 165.116C897.602 146.426 898.642 128.345 897.602 111.507ZM185.138 180.687H169.494C170.521 180.687 171.538 180.889 172.487 181.282C173.436 181.675 174.299 182.252 175.025 182.978C175.751 183.704 176.327 184.567 176.721 185.516C177.114 186.465 177.316 187.482 177.316 188.509C177.316 189.536 177.114 190.553 176.721 191.502C176.327 192.451 175.751 193.314 175.025 194.04C174.299 194.766 173.436 195.342 172.487 195.736C171.538 196.129 170.521 196.331 169.494 196.331H78.9515C77.9243 196.331 76.9071 196.129 75.9581 195.736C75.0091 195.342 74.1468 194.766 73.4205 194.04C72.6941 193.314 72.118 192.451 71.7249 191.502C71.3318 190.553 71.1294 189.536 71.1294 188.509C71.1294 187.482 71.3318 186.465 71.7249 185.516C72.118 184.567 72.6941 183.704 73.4205 182.978C74.1468 182.252 75.0091 181.675 75.9581 181.282C76.9071 180.889 77.9243 180.687 78.9515 180.687H94.5956C92.5636 180.621 90.6368 179.768 89.2225 178.308C87.8083 176.847 87.0176 174.894 87.0176 172.861C87.0176 170.828 87.8083 168.874 89.2225 167.414C90.6368 165.953 92.5636 165.1 94.5956 165.035H83.4189C81.3869 164.969 79.4601 164.116 78.0459 162.655C76.6316 161.195 75.8409 159.242 75.8409 157.209C75.8409 155.176 76.6316 153.222 78.0459 151.762C79.4601 150.301 81.3869 149.448 83.4189 149.382H173.961C175.993 149.448 177.92 150.301 179.334 151.762C180.749 153.222 181.539 155.176 181.539 157.209C181.539 159.242 180.749 161.195 179.334 162.655C177.92 164.116 175.993 164.969 173.961 165.035H185.138C186.187 165.001 187.232 165.178 188.211 165.556C189.19 165.934 190.083 166.505 190.837 167.236C191.591 167.966 192.19 168.84 192.6 169.806C193.009 170.772 193.22 171.811 193.22 172.861C193.22 173.91 193.009 174.949 192.6 175.915C192.19 176.882 191.591 177.756 190.837 178.486C190.083 179.216 189.19 179.787 188.211 180.165C187.232 180.543 186.187 180.721 185.138 180.687Z" fill="#6C63FF"/>
<g opacity="0.1">
<path opacity="0.1" d="M514.07 479.24C514.07 479.24 536.976 422.804 579.774 401.848C597.774 393.181 612.476 378.907 621.67 361.17C625.969 352.718 629.484 343.889 632.172 334.796" stroke="#535461" stroke-width="1.62452" stroke-miterlimit="10"/>
<path opacity="0.1" d="M659.026 321.435C654.566 327.039 631.49 335.243 631.49 335.243C631.49 335.243 634.268 310.916 638.727 305.311C640.943 302.862 644.009 301.349 647.301 301.079C650.593 300.809 653.864 301.802 656.45 303.857C659.036 305.912 660.742 308.875 661.222 312.143C661.702 315.411 660.919 318.739 659.034 321.451L659.026 321.435Z" fill="#6C63FF"/>
<path opacity="0.1" d="M651.106 365.833C644.316 368.115 620.492 362.438 620.492 362.438C620.492 362.438 636.047 343.528 642.837 341.246C646.03 340.393 649.427 340.788 652.339 342.35C655.251 343.913 657.458 346.526 658.511 349.659C659.564 352.791 659.385 356.207 658.009 359.211C656.634 362.216 654.165 364.584 651.106 365.833Z" fill="#6C63FF"/>
<path opacity="0.1" d="M608.203 418.313C601.185 416.851 583.494 399.931 583.494 399.931C583.494 399.931 606.464 391.459 613.474 392.913C615.232 393.164 616.92 393.772 618.434 394.7C619.947 395.628 621.255 396.857 622.276 398.31C623.296 399.763 624.008 401.41 624.367 403.149C624.727 404.888 624.726 406.682 624.365 408.421C624.004 410.159 623.291 411.805 622.269 413.258C621.248 414.71 619.939 415.937 618.425 416.864C616.91 417.791 615.222 418.398 613.464 418.647C611.706 418.896 609.915 418.782 608.203 418.313Z" fill="#6C63FF"/>
<path opacity="0.1" d="M566.777 450.697C559.621 450.445 539.323 436.759 539.323 436.759C539.323 436.759 560.531 424.526 567.687 424.778C569.465 424.722 571.236 425.032 572.89 425.689C574.543 426.346 576.045 427.335 577.3 428.596C578.556 429.856 579.539 431.361 580.19 433.017C580.84 434.673 581.144 436.445 581.081 438.223C581.019 440.002 580.592 441.748 579.827 443.354C579.062 444.961 577.976 446.393 576.635 447.563C575.294 448.732 573.727 449.613 572.031 450.153C570.336 450.692 568.547 450.877 566.777 450.697Z" fill="#6C63FF"/>
<path opacity="0.1" d="M598.317 346.574C599.235 353.681 614.749 372.623 614.749 372.623C614.749 372.623 624.959 350.367 624.042 343.26C623.407 340.022 621.565 337.146 618.888 335.216C616.211 333.286 612.9 332.447 609.627 332.869C606.355 333.29 603.365 334.941 601.264 337.486C599.164 340.032 598.11 343.28 598.317 346.574Z" fill="#6C63FF"/>
<path opacity="0.1" d="M550.354 385.067C553.351 391.565 573.82 405.008 573.82 405.008C573.82 405.008 576.906 380.721 573.909 374.215C573.273 372.553 572.303 371.039 571.059 369.768C569.814 368.496 568.322 367.493 566.674 366.822C565.026 366.151 563.258 365.825 561.479 365.865C559.7 365.904 557.949 366.309 556.333 367.054C554.716 367.798 553.27 368.867 552.084 370.193C550.898 371.519 549.997 373.075 549.436 374.763C548.875 376.452 548.668 378.238 548.826 380.01C548.983 381.783 549.503 383.504 550.354 385.067Z" fill="#6C63FF"/>
<path opacity="0.1" d="M508.863 428.88C510.732 435.8 528.601 452.5 528.601 452.5C528.601 452.5 535.741 429.083 533.889 422.163C533.543 420.417 532.843 418.762 531.831 417.298C530.819 415.835 529.517 414.594 528.007 413.654C526.496 412.714 524.808 412.095 523.048 411.834C521.288 411.572 519.493 411.676 517.775 412.136C516.056 412.597 514.451 413.406 513.057 414.513C511.664 415.619 510.513 417 509.675 418.57C508.838 420.14 508.331 421.865 508.187 423.638C508.043 425.412 508.265 427.196 508.839 428.88H508.863Z" fill="#6C63FF"/>
<path opacity="0.25" d="M659.026 321.435C654.566 327.039 631.49 335.243 631.49 335.243C631.49 335.243 634.268 310.916 638.727 305.311C640.943 302.862 644.009 301.349 647.301 301.079C650.593 300.809 653.864 301.802 656.45 303.857C659.036 305.912 660.742 308.875 661.222 312.143C661.702 315.411 660.919 318.739 659.034 321.451L659.026 321.435Z" fill="black"/>
<path opacity="0.25" d="M651.106 365.833C644.316 368.115 620.492 362.438 620.492 362.438C620.492 362.438 636.047 343.528 642.837 341.246C646.03 340.393 649.427 340.788 652.339 342.35C655.251 343.913 657.458 346.526 658.511 349.659C659.564 352.791 659.385 356.207 658.009 359.211C656.634 362.216 654.165 364.584 651.106 365.833Z" fill="black"/>
<path opacity="0.25" d="M608.203 418.313C601.185 416.851 583.494 399.931 583.494 399.931C583.494 399.931 606.464 391.459 613.474 392.913C615.232 393.164 616.92 393.772 618.434 394.7C619.947 395.628 621.255 396.857 622.276 398.31C623.296 399.763 624.008 401.41 624.367 403.149C624.727 404.888 624.726 406.682 624.365 408.421C624.004 410.159 623.291 411.805 622.269 413.258C621.248 414.71 619.939 415.937 618.425 416.864C616.91 417.791 615.222 418.398 613.464 418.647C611.706 418.896 609.915 418.782 608.203 418.313Z" fill="black"/>
<path opacity="0.25" d="M566.777 450.697C559.621 450.445 539.323 436.759 539.323 436.759C539.323 436.759 560.531 424.526 567.687 424.778C569.465 424.722 571.236 425.032 572.89 425.689C574.543 426.346 576.045 427.335 577.3 428.596C578.556 429.856 579.539 431.361 580.19 433.017C580.84 434.673 581.144 436.445 581.081 438.223C581.019 440.002 580.592 441.748 579.827 443.354C579.062 444.961 577.976 446.393 576.635 447.563C575.294 448.732 573.727 449.613 572.031 450.153C570.336 450.692 568.547 450.877 566.777 450.697Z" fill="black"/>
<path opacity="0.25" d="M598.317 346.574C599.235 353.681 614.749 372.623 614.749 372.623C614.749 372.623 624.959 350.367 624.042 343.26C623.407 340.022 621.565 337.146 618.888 335.216C616.211 333.286 612.9 332.447 609.627 332.869C606.355 333.29 603.365 334.941 601.264 337.486C599.164 340.032 598.11 343.28 598.317 346.574Z" fill="black"/>
<path opacity="0.25" d="M550.354 385.067C553.351 391.565 573.82 405.008 573.82 405.008C573.82 405.008 576.906 380.721 573.909 374.215C573.273 372.553 572.303 371.039 571.059 369.768C569.814 368.496 568.322 367.493 566.674 366.822C565.026 366.151 563.258 365.825 561.479 365.865C559.7 365.904 557.949 366.309 556.333 367.054C554.716 367.798 553.27 368.867 552.084 370.193C550.898 371.519 549.997 373.075 549.436 374.763C548.875 376.452 548.668 378.238 548.826 380.01C548.983 381.783 549.503 383.504 550.354 385.067Z" fill="black"/>
<path opacity="0.25" d="M508.863 428.88C510.732 435.8 528.601 452.5 528.601 452.5C528.601 452.5 535.741 429.083 533.889 422.163C533.543 420.417 532.843 418.762 531.831 417.298C530.819 415.835 529.517 414.594 528.007 413.654C526.496 412.714 524.808 412.095 523.048 411.834C521.288 411.572 519.493 411.676 517.775 412.136C516.056 412.597 514.451 413.406 513.057 414.513C511.664 415.619 510.513 417 509.675 418.57C508.838 420.14 508.331 421.865 508.187 423.638C508.043 425.412 508.265 427.196 508.839 428.88H508.863Z" fill="black"/>
</g>
<g opacity="0.1">
<path opacity="0.1" d="M497.809 396.699C497.809 396.699 500.7 335.845 534.108 301.9C548.216 287.759 557.352 269.419 560.141 249.64C561.398 240.238 561.787 230.741 561.303 221.268" stroke="#535461" stroke-width="1.62452" stroke-miterlimit="10"/>
<path opacity="0.1" d="M582.21 199.759C579.863 206.525 560.799 221.893 560.799 221.893C560.799 221.893 555.357 198.02 557.705 191.254C558.984 188.209 561.376 185.765 564.393 184.419C567.41 183.073 570.826 182.927 573.947 184.01C577.068 185.093 579.659 187.324 581.194 190.25C582.729 193.175 583.093 196.575 582.21 199.759Z" fill="#6C63FF"/>
<path opacity="0.1" d="M589.521 244.262C583.835 248.665 559.524 251.215 559.524 251.215C559.524 251.215 567.923 228.212 573.576 223.81C574.903 222.623 576.46 221.722 578.15 221.162C579.84 220.602 581.627 220.395 583.4 220.555C585.173 220.714 586.895 221.236 588.458 222.088C590.021 222.94 591.393 224.104 592.487 225.508C593.582 226.912 594.376 228.526 594.821 230.25C595.266 231.974 595.352 233.771 595.074 235.529C594.796 237.287 594.16 238.97 593.204 240.472C592.249 241.975 590.995 243.265 589.521 244.262Z" fill="#6C63FF"/>
<path opacity="0.1" d="M566.379 308.008C559.28 308.958 536.968 298.862 536.968 298.862C536.968 298.862 555.836 283.25 562.96 282.3C566.253 282.075 569.509 283.111 572.066 285.198C574.623 287.286 576.29 290.268 576.728 293.54C577.166 296.812 576.343 300.128 574.426 302.815C572.508 305.502 569.64 307.358 566.404 308.008H566.379Z" fill="#6C63FF"/>
<path opacity="0.1" d="M538.04 352.309C531.201 354.445 507.507 348.248 507.507 348.248C507.507 348.248 523.46 329.671 530.299 327.535C533.508 326.752 536.896 327.22 539.772 328.845C542.648 330.47 544.798 333.129 545.784 336.282C546.77 339.435 546.518 342.846 545.079 345.82C543.641 348.794 541.124 351.108 538.04 352.293V352.309Z" fill="#6C63FF"/>
<path opacity="0.1" d="M533.296 243.596C536.545 249.997 557.436 262.725 557.436 262.725C557.436 262.725 559.686 238.357 556.47 231.948C554.798 229.104 552.107 227.002 548.943 226.069C545.778 225.135 542.377 225.44 539.429 226.922C536.482 228.404 534.207 230.951 533.069 234.047C531.93 237.144 532.011 240.558 533.296 243.596Z" fill="#6C63FF"/>
<path opacity="0.1" d="M500.814 295.825C505.793 300.966 529.56 306.855 529.56 306.855C529.56 306.855 524.418 282.918 519.431 277.768C518.28 276.411 516.862 275.306 515.266 274.52C513.67 273.733 511.929 273.283 510.152 273.197C508.375 273.111 506.599 273.39 504.934 274.019C503.27 274.647 501.752 275.61 500.474 276.849C499.197 278.088 498.188 279.575 497.509 281.22C496.831 282.865 496.497 284.631 496.529 286.41C496.56 288.189 496.957 289.943 497.694 291.562C498.432 293.181 499.493 294.632 500.814 295.825Z" fill="#6C63FF"/>
<path opacity="0.1" d="M476.194 350.92C480.256 356.825 502.674 366.645 502.674 366.645C502.674 366.645 501.651 342.18 497.606 336.267C496.706 334.726 495.499 333.386 494.06 332.332C492.621 331.277 490.979 330.531 489.239 330.138C487.498 329.746 485.695 329.716 483.943 330.05C482.19 330.385 480.525 331.077 479.051 332.083C477.578 333.09 476.327 334.388 475.378 335.899C474.428 337.41 473.8 339.1 473.532 340.864C473.264 342.628 473.362 344.428 473.82 346.153C474.278 347.877 475.086 349.489 476.194 350.887V350.92Z" fill="#6C63FF"/>
</g>
<path d="M305.377 189.426H299.861V233.516H305.377V189.426Z" fill="#535461"/>
<path d="M533.433 204.649H345.894C322.788 204.649 304.057 210.43 304.057 217.562V373.506C304.057 380.638 322.788 386.419 345.894 386.419H533.433C556.539 386.419 575.27 380.638 575.27 373.506V217.562C575.27 210.43 556.539 204.649 533.433 204.649Z" fill="#535461"/>
<path d="M525.947 216.473H366.767C347.155 216.473 331.257 221.125 331.257 226.865V339.321C331.257 345.061 347.155 349.714 366.767 349.714H525.947C545.558 349.714 561.457 345.061 561.457 339.321V226.865C561.457 221.125 545.558 216.473 525.947 216.473Z" fill="#6C63FF"/>
<path d="M547.647 105.512H511.713C510.331 105.512 509.211 106.632 509.211 108.013V108.525C509.211 109.907 510.331 111.027 511.713 111.027H547.647C549.029 111.027 550.149 109.907 550.149 108.525V108.013C550.149 106.632 549.029 105.512 547.647 105.512Z" fill="#EAEAF3"/>
<path d="M496.001 114.802C498.463 114.802 500.459 112.806 500.459 110.344C500.459 107.882 498.463 105.886 496.001 105.886C493.538 105.886 491.542 107.882 491.542 110.344C491.542 112.806 493.538 114.802 496.001 114.802Z" fill="#EAEAF3"/>
<path d="M294.79 277.74C294.79 277.74 286.921 257.693 260.173 239.806C233.425 221.918 233.737 211.311 233.737 211.311C233.737 211.311 228.709 173.789 222.1 163.311C215.491 152.832 211.714 137.711 211.714 137.711C211.714 137.711 211.438 138.079 210.987 138.631C210.987 138.373 210.932 138.107 210.895 137.822C210.224 132.27 208.496 121.855 205.629 125.073C205.629 125.073 204.976 125.606 203.882 126.451L203.432 125.872C200.794 122.462 196.492 116.781 196.492 115.826C196.492 114.438 163.612 89.1691 155.266 85.2809C149.383 82.5234 136.745 75.4548 129.832 71.4931C126.594 69.6581 122.817 69.0081 119.151 69.6547C109.04 71.4104 89.7373 75.9604 92.3295 84.6559C95.7856 96.3755 109.16 93.14 118.287 86.4942C118.287 86.4942 126.321 83.415 135.439 92.5149C144.558 101.615 182.024 128.446 182.024 128.446L185.14 137.086L185.434 137.914C184.35 138.341 183.187 138.532 182.024 138.474C179.193 138.116 180.351 140.892 182.419 143.989C182.704 144.412 183.007 144.844 183.338 145.267C182.961 145.12 182.594 144.982 182.208 144.808C182.208 144.808 182.428 145.23 182.805 145.984L182.208 145.736C182.208 145.736 196.685 173.495 197.622 178.744C198.033 181.038 198.258 183.362 198.293 185.693C198.293 188.11 197.944 189.995 197.31 190.464C196.051 191.383 192.273 200.951 192.273 200.951L177.483 201.586C177.042 201.54 176.564 201.494 176.159 201.429L175.24 201.292C175.24 201.172 175.24 201.062 175.24 200.942C175.24 194.794 173.128 188.833 169.256 184.057H169.477C172.602 177.255 165.874 170.159 164.412 162.805C164.065 160.41 163.912 157.991 163.953 155.571C163.92 154.605 163.837 153.642 163.704 152.685C162.188 142.528 152.536 135.754 143.133 131.893C137.618 129.604 131.184 127.904 125.724 130.349C119.344 133.18 116.265 140.634 110.511 144.596C101.319 150.929 88.809 146.563 77.8339 148.438C73.578 149.164 69.267 151.049 66.8036 154.643C64.6343 157.786 64.138 161.803 64.046 165.627C63.7795 175.803 65.8201 186.199 63.1268 195.96C58.7607 211.917 43.5298 221.698 32.141 233.573C24.8826 241.143 18.9755 249.901 14.6765 259.467C13.0495 263.098 11.7902 267.74 14.4099 270.736C15.9082 272.418 18.2797 273.025 19.8423 274.634C21.8369 276.683 22.1035 279.891 21.7358 282.741C20.3662 293.339 12.4061 301.566 6.10963 310.169C-0.186807 318.773 -4.97578 330.594 0.355512 339.804C4.95145 347.737 15.0074 350.108 23.9603 351.753C26.8097 352.268 29.8339 352.774 32.5363 351.753C34.9721 350.834 36.7829 348.72 38.3823 346.615C42.0733 341.769 45.137 336.475 47.5007 330.86C48.6588 328.103 49.8078 325.079 52.354 323.507C54.606 322.156 57.4187 322.33 60.0476 322.542L79.6998 324.159C81.3588 324.421 83.0556 324.305 84.6634 323.819C86.5194 322.933 88.0314 321.46 88.9652 319.628C90.4655 316.996 91.6444 314.194 92.4765 311.282C94.8388 303.634 96.1533 295.435 101.668 289.956C106.65 285.076 114.022 283.614 120.971 283.522C125.218 283.522 129.455 283.908 133.693 284.083C134.879 284.138 136.083 284.175 137.269 284.175C138.068 284.175 138.868 284.175 139.668 284.129C141.239 295.03 143.179 311.171 141.662 315.639C139.3 322.588 139.456 327.055 139.456 327.055L140.541 327.588C140.44 327.836 140.339 328.094 140.238 328.369C139.098 331.449 138.298 335.98 141.819 338.857C142.397 339.317 143.012 339.729 143.657 340.089L143.39 340.861C139.962 350.807 132.094 374.071 131.358 380.257C130.439 388.199 119.087 412.346 119.087 412.346C119.087 412.346 88.2482 437.707 116.017 446.889C116.017 446.889 118.719 437.302 124.519 429.866C127.988 425.447 130.635 420.441 132.332 415.085C133.073 412.758 134.164 410.557 135.568 408.559C138.041 405.048 143.271 394.266 148.161 383.741L152.077 384.578C150.11 393.08 149.586 407.741 156.893 431.061C156.893 431.061 157.049 431.98 157.298 433.442C157.141 433.33 156.971 433.237 156.792 433.166C153.299 431.723 147.821 436.696 144.549 444.288C141.561 451.228 141.442 457.947 144.135 460.144C144.38 460.354 144.656 460.524 144.953 460.65C145.923 461.004 146.993 460.971 147.94 460.558C147.985 460.543 148.028 460.525 148.069 460.503C148.845 460.184 149.573 459.757 150.229 459.234C152.858 458.581 155.542 457.322 158.244 457.46C158.957 457.498 159.663 457.615 160.349 457.809C160.533 460.567 160.625 463.242 160.552 465.521C160.193 477.673 159.972 482.986 159.972 482.986C159.972 482.986 158.189 492.003 156.774 494.2C155.358 496.397 153.832 542.917 159.724 565.226C159.724 565.226 163.741 586.854 161.967 590.549V590.623C161.214 592.573 160.77 594.629 160.653 596.717C160.502 598.514 160.444 600.318 160.478 602.122L151.976 628.144C151.976 628.144 151.746 628.604 151.442 629.357C150.511 631.56 150.163 633.966 150.431 636.343C150.599 637.445 151.028 638.492 151.681 639.395C151.681 639.395 150.477 650.848 163.401 650.646C176.325 650.443 178.586 641.785 178.586 641.785L177.667 637.731C177.769 637.407 177.822 637.069 177.823 636.729C177.823 636.729 177.731 635.304 177.63 633.163C177.4 627.528 177.134 616.948 178.421 614.522C180.185 611.167 179.119 596.827 179.119 596.827L178.65 592.921L178.163 588.839L177.474 583.058C177.474 583.058 177.272 558.424 179.432 554.839C181.436 551.52 187.943 521.288 186.013 501.03C185.723 497.709 186.121 494.364 187.18 491.203C189.111 485.247 191.776 475.329 191.041 468.316C190.967 467.645 190.922 466.781 190.903 465.742C192.379 468.024 194.368 469.931 196.71 471.31C199.053 472.688 201.685 473.501 204.397 473.684H204.139H204.838C208.816 473.871 212.735 472.669 215.923 470.283C222.532 465.393 229.711 457.239 233.701 443.782C234.784 440.03 236.095 436.346 237.625 432.752C241.302 424.342 247.589 408.541 248.95 397.226L249.345 397.612C249.345 397.612 258.169 371.36 257.921 361.102C258.04 359.753 257.852 358.396 257.37 357.131L257.268 356.322C257.297 356.278 257.331 356.238 257.37 356.202C257.37 356.202 253.886 328.719 252.654 305.279L263.979 296.832C263.979 296.832 258.629 285.802 262.085 283.734C265.541 281.665 270.588 294.672 270.588 294.672C270.588 294.672 304.239 296.556 294.79 277.74ZM168.438 308.12L175.617 300.904C176.306 304.866 174.634 309.618 168.264 315.059L168.043 315.133C168.438 311.18 168.438 308.12 168.438 308.12ZM159.844 228.803C159.844 228.803 159.017 229.437 157.674 230.513C157.445 229.207 157.206 227.893 156.948 226.588C157.353 226.836 157.748 227.084 158.125 227.36C158.733 227.797 159.308 228.28 159.844 228.803ZM196.097 398.577L197.016 390.938L199.029 392.253C197.205 397.567 195.846 403.029 194.966 408.578C195.444 403.697 195.821 400.048 195.977 398.467L196.097 398.577ZM194.258 423.018C194.361 424.451 194.183 425.891 193.734 427.255H193.238C193.55 423.698 193.863 420.224 194.157 416.979C194.098 418.993 194.141 421.009 194.286 423.018H194.258Z" fill="url(#paint0_linear)"/>
<path d="M145.394 448.902V459.013C149.429 460.511 153.667 457.028 157.969 457.248C160.478 457.368 162.758 458.765 165.239 459.188C165.548 459.269 165.87 459.288 166.186 459.242C166.502 459.196 166.805 459.087 167.078 458.921C167.532 458.453 167.801 457.835 167.832 457.184C168.751 451.807 169.762 438.8 161.397 437.881C155.22 437.173 152.858 448.185 145.394 448.902Z" fill="#FFB9B9"/>
<path opacity="0.1" d="M145.394 448.902V459.013C149.429 460.511 153.667 457.028 157.969 457.248C160.478 457.368 162.758 458.765 165.239 459.188C165.548 459.269 165.87 459.288 166.186 459.242C166.502 459.196 166.805 459.087 167.078 458.921C167.532 458.453 167.801 457.835 167.832 457.184C168.751 451.807 169.762 438.8 161.397 437.881C155.22 437.173 152.858 448.185 145.394 448.902Z" fill="black"/>
<path d="M155.862 446.675C153.535 452.151 150.057 456.286 147.036 457.509C146.996 457.531 146.953 457.549 146.909 457.564C145.995 457.967 144.96 457.996 144.025 457.646C143.734 457.528 143.465 457.361 143.231 457.153C140.629 454.981 140.739 448.355 143.632 441.509C146.79 434.025 152.093 429.115 155.497 430.557C158.901 431.999 159.029 439.191 155.862 446.675Z" fill="#4C4C78"/>
<path d="M151.718 635.562L151.544 637.97C151.544 637.97 150.413 649.276 162.978 649.12C175.544 648.963 177.759 640.314 177.759 640.314L176.463 634.569L151.718 635.562Z" fill="#4C4C78"/>
<path d="M193.438 395.492C193.438 395.492 187.396 454.698 188.537 465.194C189.285 472.112 186.711 481.896 184.804 487.774C183.782 490.894 183.4 494.187 183.681 497.458C185.506 517.446 179.254 547.264 177.292 550.531C175.202 554.072 175.394 578.368 175.394 578.368L176.06 584.072L176.535 588.097L176.982 591.949C176.982 591.949 178.013 606.096 176.306 609.4C175.065 611.8 175.321 622.232 175.549 627.79C175.64 629.899 175.731 631.304 175.731 631.304C175.717 632.289 175.347 633.235 174.691 633.969C173.149 635.868 169.324 638.022 159.878 637.693C152.33 637.429 149.838 634.28 149.254 630.958C148.995 628.615 149.33 626.245 150.231 624.067C150.523 623.318 150.751 622.871 150.751 622.871L158.965 597.197C158.931 595.419 158.989 593.639 159.139 591.867C159.249 589.811 159.677 587.786 160.407 585.861V585.788C162.123 582.138 158.235 560.808 158.235 560.808C152.54 538.785 154.018 492.922 155.388 490.75C156.757 488.577 158.555 479.733 158.555 479.733C158.555 479.733 158.774 474.485 159.12 462.502C159.467 450.518 155.579 428.513 155.579 428.513C142.692 386.529 155.013 372.948 155.013 372.948L193.456 381.966L193.438 395.492Z" fill="#FFB9B9"/>
<path d="M176.562 588.098C172.382 589.485 163.784 592.123 159.166 591.867C159.276 589.812 159.704 587.786 160.435 585.862C164.204 586.619 170.593 587.176 176.087 584.036L176.562 588.098Z" fill="#4C4C78"/>
<path d="M174.718 633.978C169.041 631.003 158.345 626.768 149.282 630.966C149.022 628.624 149.358 626.254 150.258 624.075C155.524 623.373 166.687 622.715 175.576 627.799C175.668 629.907 175.759 631.313 175.759 631.313C175.744 632.298 175.375 633.244 174.718 633.978Z" fill="#4C4C78"/>
<path d="M157.578 334.725V358.144C157.578 358.144 140.091 398.841 134.952 406.289C133.59 408.263 132.534 410.433 131.822 412.723C130.191 418.002 127.632 422.947 124.265 427.326C118.661 434.628 116.05 444.111 116.05 444.111C89.2082 435.057 119.017 410.04 119.017 410.04C119.017 410.04 129.969 386.228 130.882 378.397C131.594 372.291 139.196 349.346 142.509 339.535C143.422 336.796 144.043 335.044 144.043 335.044L157.578 334.725Z" fill="#FFB9B9"/>
<path opacity="0.05" d="M195.263 425.884C195.263 425.884 185.872 419.495 182.221 436.837C178.57 454.178 192.571 458.741 192.571 458.741L195.263 425.884Z" fill="black"/>
<path d="M199.106 382.796C199.106 382.796 190.398 401.871 191.695 420.517C191.827 422.238 191.546 423.966 190.873 425.555C187.071 434.689 185.383 444.564 185.935 454.442C185.935 454.625 185.935 454.807 185.935 454.99C186.141 457.981 187.15 460.862 188.856 463.328C190.562 465.794 192.902 467.754 195.628 469.001C198.355 470.249 201.368 470.738 204.349 470.416C207.331 470.094 210.17 468.974 212.568 467.174C218.957 462.346 225.902 454.305 229.754 441.035C230.807 437.338 232.075 433.705 233.551 430.155C238.114 419.486 246.903 396.742 244.266 386.903C240.788 373.86 199.106 382.796 199.106 382.796Z" fill="#FFB9B9"/>
<path opacity="0.1" d="M245.503 389.146C243.968 383.401 235.125 381.884 225.648 381.985C234.408 382.095 242.194 383.823 243.665 389.146C246.312 399.054 237.442 421.961 232.873 432.706C231.38 436.278 230.103 439.937 229.049 443.663C225.161 457.028 218.175 465.135 211.741 469.988C209.104 471.999 205.924 473.171 202.614 473.352C206.554 473.58 210.445 472.386 213.579 469.988C220.014 465.135 227 457.028 230.888 443.663C231.942 439.937 233.219 436.278 234.712 432.706C239.28 421.97 248.15 399.054 245.503 389.146Z" fill="black"/>
<path opacity="0.1" d="M152.637 354.943C152.637 354.943 145.854 381.599 144.365 383.208C144.365 383.208 188.486 392.051 194.8 398.715L195.72 391.131L198.826 393.199C198.826 393.199 224.334 375.046 246.624 397.795C246.624 397.795 257.535 364.705 254.437 358.5C251.34 352.296 214.103 357.7 214.103 357.7L152.637 354.943Z" fill="black"/>
<path d="M151.573 352.029C151.573 352.029 144.837 378.497 143.358 380.094C143.358 380.094 187.168 388.874 193.438 395.491L194.35 387.962L197.435 390.015C197.435 390.015 222.763 371.989 244.895 394.579C244.895 394.579 255.729 361.722 252.653 355.561C249.578 349.4 212.604 354.767 212.604 354.767L151.573 352.029Z" fill="#4C4C78"/>
<path d="M150.34 194.344C150.225 195.718 150.252 197.101 150.423 198.469C150.724 201.207 151.144 203.945 151.609 206.683C151.746 207.487 151.892 208.281 152.038 209.075C153.48 216.906 155.342 224.673 156.601 232.54C157.263 236.566 157.707 240.624 157.934 244.697C158.449 251.911 157.793 259.16 155.99 266.164C154.935 270.061 153.337 273.791 151.244 277.244C150.4 278.749 149.287 280.086 147.958 281.187C147.666 281.396 147.361 281.588 147.046 281.762C145.152 282.751 143.065 283.318 140.93 283.423C139.479 283.56 138.028 283.605 136.568 283.605C135.418 283.605 134.259 283.605 133.109 283.514C129.011 283.341 124.894 282.93 120.815 282.957C114.106 283.012 106.978 284.454 102.159 289.273C96.7561 294.676 95.524 302.763 93.2423 310.265C92.4339 313.126 91.2944 315.883 89.847 318.479C88.9525 320.278 87.4896 321.731 85.6852 322.614C84.1327 323.097 82.4892 323.212 80.8844 322.951L61.8456 321.354C59.3083 321.144 56.5885 320.971 54.4072 322.313C51.952 323.818 50.8385 326.812 49.7159 329.523C47.4364 335.043 44.4744 340.255 40.8993 345.039C39.3568 347.11 37.6045 349.164 35.2497 350.104C32.6394 351.135 29.7188 350.643 26.9625 350.104C18.3101 348.498 8.59908 346.161 4.14513 338.339C-1.01159 329.212 3.66141 317.594 9.70344 309.133C15.7455 300.673 23.476 292.632 24.7994 282.163C25.1553 279.352 24.8998 276.185 22.974 274.168C21.4589 272.58 19.1681 271.977 17.726 270.326C15.1887 267.396 16.4026 262.787 17.9816 259.209C22.1218 249.793 27.8347 241.152 34.8755 233.654C45.8917 221.953 60.6135 212.296 64.8301 196.562C67.413 186.896 65.4416 176.638 65.6972 166.607C65.7884 162.829 66.2722 158.867 68.3714 155.764C70.7718 152.223 74.9336 150.361 79.0499 149.649C89.6554 147.824 101.73 152.104 110.638 145.862C116.197 141.955 119.181 134.599 125.342 131.806C130.644 129.397 136.805 131.076 142.172 133.33C151.299 137.136 160.59 143.817 162.059 153.838C162.189 154.783 162.268 155.733 162.297 156.686C162.258 159.073 162.407 161.46 162.744 163.823C164.159 171.07 170.657 178.07 167.636 184.815C158.345 185.965 151.089 185.993 150.34 194.344Z" fill="#B96B6B"/>
<path opacity="0.1" d="M155.99 266.163C152.695 271.128 149.902 276.449 147.082 281.761C145.188 282.751 143.102 283.318 140.967 283.422C139.516 283.559 138.065 283.604 136.604 283.604C135.454 283.604 134.295 283.605 133.145 283.513C129.047 283.34 124.931 282.929 120.851 282.956C114.143 283.011 107.015 284.453 102.196 289.272C96.7927 294.675 95.5605 302.762 93.2788 310.264C92.9502 310.264 92.6217 310.264 92.2931 310.264C87.5471 310.264 83.3761 307.262 79.7344 304.231C78.7763 303.53 77.9666 302.646 77.3523 301.63C76.7858 300.411 76.5891 299.053 76.7864 297.724C77.3158 292.439 80.921 288.058 84.161 283.86C87.6676 279.317 90.9187 274.581 93.8995 269.677C95.2685 267.441 96.6375 264.967 96.3911 262.375C96.2086 260.276 95.0312 258.405 94.5657 256.361C93.3153 251.104 96.8566 245.865 101.018 242.424C105.18 238.983 110.145 236.473 113.641 232.339C117.137 228.204 118.807 222.491 119.199 216.969C119.482 213.09 119.364 208.755 122.001 205.898C125.889 201.672 131.904 204.291 136.732 204.693C141.77 205.122 146.708 205.788 151.646 206.637C151.782 207.44 151.928 208.234 152.075 209.028C153.517 216.859 155.378 224.626 156.638 232.494C157.299 236.519 157.744 240.577 157.971 244.651C158.479 251.881 157.81 259.147 155.99 266.163Z" fill="black"/>
<path d="M202.455 129.971L184.201 142.448L182.805 138.496L179.793 129.971C179.793 129.971 143.586 103.503 134.761 94.5312C125.935 85.5594 118.186 88.5987 118.186 88.5987C109.36 95.1427 96.4276 98.3371 93.0871 86.7733C90.5955 78.194 109.242 73.7127 119.017 71.9786C122.565 71.345 126.223 71.9919 129.339 73.804C136.02 77.692 148.241 84.6924 153.927 87.3848C161.995 91.1816 193.785 116.135 193.785 117.504C193.785 118.416 197.937 124.057 200.493 127.416C201.634 128.922 202.455 129.971 202.455 129.971Z" fill="#FFB9B9"/>
<path d="M239.73 241.92L248.003 307.486L260.872 297.687C260.872 297.687 255.66 286.657 259.033 284.671C262.407 282.686 267.306 295.536 267.306 295.536C267.306 295.536 300.093 297.375 290.902 278.687L280.478 265.203L259.953 250.634L239.73 241.92Z" fill="#757A9B"/>
<path opacity="0.1" d="M238.05 240.717L246.264 305.82L259.042 296.09C259.042 296.09 253.867 285.138 257.217 283.167C260.566 281.195 265.431 293.955 265.431 293.955C265.431 293.955 297.987 295.78 288.86 277.225L278.51 263.836L258.129 249.37L238.05 240.717Z" fill="black"/>
<path d="M207.32 237.669L203.368 270.526L177.009 272.661C177.009 272.661 148.889 264.639 159.257 244.97C163.967 236.026 161.01 230.668 156.738 227.529C153.608 225.415 150.059 223.999 146.334 223.376C146.334 223.376 145.567 173.178 154.384 190.209C158.345 197.866 166.422 200.914 174.116 201.955C180.207 202.685 186.372 202.522 192.416 201.471L207.32 237.669Z" fill="#FFB9B9"/>
<path opacity="0.1" d="M175.35 203.313C175.349 208.815 173.672 214.185 170.542 218.709C167.412 223.233 162.978 226.696 157.831 228.637C154.678 226.508 151.104 225.082 147.352 224.455C147.352 224.455 146.58 173.899 155.459 191.052C159.448 198.764 167.583 201.834 175.332 202.881C175.35 203.029 175.35 203.203 175.35 203.313Z" fill="black"/>
<path d="M147.361 229.464C162.312 229.464 174.431 217.345 174.431 202.394C174.431 187.444 162.312 175.324 147.361 175.324C132.411 175.324 120.291 187.444 120.291 202.394C120.291 217.345 132.411 229.464 147.361 229.464Z" fill="#FFB9B9"/>
<path opacity="0.1" d="M203.882 130.385L185.498 142.951L184.092 138.97C189.561 137.178 197.99 130.882 201.906 127.812C203.055 129.328 203.882 130.385 203.882 130.385Z" fill="black"/>
<path d="M209.553 142.951L208.781 146.471L187.337 153.365C185.222 150.968 183.254 148.445 181.445 145.809C179.432 142.749 178.301 139.991 181.059 140.349C187.033 141.112 204.038 127.021 204.038 127.021C206.879 123.832 208.542 134.182 209.213 139.706C209.443 141.618 209.553 142.951 209.553 142.951Z" fill="#CBCDDA"/>
<path opacity="0.1" d="M158.686 336.596V345.007C156.847 345.007 148.722 344.593 143.51 341.422C144.429 338.664 145.054 336.9 145.054 336.9L158.686 336.596Z" fill="black"/>
<path d="M161.539 326.511L160.38 331.676L157.98 342.172C157.98 342.172 146.571 342.172 141.022 337.536C137.617 334.697 138.384 330.234 139.488 327.195C139.895 326.057 140.408 324.96 141.022 323.918L161.539 326.511Z" fill="#CBCDDA"/>
<path opacity="0.1" d="M162.675 328.323L161.508 333.526C156.075 336.394 143.648 330.585 140.467 329.013C140.877 327.866 141.394 326.762 142.012 325.713L162.675 328.323Z" fill="black"/>
<path d="M140.237 262.166L137.353 273.274C137.353 273.274 143.13 307.801 140.848 314.646C138.567 321.491 138.722 325.899 138.722 325.899C138.722 325.899 155.451 334.725 161.083 330.317C166.714 325.909 166.705 307.235 166.705 307.235L178.57 295.069L163.511 273.319L140.237 262.166Z" fill="#757A9B"/>
<path opacity="0.1" d="M198.827 219.749C198.827 219.749 213.304 268.236 166.195 256.976L179.827 310.518L152.637 361.074C152.637 361.074 239.73 375.781 254.437 356.708C254.437 356.708 247.314 299.258 250.071 279.955C252.829 260.652 241.339 230.54 235.134 228.591C228.93 226.642 198.827 219.749 198.827 219.749Z" fill="black"/>
<path opacity="0.1" d="M198.827 221.586C198.827 221.586 213.304 270.074 166.195 258.814L179.827 312.356L152.637 362.912C152.637 362.912 239.73 377.619 254.437 358.545C254.437 358.545 247.314 301.096 250.071 281.793C252.829 262.49 241.339 232.378 235.134 230.429C228.93 228.48 198.827 221.586 198.827 221.586Z" fill="black"/>
<path d="M197.435 219.616C197.435 219.616 211.81 267.76 165.035 256.58L178.57 309.744L151.573 359.942C151.573 359.942 238.05 374.545 252.653 355.607C252.653 355.607 245.58 298.564 248.318 279.397C251.056 260.231 239.647 230.331 233.487 228.396C227.326 226.461 197.435 219.616 197.435 219.616Z" fill="#CBCDDA"/>
<path opacity="0.1" d="M199.13 148.511C196.372 149.798 190.177 151.49 181.206 147.546C181.206 147.546 195.306 175.122 196.225 180.334C197.144 185.546 197.144 191.98 195.913 192.899C194.681 193.818 191.013 203.313 191.013 203.313L176.61 203.948C176.61 203.948 185.802 207.624 185.802 214.647C185.802 221.67 206.024 234.869 216.751 240.081C227.478 245.293 271.286 260.643 271.286 260.643L290.902 279.606C290.902 279.606 283.236 259.687 257.195 241.919C231.154 224.151 231.458 213.581 231.458 213.581C231.458 213.581 226.558 176.354 220.124 165.93C213.69 155.507 210.013 140.505 210.013 140.505C210.013 140.505 204.866 147.601 201.805 147.795C200.877 147.867 199.97 148.11 199.13 148.511Z" fill="black"/>
<path opacity="0.1" d="M209.553 142.95L208.781 146.471L187.337 153.365C185.222 150.968 183.254 148.444 181.445 145.809C190.296 149.624 196.372 147.951 199.13 146.673C199.968 146.267 200.876 146.023 201.805 145.956C204.13 145.809 207.651 141.691 209.213 139.706C209.443 141.617 209.553 142.95 209.553 142.95Z" fill="black"/>
<path d="M197.737 147.056C194.998 148.334 188.847 150.014 179.939 146.098C179.939 146.098 193.94 173.479 194.852 178.654C195.765 183.829 195.765 190.218 194.542 191.13C193.319 192.043 189.677 201.471 189.677 201.471L175.376 202.101C175.376 202.101 184.502 205.752 184.502 212.725C184.502 219.698 204.582 232.804 215.233 237.979C225.884 243.154 269.383 258.396 269.383 258.396L288.86 277.225C288.86 277.225 281.248 257.447 255.391 239.804C229.535 222.162 229.836 211.666 229.836 211.666C229.836 211.666 224.971 174.702 218.582 164.352C212.194 154.002 208.543 139.107 208.543 139.107C208.543 139.107 203.432 146.153 200.392 146.345C199.471 146.416 198.57 146.658 197.737 147.056Z" fill="#757A9B"/>
<path opacity="0.1" d="M129.851 222.809C130.77 219.914 130.218 216.761 130.604 213.746C131.634 205.575 139.328 198.993 138.969 190.767C138.834 189.998 138.946 189.206 139.291 188.505C139.802 187.93 140.518 187.577 141.285 187.522C145.293 186.796 149.898 187.182 152.876 184.406C155.855 181.63 155.781 176.602 155.331 172.374C155.082 170.103 154.724 167.603 152.987 166.105C151.801 165.238 150.423 164.673 148.97 164.459C143.957 163.32 138.917 162.324 133.849 161.472C128.738 160.608 123.361 159.919 118.499 161.711C113.636 163.503 109.858 167.713 106.393 171.73C103.13 175.508 99.6462 180.049 100.565 184.966C101.071 187.632 102.808 189.866 103.966 192.32C105.181 194.958 105.732 197.853 105.572 200.753C105.412 203.653 104.545 206.469 103.047 208.957C100.639 212.855 96.6129 215.934 95.6385 220.401C94.7193 224.574 96.8427 229.115 100.409 231.477C107.717 236.294 126.974 231.937 129.851 222.809Z" fill="black"/>
<path d="M128.931 222.809C129.851 219.914 129.299 216.761 129.685 213.746C130.715 205.575 138.408 198.993 138.05 190.767C137.914 189.998 138.027 189.206 138.372 188.505C138.883 187.93 139.598 187.577 140.366 187.522C144.374 186.796 148.979 187.182 151.957 184.406C154.935 181.63 154.862 176.602 154.411 172.374C154.163 170.103 153.805 167.603 152.067 166.105C150.882 165.238 149.503 164.673 148.051 164.459C143.038 163.32 137.998 162.324 132.93 161.472C127.819 160.608 122.442 159.919 117.58 161.711C112.717 163.503 108.939 167.713 105.474 171.73C102.211 175.508 98.727 180.049 99.6461 184.966C100.152 187.632 101.889 189.866 103.047 192.32C104.262 194.958 104.813 197.853 104.653 200.753C104.492 203.653 103.626 206.469 102.128 208.957C99.7197 212.855 95.6936 215.934 94.7193 220.401C93.8001 224.574 95.9234 229.115 99.4899 231.477C106.797 236.294 126.054 231.937 128.931 222.809Z" fill="#B96B6B"/>
<path opacity="0.1" d="M160.432 230.071C160.432 230.071 137.7 248.05 136.938 254.025C136.175 260 139.383 274.091 139.383 274.091L162.059 288.338C162.059 288.338 188.256 298.605 168.65 315.757C149.043 332.91 142.14 369.686 142.14 369.686C142.14 369.686 151.645 381.02 169.412 348.435C169.412 348.435 186.574 329.748 187.337 320.556C188.1 311.364 190.774 283.172 179.174 265.708C171.517 254.181 167.353 241.239 164.357 234.538C163.637 232.62 162.241 231.032 160.432 230.071Z" fill="black"/>
<path d="M158.399 228.952C158.399 228.952 135.829 246.804 135.071 252.737C134.313 258.669 137.499 272.661 137.499 272.661L160.015 286.808C160.015 286.808 186.027 297.003 166.559 314.033C147.091 331.064 140.237 367.581 140.237 367.581C140.237 367.581 149.674 378.835 167.316 346.48C167.316 346.48 184.356 327.925 185.114 318.798C185.872 309.671 188.527 281.678 177.009 264.337C169.407 252.892 165.272 240.041 162.297 233.388C161.582 231.484 160.196 229.906 158.399 228.952Z" fill="#757A9B"/>
<path opacity="0.1" d="M166.559 314.033C166.559 314.033 146.754 320.24 149.163 339.589L166.559 314.033Z" fill="black"/>
<path opacity="0.1" d="M172.501 288.798L167.877 308.873L176.61 299.921L172.501 288.798Z" fill="black"/>
<path opacity="0.1" d="M195.72 390.221L189.763 394.734L194.801 397.804L195.72 390.221Z" fill="black"/>
<path opacity="0.1" d="M227.554 287.265C227.554 287.265 247.907 287.922 248.318 280.264L227.554 287.265Z" fill="black"/>
<path d="M35.8043 592.022C35.8043 592.022 40.2717 597.862 33.7493 606.643C27.2269 615.423 21.8497 622.888 24.0022 628.379C24.0022 628.379 33.8387 612.02 41.8719 611.792C49.9051 611.565 44.6173 601.867 35.8043 592.022Z" fill="#6C63FF"/>
<path opacity="0.1" d="M35.8044 592.022C36.194 592.585 36.5029 593.201 36.7222 593.85C44.5362 603.036 48.6949 611.606 41.1815 611.817C34.188 612.06 25.8136 624.529 23.783 627.688C23.8483 627.932 23.9297 628.17 24.0266 628.403C24.0266 628.403 33.8631 612.044 41.8963 611.817C49.9295 611.589 44.6174 601.867 35.8044 592.022Z" fill="black"/>
<path d="M46.9323 601.916C45.1291 602.899 43.5533 603.492 43.4233 603.24C43.2934 602.988 44.6336 601.989 46.4368 601.006C48.24 600.023 47.5333 600.738 47.6714 601.006C47.8095 601.274 48.7517 600.933 46.9323 601.916Z" fill="#FFD037"/>
<path d="M12.2407 592.022C12.2407 592.022 7.77332 597.862 14.2958 606.643C20.8182 615.423 26.1953 622.888 24.0429 628.379C24.0429 628.379 14.1983 612.02 6.17317 611.792C-1.85194 611.565 3.42774 601.867 12.2407 592.022Z" fill="#6C63FF"/>
<path opacity="0.1" d="M12.2408 592.022C11.8511 592.585 11.5422 593.201 11.3229 593.85C3.50899 603.036 -0.649776 611.606 6.86361 611.817C13.8572 612.02 22.2478 624.529 24.2622 627.688C24.1959 627.93 24.1173 628.169 24.0266 628.403C24.0266 628.403 14.1821 612.06 6.17319 611.817C-1.83567 611.573 3.42776 601.867 12.2408 592.022Z" fill="black"/>
<path d="M3.93942 599.463C3.93942 601.518 4.17498 603.183 4.45927 603.183C4.74356 603.183 4.97099 601.518 4.97099 599.463C4.97099 597.408 4.6867 598.375 4.40241 598.375C4.11812 598.375 3.93942 597.44 3.93942 599.463Z" fill="#FFD037"/>
<path d="M1.09655 601.916C2.89976 602.899 4.47554 603.492 4.6055 603.24C4.73546 602.988 3.39524 601.989 1.59203 601.006C-0.211187 600.023 0.495477 600.738 0.357393 601.006C0.219309 601.274 -0.706665 600.933 1.09655 601.916Z" fill="#FFD037"/>
<path d="M5.36087 627.64C5.36087 627.64 17.8372 627.258 21.606 624.586C25.3749 621.914 40.7997 618.705 41.7338 623.002C42.6679 627.299 60.4807 644.357 46.3961 644.47C32.3116 644.584 13.6297 642.277 9.90951 639.995C6.18937 637.712 5.36087 627.64 5.36087 627.64Z" fill="#A8A8A8"/>
<path opacity="0.2" d="M46.6398 642.975C32.5553 643.088 13.9139 640.782 10.1613 638.499C7.30217 636.753 6.16501 630.507 5.78324 627.623H5.36087C5.36087 627.623 6.17313 637.687 9.90951 639.978C13.6459 642.268 32.3116 644.551 46.388 644.469C50.4493 644.469 51.8545 642.991 51.7814 640.847C51.2128 642.114 49.6614 642.926 46.6398 642.975Z" fill="black"/>
<path d="M836.886 526.774C838.373 525.558 839.457 523.922 839.997 522.079C840.403 520.211 839.607 517.969 837.82 517.287C835.822 516.523 833.685 517.912 832.069 519.309C830.453 520.706 828.593 522.306 826.473 522.006C827.564 521.02 828.381 519.767 828.842 518.37C829.303 516.973 829.394 515.48 829.104 514.038C829.017 513.439 828.764 512.876 828.373 512.413C827.269 511.227 825.254 511.739 823.93 512.673C819.706 515.638 818.529 521.38 818.504 526.538C818.074 524.678 818.439 522.737 818.423 520.853C818.407 518.968 817.887 516.791 816.279 515.8C815.282 515.264 814.162 514.998 813.03 515.029C811.129 514.955 809.017 515.15 807.718 516.539C806.093 518.261 806.524 521.161 807.929 523.037C809.334 524.914 811.462 526.132 813.428 527.44C815 528.377 816.341 529.657 817.351 531.184C817.469 531.399 817.567 531.625 817.643 531.859H829.543C832.207 530.501 834.677 528.79 836.886 526.774Z" fill="#6C63FF"/>
<path d="M742.306 539.55C742.306 539.55 730.894 500.781 744.443 472.271C750.206 460.346 751.944 446.873 749.397 433.876C748.138 427.715 746.32 421.682 743.963 415.852" stroke="#535461" stroke-width="1.62452" stroke-miterlimit="10"/>
<path d="M752.395 397.828C752.395 402.572 743.793 416.348 743.793 416.348C743.793 416.348 735.191 402.539 735.191 397.828C735.191 395.547 736.097 393.359 737.71 391.746C739.324 390.133 741.511 389.227 743.793 389.227C746.074 389.227 748.262 390.133 749.875 391.746C751.488 393.359 752.395 395.547 752.395 397.828Z" fill="#6C63FF"/>
<path d="M766.593 424.129C764.01 428.117 749.308 435.005 749.308 435.005C749.308 435.005 749.576 418.76 752.151 414.788C752.752 413.813 753.541 412.967 754.473 412.302C755.405 411.636 756.461 411.163 757.578 410.91C758.696 410.658 759.852 410.631 760.98 410.832C762.107 411.032 763.184 411.456 764.146 412.078C765.107 412.7 765.935 413.508 766.581 414.454C767.226 415.4 767.676 416.466 767.904 417.589C768.132 418.711 768.133 419.868 767.908 420.991C767.683 422.114 767.236 423.181 766.593 424.129Z" fill="#6C63FF"/>
<path d="M765.984 469.104C761.744 471.24 745.58 469.762 745.58 469.762C745.58 469.762 754.003 455.888 758.243 453.744C759.254 453.208 760.362 452.88 761.502 452.778C762.641 452.676 763.79 452.802 764.88 453.15C765.97 453.497 766.98 454.058 767.851 454.801C768.721 455.544 769.435 456.452 769.95 457.474C770.465 458.496 770.771 459.61 770.85 460.752C770.929 461.893 770.779 463.039 770.41 464.122C770.04 465.205 769.459 466.204 768.699 467.059C767.939 467.914 767.016 468.609 765.984 469.104Z" fill="#6C63FF"/>
<path d="M757.861 502.991C754.035 505.817 737.855 507.052 737.855 507.052C737.855 507.052 743.809 491.952 747.602 489.125C749.439 487.883 751.684 487.398 753.87 487.771C756.055 488.144 758.012 489.347 759.332 491.128C760.653 492.91 761.234 495.132 760.955 497.331C760.677 499.531 759.559 501.538 757.837 502.934L757.861 502.991Z" fill="#6C63FF"/>
<path d="M731.268 435.922C734.671 439.236 750.543 442.664 750.543 442.664C750.543 442.664 746.66 426.898 743.232 423.592C741.597 422.003 739.398 421.129 737.119 421.162C734.839 421.195 732.666 422.132 731.077 423.767C729.488 425.402 728.614 427.601 728.647 429.881C728.68 432.16 729.617 434.334 731.252 435.922H731.268Z" fill="#6C63FF"/>
<path d="M722.26 475.698C726.5 477.843 742.672 476.364 742.672 476.364C742.672 476.364 734.249 462.483 730.041 460.347C728.015 459.396 725.697 459.273 723.581 460.003C721.465 460.733 719.717 462.26 718.709 464.258C717.7 466.256 717.51 468.569 718.179 470.705C718.848 472.842 720.324 474.633 722.292 475.698H722.26Z" fill="#6C63FF"/>
<path d="M718.816 515.564C722.633 518.383 738.822 519.626 738.822 519.626C738.822 519.626 732.86 504.518 729.075 501.691C728.174 500.952 727.132 500.404 726.012 500.081C724.893 499.757 723.72 499.664 722.563 499.807C721.407 499.95 720.292 500.327 719.285 500.915C718.279 501.502 717.403 502.288 716.709 503.224C716.016 504.161 715.52 505.228 715.251 506.362C714.983 507.496 714.947 508.672 715.148 509.82C715.348 510.968 715.779 512.064 716.415 513.04C717.051 514.016 717.879 514.853 718.848 515.499L718.816 515.564Z" fill="#6C63FF"/>
<path d="M752.395 397.828C752.395 402.572 743.793 416.348 743.793 416.348C743.793 416.348 735.191 402.539 735.191 397.828C735.191 395.547 736.097 393.359 737.71 391.746C739.324 390.133 741.511 389.227 743.793 389.227C746.074 389.227 748.262 390.133 749.875 391.746C751.488 393.359 752.395 395.547 752.395 397.828Z" fill="#6C63FF"/>
<path d="M766.593 424.129C764.01 428.117 749.308 435.005 749.308 435.005C749.308 435.005 749.576 418.76 752.151 414.788C752.752 413.813 753.541 412.967 754.473 412.302C755.405 411.636 756.461 411.163 757.578 410.91C758.696 410.658 759.852 410.631 760.98 410.832C762.107 411.032 763.184 411.456 764.146 412.078C765.107 412.7 765.935 413.508 766.581 414.454C767.226 415.4 767.676 416.466 767.904 417.589C768.132 418.711 768.133 419.868 767.908 420.991C767.683 422.114 767.236 423.181 766.593 424.129Z" fill="#6C63FF"/>
<path d="M765.984 469.104C761.744 471.24 745.58 469.762 745.58 469.762C745.58 469.762 754.003 455.888 758.243 453.744C759.254 453.208 760.362 452.88 761.502 452.778C762.641 452.676 763.79 452.802 764.88 453.15C765.97 453.497 766.98 454.058 767.851 454.801C768.721 455.544 769.435 456.452 769.95 457.474C770.465 458.496 770.771 459.61 770.85 460.752C770.929 461.893 770.779 463.039 770.41 464.122C770.04 465.205 769.459 466.204 768.699 467.059C767.939 467.914 767.016 468.609 765.984 469.104Z" fill="#6C63FF"/>
<path d="M757.861 502.991C754.035 505.817 737.855 507.052 737.855 507.052C737.855 507.052 743.809 491.952 747.602 489.125C749.439 487.883 751.684 487.398 753.87 487.771C756.055 488.144 758.012 489.347 759.332 491.128C760.653 492.91 761.234 495.132 760.955 497.331C760.677 499.531 759.559 501.538 757.837 502.934L757.861 502.991Z" fill="#6C63FF"/>
<path d="M731.268 435.922C734.671 439.236 750.543 442.664 750.543 442.664C750.543 442.664 746.66 426.898 743.232 423.592C741.597 422.003 739.398 421.129 737.119 421.162C734.839 421.195 732.666 422.132 731.077 423.767C729.488 425.402 728.614 427.601 728.647 429.881C728.68 432.16 729.617 434.334 731.252 435.922H731.268Z" fill="#6C63FF"/>
<path d="M722.26 475.698C726.5 477.843 742.672 476.364 742.672 476.364C742.672 476.364 734.249 462.483 730.041 460.347C728.015 459.396 725.697 459.273 723.581 460.003C721.465 460.733 719.717 462.26 718.709 464.258C717.7 466.256 717.51 468.569 718.179 470.705C718.848 472.842 720.324 474.633 722.292 475.698H722.26Z" fill="#6C63FF"/>
<path d="M718.816 515.564C722.633 518.383 738.822 519.626 738.822 519.626C738.822 519.626 732.86 504.518 729.075 501.691C728.174 500.952 727.132 500.404 726.012 500.081C724.893 499.757 723.72 499.664 722.563 499.807C721.407 499.95 720.292 500.327 719.285 500.915C718.279 501.502 717.403 502.288 716.709 503.224C716.016 504.161 715.52 505.228 715.251 506.362C714.983 507.496 714.947 508.672 715.148 509.82C715.348 510.968 715.779 512.064 716.415 513.04C717.051 514.016 717.879 514.853 718.848 515.499L718.816 515.564Z" fill="#6C63FF"/>
<path d="M715.331 537.106C715.331 537.106 729.229 534.344 732.933 530.664C736.637 526.985 753.321 520.544 755.173 525.141C757.024 529.739 780.19 545.383 764.44 548.144C748.691 550.906 727.377 551.824 722.739 549.98C718.101 548.136 715.331 537.106 715.331 537.106Z" fill="#A8A8A8"/>
<path opacity="0.2" d="M764.44 546.431C748.691 549.192 727.377 550.11 722.739 548.274C719.214 546.869 716.761 540.152 715.794 537.008L715.331 537.106C715.331 537.106 718.109 548.144 722.739 549.98C727.369 551.816 748.731 550.906 764.44 548.144C768.989 547.332 770.289 545.472 769.793 543.108C769.411 544.644 767.828 545.838 764.44 546.431Z" fill="black"/>
<path d="M541.141 219.536H356.412C347.884 219.536 340.971 223.46 340.971 228.302V333.177C340.971 338.018 347.884 341.943 356.412 341.943H541.141C549.669 341.943 556.582 338.018 556.582 333.177V228.302C556.582 223.46 549.669 219.536 541.141 219.536Z" fill="#EAEAF3"/>
<path opacity="0.1" d="M496.082 140.857H376.26C362.672 140.857 351.657 148.39 351.657 157.683V239.631C351.657 248.923 362.672 256.457 376.26 256.457H496.082C509.67 256.457 520.685 248.923 520.685 239.631V157.683C520.685 148.39 509.67 140.857 496.082 140.857Z" fill="#6C63FF"/>
<path opacity="0.1" d="M574.252 175.829H428.262C411.706 175.829 398.285 183.615 398.285 193.221V277.922C398.285 287.528 411.706 295.314 428.262 295.314H574.252C590.807 295.314 604.228 287.528 604.228 277.922V193.221C604.228 183.615 590.807 175.829 574.252 175.829Z" fill="#6C63FF"/>
</g>
<defs>
<linearGradient id="paint0_linear" x1="147.242" y1="650.655" x2="147.242" y2="69.4158" gradientUnits="userSpaceOnUse">
<stop stop-color="#808080" stop-opacity="0.25"/>
<stop offset="0.54" stop-color="#808080" stop-opacity="0.12"/>
<stop offset="1" stop-color="#808080" stop-opacity="0.1"/>
</linearGradient>
<clipPath id="clip0">
<rect width="898" height="660.423" fill="white"/>
</clipPath>
</defs>
</svg>
