<svg width="460" height="285" viewBox="0 0 460 285" fill="none" xmlns="http://www.w3.org/2000/svg">
<g clip-path="url(#clip0)">
<path d="M460 199.255H0V284.317H460V199.255Z" fill="url(#paint0_linear)"/>
<path d="M456.639 202.041H2.68536V279.795H456.639V202.041Z" fill="white"/>
<path d="M294.457 217.911H30.5678V264.184H294.457V217.911Z" fill="#F5F5F5"/>
<path d="M396.823 220.865C393.599 217.511 389.485 215.146 384.964 214.049C380.444 212.952 375.703 213.168 371.301 214.672C366.899 216.176 363.017 218.905 360.113 222.539C357.208 226.173 355.401 230.561 354.904 235.186C354.407 239.812 355.241 244.483 357.307 248.651C359.374 252.819 362.587 256.311 366.569 258.716C370.551 261.121 375.137 262.339 379.788 262.227C384.439 262.116 388.961 260.679 392.824 258.086L410.487 276.461C410.595 276.574 410.725 276.665 410.868 276.727C411.011 276.79 411.165 276.824 411.322 276.827C411.478 276.83 411.634 276.802 411.779 276.745C411.925 276.687 412.057 276.602 412.17 276.493L416.57 272.272C416.683 272.164 416.773 272.035 416.836 271.891C416.899 271.748 416.933 271.594 416.936 271.437C416.938 271.281 416.911 271.126 416.853 270.98C416.796 270.834 416.71 270.702 416.601 270.589L398.938 252.214C402.327 247.574 403.973 241.887 403.586 236.154C403.199 230.421 400.805 225.008 396.823 220.865ZM391.32 250.409C388.828 252.805 385.681 254.408 382.278 255.015C378.875 255.622 375.369 255.207 372.202 253.822C369.035 252.436 366.35 250.143 364.486 247.231C362.623 244.32 361.664 240.921 361.732 237.465C361.8 234.009 362.891 230.651 364.868 227.815C366.844 224.979 369.617 222.792 372.836 221.532C376.055 220.272 379.575 219.995 382.952 220.735C386.328 221.476 389.409 223.201 391.805 225.692C395.016 229.034 396.768 233.513 396.677 238.146C396.586 242.779 394.659 247.186 391.32 250.399V250.409Z" fill="url(#paint1_linear)"/>
<path d="M366.26 232.941C364.292 232.941 364.292 235.996 366.26 235.996C368.228 235.996 368.223 232.941 366.26 232.941Z" fill="url(#paint2_linear)"/>
<path d="M379.961 223.155C377.469 223.08 374.999 223.642 372.783 224.786C370.568 225.931 368.681 227.621 367.299 229.697C366.466 231.005 368.835 232.16 369.668 230.857C371.779 227.539 375.814 225.434 380.167 225.545C382.367 225.62 384.514 226.238 386.418 227.342C388.322 228.447 389.924 230.004 391.083 231.875C391.916 233.252 394.106 232.002 393.272 230.636C390.608 226.257 385.427 223.281 379.961 223.155Z" fill="url(#paint3_linear)"/>
<path d="M396.823 218.18C393.599 214.825 389.485 212.46 384.964 211.363C380.444 210.266 375.703 210.483 371.301 211.987C366.899 213.491 363.017 216.22 360.113 219.854C357.208 223.488 355.401 227.875 354.904 232.501C354.407 237.127 355.241 241.798 357.307 245.966C359.374 250.134 362.587 253.626 366.569 256.03C370.551 258.435 375.137 259.654 379.788 259.542C384.439 259.43 388.961 257.993 392.824 255.4L410.487 273.776C410.595 273.889 410.725 273.979 410.868 274.042C411.011 274.105 411.165 274.139 411.322 274.141C411.478 274.144 411.634 274.116 411.779 274.059C411.925 274.002 412.057 273.916 412.17 273.807L416.57 269.587C416.683 269.479 416.773 269.349 416.836 269.206C416.899 269.063 416.933 268.908 416.936 268.752C416.938 268.595 416.911 268.44 416.853 268.295C416.796 268.149 416.71 268.016 416.601 267.904L398.943 249.518C402.329 244.878 403.972 239.194 403.585 233.463C403.197 227.732 400.803 222.321 396.823 218.18ZM391.32 247.724C388.828 250.119 385.681 251.722 382.278 252.33C378.875 252.937 375.369 252.522 372.202 251.136C369.035 249.751 366.35 247.457 364.486 244.546C362.623 241.634 361.664 238.236 361.732 234.78C361.8 231.324 362.891 227.965 364.868 225.129C366.844 222.293 369.617 220.107 372.836 218.847C376.055 217.587 379.575 217.31 382.952 218.05C386.328 218.79 389.409 220.516 391.805 223.007C395.016 226.348 396.768 230.828 396.677 235.461C396.586 240.094 394.659 244.501 391.32 247.713V247.724Z" fill="#6C63FF"/>
<path d="M366.26 230.261C364.292 230.261 364.292 233.316 366.26 233.316C368.228 233.316 368.223 230.261 366.26 230.261Z" fill="#6C63FF"/>
<path d="M379.961 220.469C377.469 220.395 374.999 220.956 372.783 222.101C370.568 223.246 368.681 224.935 367.299 227.011C366.466 228.32 368.835 229.475 369.668 228.172C371.779 224.853 375.814 222.748 380.167 222.859C382.367 222.935 384.514 223.553 386.418 224.657C388.322 225.761 389.924 227.318 391.083 229.19C391.916 230.567 394.106 229.317 393.272 227.95C390.608 223.571 385.427 220.591 379.961 220.469Z" fill="#6C63FF"/>
<path d="M241.699 33.786H203.212V49.74H225.371C223.308 59.8747 214.671 65.6939 203.212 65.6939C196.802 65.5997 190.687 62.9872 186.187 58.4209C181.688 53.8547 179.165 47.7015 179.165 41.2908C179.165 34.8802 181.688 28.7269 186.187 24.1607C190.687 19.5945 196.802 16.982 203.212 16.8877C208.759 16.8811 214.135 18.8062 218.417 22.3323L230.43 10.3194C225.415 5.91335 219.406 2.78954 212.919 1.21588C206.431 -0.357777 199.659 -0.334315 193.182 1.28425C186.706 2.90282 180.719 6.06818 175.734 10.5089C170.75 14.9495 166.917 20.533 164.565 26.7803C162.212 33.0276 161.41 39.7523 162.227 46.3777C163.045 53.0031 165.457 59.3314 169.257 64.8198C173.057 70.3082 178.132 74.7929 184.046 77.8892C189.96 80.9856 196.537 82.6012 203.212 82.5975C223.862 82.5975 242.633 67.5774 242.633 41.2987C242.6 38.7677 242.287 36.2481 241.699 33.786Z" fill="url(#paint4_linear)"/>
<path d="M162.895 62.1908V20.4014L190.218 41.2934L162.895 62.1908Z" fill="#FBBC05"/>
<path d="M162.895 20.4014L190.218 41.2935L201.471 31.4911L240.021 25.2235V2.72229H162.895V20.4014Z" fill="#EA4335"/>
<path d="M162.895 62.1908L211.115 25.2235L223.814 26.8062L240.021 2.72229V79.8699H162.895V62.1908Z" fill="#34A853"/>
<path d="M240.021 79.8699L190.197 41.2934L183.766 36.4714L240.021 20.4014V79.8699Z" fill="#4285F4"/>
<path d="M113.334 98.0133C135.74 98.0133 152.86 114.595 152.86 136.305C152.86 158.015 135.74 174.607 113.334 174.607C90.928 174.607 73.8345 158.02 73.8345 136.305C73.8345 114.59 90.928 98.0133 113.334 98.0133Z" fill="url(#paint5_linear)"/>
<path d="M111.635 123.163C111.725 121.833 111.825 120.525 112.01 119.19H81.938V123.163C84.9611 123.353 87.8944 123.638 90.9069 123.822C96.5783 130.723 102.25 137.629 108.016 144.62V155.345C104.803 155.63 101.585 155.82 98.3721 156.105V159.566H128.064V156.084C124.851 155.889 121.633 155.799 118.42 155.704C118.515 151.926 118.61 148.049 118.705 144.266C124.281 139.349 129.784 134.432 135.255 129.494C138.088 129.304 140.926 129.119 143.855 128.834V124.218C135.44 124.313 127.12 124.408 118.705 124.593V128.476C121.823 128.666 124.946 128.755 128.064 128.85C124.002 132.348 119.929 135.751 115.867 139.254C111.704 134.147 107.547 128.95 103.384 123.838C106.149 123.548 108.887 123.363 111.635 123.163Z" fill="url(#paint6_linear)"/>
<path d="M180.405 101.807L157.614 100.667C157.234 118.731 156.854 136.885 156.479 154.95C160.072 155.324 163.76 155.704 167.348 156.084C171.684 137.928 176.037 119.836 180.405 101.807ZM155.414 174.517H168.461V163.649L154.279 162.515C154.654 166.577 155.039 170.55 155.414 174.517Z" fill="url(#paint7_linear)"/>
<path d="M114.759 101.97C134.854 101.97 150.201 116.837 150.201 136.31C150.201 155.783 134.849 170.645 114.759 170.645C94.6685 170.645 79.316 155.773 79.316 136.3C79.316 116.827 94.6633 101.97 114.759 101.97Z" fill="#6B0094"/>
<path d="M113.234 124.529C113.313 123.337 113.403 122.15 113.572 120.968H86.6071V124.529C89.3135 124.698 91.9461 124.951 94.6632 125.12C99.749 131.309 104.835 137.503 110.005 143.77V153.356C107.125 153.609 104.239 153.778 101.358 154.037V157.171H127.985V154.037C125.104 153.863 122.219 153.784 119.338 153.694C119.428 150.307 119.507 146.835 119.591 143.438C124.587 139.027 129.515 134.622 134.432 130.211C136.97 130.043 139.518 129.874 142.145 129.621V125.463C134.601 125.553 127.136 125.632 119.591 125.801V129.283C122.387 129.452 125.189 129.531 127.985 129.621C124.339 132.76 120.689 135.809 117.048 138.948C113.318 134.369 109.583 129.705 105.853 125.126C108.312 124.867 110.765 124.698 113.234 124.529Z" fill="white"/>
<path d="M174.876 105.368L154.438 104.344C154.095 120.541 153.757 136.822 153.42 153.024C156.638 153.361 159.946 153.699 163.169 154.042C167.07 137.761 170.972 121.536 174.876 105.368ZM152.491 170.571H164.193V160.821L151.478 159.803C151.81 163.449 152.153 167.01 152.491 170.571Z" fill="#6B0094"/>
<path d="M223.93 173.436L210.456 163.992V114.226L224.015 118.378V151.842L210.846 163.575L242.981 146.672L234.076 142.641L228.045 129.568L257.827 138.695V153.251L223.93 173.436Z" fill="url(#paint8_linear)"/>
<path d="M279.706 157.925H279.59V161.576H275.543V124.155L279.59 125.363V140.747H279.69C281.681 137.392 284.593 135.712 288.427 135.709C291.669 135.709 294.207 136.839 296.039 139.101C297.872 141.363 298.79 144.394 298.793 148.196C298.793 152.417 297.765 155.802 295.707 158.352C293.65 160.902 290.836 162.174 287.266 162.167C285.737 162.223 284.223 161.857 282.889 161.109C281.555 160.361 280.454 159.259 279.706 157.925ZM279.59 147.732V151.262C279.545 153.233 280.276 155.143 281.626 156.58C282.352 157.322 283.228 157.9 284.196 158.275C285.164 158.65 286.201 158.814 287.237 158.754C288.274 158.695 289.285 158.414 290.204 157.93C291.122 157.447 291.927 156.772 292.563 155.952C293.97 154.077 294.673 151.469 294.673 148.128C294.673 145.314 294.022 143.109 292.721 141.512C292.089 140.729 291.283 140.105 290.367 139.689C289.451 139.273 288.45 139.077 287.445 139.117C286.376 139.077 285.311 139.278 284.328 139.703C283.346 140.128 282.471 140.768 281.768 141.575C280.298 143.283 279.521 145.48 279.59 147.732Z" fill="url(#paint9_linear)"/>
<path d="M306.179 130.549C305.837 130.556 305.497 130.494 305.179 130.367C304.861 130.24 304.571 130.051 304.328 129.81C304.076 129.568 303.878 129.276 303.746 128.952C303.614 128.629 303.552 128.281 303.563 127.932C303.556 127.584 303.62 127.238 303.75 126.915C303.881 126.592 304.075 126.299 304.321 126.053C304.567 125.806 304.861 125.612 305.183 125.482C305.506 125.352 305.852 125.288 306.201 125.294C306.55 125.289 306.896 125.353 307.221 125.482C307.545 125.612 307.84 125.804 308.089 126.049C308.336 126.294 308.531 126.585 308.665 126.906C308.798 127.227 308.867 127.571 308.867 127.919C308.867 128.267 308.798 128.611 308.665 128.932C308.531 129.253 308.336 129.544 308.089 129.789C307.84 130.04 307.541 130.236 307.213 130.367C306.884 130.497 306.533 130.559 306.179 130.549ZM308.153 161.597H304.106V136.3H308.153V161.597Z" fill="url(#paint10_linear)"/>
<path d="M335.866 161.581H331.82V147.162C331.82 141.799 329.861 139.117 325.943 139.117C324.988 139.097 324.041 139.292 323.171 139.687C322.302 140.083 321.533 140.669 320.92 141.401C319.561 143.008 318.852 145.065 318.931 147.168V161.586H314.885V136.3H318.931V140.52H319.031C320.941 137.327 323.706 135.73 327.325 135.73C330.089 135.73 332.2 136.623 333.656 138.41C335.112 140.197 335.843 142.777 335.85 146.15L335.866 161.581Z" fill="url(#paint11_linear)"/>
<path d="M364.529 159.566C364.529 168.848 360.086 173.489 351.198 173.489C348.355 173.554 345.537 172.941 342.978 171.7L344.086 168.076C346.56 169.3 348.834 169.98 351.113 169.98C357.128 169.98 360.457 166.715 360.457 160.099V157.334H360.356C358.432 160.56 355.536 162.172 351.667 162.172C350.229 162.222 348.798 161.945 347.483 161.361C346.168 160.777 345.003 159.901 344.075 158.801C342.16 156.553 341.116 153.499 341.116 149.711C341.116 145.416 342.229 142.04 344.281 139.507C346.333 136.975 349.23 135.635 352.817 135.635C356.225 135.635 358.689 136.87 360.335 139.602H360.435V136.3H364.529V159.566ZM360.483 150.159V146.429C360.488 144.523 359.746 142.692 358.417 141.326C357.088 139.96 355.276 139.169 353.371 139.122C347.51 139.122 345.415 144.456 345.373 149.489C345.373 154.295 347.816 158.585 352.801 158.585C357.787 158.585 360.409 154.633 360.457 150.149L360.483 150.159Z" fill="url(#paint12_linear)"/>
<path d="M227.412 171.816L214.698 162.884V115.845L227.512 119.771V151.399L215.067 162.478L245.44 146.498L236.998 142.689L231.3 130.333L259.452 138.99V152.707L227.412 171.816Z" fill="#F4BD27"/>
<path d="M280.117 157.155H280.022V160.621H276.213V125.273L280.038 126.413V140.953H280.117C281.999 137.787 284.753 136.205 288.379 136.205C291.443 136.205 293.841 137.274 295.575 139.412C297.309 141.551 298.176 144.417 298.176 148.012C298.176 152.011 297.204 155.211 295.259 157.614C293.314 160.016 290.658 161.194 287.292 161.148C285.844 161.209 284.408 160.868 283.142 160.163C281.876 159.458 280.829 158.417 280.117 157.155ZM280.022 147.516V150.85C279.986 152.714 280.683 154.518 281.964 155.873C282.649 156.575 283.477 157.122 284.392 157.477C285.307 157.832 286.288 157.986 287.267 157.93C288.247 157.873 289.203 157.607 290.071 157.149C290.939 156.692 291.699 156.053 292.299 155.277C293.614 153.518 294.272 151.056 294.272 147.89C294.272 145.231 293.658 143.148 292.431 141.639C291.833 140.898 291.071 140.308 290.204 139.915C289.337 139.522 288.391 139.337 287.44 139.375C286.429 139.337 285.423 139.526 284.494 139.928C283.566 140.33 282.739 140.934 282.075 141.697C280.699 143.311 279.975 145.38 280.043 147.5L280.022 147.516Z" fill="#F4BD27"/>
<path d="M305.156 131.256C304.832 131.262 304.51 131.203 304.209 131.083C303.908 130.962 303.635 130.782 303.404 130.554C303.167 130.325 302.98 130.05 302.856 129.744C302.731 129.439 302.672 129.111 302.682 128.782C302.675 128.454 302.735 128.128 302.857 127.824C302.978 127.52 303.16 127.243 303.391 127.01C303.622 126.778 303.897 126.594 304.2 126.469C304.503 126.345 304.828 126.283 305.156 126.286C305.486 126.28 305.813 126.339 306.12 126.462C306.426 126.584 306.705 126.767 306.939 126.998C307.172 127.23 307.358 127.505 307.484 127.808C307.61 128.112 307.675 128.437 307.675 128.766C307.675 129.094 307.61 129.42 307.484 129.723C307.358 130.026 307.172 130.302 306.939 130.533C306.706 130.768 306.428 130.953 306.122 131.077C305.815 131.201 305.487 131.262 305.156 131.256ZM307.024 160.621H303.199V136.716H307.024V160.621Z" fill="#F4BD27"/>
<path d="M333.213 160.621H329.388V146.983C329.388 141.911 327.536 139.375 323.832 139.375C322.93 139.356 322.035 139.54 321.213 139.914C320.391 140.287 319.663 140.841 319.084 141.533C317.802 143.053 317.133 144.996 317.206 146.983V160.621H313.381V136.716H317.206V140.684H317.301C319.105 137.666 321.719 136.157 325.141 136.157C327.754 136.157 329.754 137.001 331.139 138.689C332.525 140.378 333.218 142.815 333.218 146.002L333.213 160.621Z" fill="#F4BD27"/>
<path d="M360.309 158.695C360.309 167.467 356.109 171.853 347.71 171.853C345.032 171.915 342.378 171.34 339.966 170.175L341.021 166.746C343.363 167.901 345.516 168.545 347.663 168.545C353.35 168.545 356.495 165.459 356.495 159.207V156.569H356.4C354.557 159.622 351.815 161.148 348.175 161.148C346.817 161.199 345.466 160.94 344.223 160.391C342.98 159.843 341.878 159.02 341 157.983C339.19 155.873 338.203 152.971 338.203 149.394C338.203 145.332 339.259 142.145 341.211 139.75C343.163 137.355 345.89 136.089 349.283 136.089C352.501 136.089 354.833 137.254 356.389 139.834H356.484V136.716H360.309V158.695ZM356.458 149.806V146.281C356.463 144.484 355.765 142.755 354.513 141.465C353.261 140.175 351.554 139.425 349.757 139.375C344.218 139.375 342.239 144.414 342.197 149.172C342.197 153.715 344.508 157.767 349.219 157.767C353.931 157.767 356.41 154.042 356.458 149.806Z" fill="#F4BD27"/>
<path d="M368.249 75.8813C365.448 75.8813 362.53 77.9284 362.53 77.9284V76.6147C362.53 76.3245 362.414 76.2084 362.129 76.2084H358.552C358.495 76.2018 358.437 76.2073 358.381 76.2246C358.326 76.2419 358.275 76.2707 358.232 76.3091C358.189 76.3474 358.154 76.3944 358.13 76.4471C358.106 76.4997 358.094 76.5568 358.093 76.6147V104.655C358.093 104.946 358.209 105.12 358.499 105.12H362.134C362.192 105.119 362.249 105.105 362.302 105.081C362.354 105.056 362.401 105.021 362.439 104.977C362.477 104.933 362.505 104.882 362.521 104.827C362.538 104.771 362.543 104.713 362.535 104.655V80.6507C363.671 79.9887 364.956 79.6256 366.271 79.5955C368.223 79.5955 369.758 80.5662 369.758 82.5499V104.666C369.752 104.728 369.76 104.79 369.781 104.849C369.802 104.907 369.836 104.96 369.88 105.005C369.923 105.049 369.976 105.083 370.034 105.105C370.093 105.126 370.155 105.135 370.217 105.13H373.789C373.846 105.129 373.904 105.116 373.956 105.091C374.008 105.067 374.055 105.032 374.093 104.988C374.131 104.944 374.159 104.893 374.176 104.837C374.192 104.782 374.197 104.723 374.19 104.666V81.2785C374.19 77.7595 372.026 75.8813 368.249 75.8813Z" fill="url(#paint13_linear)"/>
<path d="M396.058 61.8162H392.491C392.434 61.8095 392.376 61.815 392.32 61.8324C392.265 61.8497 392.214 61.8785 392.171 61.9168C392.128 61.9551 392.093 62.0022 392.069 62.0548C392.045 62.1075 392.033 62.1646 392.032 62.2224V76.3668C390.88 75.885 389.651 75.6117 388.402 75.5596C382.599 75.5596 378.611 81.115 378.611 91.7931C378.611 100.941 382.488 105.853 387.548 105.853C389.658 105.853 391.441 104.629 392.729 103.484L393.509 104.808C393.55 104.912 393.624 104.998 393.72 105.053C393.816 105.109 393.927 105.13 394.037 105.114H396.095C396.153 105.114 396.211 105.102 396.264 105.077C396.317 105.053 396.364 105.018 396.402 104.974C396.441 104.93 396.469 104.878 396.486 104.823C396.503 104.767 396.508 104.708 396.501 104.65V62.2172C396.501 61.927 396.385 61.8109 396.1 61.8109L396.058 61.8162ZM383.327 90.833C383.327 84.9505 385.047 79.1207 388.561 79.1207C389.829 79.1318 391.054 79.5873 392.022 80.408V101.142C391.059 101.705 389.971 102.023 388.856 102.065C385.015 102.06 383.327 97.5437 383.327 90.8488V90.833Z" fill="url(#paint14_linear)"/>
<path d="M409.754 75.6177C403.802 75.6177 400.864 83.41 400.864 91.8934C400.864 100.773 405.053 105.748 410.445 105.748C412.65 105.667 414.803 105.051 416.718 103.954C416.812 103.908 416.887 103.829 416.928 103.732C416.969 103.635 416.973 103.526 416.939 103.426L416.485 101.548C416.478 101.495 416.461 101.444 416.434 101.398C416.407 101.352 416.371 101.312 416.328 101.28C416.285 101.248 416.237 101.225 416.185 101.212C416.133 101.199 416.079 101.197 416.026 101.205C414.724 101.534 413.391 101.725 412.049 101.775C407.638 101.775 405.617 97.8498 405.617 92.6426V91.3764C406.781 91.5396 407.952 91.6418 409.126 91.6824H417.446V89.2766C417.446 80.3922 414.338 75.6388 409.759 75.6388L409.754 75.6177ZM409.469 88.0527C408.15 88.0527 405.776 88.3798 405.776 88.3798C405.776 88.3798 405.807 87.4248 405.923 86.5069C406.451 81.6373 407.601 79.1735 409.616 79.1735C411.357 79.1735 412.555 81.6954 412.84 86.1059C412.898 87.0239 412.898 88.0527 412.898 88.0527H409.506H409.469Z" fill="url(#paint15_linear)"/>
<path d="M351.298 79.2578C349.974 76.6515 347.605 75.512 344.925 75.512C342.772 75.6238 340.658 76.1243 338.684 76.9892C338.33 77.1475 338.109 77.2899 338.109 77.5642C338.123 77.7516 338.183 77.9326 338.283 78.0918L339.501 80.6981C339.535 80.8021 339.601 80.8931 339.689 80.9583C339.777 81.0235 339.883 81.0598 339.992 81.0621C340.169 81.0479 340.338 80.9818 340.477 80.8722C342.239 79.7431 343.532 79.1259 344.55 79.1259C345.901 79.1259 346.819 80.0228 347.383 81.3734C347.94 82.9795 348.189 84.6763 348.117 86.3748C348.117 86.6333 348.117 86.9657 348.117 86.9657C346.884 86.3128 345.517 85.9518 344.123 85.9105C338.958 85.9105 336.172 90.8223 336.172 96.0717C336.172 101.733 339.428 105.879 343.342 105.879C345.521 105.879 347.494 104.597 348.813 102.988C348.813 102.988 349.515 104.666 349.61 104.866C349.64 104.959 349.702 105.037 349.786 105.088C349.869 105.138 349.968 105.157 350.063 105.141H352.174C352.232 105.14 352.289 105.126 352.341 105.102C352.394 105.077 352.44 105.042 352.478 104.998C352.516 104.954 352.544 104.903 352.561 104.848C352.577 104.792 352.582 104.734 352.575 104.676V88.3848C352.575 84.3858 352.374 81.3364 351.319 79.2578H351.298ZM348.133 100.567C347.248 101.48 346.047 102.02 344.777 102.075C344.251 102.074 343.733 101.94 343.272 101.685C342.811 101.431 342.421 101.064 342.139 100.619C341.306 99.4692 340.921 97.6966 340.921 95.7393C340.921 92.6371 342.065 89.4558 344.492 89.4558C345.818 89.4619 347.102 89.9155 348.138 90.7431V100.572L348.133 100.567Z" fill="url(#paint16_linear)"/>
<path d="M436.322 76.2085H433.157C433.02 76.1996 432.883 76.2368 432.77 76.3142C432.656 76.3917 432.571 76.5049 432.529 76.6359C432.329 77.1635 430.978 80.714 430.419 82.186C430.023 83.2411 428.963 86.2431 428.963 86.2431H428.841C428.841 86.2431 428.061 84.0536 427.638 82.9668C427.301 82.0805 425.528 77.4062 425.296 76.8258C425.175 76.5145 425.043 76.2085 424.584 76.2085H421.086C421.006 76.2131 420.928 76.2356 420.859 76.2746C420.789 76.3136 420.729 76.3679 420.683 76.4334C420.637 76.4989 420.607 76.574 420.595 76.653C420.582 76.7319 420.588 76.8127 420.611 76.8891C420.738 77.1529 426.293 89.82 426.293 89.82C426.293 89.82 420.326 104.007 420.152 104.323C420.105 104.404 420.081 104.496 420.081 104.59C420.082 104.684 420.107 104.776 420.155 104.856C420.203 104.937 420.271 105.003 420.353 105.049C420.435 105.094 420.528 105.117 420.622 105.115H423.676C424.204 105.115 424.399 104.84 424.557 104.402C424.995 103.173 425.649 101.458 426.578 98.81C427.19 97.0531 428.161 93.9773 428.161 93.9773H428.266C428.266 93.9773 429.321 97.1164 429.722 98.1399C430.719 100.736 432.002 104.123 432.133 104.471C432.265 104.819 432.471 105.104 432.83 105.104H436.28C436.623 105.104 436.808 104.714 436.623 104.371C436.238 103.558 432.93 95.5495 430.661 90.2896C430.661 90.2896 436.597 77.1846 436.713 76.8627C436.829 76.5409 436.792 76.198 436.307 76.198L436.322 76.2085Z" fill="url(#paint17_linear)"/>
<path d="M339.786 57.5956H335.766C335.627 57.5783 335.487 57.6122 335.372 57.6909C335.256 57.7695 335.173 57.8876 335.138 58.0229C335.085 58.2761 329.113 76.4881 328.675 78.0287C328.369 79.0838 327.362 82.9035 327.124 83.832L325.046 78.1553C324.518 76.5725 319.701 63.0613 319.559 62.5179C319.48 62.2224 319.343 61.8531 318.826 61.8531H314.9C314.824 61.8568 314.749 61.877 314.681 61.9125C314.613 61.948 314.554 61.9978 314.507 62.0586C314.46 62.1194 314.428 62.1896 314.411 62.2643C314.394 62.3391 314.394 62.4166 314.41 62.4915C314.51 62.7025 321.595 81.5687 324.434 88.7754V104.603C324.434 104.893 324.55 105.067 324.84 105.067H328.533C328.591 105.066 328.648 105.053 328.7 105.028C328.753 105.004 328.799 104.968 328.837 104.925C328.875 104.881 328.903 104.829 328.92 104.774C328.937 104.718 328.941 104.66 328.934 104.603V88.8809C331.319 82.2123 340.013 58.4819 340.134 58.2128C340.256 57.9438 340.219 57.5481 339.728 57.5481L339.786 57.5956Z" fill="url(#paint18_linear)"/>
<path d="M368.75 76.2823C366.144 76.2823 363.422 78.1869 363.422 78.1869V76.9629C363.422 76.6938 363.316 76.5883 363.047 76.5883H359.718C359.665 76.5825 359.611 76.5877 359.56 76.6038C359.509 76.6198 359.462 76.6463 359.422 76.6815C359.382 76.7168 359.349 76.76 359.327 76.8084C359.304 76.8569 359.292 76.9095 359.291 76.9629V103.073C359.291 103.342 359.396 103.505 359.665 103.505H363.047C363.101 103.504 363.154 103.492 363.203 103.469C363.252 103.446 363.295 103.413 363.331 103.372C363.366 103.332 363.392 103.284 363.408 103.232C363.424 103.181 363.428 103.126 363.422 103.073V80.7245C364.478 80.1031 365.674 79.76 366.898 79.7274C368.713 79.7274 370.148 80.6296 370.148 82.4761V103.052C370.143 103.109 370.15 103.168 370.169 103.222C370.189 103.277 370.22 103.327 370.261 103.368C370.301 103.409 370.351 103.441 370.405 103.461C370.46 103.481 370.518 103.489 370.576 103.484H373.905C373.959 103.484 374.012 103.472 374.062 103.45C374.111 103.427 374.155 103.394 374.19 103.353C374.226 103.312 374.252 103.264 374.267 103.212C374.283 103.16 374.287 103.105 374.279 103.052V81.3102C374.285 78.0286 372.275 76.2823 368.75 76.2823Z" fill="#010202"/>
<path d="M394.644 63.1879H391.315C391.262 63.1821 391.208 63.1873 391.157 63.2034C391.106 63.2194 391.059 63.2459 391.019 63.2811C390.978 63.3164 390.946 63.3596 390.923 63.408C390.901 63.4565 390.889 63.5091 390.887 63.5625V76.752C389.813 76.3041 388.668 76.0505 387.506 76.0028C382.098 76.0028 378.389 81.1731 378.389 91.1179C378.389 99.6383 381.998 104.207 386.709 104.207C388.693 104.207 390.333 103.068 391.536 102.002L392.264 103.236C392.301 103.329 392.366 103.406 392.451 103.458C392.536 103.509 392.635 103.532 392.734 103.521H394.649C394.703 103.52 394.756 103.508 394.805 103.485C394.854 103.462 394.897 103.429 394.933 103.388C394.968 103.347 394.994 103.3 395.01 103.248C395.026 103.197 395.03 103.142 395.024 103.089V63.5467C395.024 63.2776 394.918 63.1721 394.649 63.1721L394.644 63.1879ZM382.789 90.221C382.789 84.7395 384.372 79.316 387.664 79.316C388.845 79.3257 389.986 79.7495 390.887 80.5136V99.8176C389.985 100.345 388.967 100.64 387.922 100.678C384.367 100.678 382.794 96.4517 382.794 90.221H382.789Z" fill="#010202"/>
<path d="M407.395 76.0396C401.85 76.0396 399.118 83.2938 399.118 91.1917C399.118 99.4588 403.022 104.091 408.034 104.091C410.087 104.017 412.091 103.445 413.874 102.424C413.97 102.38 414.045 102.3 414.084 102.202C414.122 102.103 414.121 101.994 414.08 101.896L413.658 100.15C413.652 100.1 413.636 100.052 413.611 100.009C413.586 99.9654 413.553 99.9275 413.513 99.8974C413.473 99.8673 413.427 99.8457 413.379 99.8338C413.33 99.8218 413.28 99.8199 413.23 99.8281C412.021 100.133 410.783 100.31 409.537 100.356C405.433 100.356 403.549 96.7049 403.549 91.8511V90.6747C404.632 90.8266 405.722 90.9217 406.815 90.9595H414.56V88.7173C414.56 80.4449 411.663 76.0186 407.401 76.0186L407.395 76.0396ZM407.126 87.62C405.902 87.62 403.671 87.9207 403.671 87.9207C403.671 87.9207 403.702 87.0291 403.808 86.1744C404.288 81.6373 405.391 79.3476 407.237 79.3476C408.862 79.3476 409.97 81.6953 410.239 85.8051C410.292 86.6598 410.292 87.62 410.292 87.62H407.126Z" fill="#010202"/>
<path d="M352.976 79.432C351.746 77.0051 349.552 75.9447 347.04 75.9447C345.039 76.0485 343.073 76.5132 341.237 77.3164C340.91 77.4641 340.709 77.596 340.709 77.844C340.724 78.0165 340.781 78.1829 340.873 78.3293L342.007 80.7562C342.038 80.8541 342.099 80.9397 342.181 81.0005C342.264 81.0613 342.364 81.094 342.466 81.0939C342.631 81.0819 342.789 81.0213 342.92 80.9198C344.561 79.8646 345.764 79.2948 346.713 79.2948C347.974 79.2948 348.824 80.1284 349.351 81.4051C349.869 82.9013 350.1 84.4818 350.032 86.0636C350.032 86.301 350.032 86.5912 350.032 86.5912C348.893 85.9802 347.63 85.6373 346.339 85.5888C341.527 85.5888 338.953 90.1629 338.953 95.0483C338.953 100.324 341.986 104.181 345.626 104.181C347.658 104.181 349.494 102.988 350.723 101.485C350.723 101.485 351.377 103.067 351.461 103.236C351.489 103.323 351.547 103.396 351.625 103.444C351.702 103.491 351.794 103.509 351.884 103.495H353.83C353.884 103.494 353.937 103.481 353.986 103.458C354.035 103.436 354.078 103.403 354.114 103.362C354.149 103.321 354.175 103.273 354.191 103.222C354.207 103.17 354.211 103.116 354.205 103.062V87.926C354.205 84.2066 354.015 81.3682 353.034 79.432H352.976ZM350.011 99.2742C349.187 100.124 348.069 100.626 346.887 100.678C346.397 100.677 345.914 100.552 345.484 100.315C345.055 100.078 344.692 99.7362 344.429 99.3217C343.653 98.2665 343.295 96.6046 343.295 94.7792C343.295 91.8934 344.35 88.9284 346.618 88.9284C347.852 88.9342 349.047 89.3562 350.011 90.126V99.2742Z" fill="#010202"/>
<path d="M432.133 76.5831H429.168C429.04 76.5747 428.913 76.6097 428.806 76.6824C428.7 76.7551 428.621 76.8613 428.583 76.984C428.393 77.4799 427.143 80.7826 426.626 82.149C426.261 83.125 425.27 85.9265 425.27 85.9265H425.154C425.154 85.9265 424.425 83.89 424.035 82.8718C423.719 82.0488 422.067 77.691 421.856 77.1528C421.745 76.8627 421.619 76.5778 421.197 76.5778H417.947C417.872 76.5796 417.798 76.5991 417.732 76.6347C417.665 76.6702 417.609 76.7208 417.565 76.7824C417.522 76.844 417.494 76.9149 417.484 76.9893C417.473 77.0637 417.48 77.1396 417.504 77.2109C417.62 77.4536 422.779 89.2502 422.779 89.2502C422.779 89.2502 417.224 102.44 417.061 102.756C417.028 102.833 417.013 102.916 417.019 102.999C417.025 103.082 417.05 103.163 417.092 103.235C417.135 103.306 417.194 103.366 417.265 103.411C417.335 103.455 417.415 103.482 417.498 103.49H420.347C420.833 103.49 421.023 103.236 421.17 102.825C421.582 101.68 422.189 100.081 423.054 97.6176C423.624 95.9821 424.531 93.1173 424.531 93.1173H424.631C424.631 93.1173 425.623 96.0401 425.987 96.995C426.916 99.4113 428.097 102.566 428.235 102.899C428.372 103.231 428.551 103.49 428.884 103.49H432.112C432.434 103.49 432.582 103.125 432.429 102.809C432.07 102.049 429.005 94.5998 426.873 89.6986C426.873 89.6986 432.397 77.501 432.503 77.195C432.608 76.8891 432.577 76.5725 432.123 76.5725L432.133 76.5831Z" fill="#010202"/>
<path d="M342.255 59.2574H338.515C338.385 59.2394 338.253 59.2706 338.144 59.3447C338.036 59.4188 337.959 59.5307 337.929 59.6584C337.882 59.8958 332.316 76.8732 331.915 78.2871C331.63 79.2895 330.691 82.8243 330.469 83.6737L328.533 78.3979C328.063 76.9418 323.558 64.3433 323.426 63.8421C323.352 63.5677 323.226 63.2195 322.74 63.2195H319.089C319.014 63.2214 318.94 63.2409 318.874 63.2764C318.808 63.312 318.751 63.3626 318.708 63.4242C318.665 63.4858 318.637 63.5566 318.626 63.631C318.615 63.7055 318.622 63.7813 318.646 63.8526C318.736 64.0478 325.336 81.6161 328 88.3269V103.099C328 103.368 328.106 103.532 328.375 103.532H331.82C331.874 103.531 331.927 103.518 331.976 103.495C332.025 103.472 332.068 103.44 332.103 103.399C332.139 103.358 332.165 103.31 332.181 103.259C332.196 103.207 332.201 103.153 332.194 103.099V88.4325C334.415 82.2229 342.535 60.1279 342.619 59.88C342.704 59.632 342.693 59.2574 342.239 59.2574H342.255Z" fill="#E52620"/>
</g>
<defs>
<linearGradient id="paint0_linear" x1="229.997" y1="284.317" x2="229.997" y2="199.255" gradientUnits="userSpaceOnUse">
<stop stop-color="#808080" stop-opacity="0.25"/>
<stop offset="0.54" stop-color="#808080" stop-opacity="0.12"/>
<stop offset="1" stop-color="#808080" stop-opacity="0.1"/>
</linearGradient>
<linearGradient id="paint1_linear" x1="385.875" y1="276.825" x2="385.875" y2="213.363" gradientUnits="userSpaceOnUse">
<stop stop-color="#B3B3B3" stop-opacity="0.25"/>
<stop offset="0.54" stop-color="#B3B3B3" stop-opacity="0.1"/>
<stop offset="1" stop-color="#B3B3B3" stop-opacity="0.05"/>
</linearGradient>
<linearGradient id="paint2_linear" x1="366.26" y1="235.996" x2="366.26" y2="232.941" gradientUnits="userSpaceOnUse">
<stop stop-opacity="0.12"/>
<stop offset="0.55" stop-opacity="0.09"/>
<stop offset="1" stop-opacity="0.02"/>
</linearGradient>
<linearGradient id="paint3_linear" x1="23669.3" y1="6016.35" x2="23669.3" y2="5851.2" gradientUnits="userSpaceOnUse">
<stop stop-opacity="0.12"/>
<stop offset="0.55" stop-opacity="0.09"/>
<stop offset="1" stop-opacity="0.02"/>
</linearGradient>
<linearGradient id="paint4_linear" x1="44349.9" y1="27826.7" x2="44349.9" y2="14903.5" gradientUnits="userSpaceOnUse">
<stop stop-color="#808080" stop-opacity="0.25"/>
<stop offset="0.54" stop-color="#808080" stop-opacity="0.12"/>
<stop offset="1" stop-color="#808080" stop-opacity="0.1"/>
</linearGradient>
<linearGradient id="paint5_linear" x1="30015.1" y1="39277.2" x2="30015.1" y2="28156.6" gradientUnits="userSpaceOnUse">
<stop stop-color="#808080" stop-opacity="0.25"/>
<stop offset="0.54" stop-color="#808080" stop-opacity="0.12"/>
<stop offset="1" stop-color="#808080" stop-opacity="0.1"/>
</linearGradient>
<linearGradient id="paint6_linear" x1="23490.7" y1="19621.4" x2="23490.7" y2="16531.4" gradientUnits="userSpaceOnUse">
<stop stop-color="#808080" stop-opacity="0.25"/>
<stop offset="0.54" stop-color="#808080" stop-opacity="0.12"/>
<stop offset="1" stop-color="#808080" stop-opacity="0.1"/>
</linearGradient>
<linearGradient id="paint7_linear" x1="12726.5" y1="37863.3" x2="12726.5" y2="27525" gradientUnits="userSpaceOnUse">
<stop stop-color="#808080" stop-opacity="0.25"/>
<stop offset="0.54" stop-color="#808080" stop-opacity="0.12"/>
<stop offset="1" stop-color="#808080" stop-opacity="0.1"/>
</linearGradient>
<linearGradient id="paint8_linear" x1="21233.8" y1="19578.9" x2="21233.8" y2="12933.8" gradientUnits="userSpaceOnUse">
<stop stop-color="#808080" stop-opacity="0.25"/>
<stop offset="0.54" stop-color="#808080" stop-opacity="0.12"/>
<stop offset="1" stop-color="#808080" stop-opacity="0.1"/>
</linearGradient>
<linearGradient id="paint9_linear" x1="16746.1" y1="18674.5" x2="16746.1" y2="15934.9" gradientUnits="userSpaceOnUse">
<stop stop-color="#808080" stop-opacity="0.25"/>
<stop offset="0.54" stop-color="#808080" stop-opacity="0.12"/>
<stop offset="1" stop-color="#808080" stop-opacity="0.1"/>
</linearGradient>
<linearGradient id="paint10_linear" x1="4253.18" y1="17798.3" x2="4253.18" y2="15299.6" gradientUnits="userSpaceOnUse">
<stop stop-color="#808080" stop-opacity="0.25"/>
<stop offset="0.54" stop-color="#808080" stop-opacity="0.12"/>
<stop offset="1" stop-color="#808080" stop-opacity="0.1"/>
</linearGradient>
<linearGradient id="paint11_linear" x1="16697" y1="12723.2" x2="16697" y2="11455.2" gradientUnits="userSpaceOnUse">
<stop stop-color="#808080" stop-opacity="0.25"/>
<stop offset="0.54" stop-color="#808080" stop-opacity="0.12"/>
<stop offset="1" stop-color="#808080" stop-opacity="0.1"/>
</linearGradient>
<linearGradient id="paint12_linear" x1="19840" y1="19419.6" x2="19840" y2="16704" gradientUnits="userSpaceOnUse">
<stop stop-color="#808080" stop-opacity="0.25"/>
<stop offset="0.54" stop-color="#808080" stop-opacity="0.12"/>
<stop offset="1" stop-color="#808080" stop-opacity="0.1"/>
</linearGradient>
<linearGradient id="paint13_linear" x1="14172.5" y1="11184.8" x2="14172.5" y2="9564.06" gradientUnits="userSpaceOnUse">
<stop stop-color="#808080" stop-opacity="0.25"/>
<stop offset="0.54" stop-color="#808080" stop-opacity="0.12"/>
<stop offset="1" stop-color="#808080" stop-opacity="0.1"/>
</linearGradient>
<linearGradient id="paint14_linear" x1="16457.7" y1="16850.2" x2="16457.7" y2="13174" gradientUnits="userSpaceOnUse">
<stop stop-color="#808080" stop-opacity="0.25"/>
<stop offset="0.54" stop-color="#808080" stop-opacity="0.12"/>
<stop offset="1" stop-color="#808080" stop-opacity="0.1"/>
</linearGradient>
<linearGradient id="paint15_linear" x1="15980.7" y1="11554.8" x2="15980.7" y2="9834.1" gradientUnits="userSpaceOnUse">
<stop stop-color="#808080" stop-opacity="0.25"/>
<stop offset="0.54" stop-color="#808080" stop-opacity="0.12"/>
<stop offset="1" stop-color="#808080" stop-opacity="0.1"/>
</linearGradient>
<linearGradient id="paint16_linear" x1="13736.1" y1="11651.2" x2="13736.1" y2="9904.82" gradientUnits="userSpaceOnUse">
<stop stop-color="#808080" stop-opacity="0.25"/>
<stop offset="0.54" stop-color="#808080" stop-opacity="0.12"/>
<stop offset="1" stop-color="#808080" stop-opacity="0.1"/>
</linearGradient>
<linearGradient id="paint17_linear" x1="16708.4" y1="11058.5" x2="16708.4" y2="9473.83" gradientUnits="userSpaceOnUse">
<stop stop-color="#808080" stop-opacity="0.25"/>
<stop offset="0.54" stop-color="#808080" stop-opacity="0.12"/>
<stop offset="1" stop-color="#808080" stop-opacity="0.1"/>
</linearGradient>
<linearGradient id="paint18_linear" x1="20549.6" y1="18104.8" x2="20549.6" y2="13824.7" gradientUnits="userSpaceOnUse">
<stop stop-color="#808080" stop-opacity="0.25"/>
<stop offset="0.54" stop-color="#808080" stop-opacity="0.12"/>
<stop offset="1" stop-color="#808080" stop-opacity="0.1"/>
</linearGradient>
<clipPath id="clip0">
<rect width="460" height="284.317" fill="white"/>
</clipPath>
</defs>
</svg>
