<svg width="369" height="424" viewBox="0 0 369 424" fill="none" xmlns="http://www.w3.org/2000/svg">
<g clip-path="url(#clip0)">
<path d="M178.696 155.376H183.953V158.882H178.696V155.376Z" fill="#B0BEC5"/>
<path d="M171.69 155.376H176.946V158.882H171.69V155.376Z" fill="#B0BEC5"/>
<path d="M164.678 155.376H169.934V158.882H164.678V155.376Z" fill="#B0BEC5"/>
<path d="M157.671 155.376H162.928V158.882H157.671V155.376Z" fill="#B0BEC5"/>
<path d="M150.659 155.376H155.916V158.882H150.659V155.376Z" fill="#B0BEC5"/>
<path d="M143.647 155.376H148.904V158.882H143.647V155.376Z" fill="#B0BEC5"/>
<path d="M136.641 155.376H141.897V158.882H136.641V155.376Z" fill="#B0BEC5"/>
<path d="M129.629 155.376H134.885V158.882H129.629V155.376Z" fill="#B0BEC5"/>
<path d="M122.622 155.376H127.879V158.882H122.622V155.376Z" fill="#B0BEC5"/>
<path d="M115.61 155.376H120.866V158.882H115.61V155.376Z" fill="#B0BEC5"/>
<path d="M0.522354 157.81H226.681V410.228H0.522354V157.81Z" fill="url(#paint0_linear)"/>
<path d="M4.25635 326.338H222.941V404.732H4.25635V326.338Z" fill="#ECEFF1"/>
<path d="M196.521 344.935H204.995V385.102H196.521V344.935Z" fill="#64FFDA"/>
<g opacity="0.7">
<path opacity="0.7" d="M179.791 344.935H188.264V385.102H179.791V344.935Z" fill="#64FFDA"/>
</g>
<g opacity="0.6">
<path opacity="0.6" d="M163.061 344.935H171.534V385.102H163.061V344.935Z" fill="#64FFDA"/>
</g>
<g opacity="0.5">
<path opacity="0.5" d="M146.331 344.935H154.804V385.102H146.331V344.935Z" fill="#64FFDA"/>
</g>
<g opacity="0.5">
<path opacity="0.5" d="M129.601 344.935H138.074V385.102H129.601V344.935Z" fill="#64FFDA"/>
</g>
<g opacity="0.4">
<path opacity="0.4" d="M112.871 344.935H121.344V385.102H112.871V344.935Z" fill="#64FFDA"/>
</g>
<g opacity="0.3">
<path opacity="0.3" d="M96.1465 344.935H104.62V385.102H96.1465V344.935Z" fill="#64FFDA"/>
</g>
<path d="M4.25635 244.894H222.941V323.288H4.25635V244.894Z" fill="#ECEFF1"/>
<path d="M196.521 263.491H204.995V303.658H196.521V263.491Z" fill="#64FFDA"/>
<g opacity="0.7">
<path opacity="0.7" d="M179.791 263.491H188.264V303.658H179.791V263.491Z" fill="#64FFDA"/>
</g>
<g opacity="0.6">
<path opacity="0.6" d="M163.061 263.491H171.534V303.658H163.061V263.491Z" fill="#64FFDA"/>
</g>
<g opacity="0.5">
<path opacity="0.5" d="M146.331 263.491H154.804V303.658H146.331V263.491Z" fill="#64FFDA"/>
</g>
<g opacity="0.5">
<path opacity="0.5" d="M129.601 263.491H138.074V303.658H129.601V263.491Z" fill="#64FFDA"/>
</g>
<g opacity="0.4">
<path opacity="0.4" d="M112.871 263.491H121.344V303.658H112.871V263.491Z" fill="#64FFDA"/>
</g>
<g opacity="0.3">
<path opacity="0.3" d="M96.1465 263.491H104.62V303.658H96.1465V263.491Z" fill="#64FFDA"/>
</g>
<path d="M4.25635 163.455H222.941V241.849H4.25635V163.455Z" fill="#ECEFF1"/>
<path d="M196.521 182.047H204.995V222.213H196.521V182.047Z" fill="#64FFDA"/>
<g opacity="0.7">
<path opacity="0.7" d="M179.791 182.047H188.264V222.213H179.791V182.047Z" fill="#64FFDA"/>
</g>
<g opacity="0.6">
<path opacity="0.6" d="M163.061 182.047H171.534V222.213H163.061V182.047Z" fill="#64FFDA"/>
</g>
<g opacity="0.5">
<path opacity="0.5" d="M146.331 182.047H154.804V222.213H146.331V182.047Z" fill="#64FFDA"/>
</g>
<g opacity="0.5">
<path opacity="0.5" d="M129.601 182.047H138.074V222.213H129.601V182.047Z" fill="#64FFDA"/>
</g>
<g opacity="0.4">
<path opacity="0.4" d="M112.871 182.047H121.344V222.213H112.871V182.047Z" fill="#64FFDA"/>
</g>
<g opacity="0.3">
<path opacity="0.3" d="M96.1465 182.047H104.62V222.213H96.1465V182.047Z" fill="#64FFDA"/>
</g>
<path d="M35.2217 223.919C23.0483 223.919 13.1798 214.05 13.1798 201.877C13.1798 189.704 23.0483 179.835 35.2217 179.835C47.3951 179.835 57.2635 189.704 57.2635 201.877C57.2635 214.05 47.3951 223.919 35.2217 223.919Z" fill="url(#paint1_linear)"/>
<path d="M37.0311 307.951C24.8578 307.951 14.9893 298.082 14.9893 285.909C14.9893 273.736 24.8578 263.867 37.0311 263.867C49.2045 263.867 59.073 273.736 59.073 285.909C59.073 298.082 49.2045 307.951 37.0311 307.951Z" fill="url(#paint2_linear)"/>
<path d="M37.0311 388.361C24.8578 388.361 14.9893 378.492 14.9893 366.319C14.9893 354.145 24.8578 344.277 37.0311 344.277C49.2045 344.277 59.073 354.145 59.073 366.319C59.073 378.492 49.2045 388.361 37.0311 388.361Z" fill="url(#paint3_linear)"/>
<path d="M106.848 167.061H187.614C188.351 167.061 189.058 166.769 189.579 166.248C190.1 165.727 190.393 165.02 190.393 164.283V159.883C190.393 159.146 190.1 158.439 189.579 157.918C189.058 157.397 188.351 157.104 187.614 157.104H106.848V167.061Z" fill="url(#paint4_linear)"/>
<path d="M106.848 165.889H186.153C186.89 165.889 187.597 165.596 188.118 165.075C188.639 164.554 188.931 163.848 188.931 163.111V160.461C188.931 159.724 188.639 159.017 188.118 158.496C187.597 157.975 186.89 157.682 186.153 157.682H106.848V165.889Z" fill="#B0BEC5"/>
<path d="M312.665 112.915L254.323 164.522L186.536 150.204L191.787 134.929L244.317 141.13L296.874 95.0129C298.131 93.9091 299.607 93.0819 301.205 92.585C302.802 92.0881 304.487 91.9326 306.149 92.1285C307.81 92.3245 309.412 92.8675 310.851 93.7224C312.289 94.5772 313.532 95.7249 314.498 97.0909C316.194 99.4918 316.944 102.434 316.606 105.354C316.268 108.273 314.864 110.966 312.665 112.915Z" fill="url(#paint5_linear)"/>
<path d="M186.57 150.203C186.57 150.203 169.279 150.681 162.889 141.135C156.499 131.59 191.821 134.929 191.821 134.929L186.57 150.203Z" fill="url(#paint6_linear)"/>
<path d="M320.316 79.2772C303.708 79.2772 290.245 65.8141 290.245 49.2065C290.245 32.5989 303.708 19.1357 320.316 19.1357C336.923 19.1357 350.386 32.5989 350.386 49.2065C350.386 65.8141 336.923 79.2772 320.316 79.2772Z" fill="url(#paint7_linear)"/>
<path d="M332.723 82.1387C332.723 82.1387 371.339 108.142 361.532 188.531C360.338 198.242 361.182 208.096 364.011 217.463L369.011 233.909C369.011 233.909 284.055 235.821 281.672 233.909C280.194 232.726 281.344 202.433 285.489 160.41C288.028 134.668 280.066 98.8576 307.442 79.2883L332.723 82.1387Z" fill="url(#paint8_linear)"/>
<path d="M281.66 232.959L243.955 312.664L239.66 393.797H266.386L277.843 309.797L300.752 269.231L323.661 393.797H350.386L342.274 301.207L369 233.915L281.66 232.959Z" fill="url(#paint9_linear)"/>
<path d="M239.655 393.797L231.543 406.205C231.543 406.205 204.317 416.706 216.268 423.385H268.292V393.797H239.655Z" fill="url(#paint10_linear)"/>
<path d="M324.133 393.797L316.021 406.205C316.021 406.205 288.795 416.706 300.746 423.385H352.77V393.797H324.133Z" fill="url(#paint11_linear)"/>
<g opacity="0.2">
<path opacity="0.2" d="M319.838 18.6634C325.029 18.6528 330.134 19.9932 334.651 22.5528C327.585 19.4751 319.606 19.2288 312.363 21.8647C305.121 24.5007 299.167 29.8175 295.732 36.7171C292.297 43.6167 291.642 51.5721 293.904 58.9402C296.166 66.3083 301.171 72.5264 307.886 76.3101C301.541 73.5611 296.337 68.7091 293.151 62.5715C289.965 56.434 288.992 49.3858 290.395 42.6145C291.799 35.8432 295.493 29.7626 300.856 25.3969C306.219 21.0312 312.923 18.6473 319.838 18.6467V18.6634Z" fill="url(#paint12_linear)"/>
</g>
<path d="M283.761 0L292.128 12.7795C295.134 17.3746 299.502 22.5919 304.908 21.5251C307.419 21.0306 309.431 19.2193 311.437 17.6357C317.999 12.4239 326.116 8.89009 334.495 8.84008C342.874 8.79008 351.448 12.5628 356.165 19.4804C359.66 24.5867 360.866 30.8875 361.555 37.0328C362.938 49.3233 361.555 63.8308 351.292 70.7318C350.463 71.3922 349.44 71.7612 348.381 71.7819C347.269 71.7097 346.369 71.004 345.536 70.3039C332.69 59.5414 325.533 42.039 310.064 34.6491C303.236 31.3931 293.301 31.3653 287.795 25.8313C279.682 17.6968 288.661 7.48434 283.761 0Z" fill="url(#paint13_linear)"/>
<g opacity="0.2">
<path opacity="0.2" d="M314.776 17.6356C312.77 19.2303 310.764 21.0416 308.247 21.525C307.225 21.7277 306.171 21.7069 305.158 21.4639C307.553 20.9083 309.492 19.158 311.431 17.6245C317.993 12.4127 326.111 8.87886 334.49 8.82886C335.079 8.82886 335.662 8.82886 336.251 8.87887C328.417 9.34004 320.888 12.7794 314.776 17.6356Z" fill="url(#paint14_linear)"/>
<path opacity="0.2" d="M283.761 0L288.589 7.38433C288.128 13.4574 285.461 20.1638 291.117 25.8313C296.629 31.3876 306.564 31.3876 313.387 34.6491C328.872 42.039 336.018 59.5469 348.858 70.3039C349.299 70.6893 349.775 71.0317 350.281 71.3263C349.694 71.6473 349.032 71.8047 348.364 71.7819C347.253 71.7097 346.352 71.004 345.519 70.3039C332.673 59.5414 325.516 42.039 310.048 34.6491C303.219 31.3931 293.284 31.3653 287.778 25.8313C279.682 17.6968 288.661 7.48434 283.761 0Z" fill="url(#paint15_linear)"/>
</g>
<g opacity="0.2">
<path opacity="0.2" d="M285.472 160.416C288.011 134.673 280.049 98.863 307.425 79.2937L313.22 79.9493C286.911 99.6631 294.662 134.957 292.151 160.427C288.006 202.449 286.85 232.742 288.334 233.926C289.061 234.481 297.468 234.737 308.797 234.77C294.223 234.809 282.516 234.62 281.649 233.926C280.177 232.731 281.333 202.438 285.472 160.416Z" fill="url(#paint16_linear)"/>
</g>
<path d="M329.478 123.122L271.137 174.729L203.35 160.41L208.651 145.142L261.152 151.348L313.709 105.231C314.967 104.127 316.442 103.3 318.04 102.803C319.638 102.306 321.322 102.15 322.984 102.346C324.646 102.542 326.248 103.085 327.686 103.94C329.125 104.795 330.367 105.943 331.334 107.309C333.024 109.711 333.769 112.652 333.426 115.57C333.084 118.487 331.678 121.176 329.478 123.122Z" fill="url(#paint17_linear)"/>
<path d="M203.383 160.416C203.383 160.416 186.092 160.894 179.702 151.348C173.312 141.802 208.651 145.142 208.651 145.142L203.383 160.416Z" fill="url(#paint18_linear)"/>
<path d="M318.81 66.3921H321.833C328.114 66.3921 333.206 71.4843 333.206 77.7659V80.7885C333.206 87.07 328.114 92.1622 321.833 92.1622H318.81C312.528 92.1622 307.436 87.07 307.436 80.7885V77.7659C307.436 71.4843 312.528 66.3921 318.81 66.3921Z" fill="url(#paint19_linear)"/>
<g opacity="0.2">
<path opacity="0.2" d="M306.003 269.231L328.911 393.798H323.661L302.041 276.243L306.003 269.231Z" fill="url(#paint20_linear)"/>
<path opacity="0.2" d="M243.955 312.664L281.66 232.959L286.883 233.015L249.206 312.664L244.911 393.797H239.66L243.955 312.664Z" fill="url(#paint21_linear)"/>
</g>
<g opacity="0.2">
<path opacity="0.2" d="M231.543 406.21L239.655 393.803H242.044L233.932 406.21C233.932 406.21 206.723 416.723 218.652 423.391H216.268C204.339 416.723 231.543 406.21 231.543 406.21Z" fill="url(#paint22_linear)"/>
</g>
<g opacity="0.2">
<path opacity="0.2" d="M313.631 406.21L321.744 393.803H324.127L316.015 406.21C316.015 406.21 288.789 416.712 300.741 423.391H298.357C286.439 416.723 313.631 406.21 313.631 406.21Z" fill="url(#paint23_linear)"/>
</g>
<g opacity="0.2">
<path opacity="0.2" d="M199.983 147.62L201 144.664L249.701 150.42L199.983 147.62Z" fill="url(#paint24_linear)"/>
</g>
<path d="M345.013 122.561L328.795 91.929L301.769 102.141L328.795 141.18L345.013 122.561Z" fill="url(#paint25_linear)"/>
<path d="M311.37 115.621L254.646 165.817L188.731 151.892L193.837 137.04L244.9 143.075L296.018 98.2019C297.241 97.1284 298.676 96.3239 300.23 95.8408C301.784 95.3576 303.423 95.2064 305.039 95.3971C306.655 95.5878 308.213 96.1161 309.612 96.9477C311.011 97.7793 312.219 98.8957 313.159 100.224C314.809 102.561 315.539 105.424 315.209 108.265C314.879 111.106 313.512 113.725 311.37 115.621Z" fill="#CA7070"/>
<path d="M188.731 151.887C188.731 151.887 171.912 152.354 165.7 143.069C159.488 133.784 193.838 137.035 193.838 137.035L188.731 151.887Z" fill="#CA7070"/>
<path d="M318.816 82.9054C302.665 82.9054 289.573 69.8129 289.573 53.6625C289.573 37.5121 302.665 24.4197 318.816 24.4197C334.966 24.4197 348.058 37.5121 348.058 53.6625C348.058 69.8129 334.966 82.9054 318.816 82.9054Z" fill="#CA7070"/>
<path d="M330.889 85.6892C330.889 85.6892 368.45 110.981 358.91 189.17C357.748 198.616 358.57 208.201 361.321 217.312L366.166 233.309C366.166 233.309 283.539 235.165 281.216 233.309C279.777 232.159 280.899 202.694 284.928 161.822C287.395 136.785 279.655 101.952 306.281 82.9221L330.889 85.6892Z" fill="#263238"/>
<path d="M281.216 232.376L244.544 309.897L240.372 388.808H266.364L277.504 307.114L299.785 267.653L322.066 388.808H348.064L340.174 298.757L366.166 233.304L281.216 232.376Z" fill="#5CAADE"/>
<path d="M240.366 388.808L232.476 400.876C232.476 400.876 206.017 411.088 217.624 417.589H268.22V388.808H240.366Z" fill="#263238"/>
<path d="M322.555 388.808L314.665 400.876C314.665 400.876 288.206 411.088 299.813 417.589H350.381V388.808H322.555Z" fill="#263238"/>
<path opacity="0.2" d="M318.349 23.9531C323.4 23.9481 328.365 25.2578 332.756 27.7536C325.898 24.8335 318.184 24.6426 311.189 27.22C304.195 29.7973 298.449 34.9483 295.125 41.6203C291.802 48.2924 291.151 55.9818 293.307 63.1172C295.463 70.2526 300.263 76.2954 306.725 80.0107C300.557 77.3345 295.5 72.6151 292.404 66.647C289.308 60.6789 288.363 53.8264 289.728 47.2431C291.092 40.6597 294.683 34.7475 299.896 30.5015C305.109 26.2556 311.625 23.9352 318.349 23.9309V23.9531Z" fill="white"/>
<path d="M283.266 5.80078L291.401 18.2413C294.323 22.6864 298.568 27.7815 303.808 26.748C306.253 26.2647 308.203 24.5255 310.153 22.9531C316.543 17.8857 324.433 14.4464 332.556 14.3964C340.68 14.3464 349.042 18.0191 353.67 24.7422C357.065 29.704 358.238 35.8548 358.915 41.8167C360.26 53.7684 358.915 67.8814 348.914 74.5989C348.108 75.2386 347.115 75.5958 346.086 75.6158C345.03 75.5435 344.13 74.8601 343.308 74.1767C330.817 63.7141 323.861 46.6841 308.803 39.4998C302.163 36.3327 292.501 36.3049 287.134 30.9264C279.294 23.0142 288.028 13.0795 283.266 5.80078Z" fill="#263238"/>
<g opacity="0.2">
<path opacity="0.2" d="M313.409 22.9532C311.459 24.5034 309.52 26.287 307.064 26.7481C306.07 26.9459 305.044 26.927 304.058 26.6926C306.386 26.137 308.275 24.4701 310.17 22.9587C316.543 17.8858 324.433 14.4465 332.556 14.3965C333.112 14.3965 333.695 14.3965 334.268 14.4465C326.694 14.8854 319.388 18.2026 313.409 22.9532Z" fill="white"/>
<path opacity="0.2" d="M283.266 5.80078L287.967 12.9851C287.522 18.8914 284.922 25.3979 290.428 30.9264C295.79 36.3049 305.43 36.3327 312.098 39.4998C327.161 46.6841 334.106 63.7142 346.603 74.1767C347.031 74.5517 347.494 74.8848 347.986 75.1712C347.417 75.4836 346.774 75.6371 346.125 75.6158C345.069 75.5435 344.169 74.8601 343.347 74.1767C330.856 63.7142 323.9 46.6841 308.842 39.4998C302.202 36.3327 292.54 36.3049 287.172 30.9264C279.293 23.0142 288.028 13.0795 283.266 5.80078Z" fill="white"/>
</g>
<path opacity="0.2" d="M284.928 161.816C287.395 136.779 279.655 101.947 306.281 82.9165L311.915 83.5555C286.328 102.73 293.868 137.068 291.423 161.833C287.395 202.705 286.272 232.17 287.711 233.32C288.417 233.876 296.601 234.109 307.614 234.142C293.434 234.181 282.055 233.992 281.211 233.32C279.771 232.153 280.883 202.694 284.928 161.816Z" fill="white"/>
<path d="M327.728 125.573L271.003 175.746L205.089 161.822L210.195 146.97L261.258 153.004L312.376 108.131C313.599 107.058 315.034 106.253 316.588 105.77C318.142 105.287 319.78 105.136 321.396 105.327C323.013 105.517 324.571 106.046 325.97 106.877C327.369 107.709 328.577 108.825 329.517 110.154C331.173 112.492 331.907 115.36 331.577 118.206C331.247 121.052 329.876 123.676 327.728 125.573Z" fill="#CA7070"/>
<path d="M205.089 161.816C205.089 161.816 188.27 162.283 182.058 152.999C175.846 143.714 210.195 146.964 210.195 146.964L205.089 161.816Z" fill="#CA7070"/>
<path d="M317.66 70.3704H319.977C326.258 70.3704 331.35 75.4626 331.35 81.7441V84.0611C331.35 90.3426 326.258 95.4349 319.977 95.4349H317.66C311.378 95.4349 306.286 90.3426 306.286 84.0611V81.7441C306.286 75.4626 311.378 70.3704 317.66 70.3704Z" fill="#CA7070"/>
<g opacity="0.2">
<path opacity="0.2" d="M304.891 267.653L327.172 388.808H322.066L301.041 274.476L304.891 267.653Z" fill="white"/>
<path opacity="0.2" d="M244.544 309.897L281.216 232.376L286.3 232.431L249.65 309.897L245.478 388.808H240.371L244.544 309.897Z" fill="white"/>
</g>
<path opacity="0.2" d="M232.476 400.882L240.366 388.813H242.689L234.799 400.882C234.799 400.882 208.34 411.094 219.947 417.595H217.624C206.017 411.094 232.476 400.882 232.476 400.882Z" fill="white"/>
<path opacity="0.2" d="M312.314 400.882L320.204 388.813H322.555L314.665 400.882C314.665 400.882 288.206 411.094 299.813 417.595H297.49C285.883 411.094 312.314 400.882 312.314 400.882Z" fill="white"/>
<path opacity="0.2" d="M201.783 149.376L202.767 146.503L250.134 152.098L201.783 149.376Z" fill="white"/>
<path d="M342.835 125L327.066 95.2129L300.78 105.142L327.066 143.108L342.835 125Z" fill="#263238"/>
<path d="M112.393 158.554L64.6088 93.579C64.3924 93.2846 64.12 93.0358 63.8073 92.8468C63.4946 92.6578 63.1476 92.5323 62.7863 92.4776C62.425 92.4229 62.0565 92.44 61.7018 92.5279C61.3471 92.6159 61.0133 92.7729 60.7194 92.9901L58.4969 94.6292C58.2025 94.8456 57.9536 95.118 57.7646 95.4307C57.5756 95.7434 57.4502 96.0904 57.3955 96.4517C57.3408 96.813 57.3579 97.1815 57.4458 97.5362C57.5337 97.8908 57.6908 98.2247 57.9079 98.5186L105.692 163.494L112.393 158.554Z" fill="url(#paint26_linear)"/>
<path d="M111.443 159.249L64.47 95.3517C64.2536 95.0573 63.9812 94.8085 63.6685 94.6195C63.3557 94.4305 63.0088 94.305 62.6475 94.2503C62.2862 94.1956 61.9176 94.2127 61.563 94.3006C61.2083 94.3886 60.8745 94.5456 60.5806 94.7628L60.3528 94.9295C60.0583 95.1459 59.8095 95.4182 59.6205 95.731C59.4315 96.0437 59.3061 96.3907 59.2514 96.752C59.1967 97.1133 59.2138 97.4818 59.3017 97.8365C59.3896 98.1911 59.5466 98.525 59.7638 98.8189L106.737 162.716L111.443 159.249Z" fill="#B0BEC5"/>
</g>
<defs>
<linearGradient id="paint0_linear" x1="113.604" y1="410.233" x2="113.604" y2="157.81" gradientUnits="userSpaceOnUse">
<stop stop-color="#808080" stop-opacity="0.25"/>
<stop offset="0.54" stop-color="#808080" stop-opacity="0.12"/>
<stop offset="1" stop-color="#808080" stop-opacity="0.1"/>
</linearGradient>
<linearGradient id="paint1_linear" x1="-26424.7" y1="17945.6" x2="-26424.7" y2="14448" gradientUnits="userSpaceOnUse">
<stop stop-color="#808080" stop-opacity="0.25"/>
<stop offset="0.54" stop-color="#808080" stop-opacity="0.12"/>
<stop offset="1" stop-color="#808080" stop-opacity="0.1"/>
</linearGradient>
<linearGradient id="paint2_linear" x1="-26422.9" y1="18029.6" x2="-26422.9" y2="14532" gradientUnits="userSpaceOnUse">
<stop stop-color="#808080" stop-opacity="0.25"/>
<stop offset="0.54" stop-color="#808080" stop-opacity="0.12"/>
<stop offset="1" stop-color="#808080" stop-opacity="0.1"/>
</linearGradient>
<linearGradient id="paint3_linear" x1="-26422.9" y1="18110" x2="-26422.9" y2="14612.4" gradientUnits="userSpaceOnUse">
<stop stop-color="#808080" stop-opacity="0.25"/>
<stop offset="0.54" stop-color="#808080" stop-opacity="0.12"/>
<stop offset="1" stop-color="#808080" stop-opacity="0.1"/>
</linearGradient>
<linearGradient id="paint4_linear" x1="-55371.8" y1="3837.87" x2="-55371.8" y2="3659.84" gradientUnits="userSpaceOnUse">
<stop stop-color="#808080" stop-opacity="0.25"/>
<stop offset="0.54" stop-color="#808080" stop-opacity="0.12"/>
<stop offset="1" stop-color="#808080" stop-opacity="0.1"/>
</linearGradient>
<linearGradient id="paint5_linear" x1="-62109.2" y1="26553" x2="-62109.2" y2="17097.1" gradientUnits="userSpaceOnUse">
<stop stop-color="#808080" stop-opacity="0.25"/>
<stop offset="0.54" stop-color="#808080" stop-opacity="0.12"/>
<stop offset="1" stop-color="#808080" stop-opacity="0.1"/>
</linearGradient>
<linearGradient id="paint6_linear" x1="-18047.5" y1="5510.9" x2="-18047.5" y2="5059.02" gradientUnits="userSpaceOnUse">
<stop stop-color="#808080" stop-opacity="0.25"/>
<stop offset="0.54" stop-color="#808080" stop-opacity="0.12"/>
<stop offset="1" stop-color="#808080" stop-opacity="0.1"/>
</linearGradient>
<linearGradient id="paint7_linear" x1="-4919.21" y1="8600.12" x2="-4919.21" y2="2091.01" gradientUnits="userSpaceOnUse">
<stop stop-color="#808080" stop-opacity="0.25"/>
<stop offset="0.54" stop-color="#808080" stop-opacity="0.12"/>
<stop offset="1" stop-color="#808080" stop-opacity="0.1"/>
</linearGradient>
<linearGradient id="paint8_linear" x1="-30201.5" y1="76494.5" x2="-30201.5" y2="32989.3" gradientUnits="userSpaceOnUse">
<stop stop-color="#808080" stop-opacity="0.25"/>
<stop offset="0.54" stop-color="#808080" stop-opacity="0.12"/>
<stop offset="1" stop-color="#808080" stop-opacity="0.1"/>
</linearGradient>
<linearGradient id="paint9_linear" x1="-14684.8" y1="114226" x2="-14684.8" y2="67667.7" gradientUnits="userSpaceOnUse">
<stop stop-color="#808080" stop-opacity="0.25"/>
<stop offset="0.54" stop-color="#808080" stop-opacity="0.12"/>
<stop offset="1" stop-color="#808080" stop-opacity="0.1"/>
</linearGradient>
<linearGradient id="paint10_linear" x1="-27216" y1="24980.9" x2="-27216" y2="23405" gradientUnits="userSpaceOnUse">
<stop stop-color="#808080" stop-opacity="0.25"/>
<stop offset="0.54" stop-color="#808080" stop-opacity="0.12"/>
<stop offset="1" stop-color="#808080" stop-opacity="0.1"/>
</linearGradient>
<linearGradient id="paint11_linear" x1="-18760.7" y1="24980.9" x2="-18760.7" y2="23405" gradientUnits="userSpaceOnUse">
<stop stop-color="#808080" stop-opacity="0.25"/>
<stop offset="0.54" stop-color="#808080" stop-opacity="0.12"/>
<stop offset="1" stop-color="#808080" stop-opacity="0.1"/>
</linearGradient>
<linearGradient id="paint12_linear" x1="-16299.4" y1="11918.6" x2="-16299.4" y2="5934.33" gradientUnits="userSpaceOnUse">
<stop stop-color="#808080" stop-opacity="0.25"/>
<stop offset="0.54" stop-color="#808080" stop-opacity="0.12"/>
<stop offset="1" stop-color="#808080" stop-opacity="0.1"/>
</linearGradient>
<linearGradient id="paint13_linear" x1="-27134.2" y1="14227.2" x2="-27134.2" y2="4952.95" gradientUnits="userSpaceOnUse">
<stop stop-color="#808080" stop-opacity="0.25"/>
<stop offset="0.54" stop-color="#808080" stop-opacity="0.12"/>
<stop offset="1" stop-color="#808080" stop-opacity="0.1"/>
</linearGradient>
<linearGradient id="paint14_linear" x1="-10713" y1="1395.04" x2="-10713" y2="1098.58" gradientUnits="userSpaceOnUse">
<stop stop-color="#808080" stop-opacity="0.25"/>
<stop offset="0.54" stop-color="#808080" stop-opacity="0.12"/>
<stop offset="1" stop-color="#808080" stop-opacity="0.1"/>
</linearGradient>
<linearGradient id="paint15_linear" x1="-23726.7" y1="14227.6" x2="-23726.7" y2="4953.1" gradientUnits="userSpaceOnUse">
<stop stop-color="#808080" stop-opacity="0.25"/>
<stop offset="0.54" stop-color="#808080" stop-opacity="0.12"/>
<stop offset="1" stop-color="#808080" stop-opacity="0.1"/>
</linearGradient>
<linearGradient id="paint16_linear" x1="-12487.2" y1="76499.9" x2="-12487.2" y2="32991.6" gradientUnits="userSpaceOnUse">
<stop stop-color="#808080" stop-opacity="0.25"/>
<stop offset="0.54" stop-color="#808080" stop-opacity="0.12"/>
<stop offset="1" stop-color="#808080" stop-opacity="0.1"/>
</linearGradient>
<linearGradient id="paint17_linear" x1="-58156.8" y1="27890.3" x2="-58156.8" y2="18436.6" gradientUnits="userSpaceOnUse">
<stop stop-color="#808080" stop-opacity="0.25"/>
<stop offset="0.54" stop-color="#808080" stop-opacity="0.12"/>
<stop offset="1" stop-color="#808080" stop-opacity="0.1"/>
</linearGradient>
<linearGradient id="paint18_linear" x1="-17141.3" y1="5812.16" x2="-17141.3" y2="5360.45" gradientUnits="userSpaceOnUse">
<stop stop-color="#808080" stop-opacity="0.25"/>
<stop offset="0.54" stop-color="#808080" stop-opacity="0.12"/>
<stop offset="1" stop-color="#808080" stop-opacity="0.1"/>
</linearGradient>
<linearGradient id="paint19_linear" x1="-1924.77" y1="4340.89" x2="-1924.77" y2="3145.67" gradientUnits="userSpaceOnUse">
<stop stop-color="#808080" stop-opacity="0.25"/>
<stop offset="0.54" stop-color="#808080" stop-opacity="0.12"/>
<stop offset="1" stop-color="#808080" stop-opacity="0.1"/>
</linearGradient>
<linearGradient id="paint20_linear" x1="-2259.5" y1="88554.7" x2="-2259.5" y2="60628.1" gradientUnits="userSpaceOnUse">
<stop stop-color="#808080" stop-opacity="0.25"/>
<stop offset="0.54" stop-color="#808080" stop-opacity="0.12"/>
<stop offset="1" stop-color="#808080" stop-opacity="0.1"/>
</linearGradient>
<linearGradient id="paint21_linear" x1="-8699.19" y1="114226" x2="-8699.19" y2="67667.7" gradientUnits="userSpaceOnUse">
<stop stop-color="#808080" stop-opacity="0.25"/>
<stop offset="0.54" stop-color="#808080" stop-opacity="0.12"/>
<stop offset="1" stop-color="#808080" stop-opacity="0.1"/>
</linearGradient>
<linearGradient id="paint22_linear" x1="-14815.5" y1="24980.9" x2="-14815.5" y2="23405.1" gradientUnits="userSpaceOnUse">
<stop stop-color="#808080" stop-opacity="0.25"/>
<stop offset="0.54" stop-color="#808080" stop-opacity="0.12"/>
<stop offset="1" stop-color="#808080" stop-opacity="0.1"/>
</linearGradient>
<linearGradient id="paint23_linear" x1="-10474.6" y1="24980.9" x2="-10474.6" y2="23405.1" gradientUnits="userSpaceOnUse">
<stop stop-color="#808080" stop-opacity="0.25"/>
<stop offset="0.54" stop-color="#808080" stop-opacity="0.12"/>
<stop offset="1" stop-color="#808080" stop-opacity="0.1"/>
</linearGradient>
<linearGradient id="paint24_linear" x1="-12649.6" y1="1703.02" x2="-12649.6" y2="1643.38" gradientUnits="userSpaceOnUse">
<stop stop-color="#808080" stop-opacity="0.25"/>
<stop offset="0.54" stop-color="#808080" stop-opacity="0.12"/>
<stop offset="1" stop-color="#808080" stop-opacity="0.1"/>
</linearGradient>
<linearGradient id="paint25_linear" x1="-3204.51" y1="12606.1" x2="-3204.51" y2="8240.52" gradientUnits="userSpaceOnUse">
<stop stop-color="#808080" stop-opacity="0.25"/>
<stop offset="0.54" stop-color="#808080" stop-opacity="0.12"/>
<stop offset="1" stop-color="#808080" stop-opacity="0.1"/>
</linearGradient>
<linearGradient id="paint26_linear" x1="-42794.7" y1="25897" x2="-42794.7" y2="16816.4" gradientUnits="userSpaceOnUse">
<stop stop-color="#808080" stop-opacity="0.25"/>
<stop offset="0.54" stop-color="#808080" stop-opacity="0.12"/>
<stop offset="1" stop-color="#808080" stop-opacity="0.1"/>
</linearGradient>
<clipPath id="clip0">
<rect width="368.478" height="423.39" fill="white" transform="matrix(-1 0 0 1 369 0)"/>
</clipPath>
</defs>
</svg>
