<svg width="438" height="344" viewBox="0 0 438 344" fill="none" xmlns="http://www.w3.org/2000/svg">
<g clip-path="url(#clip0)">
<path d="M295.366 67.6323C279.643 67.6325 264.335 66.9194 249.567 65.494C215.629 62.2185 184.475 55.1513 156.968 44.4886C94.9458 20.4454 55.9494 25.5621 34.1576 34.0887C10.5742 43.3158 1.50856 58.4128 1.4197 58.5642L0.643982 58.1374C0.733922 57.9838 9.91648 42.6624 33.7576 33.3131C47.7362 27.8313 63.9523 25.4347 81.9596 26.1906C104.437 27.1338 129.785 33.02 157.3 43.6858C219.42 67.7665 288.545 68.7129 335.595 65.2692C386.592 61.5349 423.364 51.9786 423.729 51.8825L423.963 52.7166C423.597 52.8131 386.758 62.3879 335.682 66.1296C322.006 67.1315 308.54 67.6323 295.366 67.6323Z" fill="#3F3D56"/>
<path d="M293.057 4.17946C293.057 4.17946 275.521 -1.88972 264.249 22.387C252.976 46.6637 235.44 73.3681 235.44 73.3681L245.461 75.7958C245.461 75.7958 247.966 58.8021 254.228 56.3744L251.723 78.2234C251.723 78.2234 326.875 103.714 360.693 75.7958L359.441 67.2989C359.441 67.2989 364.451 68.5128 364.451 75.7958L368.208 72.1543C368.208 72.1543 364.451 64.8712 353.178 55.1606C345.779 48.7869 343.236 36.661 342.363 29.0798C341.708 22.7493 339.095 16.7584 334.865 11.8927C327.374 3.47888 313.723 -5.46379 293.057 4.17946Z" fill="#2F2E41"/>
<path d="M399.484 141.552C399.484 141.552 432.482 168.828 437.335 184.817C442.187 200.806 418.895 202.687 418.895 202.687L368.428 207.39C368.428 207.39 367.457 229.963 358.722 232.785C349.988 235.607 356.949 195.457 356.949 195.457L406.278 181.995L383.956 159.422L399.484 141.552Z" fill="#FBBEBE"/>
<path d="M245.171 169.768L241.289 219.617L219.937 304.266C219.937 304.266 200.527 342.828 217.026 343.769C233.525 344.71 232.554 307.088 232.554 307.088L263.611 227.141L266.522 172.59L245.171 169.768Z" fill="#FBBEBE"/>
<path d="M299.52 82.2977C317.208 82.2977 331.548 68.4015 331.548 51.2597C331.548 34.1179 317.208 20.2217 299.52 20.2217C281.832 20.2217 267.493 34.1179 267.493 51.2597C267.493 68.4015 281.832 82.2977 299.52 82.2977Z" fill="#FBBEBE"/>
<path d="M284.962 66.3082C284.962 66.3082 296.609 106.752 278.169 117.098C259.729 127.444 324.754 134.968 342.223 103.93C342.223 103.93 311.167 93.584 319.901 66.3082H284.962Z" fill="#FBBEBE"/>
<path d="M262.64 121.801L256.817 119.919C256.817 119.919 245.171 124.622 245.171 133.087C245.171 141.552 243.23 175.412 243.23 175.412L269.434 178.233L262.64 121.801Z" fill="#6C63FF"/>
<path d="M376.698 309.346C340.871 314.49 288.652 318.643 234.498 311.425C234.494 310.906 234.494 310.401 234.494 309.908C234.494 306.973 234.61 304.071 234.842 301.203C237.616 265.881 256.393 236.433 263.658 226.228C264.024 225.71 264.363 225.243 264.666 224.828C265.839 223.233 266.521 222.39 266.521 222.39C266.521 222.39 322.812 221.5 351.927 232.785C353.331 233.356 354.616 234.171 355.718 235.188C366.574 244.896 372.952 276.414 376.698 309.346Z" fill="#2F2E41"/>
<path d="M355.811 108.633C355.811 108.633 368.428 102.049 381.044 116.157L406.278 144.374L386.868 165.066L349.988 143.433L355.811 108.633Z" fill="#6C63FF"/>
<path d="M264.912 51.4565C276.25 43.5046 285.428 34.3456 291.499 23.4505C291.499 23.4505 312.306 45.8553 325.022 46.9756C337.737 48.0958 326.177 20.0897 326.177 20.0897L303.059 14.4885L281.095 16.729L263.756 27.9314L264.912 51.4565Z" fill="#2F2E41"/>
<path d="M337.371 102.049C337.371 102.049 323.789 122.86 283.024 112.925L259.892 119.099L256.817 119.919C256.817 119.919 259.729 176.352 267.493 186.698C275.257 197.044 273.316 202.687 271.375 203.628C269.434 204.568 264.581 202.687 267.493 207.39C270.405 212.093 274.287 209.271 270.404 212.093C266.522 214.914 264.581 225.26 264.581 225.26L355.811 236.547C355.811 236.547 348.046 205.509 355.811 186.698C363.575 167.887 370.369 154.719 370.369 154.719L364.545 107.692L337.371 102.049Z" fill="#6C63FF"/>
<path d="M147.768 83.6362H22.8862V234.916H147.768V83.6362Z" fill="#E6E6E6"/>
<path d="M58.3437 96.387H31.5833V113.676H58.3437V96.387Z" fill="white"/>
<path d="M135.28 130.101H31.8063V136.152H135.28V130.101Z" fill="white"/>
<path d="M135.28 146.093H31.8063V152.144H135.28V146.093Z" fill="white"/>
<path d="M135.28 162.086H31.8063V168.137H135.28V162.086Z" fill="white"/>
<path d="M135.28 178.078H31.8063V184.13H135.28V178.078Z" fill="white"/>
<path d="M135.28 194.071H31.8063V200.122H135.28V194.071Z" fill="white"/>
<path d="M172.298 234.7C172.293 240.409 170.161 245.924 166.296 250.232C162.431 254.54 157.091 257.352 151.258 258.151C145.426 258.949 139.491 257.681 134.546 254.579C129.6 251.477 125.976 246.75 124.339 241.266C122.702 235.782 123.162 229.91 125.634 224.728C128.107 219.546 132.426 215.403 137.797 213.06C143.169 210.717 149.233 210.332 154.875 211.974C160.517 213.617 165.357 217.177 168.507 222.001C170.985 225.802 172.299 230.205 172.298 234.7Z" fill="#6C63FF"/>
<path d="M168.507 222.001L144.36 245.398C142.843 243.121 134.388 232.539 134.388 232.539C135.471 231.478 136.628 230.489 137.849 229.578L144.86 238.638L165.68 218.461C166.735 219.552 167.682 220.737 168.507 222.001Z" fill="white"/>
</g>
<defs>
<clipPath id="clip0">
<rect width="437.356" height="343.787" fill="white" transform="translate(0.643982)"/>
</clipPath>
</defs>
</svg>
