<svg width="371" height="339" viewBox="0 0 371 339" fill="none" xmlns="http://www.w3.org/2000/svg">
<g clip-path="url(#clip0)">
<path opacity="0.1" d="M32.2092 156.531C27.0766 158.529 22.286 163.365 20.9926 170.074C19.5247 177.781 22.9054 185.57 23.3879 193.473C24.9653 219.412 -3.68876 237.714 0.396857 263.205C2.02221 273.323 8.5852 280.781 15.0558 286.918C25.4136 296.75 36.9039 305.432 49.6159 307.887C68.9285 311.61 89.1102 300.657 107.886 307.581C123.027 313.164 134.613 329.533 149.652 335.572C161.101 340.172 173.43 338.357 185.334 336.498C191.736 335.499 198.464 334.34 203.641 329.386C213.28 320.162 213.862 301.95 220.308 288.896C230.256 268.747 252.066 264.812 270.355 268.727C288.645 272.641 306.394 282.294 324.923 281.478C328.882 281.311 332.943 280.614 336.393 278.114C340.591 275.072 343.431 269.718 345.939 264.416C361.57 231.385 370.279 192.963 370.898 154.284C371.004 147.6 370.823 140.627 368.383 134.71C365.303 127.243 359.144 122.786 352.985 119.776C338.244 112.591 321.96 111.429 307.509 103.273C293.572 95.415 282.28 81.6275 270.147 69.8341C246.081 46.4065 217.793 30.1927 188.188 22.832C181.218 21.0989 173.984 19.8592 167.059 21.8615C159.079 24.1696 152.201 30.576 146.018 37.4677C129.563 55.8183 116.378 78.4426 101.22 98.5468C90.8344 112.311 79.4417 124.947 67.1765 136.304C61.5545 141.512 55.6006 147.694 49.349 151.543C43.6312 155.063 38.2555 154.178 32.2092 156.531Z" fill="#6C63FF"/>
<path d="M347.158 169.744C339.63 167.868 325.378 164.348 309.248 160.45C285.367 154.68 279.136 176.521 279.136 176.521C279.136 187.646 247.998 233.791 247.998 233.791L238.711 208.998C240.138 209.26 241.596 209.143 242.981 208.655C248.299 206.763 250.927 199.614 251.779 193.086C253.05 183.252 251.889 173.191 248.436 164.132C246.851 159.997 244.798 156.107 243.525 151.825C238.157 133.858 247.457 113.06 241.832 95.1624C239.508 87.7773 234.875 81.7868 231.672 74.887C224.486 59.3705 224.794 39.9596 216.959 24.8876C209.609 10.7576 195.124 2.38153 181.249 4.24922C173.067 5.35026 167.219 8.83281 159.596 4.65702C153.159 1.14185 145.433 -2.78927 138.805 2.74855C133.152 7.47078 132.191 16.7725 129.104 24.125C123.684 37.0398 110.825 45.4689 109.312 59.7946C108.94 63.3261 109.312 66.9881 108.447 70.3972C105.976 80.0333 95.2182 82.8797 90.8109 91.4801C86.496 99.8969 90.8554 112.624 98.8829 115.05C102.305 116.086 105.987 115.458 109.405 116.555C112.611 117.575 115.722 121.147 115.167 124.878L108.057 126.42L87.5978 129.127L84.4327 129.364C84.4327 129.364 84.4327 129.429 84.4327 129.547L84.2616 129.572L84.4292 129.735C84.4292 130.025 84.4292 130.477 84.4292 131.073C78.6704 133.76 69.3392 140.933 65.8147 159.749C65.0073 164.043 63.3758 168.056 61.0482 171.473C55.8026 179.18 47.0975 194.231 47.5834 208.68C48.2678 229.281 48.2678 237.523 71.1185 231.752C76.891 230.297 83.17 227.312 89.3327 223.666C89.692 232.254 90.6261 240.675 92.5765 246.996C98.8076 267.186 85.6543 338.468 85.6543 338.468H212.681C212.681 338.468 201.951 296.441 191.569 275.015C184.215 259.837 186.932 250.658 189.143 246.592C191.06 243.137 192.492 239.333 193.382 235.329C193.759 233.571 194.125 231.577 194.44 229.367C196.777 231.646 199.271 233.694 202.094 234.917C204.709 236.047 207.682 236.356 210.327 235.484C215.74 243.37 221.787 252.02 228.257 261.007C253.178 295.617 260.1 274.191 260.1 274.191C260.1 274.191 285.367 216.921 288.844 199.614C292.32 182.308 299.92 183.131 299.92 183.131C320.752 189.407 339.216 180.297 347.794 174.816C348.211 174.553 348.549 174.141 348.762 173.639C348.974 173.137 349.051 172.568 348.981 172.012C348.911 171.455 348.699 170.938 348.372 170.532C348.045 170.126 347.621 169.85 347.158 169.744ZM90.1402 180.097C91.8782 177.737 93.3717 175.135 94.5885 172.349H94.6536C94.0227 175.23 93.2094 178.049 92.2207 180.783C90.2805 181.227 89.1103 181.459 89.1103 181.459L90.1402 180.097Z" fill="url(#paint0_linear)"/>
<path d="M137.898 6.41432C132.31 11.0876 131.359 20.2793 128.317 27.5706C122.959 40.3508 110.247 48.6983 108.751 62.8732C108.382 66.368 108.751 69.9932 107.896 73.3616C105.456 82.8998 94.8178 85.7177 90.4447 94.2283C86.1778 102.555 90.4892 115.152 98.4244 117.554C101.815 118.582 105.446 117.962 108.827 119.042C112.207 120.123 115.482 124.071 114.363 128.014C113.532 130.95 110.599 132.622 110.065 135.656C109.6 138.266 111.092 140.753 112.536 142.784C114.37 145.353 116.327 147.882 118.781 149.566C125.528 154.198 133.946 151.417 141.727 151.111C151.141 150.778 160.369 154.274 167.893 161.025C170.046 162.97 172.072 165.217 173.406 168.018C177.755 177.145 173.642 188.6 174.566 199.035C175.613 210.894 183.045 220.412 190.549 228.294C193.547 231.442 196.708 234.546 200.472 236.173C204.236 237.8 208.736 237.71 211.901 234.807C215.227 231.756 216.384 226.353 216.404 221.349C216.425 216.346 215.542 211.367 215.754 206.371C215.857 203.924 216.606 201.017 218.608 200.536C219.61 200.295 220.627 200.78 221.54 201.327C227.925 205.152 234.05 212.643 240.894 210.213C246.153 208.341 248.764 201.266 249.592 194.802C250.847 185.074 249.699 175.122 246.287 166.159C244.719 162.081 242.69 158.219 241.431 153.978C236.141 136.162 245.329 115.572 239.772 97.8699C237.476 90.5623 232.894 84.633 229.729 77.8024C222.611 62.445 222.93 43.2339 215.179 28.3168C207.915 14.3296 193.591 6.04323 179.877 7.89053C171.787 8.97933 166.008 12.4293 158.47 8.29832C152.105 4.82801 144.468 0.917281 137.898 6.41432Z" fill="#40243E"/>
<path d="M192.133 135.591C192.133 135.591 214.375 127.435 223.272 174.739L245.856 235.092C245.856 235.092 276.652 189.42 276.652 178.409C276.652 178.409 282.811 156.796 306.421 162.505C322.37 166.363 336.444 169.845 343.9 171.701C344.354 171.813 344.767 172.089 345.084 172.491C345.402 172.893 345.608 173.401 345.675 173.947C345.742 174.494 345.666 175.051 345.458 175.544C345.25 176.037 344.92 176.442 344.513 176.705C336.033 182.128 317.778 191.144 297.182 184.934C297.182 184.934 289.654 184.118 286.233 201.245C282.811 218.373 257.832 275.056 257.832 275.056C257.832 275.056 250.988 296.261 226.351 262.007C201.715 227.752 183.237 198.391 183.237 198.391L192.133 135.591Z" fill="#FFBCC8"/>
<path d="M192.133 141.3L189.184 152.877L186.269 164.328L180.499 186.973L153.125 193.089L144.204 186.308L133.279 178.001L123.859 170.253L110.011 158.835L98.7186 130.697C98.7186 130.697 101.832 130.041 111.54 127.936L125.066 124.988C134.408 122.949 137.939 114.663 139.017 106.23C140.307 96.1328 138.069 85.8401 138.069 85.8401H172.629C172.629 85.8401 176.496 92.7725 175.89 104.745C175.7 108.288 175.18 111.795 174.34 115.201C171.302 127.737 178.162 131.921 182.816 133.279C184.074 133.659 185.362 133.887 186.659 133.96L192.133 141.3Z" fill="#FFBCC8"/>
<path opacity="0.1" d="M175.88 104.745C170.584 109.415 164.222 112.058 157.638 112.325C151.054 112.591 144.557 110.469 139.007 106.238C140.297 96.1411 138.059 85.8484 138.059 85.8484H172.619C172.619 85.8484 176.496 92.7523 175.88 104.745Z" fill="black"/>
<path d="M156.547 111.123C174.5 111.123 189.054 93.7788 189.054 72.3831C189.054 50.9874 174.5 33.6428 156.547 33.6428C138.594 33.6428 124.04 50.9874 124.04 72.3831C124.04 93.7788 138.594 111.123 156.547 111.123Z" fill="#FFBCC8"/>
<path opacity="0.1" d="M192.133 141.3L189.184 152.877L186.269 164.328L180.499 186.973L153.125 193.089L144.204 186.308L133.279 178.001L123.859 170.253L110.011 158.835L98.7186 130.697C98.7186 130.697 101.832 130.041 111.54 127.937C118.384 150.63 127.041 159.08 134.853 161.82C139.523 163.451 143.89 163.043 147.37 162.432C151.843 161.579 156.416 161.857 160.793 163.247C171.298 166.73 176.828 160.062 179.733 151.601C181.882 145.341 182.594 138.095 182.813 133.25C184.071 133.631 185.358 133.859 186.655 133.931L192.133 141.3Z" fill="black"/>
<path d="M85.3736 338.671C85.3736 338.671 98.3764 268.123 92.2172 248.141C90.455 242.432 89.5311 234.961 89.1171 227.23C88.0905 207.953 90.1642 186.972 90.1642 186.972C90.4584 186.291 90.7356 185.614 91.0025 184.933C91.6869 183.194 92.2891 181.492 92.8092 179.828C100.142 156.315 91.0196 140.659 86.3933 134.673C85.6514 133.691 84.8509 132.774 83.9981 131.929L110.175 128.462C117.056 151.996 125.881 160.678 133.819 163.459C138.49 165.09 142.856 164.683 146.336 164.071C150.809 163.218 155.383 163.496 159.76 164.886C170.265 168.369 175.794 161.702 178.7 153.24C182.306 142.735 181.861 129.47 181.861 129.47L196.917 134.771C196.917 134.771 195.589 144.599 194.388 157.514C194.104 160.543 193.827 163.741 193.577 167.023C192.551 180.717 191.942 195.858 193.153 206.135C194.384 216.29 193.946 226.633 191.863 236.589C190.984 240.551 189.569 244.317 187.675 247.738C185.488 251.758 182.802 260.848 190.07 275.875C200.335 297.08 210.943 338.675 210.943 338.675L85.3736 338.671Z" fill="#FF808E"/>
<path d="M196.753 134.979C196.753 134.979 209.184 158.223 192.873 178.205C176.561 198.187 183.066 170.049 183.066 170.049L187.172 137.426L196.753 134.979Z" fill="#FF808E"/>
<path opacity="0.1" d="M86.3934 134.673C87.3211 134.323 88.2725 134.07 89.2369 133.915C93.6852 136.443 96.1489 143.461 97.4868 150.789C98.3798 155.759 98.4259 160.893 97.6224 165.885C96.8189 170.876 95.1821 175.625 92.8092 179.848C100.142 156.315 91.0196 140.66 86.3934 134.673Z" fill="black"/>
<path opacity="0.1" d="M193.584 167.028C186.279 167.603 176.735 166.583 176.735 166.583C178.022 173.597 175.367 179.078 172.629 182.65C171.582 184.032 170.261 185.078 168.787 185.693C167.313 186.308 165.732 186.472 164.191 186.169C148.403 182.907 124.396 200.034 124.396 200.034C124.396 200.034 107.225 216.562 89.1171 227.242C88.0905 207.966 90.1641 186.985 90.1641 186.985C90.4584 186.304 90.7356 185.627 91.0025 184.946C98.3183 183.315 124.899 176.872 130.199 167.411C130.986 166.004 132.252 164.687 133.826 163.463C138.353 159.973 145.597 157.236 152.485 155.238C161.058 152.732 169.936 152.061 178.706 153.256C182.471 153.77 186.197 154.636 189.848 155.846C191.442 156.372 192.982 156.939 194.395 157.53C198.269 159.161 201.205 160.984 201.714 162.925C202.402 165.535 198.498 166.644 193.584 167.028Z" fill="black"/>
<path opacity="0.1" d="M186.269 164.328C181.002 164.222 176.393 163.728 176.393 163.728C177.68 170.742 175.025 176.223 172.287 179.795C171.24 181.177 169.919 182.223 168.445 182.838C166.971 183.453 165.39 183.617 163.849 183.315C157.898 182.091 150.778 183.759 144.218 186.308L133.279 178.001L123.859 170.253C126.596 168.504 128.714 166.583 129.857 164.544C132.895 159.112 142.86 155.071 152.143 152.371C164.326 148.791 177.073 148.965 189.184 152.877L189.506 152.979C195.456 154.957 200.678 157.408 201.372 160.058C202.371 163.871 193.673 164.483 186.269 164.328Z" fill="black"/>
<path d="M88.8947 131.868C88.8947 131.868 70.9953 134.037 65.777 161.69C64.9703 165.988 63.3427 170.007 61.0208 173.434C55.8333 181.072 47.2549 195.944 47.7339 210.221C48.4183 230.61 48.4183 238.766 71.0021 233.057C93.5859 227.348 124.04 197.987 124.04 197.987C124.04 197.987 148.047 180.888 163.835 184.122C165.377 184.424 166.957 184.26 168.431 183.645C169.905 183.03 171.226 181.984 172.273 180.603C175.011 177.031 177.683 171.55 176.38 164.536C176.38 164.536 203.07 167.39 201.359 160.866C200.674 158.215 195.442 155.764 189.492 153.791C177.287 149.781 164.422 149.57 152.129 153.179C142.829 155.883 132.882 159.924 129.843 165.352C123.684 176.362 88.7817 183.294 88.7817 183.294L89.8083 181.92C93.123 177.459 95.5135 172.133 96.7876 166.371C98.0617 160.609 98.184 154.571 97.1446 148.742C95.8101 141.414 93.3567 134.396 88.8947 131.868Z" fill="#FFBCC8"/>
<path d="M84.176 131.717C84.176 131.717 83.1495 181.06 98.5475 173.719C113.946 166.379 101.969 131.717 101.969 131.717L95.1257 130.901L84.176 131.717Z" fill="#FF808E"/>
<path opacity="0.1" d="M130.257 73.0475C140.409 71.7045 150.421 69.14 160.14 65.3933C162.638 64.4309 165.351 63.1504 166.518 60.353C166.819 59.6312 167.045 58.7748 167.637 58.3792C168.14 58.0408 168.763 58.1468 169.327 58.3018C172.663 59.2438 175.528 61.7354 178.706 63.2646C181.885 64.7938 185.933 65.1527 188.376 62.2818C191.261 58.889 190.306 53.0576 188.407 48.7961C181.355 32.9412 164.834 25.7028 149.806 27.0159C147.695 27.1994 145.549 27.5379 143.647 28.6471C139.623 30.9511 137.419 36.0771 135.239 40.7218C131 49.73 108.584 75.9062 130.257 73.0475Z" fill="black"/>
<path d="M130.257 71.8242C140.409 70.4811 150.421 67.9166 160.14 64.1699C162.638 63.2075 165.351 61.927 166.518 59.1296C166.819 58.4078 167.045 57.5514 167.637 57.1559C168.14 56.8174 168.763 56.9234 169.327 57.0784C172.663 58.0204 175.528 60.512 178.706 62.0412C181.885 63.5704 185.933 63.9293 188.376 61.0584C191.261 57.6656 190.306 51.8342 188.407 47.5727C181.355 31.7178 164.834 24.4795 149.806 25.7925C147.695 25.9761 145.549 26.3145 143.647 27.4237C139.623 29.7277 137.419 34.8537 135.239 39.4985C131 48.5066 108.584 74.6828 130.257 71.8242Z" fill="#40243E"/>
<path d="M350.816 114.997H281.353C280.514 114.997 279.709 115.395 279.115 116.102C278.522 116.81 278.188 117.769 278.188 118.769V167.297C278.188 168.297 278.522 169.257 279.115 169.964C279.709 170.671 280.514 171.069 281.353 171.069H350.816C351.655 171.069 352.46 170.671 353.054 169.964C353.647 169.257 353.981 168.297 353.981 167.297V118.769C353.981 117.769 353.647 116.81 353.054 116.102C352.46 115.395 351.655 114.997 350.816 114.997Z" fill="url(#paint1_linear)"/>
<path d="M349.016 115.658H283.143C280.892 115.658 279.067 117.832 279.067 120.515V165.555C279.067 168.238 280.892 170.412 283.143 170.412H349.016C351.266 170.412 353.091 168.238 353.091 165.555V120.515C353.091 117.832 351.266 115.658 349.016 115.658Z" fill="#6C63FF"/>
<path d="M353.091 125.241H279.067V135.281H353.091V125.241Z" fill="#6C63FF"/>
<path opacity="0.3" d="M353.091 125.241H279.067V135.281H353.091V125.241Z" fill="black"/>
<path d="M346.07 142.731H286.086V147.6H346.07V142.731Z" fill="#D6D6E3"/>
<path d="M291.064 166.762C294.307 166.762 296.936 163.629 296.936 159.765C296.936 155.9 294.307 152.767 291.064 152.767C287.821 152.767 285.193 155.9 285.193 159.765C285.193 163.629 287.821 166.762 291.064 166.762Z" fill="#6C63FF"/>
<path opacity="0.3" d="M291.064 166.762C294.307 166.762 296.936 163.629 296.936 159.765C296.936 155.9 294.307 152.767 291.064 152.767C287.821 152.767 285.193 155.9 285.193 159.765C285.193 163.629 287.821 166.762 291.064 166.762Z" fill="black"/>
<path opacity="0.05" d="M86.5713 183.506C86.5713 183.506 80.0699 187.621 78.992 192.649C77.9141 197.677 76.6481 198.595 76.6481 198.595" fill="black"/>
<path opacity="0.05" d="M246.027 234.888C246.027 234.888 242.947 247.53 246.027 249.161V234.888Z" fill="black"/>
<path opacity="0.05" d="M92.3883 249.161C92.3883 249.161 119.078 256.093 138.925 241.821H147.479C147.479 241.821 173.143 257.317 185.461 252.831" fill="black"/>
<path d="M281.853 224.64L276.677 238.771L299.784 250.791L304.959 236.66L281.853 224.64Z" fill="#8ED16F"/>
<path d="M295.612 240.427C296.199 238.826 294.497 236.394 291.81 234.997C289.124 233.6 286.471 233.765 285.884 235.367C285.297 236.969 287 239.4 289.686 240.797C292.372 242.195 295.026 242.029 295.612 240.427Z" fill="#8ED16F"/>
<path opacity="0.1" d="M295.612 240.427C296.199 238.826 294.497 236.394 291.81 234.997C289.124 233.6 286.471 233.765 285.884 235.367C285.297 236.969 287 239.4 289.686 240.797C292.372 242.195 295.026 242.029 295.612 240.427Z" fill="black"/>
<path d="M315.738 174.295L310.563 188.426L333.67 200.445L338.845 186.314L315.738 174.295Z" fill="#8ED16F"/>
<path d="M329.498 190.081C330.085 188.48 328.383 186.048 325.696 184.651C323.01 183.254 320.357 183.419 319.77 185.021C319.183 186.623 320.885 189.054 323.572 190.452C326.258 191.849 328.911 191.683 329.498 190.081Z" fill="#8ED16F"/>
<path opacity="0.1" d="M329.498 190.081C330.085 188.48 328.383 186.048 325.696 184.651C323.01 183.254 320.357 183.419 319.77 185.021C319.183 186.623 320.885 189.054 323.572 190.452C326.258 191.849 328.911 191.683 329.498 190.081Z" fill="black"/>
<path d="M356.782 225.439L344.086 228.405L348.935 257.89L361.631 254.924L356.782 225.439Z" fill="#8ED16F"/>
<path d="M353.719 247.908C355.158 247.571 355.868 244.52 355.304 241.092C354.74 237.664 353.116 235.158 351.677 235.494C350.238 235.83 349.529 238.882 350.092 242.31C350.656 245.737 352.28 248.244 353.719 247.908Z" fill="#8ED16F"/>
<path opacity="0.1" d="M353.719 247.908C355.158 247.571 355.868 244.52 355.304 241.092C354.74 237.664 353.116 235.158 351.677 235.494C350.238 235.83 349.529 238.882 350.092 242.31C350.656 245.737 352.28 248.244 353.719 247.908Z" fill="black"/>
<path d="M311.106 293.813L305.93 307.945L329.037 319.964L334.212 305.833L311.106 293.813Z" fill="#8ED16F"/>
<path d="M324.872 309.602C325.458 308 323.756 305.569 321.07 304.171C318.384 302.774 315.73 302.94 315.144 304.541C314.557 306.143 316.259 308.574 318.946 309.972C321.632 311.369 324.285 311.203 324.872 309.602Z" fill="#8ED16F"/>
<path opacity="0.1" d="M324.872 309.602C325.458 308 323.756 305.569 321.07 304.171C318.384 302.774 315.73 302.94 315.144 304.541C314.557 306.143 316.259 308.574 318.946 309.972C321.632 311.369 324.285 311.203 324.872 309.602Z" fill="black"/>
<path d="M254.013 280.459L248.837 294.59L271.944 306.609L277.119 292.478L254.013 280.459Z" fill="#8ED16F"/>
<path d="M267.775 296.247C268.362 294.645 266.66 292.214 263.974 290.817C261.287 289.419 258.634 289.585 258.047 291.187C257.461 292.789 259.163 295.22 261.849 296.617C264.536 298.015 267.189 297.849 267.775 296.247Z" fill="#8ED16F"/>
<path opacity="0.1" d="M267.775 296.247C268.362 294.645 266.66 292.214 263.974 290.817C261.287 289.419 258.634 289.585 258.047 291.187C257.461 292.789 259.163 295.22 261.849 296.617C264.536 298.015 267.189 297.849 267.775 296.247Z" fill="black"/>
</g>
<defs>
<linearGradient id="paint0_linear" x1="198.269" y1="338.468" x2="198.269" y2="2.06086e-05" gradientUnits="userSpaceOnUse">
<stop stop-color="#808080" stop-opacity="0.25"/>
<stop offset="0.54" stop-color="#808080" stop-opacity="0.12"/>
<stop offset="1" stop-color="#808080" stop-opacity="0.1"/>
</linearGradient>
<linearGradient id="paint1_linear" x1="74685.4" y1="25586" x2="74685.4" y2="17875.6" gradientUnits="userSpaceOnUse">
<stop stop-color="#808080" stop-opacity="0.25"/>
<stop offset="0.54" stop-color="#808080" stop-opacity="0.12"/>
<stop offset="1" stop-color="#808080" stop-opacity="0.1"/>
</linearGradient>
<clipPath id="clip0">
<rect width="370.922" height="338.672" fill="white"/>
</clipPath>
</defs>
</svg>
