<svg width="362" height="335" viewBox="0 0 362 335" fill="none" xmlns="http://www.w3.org/2000/svg">
<g clip-path="url(#clip0)">
<path d="M249.347 179.442L155.164 156.76V334.259L249.347 309.607V179.442Z" fill="#E0E0E0"/>
<path opacity="0.1" d="M249.347 179.442L155.164 156.76V334.259L249.347 309.607V179.442Z" fill="black"/>
<path d="M60.9818 179.442L155.164 156.76V334.259L60.9818 310.101V179.442Z" fill="#E0E0E0"/>
<path opacity="0.17" d="M60.9818 178.656L155.164 155.978V334.259L60.9818 310.101V178.656Z" fill="black"/>
<path d="M154.378 157.546L203.983 116.329L298.161 140.491L248.56 180.225L154.378 157.546Z" fill="#E0E0E0"/>
<path d="M13.4436 141.767L61.7685 180.224L155.947 157.546L108.12 117.115L13.4436 141.767Z" fill="#E0E0E0"/>
<path opacity="0.05" d="M12.6612 140.985L62.1597 180.225L156.342 157.546L107.333 116.329L12.6612 140.985Z" fill="black"/>
<path d="M60.9818 179.442V310.101L155.164 334.259L156.436 204.587L60.9818 179.442Z" fill="#E0E0E0"/>
<path d="M249.347 309.607L155.164 334.259V204.587L249.347 179.442V309.607Z" fill="#E0E0E0"/>
<path opacity="0.07" d="M249.347 309.607L155.164 334.259V204.587L249.347 179.442V309.607Z" fill="black"/>
<path opacity="0.07" d="M211.869 266.216V309.114L249.347 298.757V255.864L211.869 266.216Z" fill="black"/>
<path opacity="0.1" d="M59.7504 247.236L112.512 260.549L154.92 226.034V204.831L60.7372 181.167L59.7504 247.236Z" fill="black"/>
<path opacity="0.1" d="M250.085 247.236L197.324 260.549L154.92 226.034V204.831L249.098 181.167L250.085 247.236Z" fill="black"/>
<path d="M115.766 177.398L119.415 176.669C119.415 176.669 116.348 180.1 115.766 180.318C115.711 181.047 115.711 181.78 115.766 182.509C108.755 212.597 82.9015 199.307 82.9015 199.307C92.3211 199.524 93.1257 195.657 93.1257 195.657C87.6491 194.853 86.5511 191.275 86.5511 191.275C87.0424 191.533 87.6118 191.602 88.1506 191.468C88.6893 191.333 89.1596 191.005 89.4717 190.546C83.5549 189.012 84.3595 183.243 84.3595 183.243C85.382 184.132 86.9867 184.483 87.938 184.629C87.2801 183.825 81.7146 177.18 85.0886 173.748C85.0886 173.748 89.1783 181.051 99.9137 181.709L100.643 181.562C100.518 181.037 100.469 180.497 100.496 179.958C100.496 177.924 101.304 175.974 102.742 174.536C104.18 173.098 106.13 172.29 108.164 172.29C113.276 172.29 114.388 175.211 114.388 175.211L118.037 173.019C117.957 173.015 117.593 176.669 115.766 177.398Z" fill="#00ACED"/>
<path d="M60.9817 179.442L12.6612 219.38L106.839 243.045L155.164 204.587L60.9817 179.442Z" fill="#E0E0E0"/>
<path d="M189.375 176.424L191.18 173.913C191.18 173.913 191.26 177.735 191.029 178.202C191.409 178.677 191.823 179.122 192.269 179.535C205.058 201.796 181.809 208.365 181.809 208.365C187.659 203.16 185.957 200.364 185.957 200.364C182.152 202.965 179.485 201.409 179.485 201.409C179.93 201.288 180.314 201.007 180.565 200.62C180.816 200.233 180.916 199.767 180.845 199.311C176.4 201.729 173.599 197.769 173.599 197.769C174.719 197.724 175.902 197.035 176.56 196.586C175.706 196.471 168.558 195.577 168.66 191.586C168.66 191.586 175.284 193.706 182.183 188.03L182.543 187.527C182.169 187.28 181.833 186.98 181.543 186.638C180.972 186.027 180.527 185.308 180.234 184.524C179.941 183.741 179.805 182.907 179.834 182.07C179.864 181.234 180.058 180.412 180.405 179.65C180.752 178.889 181.246 178.203 181.858 177.633C184.97 174.735 187.286 175.891 187.286 175.891L188.264 172.49C188.224 172.521 190.069 174.944 189.375 176.424Z" fill="#6C63FF"/>
<path d="M249.347 179.442L298.161 219.38L204.472 243.045L155.164 204.587L249.347 179.442Z" fill="#E0E0E0"/>
<path opacity="0.07" d="M249.347 179.442L298.161 219.38L204.472 243.045L155.164 204.587L249.347 179.442Z" fill="black"/>
<path d="M185.939 54.3837L189.278 52.7791C189.278 52.7791 187.171 56.8462 186.659 57.2018C186.787 57.9181 186.969 58.6239 187.202 59.3132C187.882 90.0365 159.685 83.6181 159.685 83.6181C168.816 81.5023 168.634 77.5729 168.634 77.5729C163.157 78.1508 161.219 74.9771 161.219 74.9771C161.757 75.111 162.326 75.0389 162.814 74.7749C163.301 74.5109 163.673 74.0741 163.855 73.5503C157.774 73.5503 157.125 67.7719 157.125 67.7719C158.325 68.363 159.965 68.3186 160.917 68.2164C160.085 67.603 153.093 62.5713 155.484 58.4375C155.484 58.4375 161.232 64.4648 171.737 62.438L172.403 62.1179C172.154 61.642 171.973 61.1332 171.865 60.6066C171.616 59.6362 171.561 58.6262 171.702 57.6343C171.843 56.6424 172.179 55.688 172.689 54.8258C173.199 53.9635 173.874 53.2102 174.676 52.6088C175.477 52.0075 176.389 51.57 177.36 51.3212C182.285 50.0588 184.063 52.6013 184.063 52.6013L187.042 49.5876C186.966 49.6188 187.517 53.2281 185.939 54.3837Z" fill="#00ACED"/>
<path d="M33.2341 77.7864L36.8659 77.0619C36.8659 77.0619 33.8164 80.4756 33.2341 80.6934C33.1799 81.4184 33.1799 82.1464 33.2341 82.8714C26.2594 112.799 0.543335 99.5799 0.543335 99.5799C9.91404 99.7977 10.7142 95.9484 10.7142 95.9484C5.26424 95.1483 4.17515 91.5879 4.17515 91.5879C4.66282 91.8514 5.23135 91.9231 5.7692 91.7891C6.30705 91.6551 6.7754 91.3249 7.08238 90.8634C1.18345 89.3433 1.98361 83.6182 1.98361 83.6182C3.00158 84.5072 4.59745 84.8539 5.53985 85.0006C4.88639 84.2005 -0.634673 77.5908 2.7082 74.1771C2.7082 74.1771 6.77565 81.4402 17.4577 82.0936L18.1823 81.9469C18.0581 81.4231 18.0087 80.8843 18.0356 80.3467C18.0362 79.3443 18.2344 78.3518 18.6188 77.4261C19.0033 76.5003 19.5664 75.6594 20.2761 74.9514C20.9858 74.2434 21.8281 73.6823 22.7549 73.3C23.6816 72.9177 24.6746 72.7219 25.6771 72.7236C30.7625 72.7236 31.8516 75.6306 31.8516 75.6306L35.4834 73.4526C35.399 73.4482 35.0389 77.0797 33.2341 77.7864Z" fill="#00ACED"/>
<path d="M356.07 13.206L361.996 12.0192C361.996 12.0192 357.017 17.5887 356.07 17.9443C355.981 19.1279 355.981 20.3165 356.07 21.5002C344.69 70.3278 302.726 48.7565 302.726 48.7565C318.014 49.1121 319.321 42.8314 319.321 42.8314C310.43 41.5291 308.652 35.7196 308.652 35.7196C309.449 36.1393 310.374 36.2503 311.248 36.0314C312.122 35.8124 312.885 35.2789 313.391 34.5328C303.789 32.0436 305.096 22.6826 305.096 22.6826C306.754 24.1049 309.363 24.6961 310.901 24.9361C309.834 23.6338 300.828 12.8459 306.278 7.27643C306.278 7.27643 312.915 19.1266 330.336 20.1934L331.523 19.9578C331.322 19.1036 331.242 18.2251 331.287 17.3486C331.287 14.0478 332.599 10.8822 334.933 8.54813C337.267 6.21408 340.433 4.90283 343.734 4.90283C352.029 4.90283 353.807 9.64113 353.807 9.64113L359.733 6.08519C359.626 6.09408 359.035 12.0014 356.07 13.206Z" fill="#00ACED"/>
<path d="M259.225 3.43594L261.678 2.94699C261.678 2.94699 259.616 5.25391 259.225 5.4006C259.188 5.89034 259.188 6.38213 259.225 6.87187C254.513 27.0963 237.136 18.162 237.136 18.162C243.47 18.3087 244.008 15.7084 244.008 15.7084C240.328 15.1706 239.59 12.7614 239.59 12.7614C239.92 12.9364 240.303 12.9833 240.666 12.8931C241.028 12.8028 241.345 12.5818 241.554 12.2725C237.58 11.2412 238.118 7.38303 238.118 7.38303C238.827 7.89499 239.655 8.2164 240.523 8.31647C240.079 7.77863 236.349 3.31148 238.607 1.00456C238.607 1.00456 241.354 5.89398 248.574 6.33848L249.063 6.24069C248.979 5.88707 248.946 5.52342 248.965 5.16057C248.964 4.48292 249.096 3.8117 249.355 3.18535C249.614 2.559 249.993 1.98984 250.472 1.51046C250.951 1.03108 251.52 0.650911 252.146 0.391721C252.773 0.132531 253.444 -0.000583771 254.121 1.92437e-06C257.558 1.92437e-06 258.296 1.96466 258.296 1.96466L260.749 0.49339C260.696 0.488945 260.451 2.94699 259.225 3.43594Z" fill="#00ACED"/>
<path opacity="0.3" d="M147.794 101.602L150.248 101.113C150.248 101.113 148.185 103.42 147.794 103.567C147.757 104.057 147.757 104.549 147.794 105.038C143.082 125.263 125.705 116.328 125.705 116.328C132.04 116.475 132.578 113.875 132.578 113.875C128.897 113.337 128.159 110.928 128.159 110.928C128.489 111.103 128.873 111.15 129.235 111.059C129.598 110.969 129.914 110.748 130.124 110.439C126.15 109.408 126.688 105.549 126.688 105.549C127.396 106.061 128.224 106.383 129.093 106.483C128.648 105.945 124.919 101.478 127.177 99.171C127.177 99.171 129.924 104.06 137.143 104.505L137.632 104.407C137.549 104.053 137.516 103.69 137.534 103.327C137.534 101.961 138.077 100.65 139.043 99.6842C140.01 98.7181 141.32 98.1753 142.686 98.1753C146.123 98.1753 146.861 100.14 146.861 100.14L149.314 98.6687C149.257 98.6776 149.021 101.113 147.794 101.602Z" fill="#535461"/>
<path opacity="0.3" d="M243.497 55.9574L245.951 55.4684C245.951 55.4684 243.91 57.7842 243.497 57.9176C243.46 58.4073 243.46 58.8991 243.497 59.3889C238.785 79.6133 221.408 70.679 221.408 70.679C227.743 70.8257 228.281 68.2254 228.281 68.2254C224.6 67.6875 223.862 65.2784 223.862 65.2784C224.192 65.4534 224.576 65.5003 224.938 65.41C225.301 65.3198 225.617 65.0988 225.827 64.7894C221.853 63.7582 222.391 59.9 222.391 59.9C223.099 60.412 223.927 60.7334 224.796 60.8335C224.351 60.2956 220.622 55.8285 222.88 53.5215C222.88 53.5215 225.627 58.411 232.846 58.8555L233.335 58.7577C233.252 58.4041 233.219 58.0404 233.237 57.6776C233.237 56.3112 233.78 55.0009 234.746 54.0348C235.713 53.0686 237.023 52.5259 238.389 52.5259C241.826 52.5259 242.564 54.4905 242.564 54.4905L245.017 53.0193C244.991 53.0104 244.742 55.464 243.497 55.9574Z" fill="#00ACED"/>
<path d="M197.177 138.131L202.28 137.108C202.28 137.108 197.991 141.909 197.177 142.211C197.101 143.231 197.101 144.254 197.177 145.274C187.375 187.336 151.23 168.756 151.23 168.756C164.402 169.063 165.526 163.654 165.526 163.654C157.867 162.529 156.338 157.528 156.338 157.528C157.025 157.891 157.822 157.987 158.576 157.798C159.33 157.609 159.988 157.149 160.423 156.506C152.155 154.364 153.275 146.283 153.275 146.283C154.707 147.51 156.951 148.016 158.276 148.221C157.356 147.096 149.599 137.806 154.275 133.01C154.275 133.01 159.992 143.234 175.004 144.122L176.026 143.918C175.852 143.183 175.784 142.427 175.822 141.673C175.821 140.265 176.098 138.871 176.637 137.57C177.175 136.269 177.965 135.087 178.961 134.091C179.957 133.095 181.139 132.306 182.44 131.767C183.741 131.228 185.136 130.952 186.544 130.952C193.692 130.952 195.221 135.037 195.221 135.037L200.342 132.014C200.24 132.014 199.729 137.113 197.177 138.131Z" fill="#6C63FF"/>
<path d="M161.045 11.7792L163.482 11.2903C163.482 11.2903 161.419 13.5972 161.028 13.7439C160.991 14.2336 160.991 14.7254 161.028 15.2151C156.316 35.4396 138.939 26.5053 138.939 26.5053C145.274 26.6519 145.811 24.0517 145.811 24.0517C142.131 23.5138 141.393 21.1047 141.393 21.1047C141.723 21.2797 142.106 21.3266 142.469 21.2363C142.831 21.1461 143.148 20.9251 143.358 20.6157C139.383 19.5845 139.921 15.7263 139.921 15.7263C140.63 16.2383 141.458 16.5597 142.326 16.6597C141.882 16.1219 138.152 11.6547 140.41 9.34782C140.41 9.34782 143.158 14.2372 150.377 14.6817L150.866 14.5839C150.782 14.2303 150.749 13.8667 150.768 13.5038C150.767 12.8262 150.899 12.155 151.158 11.5286C151.417 10.9023 151.796 10.3331 152.275 9.85372C152.754 9.37435 153.323 8.99417 153.949 8.73498C154.576 8.47579 155.247 8.34268 155.924 8.34326C159.361 8.34326 160.099 10.3079 160.099 10.3079L162.552 8.83665C162.521 8.83665 162.277 11.2903 161.045 11.7792Z" fill="#6C63FF"/>
<path d="M85.9421 66.2652L88.3959 65.7762C88.3959 65.7762 86.3333 68.0832 85.9421 68.2298C85.9055 68.7196 85.9055 69.2114 85.9421 69.7011C81.2301 89.9255 63.8534 80.9912 63.8534 80.9912C70.188 81.1379 70.7258 78.5376 70.7258 78.5376C67.0451 77.9998 66.3072 75.5906 66.3072 75.5906C66.6374 75.7657 67.0206 75.8125 67.3832 75.7223C67.7459 75.6321 68.0624 75.411 68.272 75.1017C64.2979 74.0705 64.8358 70.2123 64.8358 70.2123C65.5443 70.7242 66.3724 71.0456 67.2407 71.1457C66.7962 70.6079 63.0666 66.1407 65.3248 63.8338C65.3248 63.8338 68.072 68.7232 75.2912 69.1677L75.7801 69.0699C75.6967 68.7163 75.6638 68.3527 75.6823 67.9898C75.6823 66.6235 76.2252 65.3132 77.1914 64.347C78.1576 63.3809 79.468 62.8381 80.8345 62.8381C84.2707 62.8381 85.0086 64.8028 85.0086 64.8028L87.4624 63.3315C87.4135 63.3182 87.169 65.7851 85.9421 66.2652Z" fill="#6C63FF"/>
<path opacity="0.3" d="M65.3247 30.9234L67.7786 30.4344C67.7786 30.4344 65.7159 32.7414 65.3247 32.888C65.2882 33.3778 65.2882 33.8696 65.3247 34.3593C60.6127 54.5838 43.236 45.6494 43.236 45.6494C49.5706 45.7961 50.1085 43.1958 50.1085 43.1958C46.4277 42.658 45.6898 40.2488 45.6898 40.2488C46.02 40.4239 46.4032 40.4707 46.7659 40.3805C47.1285 40.2903 47.445 40.0692 47.6547 39.7599C43.6806 38.7287 44.2184 34.8705 44.2184 34.8705C44.9269 35.3824 45.755 35.7039 46.6233 35.8039C46.1788 35.2661 42.4492 30.7989 44.7074 28.492C44.7074 28.492 47.4546 33.3814 54.6738 33.8259L55.1628 33.7281C55.0794 33.3745 55.0464 33.0109 55.065 32.648C55.065 31.2817 55.6078 29.9714 56.574 29.0052C57.5402 28.0391 58.8507 27.4963 60.2171 27.4963C63.6533 27.4963 64.3912 29.461 64.3912 29.461L66.845 27.9897C66.7961 27.9764 66.5739 30.4344 65.3247 30.9234Z" fill="#6C63FF"/>
<path d="M151.719 180.629L154.173 180.14C154.173 180.14 152.11 182.447 151.719 182.593C151.683 183.083 151.683 183.575 151.719 184.065C147.007 204.289 129.63 195.355 129.63 195.355C135.965 195.501 136.503 192.901 136.503 192.901C132.822 192.363 132.084 189.954 132.084 189.954C132.414 190.129 132.798 190.176 133.16 190.086C133.523 189.996 133.839 189.775 134.049 189.465C130.075 188.434 130.613 184.576 130.613 184.576C131.321 185.088 132.149 185.409 133.018 185.509C132.573 184.971 128.844 180.504 131.102 178.197C131.102 178.197 133.849 183.087 141.068 183.531L141.557 183.433C141.474 183.08 141.441 182.716 141.459 182.353C141.459 180.987 142.002 179.677 142.968 178.711C143.935 177.744 145.245 177.202 146.612 177.202C150.048 177.202 150.786 179.166 150.786 179.166L153.24 177.695C153.195 177.686 152.946 180.14 151.719 180.629Z" fill="#535461"/>
<path d="M294.96 74.0972L299.952 73.0971C299.952 73.0971 295.747 77.8042 294.947 78.1021C294.872 79.1023 294.872 80.1066 294.947 81.1068C285.332 122.36 249.885 104.136 249.885 104.136C262.816 104.456 263.919 99.1221 263.919 99.1221C256.406 98.0198 254.908 93.1126 254.908 93.1126C255.582 93.4629 256.361 93.5546 257.098 93.3704C257.835 93.1862 258.479 92.7388 258.909 92.1125C250.796 90.01 251.899 82.0981 251.899 82.0981C253.299 83.2982 255.504 83.8005 256.788 84.0005C255.899 82.8981 248.276 73.7771 252.881 69.0788C252.881 69.0788 258.491 79.0933 273.209 79.9912L274.21 79.7911C274.038 79.0636 273.97 78.3152 274.01 77.5687C274.01 74.7806 275.117 72.1068 277.089 70.1354C279.06 68.1639 281.734 67.0564 284.523 67.0564C291.533 67.0564 293.035 71.0568 293.035 71.0568L298.041 68.0521C297.965 68.0876 297.463 73.0971 294.96 74.0972Z" fill="#535461"/>
<path d="M96.153 114.346L101.158 113.346C101.158 113.346 96.9532 118.053 96.153 118.351C96.0782 119.351 96.0782 120.355 96.153 121.356C86.5378 162.609 51.0909 144.385 51.0909 144.385C64.009 144.687 65.1114 139.38 65.1114 139.38C57.5989 138.277 56.1008 133.37 56.1008 133.37C56.7748 133.72 57.5537 133.812 58.2907 133.628C59.0276 133.444 59.6717 132.996 60.1016 132.37C51.9889 130.268 53.0913 122.356 53.0913 122.356C54.4916 123.556 56.6965 124.058 57.9812 124.258C57.0921 123.156 49.4684 114.035 54.0737 109.336C54.0737 109.336 59.6837 119.351 74.4021 120.249L75.4023 120.049C75.2302 119.321 75.1628 118.573 75.2023 117.826C75.2023 115.038 76.3099 112.364 78.2815 110.393C80.2531 108.422 82.9272 107.314 85.7154 107.314C92.7257 107.314 94.2282 111.314 94.2282 111.314L99.2336 108.31C99.158 108.336 98.6557 113.346 96.153 114.346Z" fill="#535461"/>
</g>
<defs>
<clipPath id="clip0">
<rect width="361.47" height="334.259" fill="white" transform="translate(0.529968)"/>
</clipPath>
</defs>
</svg>
