<svg width="720" height="541" viewBox="0 0 720 541" fill="none" xmlns="http://www.w3.org/2000/svg">
<g clip-path="url(#clip0)">
<path opacity="0.1" d="M424.097 532.858C375.43 503.133 319.836 493.634 265.505 506.374C188.517 524.439 91.7581 517.358 73.0163 377.991C41.0074 139.972 175.143 77.1503 175.143 77.1503C175.143 77.1503 264.343 68.9055 317.089 37.5154C392.012 -7.08866 477.651 -12.7687 552.953 24.9705C601.109 49.0846 640.764 82.6631 647.54 128.766C666.484 257.699 635.372 328.738 693.574 370.826C751.775 412.915 702.035 528.467 657.416 524.467C612.797 520.466 511.971 476.58 472.682 527.415C458.726 545.444 441.071 543.228 424.097 532.858Z" fill="#6C63FF"/>
<path opacity="0.1" d="M193.19 104.687H393.995V120.02H193.19V104.687Z" fill="#6C63FF"/>
<path opacity="0.1" d="M193.19 170.896H393.995V186.229H193.19V170.896Z" fill="#6C63FF"/>
<path opacity="0.1" d="M193.19 239.893H393.995V255.226H193.19V239.893Z" fill="#6C63FF"/>
<path opacity="0.1" d="M363.685 64.9617H376.314V104.687H363.685V64.9617Z" fill="#6C63FF"/>
<path opacity="0.1" d="M363.685 71.2341H376.314V74.0219H363.685V71.2341Z" fill="#6C63FF"/>
<path opacity="0.1" d="M363.685 92.8392H376.314V95.627H363.685V92.8392Z" fill="#6C63FF"/>
<path opacity="0.1" d="M344.741 64.9617H357.37V104.687H344.741V64.9617Z" fill="#6C63FF"/>
<path opacity="0.1" d="M344.741 71.2341H357.37V74.0219H344.741V71.2341Z" fill="#6C63FF"/>
<path opacity="0.1" d="M344.741 92.8392H357.37V95.627H344.741V92.8392Z" fill="#6C63FF"/>
<path opacity="0.1" d="M325.797 64.9617H338.426V104.687H325.797V64.9617Z" fill="#6C63FF"/>
<path opacity="0.1" d="M325.797 71.2341H338.426V74.0219H325.797V71.2341Z" fill="#6C63FF"/>
<path opacity="0.1" d="M325.797 92.8392H338.426V95.627H325.797V92.8392Z" fill="#6C63FF"/>
<path opacity="0.1" d="M306.853 64.9617H319.482V104.687H306.853V64.9617Z" fill="#6C63FF"/>
<path opacity="0.1" d="M306.853 71.2341H319.482V74.0219H306.853V71.2341Z" fill="#6C63FF"/>
<path opacity="0.1" d="M306.853 92.8392H319.482V95.627H306.853V92.8392Z" fill="#6C63FF"/>
<path opacity="0.1" d="M287.909 64.9617H300.538V104.687H287.909V64.9617Z" fill="#6C63FF"/>
<path opacity="0.1" d="M287.909 71.2341H300.538V74.0219H287.909V71.2341Z" fill="#6C63FF"/>
<path opacity="0.1" d="M287.909 92.8392H300.538V95.627H287.909V92.8392Z" fill="#6C63FF"/>
<path opacity="0.1" d="M268.965 64.9617H281.594V104.687H268.965V64.9617Z" fill="#6C63FF"/>
<path opacity="0.1" d="M268.965 71.2341H281.594V74.0219H268.965V71.2341Z" fill="#6C63FF"/>
<path opacity="0.1" d="M268.965 92.8392H281.594V95.627H268.965V92.8392Z" fill="#6C63FF"/>
<path opacity="0.1" d="M250.021 64.9617H262.65V104.687H250.021V64.9617Z" fill="#6C63FF"/>
<path opacity="0.1" d="M250.021 71.2341H262.65V74.0219H250.021V71.2341Z" fill="#6C63FF"/>
<path opacity="0.1" d="M250.021 92.8392H262.65V95.627H250.021V92.8392Z" fill="#6C63FF"/>
<path opacity="0.1" d="M257.498 199.122L268.787 205.37L252.654 240.881L241.364 234.633L257.498 199.122Z" fill="#6C63FF"/>
<path opacity="0.1" d="M254.947 204.734L266.237 210.982L265.104 213.474L253.815 207.226L254.947 204.734Z" fill="#6C63FF"/>
<path opacity="0.1" d="M246.178 224.049L257.467 230.297L256.335 232.789L245.046 226.541L246.178 224.049Z" fill="#6C63FF"/>
<path opacity="0.1" d="M363.685 131.868H376.314V171.593H363.685V131.868Z" fill="#6C63FF"/>
<path opacity="0.1" d="M363.685 138.14H376.314V140.928H363.685V138.14Z" fill="#6C63FF"/>
<path opacity="0.1" d="M363.685 159.745H376.314V162.533H363.685V159.745Z" fill="#6C63FF"/>
<path opacity="0.1" d="M344.741 131.868H357.37V171.593H344.741V131.868Z" fill="#6C63FF"/>
<path opacity="0.1" d="M344.741 138.14H357.37V140.928H344.741V138.14Z" fill="#6C63FF"/>
<path opacity="0.1" d="M344.741 159.745H357.37V162.533H344.741V159.745Z" fill="#6C63FF"/>
<path opacity="0.1" d="M325.797 131.868H338.426V171.593H325.797V131.868Z" fill="#6C63FF"/>
<path opacity="0.1" d="M325.797 138.14H338.426V140.928H325.797V138.14Z" fill="#6C63FF"/>
<path opacity="0.1" d="M325.797 159.745H338.426V162.533H325.797V159.745Z" fill="#6C63FF"/>
<path opacity="0.1" d="M246.864 131.868H259.493V171.593H246.864V131.868Z" fill="#6C63FF"/>
<path opacity="0.1" d="M246.864 138.14H259.493V140.928H246.864V138.14Z" fill="#6C63FF"/>
<path opacity="0.1" d="M246.864 159.745H259.493V162.533H246.864V159.745Z" fill="#6C63FF"/>
<path opacity="0.1" d="M227.92 131.868H240.549V171.593H227.92V131.868Z" fill="#6C63FF"/>
<path opacity="0.1" d="M227.92 138.14H240.549V140.928H227.92V138.14Z" fill="#6C63FF"/>
<path opacity="0.1" d="M227.92 159.745H240.549V162.533H227.92V159.745Z" fill="#6C63FF"/>
<path opacity="0.1" d="M208.976 131.868H221.605V171.593H208.976V131.868Z" fill="#6C63FF"/>
<path opacity="0.1" d="M208.976 138.14H221.605V140.928H208.976V138.14Z" fill="#6C63FF"/>
<path opacity="0.1" d="M208.976 159.745H221.605V162.533H208.976V159.745Z" fill="#6C63FF"/>
<path opacity="0.1" d="M363.685 200.168H376.314V239.893H363.685V200.168Z" fill="#6C63FF"/>
<path opacity="0.1" d="M363.685 206.44H376.314V209.228H363.685V206.44Z" fill="#6C63FF"/>
<path opacity="0.1" d="M363.685 228.045H376.314V230.833H363.685V228.045Z" fill="#6C63FF"/>
<path opacity="0.1" d="M344.741 200.168H357.37V239.893H344.741V200.168Z" fill="#6C63FF"/>
<path opacity="0.1" d="M344.741 206.44H357.37V209.228H344.741V206.44Z" fill="#6C63FF"/>
<path opacity="0.1" d="M344.741 228.045H357.37V230.833H344.741V228.045Z" fill="#6C63FF"/>
<path opacity="0.1" d="M325.797 200.168H338.426V239.893H325.797V200.168Z" fill="#6C63FF"/>
<path opacity="0.1" d="M325.797 206.44H338.426V209.228H325.797V206.44Z" fill="#6C63FF"/>
<path opacity="0.1" d="M325.797 228.045H338.426V230.833H325.797V228.045Z" fill="#6C63FF"/>
<path opacity="0.1" d="M306.853 200.168H319.482V239.893H306.853V200.168Z" fill="#6C63FF"/>
<path opacity="0.1" d="M306.853 206.44H319.482V209.228H306.853V206.44Z" fill="#6C63FF"/>
<path opacity="0.1" d="M306.853 228.045H319.482V230.833H306.853V228.045Z" fill="#6C63FF"/>
<path opacity="0.1" d="M287.909 200.168H300.538V239.893H287.909V200.168Z" fill="#6C63FF"/>
<path opacity="0.1" d="M287.909 206.44H300.538V209.228H287.909V206.44Z" fill="#6C63FF"/>
<path opacity="0.1" d="M287.909 228.045H300.538V230.833H287.909V228.045Z" fill="#6C63FF"/>
<path opacity="0.1" d="M268.965 200.168H281.594V239.893H268.965V200.168Z" fill="#6C63FF"/>
<path opacity="0.1" d="M268.965 206.44H281.594V209.228H268.965V206.44Z" fill="#6C63FF"/>
<path opacity="0.1" d="M268.965 228.045H281.594V230.833H268.965V228.045Z" fill="#6C63FF"/>
<path opacity="0.1" d="M231.077 68.5021V104.687H243.707V65.8468C239.48 66.6691 235.27 67.5543 231.077 68.5021Z" fill="#6C63FF"/>
<path opacity="0.1" d="M231.077 71.2341H243.707V74.0219H231.077V71.2341Z" fill="#6C63FF"/>
<path opacity="0.1" d="M231.077 92.8392H243.707V95.627H231.077V92.8392Z" fill="#6C63FF"/>
<path opacity="0.1" d="M212.134 73.3389V104.701H224.763V69.9935C223.121 70.3908 221.485 70.809 219.85 71.2341C217.265 71.9032 214.693 72.6047 212.134 73.3389Z" fill="#6C63FF"/>
<path opacity="0.1" d="M212.134 73.3389V74.0358H224.763V71.248H219.85C217.265 71.9078 214.693 72.6047 212.134 73.3389Z" fill="#6C63FF"/>
<path opacity="0.1" d="M212.133 92.8392H224.763V95.627H212.133V92.8392Z" fill="#6C63FF"/>
<g opacity="0.1">
<path opacity="0.1" d="M300.292 157.153C300.292 157.153 304.119 155.717 305.975 159.446C306.461 160.455 306.708 161.583 306.693 162.726C306.679 163.869 306.404 164.989 305.893 165.983C304.681 168.394 302.186 171.558 297.463 171.252C293.453 171.015 292.121 167.642 291.78 164.498C291.649 163.323 291.792 162.13 292.195 161.032C292.598 159.934 293.248 158.968 294.084 158.224C294.919 157.481 295.913 156.984 296.97 156.782C298.028 156.58 299.114 156.679 300.128 157.069L300.292 157.153Z" fill="#6C63FF"/>
<path opacity="0.1" d="M305.06 166.324C305.571 165.33 305.846 164.21 305.86 163.067C305.875 161.925 305.628 160.797 305.142 159.787C303.298 156.065 299.459 157.494 299.459 157.494L299.263 157.418C297.802 156.834 296.196 156.874 294.761 157.529C295.553 157.008 296.441 156.688 297.359 156.592C298.278 156.495 299.204 156.625 300.071 156.972L300.267 157.048C300.267 157.048 304.094 155.612 305.95 159.341C306.436 160.35 306.683 161.479 306.668 162.621C306.654 163.764 306.379 164.884 305.868 165.878C304.919 167.875 303.395 169.466 301.536 170.402C303.027 169.424 304.246 168.014 305.06 166.324Z" fill="#6C63FF"/>
<path opacity="0.2" d="M302.268 158.944C302.268 158.944 300.848 160.177 297.4 158.944H302.268Z" fill="#6C63FF"/>
<path opacity="0.1" d="M302.578 149.988C302.578 149.988 300.147 157.264 300.349 159.167L298.423 158.944C298.423 158.944 301.669 152.567 300.854 149.988H302.578Z" fill="#6C63FF"/>
<path opacity="0.2" d="M302.578 149.988C302.578 149.988 300.147 157.264 300.349 159.167L298.423 158.944C298.423 158.944 301.669 152.567 300.854 149.988H302.578Z" fill="#6C63FF"/>
<path opacity="0.1" d="M292.639 150.601C292.639 150.601 296.472 148.441 298.183 150.225C299.894 152.009 300.159 156.574 300.159 156.574C300.159 156.574 293.914 157.508 292.639 150.601Z" fill="#6C63FF"/>
<path opacity="0.1" d="M292.639 150.601C292.639 150.601 296.472 148.441 298.183 150.225C299.894 152.009 300.159 156.574 300.159 156.574C300.159 156.574 293.914 157.508 292.639 150.601Z" fill="#6C63FF"/>
<path opacity="0.1" d="M300.166 156.574C300.166 156.574 299.162 151.277 292.645 150.594L300.166 156.574Z" fill="#6C63FF"/>
</g>
<g opacity="0.1">
<path opacity="0.1" d="M219.465 226.15C219.465 226.15 223.292 224.714 225.148 228.443C225.633 229.452 225.88 230.58 225.866 231.723C225.852 232.866 225.577 233.986 225.066 234.98C223.854 237.391 221.359 240.555 216.636 240.249C212.626 240.012 211.294 236.639 210.953 233.495C210.822 232.32 210.965 231.127 211.368 230.029C211.771 228.931 212.421 227.965 213.257 227.221C214.092 226.477 215.086 225.981 216.143 225.779C217.201 225.577 218.287 225.676 219.301 226.066L219.465 226.15Z" fill="#6C63FF"/>
<path opacity="0.1" d="M224.232 235.321C224.743 234.327 225.018 233.207 225.032 232.064C225.047 230.922 224.8 229.793 224.314 228.784C222.47 225.062 218.631 226.491 218.631 226.491L218.435 226.414C216.974 225.831 215.369 225.871 213.933 226.526C214.726 226.005 215.613 225.685 216.531 225.588C217.45 225.492 218.376 225.622 219.243 225.968L219.439 226.045C219.439 226.045 223.266 224.609 225.122 228.338C225.608 229.347 225.855 230.476 225.84 231.618C225.826 232.761 225.551 233.881 225.04 234.875C224.091 236.872 222.567 238.463 220.708 239.398C222.199 238.421 223.418 237.011 224.232 235.321Z" fill="#6C63FF"/>
<path opacity="0.2" d="M221.441 227.941C221.441 227.941 220.02 229.174 216.573 227.941H221.441Z" fill="#6C63FF"/>
<path opacity="0.1" d="M221.751 218.985C221.751 218.985 219.32 226.261 219.522 228.164L217.596 227.941C217.596 227.941 220.841 221.564 220.027 218.985H221.751Z" fill="#6C63FF"/>
<path opacity="0.2" d="M221.751 218.985C221.751 218.985 219.32 226.261 219.522 228.164L217.596 227.941C217.596 227.941 220.841 221.564 220.027 218.985H221.751Z" fill="#6C63FF"/>
<path opacity="0.1" d="M211.811 219.598C211.811 219.598 215.644 217.438 217.356 219.222C219.067 221.006 219.332 225.571 219.332 225.571C219.332 225.571 213.087 226.505 211.811 219.598Z" fill="#6C63FF"/>
<path opacity="0.1" d="M211.811 219.598C211.811 219.598 215.644 217.438 217.356 219.222C219.067 221.006 219.332 225.571 219.332 225.571C219.332 225.571 213.087 226.505 211.811 219.598Z" fill="#6C63FF"/>
<path opacity="0.1" d="M219.339 225.571C219.339 225.571 218.335 220.274 211.818 219.591L219.339 225.571Z" fill="#6C63FF"/>
</g>
<path opacity="0.1" d="M91.682 439.099C72.8497 439.099 57.583 433.108 57.583 425.718C57.583 418.328 72.8497 412.337 91.682 412.337C110.514 412.337 125.781 418.328 125.781 425.718C125.781 433.108 110.514 439.099 91.682 439.099Z" fill="black"/>
<path d="M91.6568 425.83C91.6568 425.83 72.2014 352.937 95.3066 299.279C105 276.761 108.22 251.483 103.743 227.049C101.6 215.458 98.4991 204.109 94.4794 193.143" stroke="#535461" stroke-width="1.39274" stroke-miterlimit="10"/>
<path d="M108.852 159.23C108.852 168.164 94.1954 194.077 94.1954 194.077C94.1954 194.077 79.5392 168.171 79.5392 159.23C79.5392 154.939 81.0833 150.825 83.8319 147.791C86.5805 144.758 90.3083 143.054 94.1954 143.054C98.0825 143.054 101.81 144.758 104.559 147.791C107.307 150.825 108.852 154.939 108.852 159.23Z" fill="#6C63FF"/>
<path d="M133.081 208.712C128.661 216.211 103.623 229.167 103.623 229.167C103.623 229.167 104.078 198.628 108.479 191.128C109.525 189.344 110.879 187.804 112.465 186.597C114.05 185.39 115.835 184.539 117.718 184.094C119.601 183.648 121.546 183.616 123.44 184C125.334 184.384 127.141 185.175 128.758 186.33C130.375 187.485 131.771 188.979 132.864 190.729C133.958 192.479 134.728 194.449 135.132 196.527C135.536 198.606 135.565 200.752 135.217 202.842C134.869 204.933 134.152 206.928 133.106 208.712H133.081Z" fill="#6C63FF"/>
<path d="M132.039 293.279C124.809 297.3 97.2515 294.519 97.2515 294.519C97.2515 294.519 111.611 268.412 118.841 264.391C120.56 263.434 122.432 262.861 124.352 262.703C126.271 262.545 128.2 262.806 130.028 263.471C131.856 264.136 133.547 265.192 135.006 266.579C136.464 267.965 137.661 269.655 138.527 271.552C139.394 273.449 139.913 275.515 140.056 277.634C140.199 279.752 139.963 281.881 139.36 283.898C138.758 285.916 137.801 287.783 136.545 289.392C135.289 291.002 133.758 292.322 132.039 293.279Z" fill="#6C63FF"/>
<path d="M118.147 357.063C111.636 362.373 84.0477 364.778 84.0477 364.778C84.0477 364.778 94.2016 336.364 100.712 331.053C102.259 329.789 104.017 328.875 105.885 328.361C107.752 327.847 109.693 327.744 111.597 328.059C113.501 328.373 115.33 329.098 116.979 330.192C118.629 331.286 120.068 332.729 121.212 334.436C122.357 336.144 123.186 338.084 123.651 340.146C124.117 342.207 124.21 344.349 123.925 346.45C123.641 348.551 122.984 350.57 121.992 352.391C121.001 354.212 119.694 355.799 118.147 357.063Z" fill="#6C63FF"/>
<path d="M72.8454 230.896C78.6486 237.119 105.682 243.566 105.682 243.566C105.682 243.566 99.0576 213.911 93.2544 207.688C91.8759 206.196 90.244 205.019 88.4522 204.225C86.6605 203.432 84.7444 203.036 82.8138 203.062C80.8833 203.088 78.9764 203.535 77.2027 204.377C75.4291 205.219 73.8236 206.439 72.4785 207.967C71.1334 209.496 70.0752 211.303 69.3647 213.284C68.6542 215.266 68.3055 217.382 68.3384 219.513C68.3713 221.643 68.7853 223.746 69.5566 225.699C70.3279 227.653 71.4413 229.419 72.8328 230.896H72.8454Z" fill="#6C63FF"/>
<path d="M57.5263 305.719C64.7565 309.74 92.3135 306.96 92.3135 306.96C92.3135 306.96 77.9541 280.852 70.7239 276.831C69.0052 275.875 67.1328 275.301 65.2134 275.143C63.294 274.986 61.3651 275.247 59.5372 275.912C57.7092 276.577 56.0177 277.633 54.5595 279.019C53.1012 280.405 51.9046 282.095 51.038 283.992C50.1714 285.889 49.6519 287.956 49.509 290.074C49.3661 292.192 49.6026 294.321 50.2051 296.339C50.8076 298.356 51.7642 300.223 53.0204 301.833C54.2766 303.442 55.8077 304.763 57.5263 305.719Z" fill="#6C63FF"/>
<path d="M51.6284 380.703C58.1388 386.013 85.7274 388.418 85.7274 388.418C85.7274 388.418 75.5735 360.004 69.0631 354.693C67.5175 353.401 65.7552 352.461 63.878 351.927C62.0009 351.392 60.0464 351.274 58.1276 351.579C56.2088 351.883 54.3638 352.605 52.6996 353.703C51.0353 354.8 49.5849 356.251 48.4322 357.971C47.2795 359.691 46.4475 361.647 45.9843 363.725C45.5211 365.802 45.436 367.961 45.7338 370.075C46.0317 372.189 46.7066 374.217 47.7195 376.041C48.7324 377.866 50.0632 379.45 51.6348 380.703H51.6284Z" fill="#6C63FF"/>
<path opacity="0.1" d="M176.551 400.628C157.718 400.628 142.452 394.637 142.452 387.247C142.452 379.857 157.718 373.866 176.551 373.866C195.383 373.866 210.65 379.857 210.65 387.247C210.65 394.637 195.383 400.628 176.551 400.628Z" fill="black"/>
<path d="M177.933 389.15C177.933 389.15 168.821 355 179.645 329.861C184.246 319.349 185.633 307.474 183.598 296.018C182.592 290.588 181.138 285.271 179.253 280.135" stroke="#535461" stroke-width="1.39274" stroke-miterlimit="10"/>
<path d="M185.991 264.244C185.991 268.426 179.127 280.567 179.127 280.567C179.127 280.567 172.263 268.426 172.263 264.244C172.263 262.234 172.987 260.306 174.274 258.885C175.562 257.464 177.309 256.665 179.13 256.665C180.951 256.665 182.698 257.464 183.986 258.885C185.274 260.306 185.997 262.234 185.997 264.244H185.991Z" fill="#6C63FF"/>
<path d="M197.338 287.424C195.28 290.909 183.534 297.007 183.534 297.007C183.534 297.007 183.749 282.699 185.808 279.187C186.298 278.351 186.932 277.63 187.675 277.065C188.417 276.5 189.253 276.102 190.135 275.894C191.017 275.685 191.928 275.671 192.815 275.851C193.702 276.031 194.548 276.402 195.305 276.943C196.062 277.483 196.715 278.184 197.227 279.003C197.739 279.823 198.1 280.745 198.289 281.719C198.477 282.692 198.491 283.697 198.328 284.676C198.165 285.655 197.828 286.589 197.338 287.424Z" fill="#6C63FF"/>
<path d="M196.846 327.045C193.461 328.927 180.548 327.631 180.548 327.631C180.548 327.631 187.273 315.4 190.651 313.511C191.456 313.063 192.334 312.794 193.233 312.721C194.132 312.647 195.036 312.769 195.892 313.081C197.622 313.71 199.054 315.072 199.874 316.867C200.693 318.661 200.834 320.742 200.264 322.651C199.693 324.56 198.459 326.141 196.833 327.045H196.846Z" fill="#6C63FF"/>
<path d="M190.354 356.93C187.304 359.418 174.378 360.547 174.378 360.547C174.378 360.547 179.14 347.236 182.183 344.748C182.908 344.156 183.732 343.728 184.607 343.487C185.482 343.247 186.392 343.199 187.284 343.347C188.176 343.494 189.032 343.834 189.805 344.347C190.578 344.86 191.252 345.536 191.788 346.337C192.324 347.137 192.712 348.046 192.93 349.012C193.148 349.978 193.191 350.982 193.057 351.966C192.923 352.95 192.615 353.896 192.151 354.749C191.686 355.602 191.073 356.345 190.348 356.937L190.354 356.93Z" fill="#6C63FF"/>
<path d="M169.118 297.823C171.84 300.736 184.513 303.761 184.513 303.761C184.513 303.761 181.407 289.864 178.691 286.951C177.385 285.55 175.628 284.78 173.808 284.81C171.987 284.839 170.251 285.666 168.983 287.107C167.714 288.549 167.016 290.488 167.043 292.498C167.069 294.507 167.818 296.423 169.125 297.823H169.118Z" fill="#6C63FF"/>
<path d="M161.926 332.879C165.311 334.761 178.224 333.464 178.224 333.464C178.224 333.464 171.499 321.233 168.121 319.344C166.494 318.439 164.609 318.285 162.88 318.914C161.15 319.543 159.718 320.905 158.898 322.7C158.078 324.495 157.938 326.576 158.508 328.484C159.078 330.393 160.312 331.974 161.939 332.879H161.926Z" fill="#6C63FF"/>
<path d="M159.192 367.984C162.242 370.472 175.168 371.601 175.168 371.601C175.168 371.601 170.406 358.289 167.363 355.801C166.638 355.209 165.815 354.78 164.94 354.539C164.065 354.298 163.155 354.25 162.264 354.397C161.372 354.544 160.515 354.883 159.742 355.395C158.969 355.908 158.295 356.583 157.758 357.383C157.222 358.183 156.833 359.092 156.615 360.057C156.396 361.023 156.353 362.027 156.486 363.011C156.619 363.995 156.926 364.941 157.39 365.794C157.855 366.648 158.467 367.391 159.192 367.984Z" fill="#6C63FF"/>
<path d="M1.18713 457.087L196.713 342.615H237.714L227.106 245.155C226.873 243.022 227.029 240.859 227.564 238.793C228.098 236.727 229.001 234.799 230.218 233.123C231.436 231.446 232.945 230.055 234.656 229.03C236.367 228.005 238.246 227.367 240.183 227.153L241.282 227.202H241.389L390.547 229.704C394.365 229.406 398.155 230.62 401.235 233.127C404.316 235.634 406.486 239.271 407.357 243.385L414.303 299.391L415.307 297.697L415.793 296.882C412.124 294.248 419.361 278.587 425.492 266.914L426.048 265.854C422.158 264.063 417.839 262.37 417.839 262.37L427.405 255.776C427.405 255.776 436.208 241.712 445.579 230.303C439.264 186.661 452.601 136.217 452.759 135.52L453.112 135.624C451.261 132.316 450.285 128.501 450.296 124.613C450.295 121.651 450.864 118.722 451.966 116.021C453.067 113.32 454.676 110.908 456.686 108.945C457.059 105.21 457.596 101.363 458.366 97.3135C458.505 96.6166 458.65 95.843 458.808 95.1043C459.528 91.6196 460.254 88.1349 461.208 84.7199C461.869 82.2852 462.69 79.907 463.664 77.6041C468.646 65.9862 478.895 57.6786 490.122 54.7515C495.9 53.2461 501.823 55.5808 507.216 54.4657C509.931 53.9152 512.362 51.0368 515.008 49.8729C518.361 48.3954 521.992 47.7054 525.541 47.0852C529.961 46.2697 534.552 45.4613 538.953 46.5206C546.215 48.263 551.753 54.7585 555.826 61.6163C559.899 68.4742 563.063 76.0708 568.095 82.1063C571.461 86.1486 575.603 89.3963 578.603 93.7731C583.023 100.213 584.558 108.409 585.978 116.368C587.734 126.16 589.489 136.091 589.451 146.037C589.451 148.343 589.42 150.657 589.237 152.971C588.776 158.909 587.551 164.763 587.26 170.708C587.26 171.349 587.216 171.991 587.203 172.632C587.267 183.511 590.178 194.237 593.07 204.691C593.992 208.015 594.926 211.368 596.019 214.643C601.828 215.187 607.385 216.469 611.622 218.992C627.106 228.136 639.021 248.528 639.021 248.528L661.672 271.527C661.672 271.527 652.73 276.134 648.556 284.03C648.407 284.309 648.236 284.572 648.045 284.818L648.373 285.654L661.672 319.553C661.672 319.553 653.324 326.132 640.834 324.815C638.804 324.535 636.743 324.701 634.772 325.303C634.772 325.721 634.809 326.146 634.822 326.592C635.586 345.988 635.99 388.488 626.897 417.194L647.445 443.678L688.49 457.094L690.277 491.941H-0.00634766L1.18713 457.087ZM593.177 327.143C591.417 327.539 589.7 328.142 588.056 328.941V353.167C589.142 344.608 590.651 335.841 592.754 328.551C592.887 328.077 593.007 327.61 593.177 327.143ZM474.658 373.761C474.658 373.678 474.658 373.594 474.658 373.51C474.633 372.665 474.529 371.824 474.348 371.001C474.092 369.726 473.522 368.554 472.7 367.614C471.178 365.935 469.606 364.13 468.034 362.171C467.066 364.929 465.668 367.479 463.904 369.705C461.883 372.193 457.368 374.43 451.029 376.451C458.858 375.111 466.745 374.213 474.658 373.761ZM423.124 370.416L443.76 377.155C453.516 374.744 460.456 371.984 463.026 368.792C464.824 366.504 466.22 363.866 467.143 361.014C459.781 351.592 452.62 338.914 450.978 321.602C450.934 321.149 450.902 320.682 450.864 320.208C448.626 318.804 446.511 317.171 444.55 315.33L444.177 316.292C438.629 330.216 430.781 342.879 421.034 353.634L423.124 370.416ZM453.712 136.642C452.089 143.102 441.083 188.843 446.602 229.063C450.037 224.979 453.504 221.327 456.611 218.922C457.346 218.36 458.117 217.855 458.915 217.41C459.604 210.036 459.92 202.391 459.97 194.815C459.907 185.434 459.402 176.13 458.707 167.279C457.956 157.898 457.072 148.95 456.522 140.147C455.47 139.098 454.528 137.922 453.712 136.642Z" fill="url(#paint0_linear)"/>
<path d="M463.784 147.904H469.17V106.785H463.784C459.671 106.785 455.726 108.588 452.818 111.798C449.909 115.008 448.275 119.362 448.275 123.902V130.746C448.27 132.997 448.668 135.227 449.445 137.309C450.222 139.39 451.364 141.282 452.804 142.876C454.245 144.47 455.956 145.735 457.84 146.597C459.724 147.46 461.744 147.904 463.784 147.904Z" fill="#DFE6F5"/>
<path d="M469.934 147.904H468.406C466.303 147.904 464.599 146.023 464.599 143.702V111.022C464.599 108.701 466.303 106.82 468.406 106.82H469.934C472.037 106.82 473.742 108.701 473.742 111.022V143.702C473.742 146.023 472.037 147.904 469.934 147.904Z" fill="#535461"/>
<g opacity="0.1">
<path opacity="0.1" d="M463.784 147.904H469.17V106.785H463.784C459.671 106.785 455.726 108.588 452.818 111.798C449.909 115.008 448.275 119.362 448.275 123.902V130.746C448.27 132.997 448.668 135.227 449.445 137.309C450.222 139.39 451.364 141.282 452.804 142.876C454.245 144.47 455.956 145.735 457.84 146.597C459.724 147.46 461.744 147.904 463.784 147.904Z" fill="black"/>
<path opacity="0.1" d="M469.934 147.904H468.406C466.303 147.904 464.599 146.023 464.599 143.702V111.022C464.599 108.701 466.303 106.82 468.406 106.82H469.934C472.037 106.82 473.742 108.701 473.742 111.022V143.702C473.742 146.023 472.037 147.904 469.934 147.904Z" fill="black"/>
</g>
<path d="M461.22 128.55H555.365V236.332H461.22V128.55Z" fill="#865A61"/>
<path opacity="0.1" d="M461.22 113.706H555.365V221.487H461.22V113.706Z" fill="black"/>
<path d="M464.434 217.94L470.118 263.519L472.795 284.943L473.78 292.812L482.033 310.57L497.188 343.159L526.425 347.034L577.851 266.99C577.851 266.99 604.777 210.197 563.839 215.354C540.886 218.253 535.423 195.575 535.013 175.092C534.91 164.779 535.756 154.481 537.539 144.357L496.607 166.303C497.559 171.196 498.274 175.691 498.754 179.789C500.75 196.558 499.095 207.012 495.635 213.347C486.422 230.22 464.434 217.94 464.434 217.94Z" fill="#FDC2CC"/>
<path opacity="0.1" d="M496.595 166.31C497.546 171.203 498.262 175.698 498.742 179.796C502.989 181.13 507.384 181.806 511.801 181.803C519.932 181.818 527.929 179.511 535.013 175.106C534.91 164.793 535.756 154.495 537.539 144.371L496.595 166.31Z" fill="black"/>
<path d="M511.8 180.507C485.641 180.507 464.434 157.102 464.434 128.23C464.434 99.3578 485.641 75.9524 511.8 75.9524C537.96 75.9524 559.166 99.3578 559.166 128.23C559.166 157.102 537.96 180.507 511.8 180.507Z" fill="#FDC2CC"/>
<path d="M448.642 425.76L643.372 442.556L611.799 401.897C577.921 379.051 578.211 347.647 582.714 328.168C584.111 321.925 586.222 315.904 588.997 310.249L521.689 310.598H521.121L515.589 324.474L515.337 325.101L511.22 335.423L497.188 307.671L492.307 298.987L489.579 294.108C489.579 294.108 449.229 283.78 448.648 310.242C448.578 313.281 448.686 316.321 448.97 319.344C450.978 340.643 461.536 354.805 470.282 364.457C480.221 375.42 448.642 425.76 448.642 425.76Z" fill="#EC7580"/>
<path d="M471.898 369.057C473.325 375.329 469.726 386.111 464.952 396.698C487.843 399.416 512.943 398.001 512.943 398.001L538.701 405.751L611.205 428.987C614.363 424.477 616.888 418.811 618.979 412.427L611.793 403.172C589.18 387.923 581.792 368.862 580.712 352.079C580.282 344.463 580.956 336.819 582.707 329.436C584.104 323.198 586.213 317.182 588.984 311.532L521.677 311.88H521.108L515.577 325.756L515.324 326.383L511.207 336.705L497.176 308.953L492.307 300.269L489.579 295.39C489.579 295.39 449.229 285.048 448.642 311.532C448.572 314.57 448.679 317.61 448.964 320.634C450.972 341.932 461.53 356.094 470.275 365.746C471.081 366.665 471.643 367.81 471.898 369.057Z" fill="#EC7580"/>
<path d="M319.994 402.524C321.162 418.01 355.078 397.36 355.078 397.36C355.078 397.36 365.604 393.485 401.276 368.318C419.386 355.544 433.667 337.141 442.321 315.428C443.685 312.071 444.827 308.61 445.737 305.071L421.16 285.048L413.993 297.14L390.168 337.318L355.084 363.105C355.084 363.105 318.825 387.038 319.994 402.524Z" fill="#FDC2CC"/>
<path d="M7.7356 453.512H681.967L614.47 431.468L445.731 376.354L338.129 341.207H199.536L7.7356 453.512Z" fill="#CBCDDA"/>
<path d="M681.967 453.512L683.723 487.718H6.56711L7.73538 453.512H681.967Z" fill="#CBCDDA"/>
<path opacity="0.1" d="M681.967 453.512L683.723 487.718H6.56711L7.73538 453.512H681.967Z" fill="black"/>
<path d="M505.202 405.137L362.687 388.975L360.931 419.954L426.073 427.084C430.567 427.487 435.09 427.099 439.473 425.934L505.322 407.159C505.532 407.098 505.716 406.958 505.843 406.764C505.97 406.57 506.031 406.332 506.017 406.093C506.003 405.854 505.914 405.628 505.765 405.454C505.616 405.279 505.417 405.167 505.202 405.137Z" fill="#535461"/>
<path opacity="0.2" d="M505.202 405.137L362.687 388.975L360.931 419.954L426.073 427.084C430.567 427.487 435.09 427.099 439.473 425.934L505.322 407.159C505.532 407.098 505.716 406.958 505.843 406.764C505.97 406.57 506.031 406.332 506.017 406.093C506.003 405.854 505.914 405.628 505.765 405.454C505.616 405.279 505.417 405.167 505.202 405.137Z" fill="black"/>
<path d="M505.202 404.489L361.512 388.327L359.757 419.306L424.905 425.133C429.395 425.541 433.916 425.16 438.298 424.004L505.322 406.517C505.536 406.46 505.724 406.322 505.855 406.126C505.985 405.93 506.049 405.69 506.034 405.448C506.02 405.205 505.929 404.976 505.776 404.801C505.624 404.626 505.42 404.515 505.202 404.489Z" fill="#535461"/>
<path opacity="0.3" d="M471.134 405.618L395.157 397.074L394.228 413.452L428.675 416.539C431.051 416.753 433.442 416.548 435.76 415.933L471.197 406.685C471.309 406.653 471.407 406.58 471.474 406.477C471.541 406.375 471.574 406.249 471.567 406.123C471.559 405.996 471.512 405.876 471.433 405.784C471.354 405.692 471.248 405.634 471.134 405.618Z" fill="white"/>
<path opacity="0.1" d="M413.993 297.154C414.454 297.851 415.256 298.164 416.481 297.969C428.176 296.032 441.626 314.751 441.626 314.751C441.626 314.751 441.866 315.002 442.302 315.448C443.666 312.092 444.808 308.631 445.718 305.092L421.16 285.048L413.993 297.154Z" fill="black"/>
<path opacity="0.1" d="M448.964 320.592C454.464 323.972 462.035 326.397 467.939 319.895C478.137 308.639 496.014 310.138 497.125 310.207C495.3 309.929 493.684 305.789 492.307 300.241L489.579 295.363C489.579 295.363 449.229 285.048 448.642 311.532C448.573 314.556 448.681 317.582 448.964 320.592Z" fill="black"/>
<path opacity="0.1" d="M470.13 263.52L473.793 292.791L482.046 310.549C487.161 309.103 492.45 308.555 497.719 308.925C491.903 308.04 488.146 267.931 488.146 267.931L487.811 267.848L470.13 263.52Z" fill="black"/>
<path d="M416.481 296.68C428.176 294.742 441.626 313.462 441.626 313.462C441.626 313.462 457.413 330.244 467.939 318.626C478.137 307.371 496.014 308.869 497.125 308.939C491.31 308.047 487.552 267.938 487.552 267.938L487.218 267.854L431.1 254.083C431.1 254.083 427.753 259.742 423.977 266.948C417.163 279.932 408.954 297.927 416.481 296.68Z" fill="#EC7580"/>
<path opacity="0.1" d="M430.519 270.865C429.931 272.155 439.877 278.608 444.55 276.671C449.223 274.733 460.924 285.034 462.092 286.351C463.26 287.668 489.573 284.414 489.573 284.414C488.481 278.952 487.695 273.422 487.218 267.854L431.1 254.083C431.1 254.083 427.753 259.742 423.977 266.948C427.469 268.53 430.803 270.231 430.519 270.865Z" fill="black"/>
<path opacity="0.1" d="M464.434 217.94L470.118 263.519L472.795 284.943C480.638 284.295 490.148 283.131 490.148 283.131C490.148 283.131 480.208 237.308 496.582 213.437C496.582 213.437 496.235 213.437 495.61 213.368C486.422 230.22 464.434 217.94 464.434 217.94Z" fill="black"/>
<path d="M496.008 213.424C496.008 213.424 466.184 210.845 454.489 219.877C442.794 228.91 425.833 256.02 425.833 256.02L416.475 262.474C416.475 262.474 431.093 268.28 430.506 269.576C429.919 270.872 439.864 277.319 444.537 275.381C449.21 273.444 460.911 283.745 462.079 285.062C463.247 286.379 489.56 283.124 489.56 283.124C489.56 283.124 479.634 237.301 496.008 213.424Z" fill="#EC7580"/>
<path d="M280.54 391.226C287.309 391.045 446.457 386.487 461.65 367.782C477.828 347.863 462.123 290.47 448.9 249.03C434.509 203.917 451.666 139.137 451.837 138.398L450.706 138.071C450.53 138.816 433.284 203.973 447.795 249.455C468.362 313.929 472.612 352.351 460.778 366.917C445.914 385.212 282.163 389.916 280.508 389.916L280.54 391.226Z" fill="#DFE6F5"/>
<path d="M390.566 230.415L243.347 227.948C241.449 228.161 239.609 228.79 237.934 229.797C236.258 230.805 234.782 232.17 233.59 233.815C232.399 235.459 231.516 237.348 230.993 239.373C230.471 241.398 230.319 243.518 230.547 245.608L247.249 399.074C247.648 402.761 249.208 406.176 251.656 408.724C254.104 411.271 257.284 412.789 260.642 413.013L411.114 423.293C413.244 423.434 415.376 423.049 417.355 422.166C419.334 421.283 421.11 419.924 422.553 418.188C423.996 416.453 425.07 414.384 425.698 412.132C426.325 409.881 426.49 407.503 426.18 405.172L406.201 243.887C405.665 239.853 403.741 236.201 400.83 233.692C397.918 231.183 394.242 230.01 390.566 230.415Z" fill="#535461"/>
<path opacity="0.2" d="M390.566 230.415L243.347 227.948C241.449 228.161 239.609 228.79 237.934 229.797C236.258 230.805 234.782 232.17 233.59 233.815C232.399 235.459 231.516 237.348 230.993 239.373C230.471 241.398 230.319 243.518 230.547 245.608L247.249 399.074C247.648 402.761 249.208 406.176 251.656 408.724C254.104 411.271 257.284 412.789 260.642 413.013L411.114 423.293C413.244 423.434 415.376 423.049 417.355 422.166C419.334 421.283 421.11 419.924 422.553 418.188C423.996 416.453 425.07 414.384 425.698 412.132C426.325 409.881 426.49 407.503 426.18 405.172L406.201 243.887C405.665 239.853 403.741 236.201 400.83 233.692C397.918 231.183 394.242 230.01 390.566 230.415Z" fill="black"/>
<path d="M389.398 230.415L242.178 227.948C240.278 228.158 238.435 228.784 236.757 229.79C235.079 230.796 233.6 232.161 232.406 233.805C231.211 235.45 230.326 237.341 229.802 239.367C229.278 241.394 229.126 243.516 229.353 245.608L246.056 399.074C246.455 402.761 248.015 406.176 250.462 408.724C252.91 411.271 256.091 412.789 259.449 413.013L409.939 423.293C412.07 423.434 414.202 423.049 416.181 422.166C418.16 421.283 419.935 419.924 421.378 418.188C422.821 416.453 423.896 414.384 424.523 412.132C425.151 409.881 425.316 407.503 425.006 405.172L405.026 243.887C404.491 239.854 402.568 236.204 399.657 233.695C396.747 231.186 393.073 230.011 389.398 230.415Z" fill="#535461"/>
<path opacity="0.3" d="M317.367 325.394C313.492 325.394 310.351 321.927 310.351 317.651C310.351 313.374 313.492 309.908 317.367 309.908C321.241 309.908 324.382 313.374 324.382 317.651C324.382 321.927 321.241 325.394 317.367 325.394Z" fill="white"/>
<path opacity="0.1" d="M464.952 396.704C487.843 399.423 512.943 398.008 512.943 398.008L538.701 405.751L611.205 428.987C614.363 424.477 616.888 418.811 618.979 412.427L611.793 403.172C589.18 387.923 581.792 368.862 580.712 352.079C578.78 368.771 578.458 383.804 578.458 383.804L549.221 380.577L506.742 369.426C503.817 368.658 500.82 368.272 497.814 368.276C492.282 368.276 482.437 368.409 471.924 369.036C473.325 375.315 469.726 386.104 464.952 396.704Z" fill="black"/>
<path opacity="0.1" d="M432.855 388.327C446.305 405.751 515.305 401.883 515.305 401.883L541.037 409.626L613.548 432.855C613.864 432.402 614.179 431.942 614.47 431.461L445.724 376.347C434.951 378.744 428.34 382.48 432.855 388.327Z" fill="black"/>
<path d="M432.855 387.038C446.305 404.461 515.305 400.593 515.305 400.593L541.037 408.329L613.548 431.565C630.597 407.173 630.219 349.041 629.29 325.526C629.038 319.212 628.754 315.393 628.754 315.393C628.754 315.393 604.196 298.61 593.082 315.393C591.099 318.383 589.439 322.564 588.031 327.415C581.583 349.78 580.794 386.383 580.794 386.383L551.557 383.156L509.079 372.005C506.152 371.236 503.153 370.85 500.144 370.855C482.538 370.911 421.312 372.082 432.855 387.038Z" fill="#FDC2CC"/>
<path opacity="0.1" d="M588.037 327.422C591.769 326.53 596.296 326.725 602.434 329.596C614.716 335.402 624.068 334.112 624.068 334.112C624.068 334.112 623.317 327.526 629.284 325.526C629.031 319.212 628.747 315.393 628.747 315.393C628.747 315.393 604.19 298.61 593.076 315.393C591.112 318.383 589.439 322.564 588.037 327.422Z" fill="black"/>
<path opacity="0.1" d="M515.337 326.369C515.728 326.46 520.988 327.554 531.123 325.073C541.65 322.494 545.742 327.652 551.589 330.237C557.436 332.823 572.61 334.112 578.483 331.534C579.866 330.92 581.255 330.14 582.726 329.443C584.116 323.204 586.219 317.185 588.984 311.532L521.677 311.88L515.577 325.756L515.337 326.369Z" fill="black"/>
<path d="M515.337 325.08C515.337 325.08 520.597 326.369 531.123 323.791C541.65 321.212 545.742 326.369 551.589 328.955C557.436 331.541 572.642 332.83 578.489 330.244C584.337 327.659 590.184 322.501 602.485 328.307C614.786 334.112 624.119 332.823 624.119 332.823C624.119 332.823 622.95 322.494 635.226 323.763C647.502 325.031 655.692 318.599 655.692 318.599L642.646 285.341L638.731 275.354L540.892 267.973H540.425L515.337 325.08Z" fill="#EC7580"/>
<path opacity="0.1" d="M531.123 294.108C537.558 282.49 571.474 292.819 571.474 292.819C571.474 292.819 587.847 297.983 591.358 288.303C594.869 278.622 619.976 285.048 619.976 285.048C619.976 285.048 638.194 292.589 642.602 285.355L638.687 275.367L540.892 267.973L531.123 294.108Z" fill="black"/>
<path d="M559.166 217.94C559.166 217.94 591.327 210.838 606.526 219.877C621.725 228.916 633.42 248.919 633.42 248.919L655.648 271.506C655.648 271.506 646.877 276.023 642.785 283.766C638.693 291.509 619.976 283.766 619.976 283.766C619.976 283.766 594.831 277.312 591.321 286.992C587.81 296.673 571.436 291.509 571.436 291.509C571.436 291.509 537.52 281.18 531.085 292.798L559.166 217.94Z" fill="#EC7580"/>
<path opacity="0.1" d="M522.093 52.5701C526.45 51.7616 530.934 50.9741 535.253 52.0125C542.376 53.72 547.806 60.097 551.804 66.8155C555.801 73.534 558.908 80.9912 563.839 86.9082C567.142 90.8738 571.202 94.0588 574.145 98.352C578.477 104.673 579.986 112.737 581.381 120.515C583.427 131.93 585.48 143.514 584.577 155.132C584.122 160.958 582.922 166.694 582.638 172.555C582.063 184.326 585.214 195.882 588.321 207.158C590.474 214.95 592.697 222.888 596.953 229.544C599.776 233.955 603.394 237.649 606.842 241.475C607.674 242.256 608.3 243.269 608.654 244.409C609.399 247.741 605.756 249.985 602.971 251.49C594.453 256.181 588.864 265.332 582.24 272.872C575.616 280.413 566.138 286.888 557.026 283.863C554.323 282.964 551.759 281.257 548.943 281.312C547.049 281.347 545.23 282.197 543.43 282.894C538.953 284.629 534.239 285.502 529.494 285.473C528.446 285.572 527.394 285.329 526.469 284.776C525.061 283.724 524.79 281.605 524.651 279.737C523.76 268.015 522.876 256.25 523.476 244.507C524.834 217.912 547.099 187.149 538.631 162.192C534.95 151.305 528.218 141.939 524.493 131.073C520.565 119.623 506.717 110.325 503.97 98.4565C503.661 97.1184 503.238 95.6688 502.177 94.9718C500.718 93.9822 498.818 94.8464 497.409 95.9197C489.44 101.983 486.845 113.385 483.947 123.574C481.611 131.781 478.717 139.781 475.289 147.507C473.395 151.689 469.328 156.532 465.767 153.996C467.56 171.614 477.916 187.003 480.259 204.538C482.545 221.626 477.007 239.092 479.154 256.195C480.567 267.206 485.085 277.447 492.067 285.466C484.188 287.194 476.085 287.274 468.179 285.703C460.166 284.107 451.591 279.918 448.698 271.513C445.541 262.265 450.422 252.341 452.904 242.834C458.859 219.982 458.398 192.954 456.51 169.265C454.565 144.907 451.647 123.581 456.592 99.7459C457.804 93.8985 459.035 88.0024 461.359 82.5803C466.247 71.1853 476.3 63.0311 487.319 60.1597C493.002 58.6822 498.799 60.9752 504.09 59.8879C506.755 59.3373 509.142 56.5217 511.731 55.3787C515.053 53.8803 518.614 53.2113 522.093 52.5701Z" fill="black"/>
<path d="M448.73 270.175C451.622 278.58 460.197 282.769 468.217 284.365C476.123 285.933 484.226 285.852 492.105 284.128C485.125 276.107 480.608 265.867 479.192 254.857C477.038 237.747 482.576 220.281 480.297 203.199C477.954 185.658 467.598 170.269 465.805 152.65C469.366 155.187 473.464 150.365 475.333 146.162C478.76 138.436 481.654 130.435 483.991 122.229C486.889 112.04 489.485 100.624 497.454 94.5746C498.862 93.5013 500.763 92.6371 502.221 93.6337C503.288 94.3307 503.705 95.8012 504.015 97.1184C506.755 108.966 520.609 118.277 524.531 129.728C528.263 140.593 534.994 149.939 538.676 160.847C547.112 185.797 524.846 216.56 523.52 243.155C522.927 254.898 523.811 266.67 524.695 278.385C524.84 280.26 525.112 282.379 526.52 283.431C527.443 283.984 528.492 284.226 529.538 284.128C534.27 284.159 538.972 283.292 543.437 281.563C545.236 280.866 547.042 280.016 548.949 279.981C551.766 279.932 554.329 281.64 557.032 282.532C566.144 285.557 575.629 279.082 582.246 271.541C588.864 264 594.472 254.864 602.984 250.201C605.768 248.668 609.412 246.451 608.667 243.113C608.31 241.977 607.684 240.966 606.855 240.186C603.407 236.36 599.782 232.659 596.96 228.254C592.703 221.599 590.487 213.661 588.327 205.869C585.208 194.592 582.057 183.037 582.644 171.266C582.922 165.432 584.122 159.697 584.583 153.842C585.492 142.245 583.434 130.648 581.388 119.232C579.998 111.454 578.489 103.391 574.151 97.0696C571.202 92.7765 567.148 89.5915 563.839 85.6259C558.901 79.7089 555.807 72.2516 551.804 65.5262C547.8 58.8007 542.37 52.4307 535.247 50.7232C530.934 49.6848 526.444 50.4793 522.087 51.2807C518.608 51.9289 515.046 52.598 511.756 54.0685C509.161 55.2115 506.774 58.0341 504.116 58.5707C498.824 59.6649 493.008 57.372 487.344 58.8495C476.325 61.7139 466.272 69.8681 461.384 81.2631C460.428 83.5185 459.622 85.8478 458.972 88.2324C458.038 91.5778 457.324 94.9997 456.617 98.4147C456.465 99.1117 456.32 99.8644 456.181 100.582C451.856 123.275 454.647 139.799 456.535 163.404C458.423 187.01 458.884 218.637 452.936 241.461C450.454 250.996 445.547 260.927 448.73 270.175Z" fill="#865A61"/>
<path opacity="0.05" d="M516.183 311.204C516.183 311.204 511.504 319.567 511.504 325.401C511.504 325.401 507.993 311.204 505.069 311.204" fill="black"/>
<path d="M527.296 313.135V355.731C527.287 362.689 529.41 369.446 533.321 374.904C533.989 375.835 534.703 376.724 535.461 377.567C538.069 380.458 541.169 382.752 544.582 384.317C547.996 385.883 551.656 386.688 555.352 386.688C559.049 386.688 562.709 385.883 566.122 384.317C569.536 382.752 572.635 380.458 575.243 377.567C576.001 376.724 576.716 375.835 577.384 374.904C581.294 369.446 583.417 362.689 583.408 355.731V313.135C583.422 305.896 581.126 298.884 576.923 293.328C576.177 292.341 575.373 291.41 574.517 290.54C569.319 285.161 562.462 282.168 555.337 282.168C548.212 282.168 541.354 285.161 536.156 290.54C535.929 290.763 535.708 291.007 535.487 291.237C534.855 291.934 534.306 292.631 533.75 293.328C529.559 298.889 527.274 305.901 527.296 313.135Z" fill="#DFE6F5"/>
<path opacity="0.1" d="M527.296 313.135V355.731C527.287 362.689 529.41 369.446 533.321 374.904C533.989 375.835 534.703 376.724 535.461 377.567C538.069 380.458 541.169 382.752 544.582 384.317C547.996 385.883 551.656 386.688 555.352 386.688C559.049 386.688 562.709 385.883 566.122 384.317C569.536 382.752 572.635 380.458 575.243 377.567C576.001 376.724 576.716 375.835 577.384 374.904C581.294 369.446 583.417 362.689 583.408 355.731V313.135C583.422 305.896 581.126 298.884 576.923 293.328C576.177 292.341 575.373 291.41 574.517 290.54C569.319 285.161 562.462 282.168 555.337 282.168C548.212 282.168 541.354 285.161 536.156 290.54C535.929 290.763 535.708 291.007 535.487 291.237C534.855 291.934 534.306 292.631 533.75 293.328C529.559 298.889 527.274 305.901 527.296 313.135Z" fill="black"/>
<path d="M526.122 313.135V355.731C526.113 362.689 528.236 369.446 532.146 374.904C532.814 375.835 533.529 376.724 534.287 377.567C536.895 380.458 539.995 382.752 543.408 384.317C546.821 385.883 550.481 386.688 554.178 386.688C557.874 386.688 561.534 385.883 564.948 384.317C568.361 382.752 571.461 380.458 574.069 377.567C574.827 376.724 575.542 375.835 576.21 374.904C580.133 369.452 582.27 362.694 582.272 355.731V313.135C582.285 305.896 579.989 298.884 575.787 293.328C575.041 292.341 574.237 291.41 573.381 290.54C568.183 285.161 561.325 282.168 554.2 282.168C547.075 282.168 540.217 285.161 535.019 290.54C534.792 290.763 534.571 291.007 534.35 291.237C533.718 291.934 533.169 292.631 532.613 293.328C528.409 298.883 526.11 305.896 526.122 313.135Z" fill="#DFE6F5"/>
<path opacity="0.1" d="M566.479 293.774C565.509 293.774 564.723 292.906 564.723 291.836C564.723 290.766 565.509 289.899 566.479 289.899C567.448 289.899 568.234 290.766 568.234 291.836C568.234 292.906 567.448 293.774 566.479 293.774Z" fill="black"/>
<path opacity="0.1" d="M566.479 300.227C565.509 300.227 564.723 299.36 564.723 298.29C564.723 297.22 565.509 296.352 566.479 296.352C567.448 296.352 568.234 297.22 568.234 298.29C568.234 299.36 567.448 300.227 566.479 300.227Z" fill="black"/>
<path opacity="0.1" d="M566.479 306.681C565.509 306.681 564.723 305.813 564.723 304.743C564.723 303.673 565.509 302.806 566.479 302.806C567.448 302.806 568.234 303.673 568.234 304.743C568.234 305.813 567.448 306.681 566.479 306.681Z" fill="black"/>
<path opacity="0.1" d="M566.479 313.135C565.509 313.135 564.723 312.267 564.723 311.197C564.723 310.127 565.509 309.26 566.479 309.26C567.448 309.26 568.234 310.127 568.234 311.197C568.234 312.267 567.448 313.135 566.479 313.135Z" fill="black"/>
<path opacity="0.1" d="M566.479 319.588C565.509 319.588 564.723 318.721 564.723 317.651C564.723 316.581 565.509 315.713 566.479 315.713C567.448 315.713 568.234 316.581 568.234 317.651C568.234 318.721 567.448 319.588 566.479 319.588Z" fill="black"/>
<path opacity="0.1" d="M566.479 326.042C565.509 326.042 564.723 325.174 564.723 324.104C564.723 323.034 565.509 322.167 566.479 322.167C567.448 322.167 568.234 323.034 568.234 324.104C568.234 325.174 567.448 326.042 566.479 326.042Z" fill="black"/>
<path opacity="0.1" d="M566.479 332.495C565.509 332.495 564.723 331.628 564.723 330.558C564.723 329.488 565.509 328.62 566.479 328.62C567.448 328.62 568.234 329.488 568.234 330.558C568.234 331.628 567.448 332.495 566.479 332.495Z" fill="black"/>
<path opacity="0.1" d="M566.479 338.956C565.509 338.956 564.723 338.089 564.723 337.019C564.723 335.949 565.509 335.081 566.479 335.081C567.448 335.081 568.234 335.949 568.234 337.019C568.234 338.089 567.448 338.956 566.479 338.956Z" fill="black"/>
<path opacity="0.1" d="M566.479 345.41C565.509 345.41 564.723 344.542 564.723 343.472C564.723 342.402 565.509 341.535 566.479 341.535C567.448 341.535 568.234 342.402 568.234 343.472C568.234 344.542 567.448 345.41 566.479 345.41Z" fill="black"/>
<path opacity="0.1" d="M566.479 351.863C565.509 351.863 564.723 350.996 564.723 349.926C564.723 348.856 565.509 347.988 566.479 347.988C567.448 347.988 568.234 348.856 568.234 349.926C568.234 350.996 567.448 351.863 566.479 351.863Z" fill="black"/>
<path opacity="0.1" d="M566.479 358.317C565.509 358.317 564.723 357.45 564.723 356.38C564.723 355.31 565.509 354.442 566.479 354.442C567.448 354.442 568.234 355.31 568.234 356.38C568.234 357.45 567.448 358.317 566.479 358.317Z" fill="black"/>
<path opacity="0.1" d="M566.479 364.771C565.509 364.771 564.723 363.903 564.723 362.833C564.723 361.763 565.509 360.896 566.479 360.896C567.448 360.896 568.234 361.763 568.234 362.833C568.234 363.903 567.448 364.771 566.479 364.771Z" fill="black"/>
<path opacity="0.1" d="M566.479 371.224C565.509 371.224 564.723 370.357 564.723 369.287C564.723 368.217 565.509 367.349 566.479 367.349C567.448 367.349 568.234 368.217 568.234 369.287C568.234 370.357 567.448 371.224 566.479 371.224Z" fill="black"/>
<path opacity="0.1" d="M566.479 377.678C565.509 377.678 564.723 376.811 564.723 375.741C564.723 374.671 565.509 373.803 566.479 373.803C567.448 373.803 568.234 374.671 568.234 375.741C568.234 376.811 567.448 377.678 566.479 377.678Z" fill="black"/>
<path opacity="0.1" d="M572.907 291.836C572.908 292.203 573.003 292.563 573.181 292.873C573.36 293.183 573.614 293.43 573.915 293.587C574.217 293.743 574.552 293.802 574.882 293.756C575.212 293.71 575.524 293.561 575.78 293.328C575.034 292.341 574.231 291.41 573.374 290.54C573.075 290.891 572.908 291.354 572.907 291.836Z" fill="black"/>
<path opacity="0.1" d="M574.663 300.227C573.693 300.227 572.907 299.36 572.907 298.29C572.907 297.22 573.693 296.352 574.663 296.352C575.632 296.352 576.418 297.22 576.418 298.29C576.418 299.36 575.632 300.227 574.663 300.227Z" fill="black"/>
<path opacity="0.1" d="M574.663 306.681C573.693 306.681 572.907 305.813 572.907 304.743C572.907 303.673 573.693 302.806 574.663 302.806C575.632 302.806 576.418 303.673 576.418 304.743C576.418 305.813 575.632 306.681 574.663 306.681Z" fill="black"/>
<path opacity="0.1" d="M574.663 313.135C573.693 313.135 572.907 312.267 572.907 311.197C572.907 310.127 573.693 309.26 574.663 309.26C575.632 309.26 576.418 310.127 576.418 311.197C576.418 312.267 575.632 313.135 574.663 313.135Z" fill="black"/>
<path opacity="0.1" d="M574.663 319.588C573.693 319.588 572.907 318.721 572.907 317.651C572.907 316.581 573.693 315.713 574.663 315.713C575.632 315.713 576.418 316.581 576.418 317.651C576.418 318.721 575.632 319.588 574.663 319.588Z" fill="black"/>
<path opacity="0.1" d="M574.663 326.042C573.693 326.042 572.907 325.174 572.907 324.104C572.907 323.034 573.693 322.167 574.663 322.167C575.632 322.167 576.418 323.034 576.418 324.104C576.418 325.174 575.632 326.042 574.663 326.042Z" fill="black"/>
<path opacity="0.1" d="M574.663 332.495C573.693 332.495 572.907 331.628 572.907 330.558C572.907 329.488 573.693 328.62 574.663 328.62C575.632 328.62 576.418 329.488 576.418 330.558C576.418 331.628 575.632 332.495 574.663 332.495Z" fill="black"/>
<path opacity="0.1" d="M574.663 338.956C573.693 338.956 572.907 338.089 572.907 337.019C572.907 335.949 573.693 335.081 574.663 335.081C575.632 335.081 576.418 335.949 576.418 337.019C576.418 338.089 575.632 338.956 574.663 338.956Z" fill="black"/>
<path opacity="0.1" d="M574.663 345.41C573.693 345.41 572.907 344.542 572.907 343.472C572.907 342.402 573.693 341.535 574.663 341.535C575.632 341.535 576.418 342.402 576.418 343.472C576.418 344.542 575.632 345.41 574.663 345.41Z" fill="black"/>
<path opacity="0.1" d="M574.663 351.863C573.693 351.863 572.907 350.996 572.907 349.926C572.907 348.856 573.693 347.988 574.663 347.988C575.632 347.988 576.418 348.856 576.418 349.926C576.418 350.996 575.632 351.863 574.663 351.863Z" fill="black"/>
<path opacity="0.1" d="M574.663 358.317C573.693 358.317 572.907 357.45 572.907 356.38C572.907 355.31 573.693 354.442 574.663 354.442C575.632 354.442 576.418 355.31 576.418 356.38C576.418 357.45 575.632 358.317 574.663 358.317Z" fill="black"/>
<path opacity="0.1" d="M574.663 364.771C573.693 364.771 572.907 363.903 572.907 362.833C572.907 361.763 573.693 360.896 574.663 360.896C575.632 360.896 576.418 361.763 576.418 362.833C576.418 363.903 575.632 364.771 574.663 364.771Z" fill="black"/>
<path opacity="0.1" d="M574.663 371.224C573.693 371.224 572.907 370.357 572.907 369.287C572.907 368.217 573.693 367.349 574.663 367.349C575.632 367.349 576.418 368.217 576.418 369.287C576.418 370.357 575.632 371.224 574.663 371.224Z" fill="black"/>
<path opacity="0.1" d="M572.907 375.741C572.907 376.146 573.022 376.541 573.236 376.87C573.45 377.199 573.753 377.445 574.101 377.574C574.859 376.731 575.573 375.842 576.241 374.911C576.072 374.512 575.785 374.189 575.427 373.995C575.069 373.801 574.661 373.748 574.272 373.844C573.882 373.941 573.535 374.182 573.287 374.527C573.038 374.872 572.904 375.3 572.907 375.741Z" fill="black"/>
<path opacity="0.1" d="M558.289 293.774C557.319 293.774 556.533 292.906 556.533 291.836C556.533 290.766 557.319 289.899 558.289 289.899C559.258 289.899 560.044 290.766 560.044 291.836C560.044 292.906 559.258 293.774 558.289 293.774Z" fill="black"/>
<path opacity="0.1" d="M558.289 300.227C557.319 300.227 556.533 299.36 556.533 298.29C556.533 297.22 557.319 296.352 558.289 296.352C559.258 296.352 560.044 297.22 560.044 298.29C560.044 299.36 559.258 300.227 558.289 300.227Z" fill="black"/>
<path opacity="0.1" d="M558.289 306.681C557.319 306.681 556.533 305.813 556.533 304.743C556.533 303.673 557.319 302.806 558.289 302.806C559.258 302.806 560.044 303.673 560.044 304.743C560.044 305.813 559.258 306.681 558.289 306.681Z" fill="black"/>
<path opacity="0.1" d="M558.289 313.135C557.319 313.135 556.533 312.267 556.533 311.197C556.533 310.127 557.319 309.26 558.289 309.26C559.258 309.26 560.044 310.127 560.044 311.197C560.044 312.267 559.258 313.135 558.289 313.135Z" fill="black"/>
<path opacity="0.1" d="M558.289 319.588C557.319 319.588 556.533 318.721 556.533 317.651C556.533 316.581 557.319 315.713 558.289 315.713C559.258 315.713 560.044 316.581 560.044 317.651C560.044 318.721 559.258 319.588 558.289 319.588Z" fill="black"/>
<path opacity="0.1" d="M558.289 326.042C557.319 326.042 556.533 325.174 556.533 324.104C556.533 323.034 557.319 322.167 558.289 322.167C559.258 322.167 560.044 323.034 560.044 324.104C560.044 325.174 559.258 326.042 558.289 326.042Z" fill="black"/>
<path opacity="0.1" d="M558.289 332.495C557.319 332.495 556.533 331.628 556.533 330.558C556.533 329.488 557.319 328.62 558.289 328.62C559.258 328.62 560.044 329.488 560.044 330.558C560.044 331.628 559.258 332.495 558.289 332.495Z" fill="black"/>
<path opacity="0.1" d="M558.289 338.956C557.319 338.956 556.533 338.089 556.533 337.019C556.533 335.949 557.319 335.081 558.289 335.081C559.258 335.081 560.044 335.949 560.044 337.019C560.044 338.089 559.258 338.956 558.289 338.956Z" fill="black"/>
<path opacity="0.1" d="M558.289 345.41C557.319 345.41 556.533 344.542 556.533 343.472C556.533 342.402 557.319 341.535 558.289 341.535C559.258 341.535 560.044 342.402 560.044 343.472C560.044 344.542 559.258 345.41 558.289 345.41Z" fill="black"/>
<path opacity="0.1" d="M558.289 351.863C557.319 351.863 556.533 350.996 556.533 349.926C556.533 348.856 557.319 347.988 558.289 347.988C559.258 347.988 560.044 348.856 560.044 349.926C560.044 350.996 559.258 351.863 558.289 351.863Z" fill="black"/>
<path opacity="0.1" d="M558.289 358.317C557.319 358.317 556.533 357.45 556.533 356.38C556.533 355.31 557.319 354.442 558.289 354.442C559.258 354.442 560.044 355.31 560.044 356.38C560.044 357.45 559.258 358.317 558.289 358.317Z" fill="black"/>
<path opacity="0.1" d="M558.289 364.771C557.319 364.771 556.533 363.903 556.533 362.833C556.533 361.763 557.319 360.896 558.289 360.896C559.258 360.896 560.044 361.763 560.044 362.833C560.044 363.903 559.258 364.771 558.289 364.771Z" fill="black"/>
<path opacity="0.1" d="M558.289 371.224C557.319 371.224 556.533 370.357 556.533 369.287C556.533 368.217 557.319 367.349 558.289 367.349C559.258 367.349 560.044 368.217 560.044 369.287C560.044 370.357 559.258 371.224 558.289 371.224Z" fill="black"/>
<path opacity="0.1" d="M558.289 377.678C557.319 377.678 556.533 376.811 556.533 375.741C556.533 374.671 557.319 373.803 558.289 373.803C559.258 373.803 560.044 374.671 560.044 375.741C560.044 376.811 559.258 377.678 558.289 377.678Z" fill="black"/>
<path opacity="0.1" d="M550.105 293.774C549.135 293.774 548.349 292.906 548.349 291.836C548.349 290.766 549.135 289.899 550.105 289.899C551.074 289.899 551.86 290.766 551.86 291.836C551.86 292.906 551.074 293.774 550.105 293.774Z" fill="black"/>
<path opacity="0.1" d="M550.105 300.227C549.135 300.227 548.349 299.36 548.349 298.29C548.349 297.22 549.135 296.352 550.105 296.352C551.074 296.352 551.86 297.22 551.86 298.29C551.86 299.36 551.074 300.227 550.105 300.227Z" fill="black"/>
<path opacity="0.1" d="M550.105 306.681C549.135 306.681 548.349 305.813 548.349 304.743C548.349 303.673 549.135 302.806 550.105 302.806C551.074 302.806 551.86 303.673 551.86 304.743C551.86 305.813 551.074 306.681 550.105 306.681Z" fill="black"/>
<path opacity="0.1" d="M550.105 313.135C549.135 313.135 548.349 312.267 548.349 311.197C548.349 310.127 549.135 309.26 550.105 309.26C551.074 309.26 551.86 310.127 551.86 311.197C551.86 312.267 551.074 313.135 550.105 313.135Z" fill="black"/>
<path opacity="0.1" d="M550.105 319.588C549.135 319.588 548.349 318.721 548.349 317.651C548.349 316.581 549.135 315.713 550.105 315.713C551.074 315.713 551.86 316.581 551.86 317.651C551.86 318.721 551.074 319.588 550.105 319.588Z" fill="black"/>
<path opacity="0.1" d="M550.105 326.042C549.135 326.042 548.349 325.174 548.349 324.104C548.349 323.034 549.135 322.167 550.105 322.167C551.074 322.167 551.86 323.034 551.86 324.104C551.86 325.174 551.074 326.042 550.105 326.042Z" fill="black"/>
<path opacity="0.1" d="M550.105 332.495C549.135 332.495 548.349 331.628 548.349 330.558C548.349 329.488 549.135 328.62 550.105 328.62C551.074 328.62 551.86 329.488 551.86 330.558C551.86 331.628 551.074 332.495 550.105 332.495Z" fill="black"/>
<path opacity="0.1" d="M550.105 338.956C549.135 338.956 548.349 338.089 548.349 337.019C548.349 335.949 549.135 335.081 550.105 335.081C551.074 335.081 551.86 335.949 551.86 337.019C551.86 338.089 551.074 338.956 550.105 338.956Z" fill="black"/>
<path opacity="0.1" d="M550.105 345.41C549.135 345.41 548.349 344.542 548.349 343.472C548.349 342.402 549.135 341.535 550.105 341.535C551.074 341.535 551.86 342.402 551.86 343.472C551.86 344.542 551.074 345.41 550.105 345.41Z" fill="black"/>
<path opacity="0.1" d="M550.105 351.863C549.135 351.863 548.349 350.996 548.349 349.926C548.349 348.856 549.135 347.988 550.105 347.988C551.074 347.988 551.86 348.856 551.86 349.926C551.86 350.996 551.074 351.863 550.105 351.863Z" fill="black"/>
<path opacity="0.1" d="M550.105 358.317C549.135 358.317 548.349 357.45 548.349 356.38C548.349 355.31 549.135 354.442 550.105 354.442C551.074 354.442 551.86 355.31 551.86 356.38C551.86 357.45 551.074 358.317 550.105 358.317Z" fill="black"/>
<path opacity="0.1" d="M550.105 364.771C549.135 364.771 548.349 363.903 548.349 362.833C548.349 361.763 549.135 360.896 550.105 360.896C551.074 360.896 551.86 361.763 551.86 362.833C551.86 363.903 551.074 364.771 550.105 364.771Z" fill="black"/>
<path opacity="0.1" d="M550.105 371.224C549.135 371.224 548.349 370.357 548.349 369.287C548.349 368.217 549.135 367.349 550.105 367.349C551.074 367.349 551.86 368.217 551.86 369.287C551.86 370.357 551.074 371.224 550.105 371.224Z" fill="black"/>
<path opacity="0.1" d="M550.105 377.678C549.135 377.678 548.349 376.811 548.349 375.741C548.349 374.671 549.135 373.803 550.105 373.803C551.074 373.803 551.86 374.671 551.86 375.741C551.86 376.811 551.074 377.678 550.105 377.678Z" fill="black"/>
<path opacity="0.1" d="M541.915 293.774C540.945 293.774 540.159 292.906 540.159 291.836C540.159 290.766 540.945 289.899 541.915 289.899C542.884 289.899 543.67 290.766 543.67 291.836C543.67 292.906 542.884 293.774 541.915 293.774Z" fill="black"/>
<path opacity="0.1" d="M541.915 300.227C540.945 300.227 540.159 299.36 540.159 298.29C540.159 297.22 540.945 296.352 541.915 296.352C542.884 296.352 543.67 297.22 543.67 298.29C543.67 299.36 542.884 300.227 541.915 300.227Z" fill="black"/>
<path opacity="0.1" d="M541.915 306.681C540.945 306.681 540.159 305.813 540.159 304.743C540.159 303.673 540.945 302.806 541.915 302.806C542.884 302.806 543.67 303.673 543.67 304.743C543.67 305.813 542.884 306.681 541.915 306.681Z" fill="black"/>
<path opacity="0.1" d="M541.915 313.135C540.945 313.135 540.159 312.267 540.159 311.197C540.159 310.127 540.945 309.26 541.915 309.26C542.884 309.26 543.67 310.127 543.67 311.197C543.67 312.267 542.884 313.135 541.915 313.135Z" fill="black"/>
<path opacity="0.1" d="M541.915 319.588C540.945 319.588 540.159 318.721 540.159 317.651C540.159 316.581 540.945 315.713 541.915 315.713C542.884 315.713 543.67 316.581 543.67 317.651C543.67 318.721 542.884 319.588 541.915 319.588Z" fill="black"/>
<path opacity="0.1" d="M541.915 326.042C540.945 326.042 540.159 325.174 540.159 324.104C540.159 323.034 540.945 322.167 541.915 322.167C542.884 322.167 543.67 323.034 543.67 324.104C543.67 325.174 542.884 326.042 541.915 326.042Z" fill="black"/>
<path opacity="0.1" d="M541.915 332.495C540.945 332.495 540.159 331.628 540.159 330.558C540.159 329.488 540.945 328.62 541.915 328.62C542.884 328.62 543.67 329.488 543.67 330.558C543.67 331.628 542.884 332.495 541.915 332.495Z" fill="black"/>
<path opacity="0.1" d="M541.915 338.956C540.945 338.956 540.159 338.089 540.159 337.019C540.159 335.949 540.945 335.081 541.915 335.081C542.884 335.081 543.67 335.949 543.67 337.019C543.67 338.089 542.884 338.956 541.915 338.956Z" fill="black"/>
<path opacity="0.1" d="M541.915 345.41C540.945 345.41 540.159 344.542 540.159 343.472C540.159 342.402 540.945 341.535 541.915 341.535C542.884 341.535 543.67 342.402 543.67 343.472C543.67 344.542 542.884 345.41 541.915 345.41Z" fill="black"/>
<path opacity="0.1" d="M541.915 351.863C540.945 351.863 540.159 350.996 540.159 349.926C540.159 348.856 540.945 347.988 541.915 347.988C542.884 347.988 543.67 348.856 543.67 349.926C543.67 350.996 542.884 351.863 541.915 351.863Z" fill="black"/>
<path opacity="0.1" d="M541.915 358.317C540.945 358.317 540.159 357.45 540.159 356.38C540.159 355.31 540.945 354.442 541.915 354.442C542.884 354.442 543.67 355.31 543.67 356.38C543.67 357.45 542.884 358.317 541.915 358.317Z" fill="black"/>
<path opacity="0.1" d="M541.915 364.771C540.945 364.771 540.159 363.903 540.159 362.833C540.159 361.763 540.945 360.896 541.915 360.896C542.884 360.896 543.67 361.763 543.67 362.833C543.67 363.903 542.884 364.771 541.915 364.771Z" fill="black"/>
<path opacity="0.1" d="M541.915 371.224C540.945 371.224 540.159 370.357 540.159 369.287C540.159 368.217 540.945 367.349 541.915 367.349C542.884 367.349 543.67 368.217 543.67 369.287C543.67 370.357 542.884 371.224 541.915 371.224Z" fill="black"/>
<path opacity="0.1" d="M541.915 377.678C540.945 377.678 540.159 376.811 540.159 375.741C540.159 374.671 540.945 373.803 541.915 373.803C542.884 373.803 543.67 374.671 543.67 375.741C543.67 376.811 542.884 377.678 541.915 377.678Z" fill="black"/>
<path opacity="0.1" d="M532.607 293.328C532.864 293.561 533.175 293.71 533.505 293.756C533.836 293.802 534.171 293.743 534.472 293.587C534.773 293.43 535.028 293.183 535.206 292.873C535.385 292.563 535.48 292.203 535.48 291.836C535.483 291.349 535.315 290.88 535.013 290.526C534.786 290.749 534.565 290.993 534.344 291.223C533.737 291.906 533.163 292.603 532.607 293.328Z" fill="black"/>
<path opacity="0.1" d="M533.731 300.227C532.762 300.227 531.976 299.36 531.976 298.29C531.976 297.22 532.762 296.352 533.731 296.352C534.701 296.352 535.487 297.22 535.487 298.29C535.487 299.36 534.701 300.227 533.731 300.227Z" fill="black"/>
<path opacity="0.1" d="M533.731 306.681C532.762 306.681 531.976 305.813 531.976 304.743C531.976 303.673 532.762 302.806 533.731 302.806C534.701 302.806 535.487 303.673 535.487 304.743C535.487 305.813 534.701 306.681 533.731 306.681Z" fill="black"/>
<path opacity="0.1" d="M533.731 313.135C532.762 313.135 531.976 312.267 531.976 311.197C531.976 310.127 532.762 309.26 533.731 309.26C534.701 309.26 535.487 310.127 535.487 311.197C535.487 312.267 534.701 313.135 533.731 313.135Z" fill="black"/>
<path opacity="0.1" d="M533.731 319.588C532.762 319.588 531.976 318.721 531.976 317.651C531.976 316.581 532.762 315.713 533.731 315.713C534.701 315.713 535.487 316.581 535.487 317.651C535.487 318.721 534.701 319.588 533.731 319.588Z" fill="black"/>
<path opacity="0.1" d="M533.731 326.042C532.762 326.042 531.976 325.174 531.976 324.104C531.976 323.034 532.762 322.167 533.731 322.167C534.701 322.167 535.487 323.034 535.487 324.104C535.487 325.174 534.701 326.042 533.731 326.042Z" fill="black"/>
<path opacity="0.1" d="M533.731 332.495C532.762 332.495 531.976 331.628 531.976 330.558C531.976 329.488 532.762 328.62 533.731 328.62C534.701 328.62 535.487 329.488 535.487 330.558C535.487 331.628 534.701 332.495 533.731 332.495Z" fill="black"/>
<path opacity="0.1" d="M533.731 338.956C532.762 338.956 531.976 338.089 531.976 337.019C531.976 335.949 532.762 335.081 533.731 335.081C534.701 335.081 535.487 335.949 535.487 337.019C535.487 338.089 534.701 338.956 533.731 338.956Z" fill="black"/>
<path opacity="0.1" d="M533.731 345.41C532.762 345.41 531.976 344.542 531.976 343.472C531.976 342.402 532.762 341.535 533.731 341.535C534.701 341.535 535.487 342.402 535.487 343.472C535.487 344.542 534.701 345.41 533.731 345.41Z" fill="black"/>
<path opacity="0.1" d="M533.731 351.863C532.762 351.863 531.976 350.996 531.976 349.926C531.976 348.856 532.762 347.988 533.731 347.988C534.701 347.988 535.487 348.856 535.487 349.926C535.487 350.996 534.701 351.863 533.731 351.863Z" fill="black"/>
<path opacity="0.1" d="M533.731 358.317C532.762 358.317 531.976 357.45 531.976 356.38C531.976 355.31 532.762 354.442 533.731 354.442C534.701 354.442 535.487 355.31 535.487 356.38C535.487 357.45 534.701 358.317 533.731 358.317Z" fill="black"/>
<path opacity="0.1" d="M533.731 364.771C532.762 364.771 531.976 363.903 531.976 362.833C531.976 361.763 532.762 360.896 533.731 360.896C534.701 360.896 535.487 361.763 535.487 362.833C535.487 363.903 534.701 364.771 533.731 364.771Z" fill="black"/>
<path opacity="0.1" d="M533.731 371.224C532.762 371.224 531.976 370.357 531.976 369.287C531.976 368.217 532.762 367.349 533.731 367.349C534.701 367.349 535.487 368.217 535.487 369.287C535.487 370.357 534.701 371.224 533.731 371.224Z" fill="black"/>
<path opacity="0.1" d="M532.146 374.904C532.814 375.835 533.529 376.724 534.287 377.567C534.563 377.466 534.812 377.291 535.011 377.058C535.211 376.824 535.355 376.54 535.431 376.23C535.506 375.92 535.511 375.595 535.444 375.282C535.377 374.97 535.241 374.681 535.048 374.441C534.855 374.201 534.612 374.018 534.339 373.907C534.066 373.797 533.772 373.764 533.484 373.81C533.197 373.855 532.924 373.979 532.69 374.171C532.457 374.362 532.27 374.614 532.146 374.904Z" fill="black"/>
<path d="M554.683 352.505H556.047C557.93 352.505 559.457 354.19 559.457 356.268V435.224C559.457 437.303 557.93 438.988 556.047 438.988H554.683C552.8 438.988 551.273 437.303 551.273 435.224V356.268C551.273 354.19 552.8 352.505 554.683 352.505Z" fill="#54576B"/>
<path d="M531.685 427.37H579.045C581.469 427.37 583.434 429.538 583.434 432.213V434.144C583.434 436.819 581.469 438.988 579.045 438.988H531.685C529.261 438.988 527.297 436.819 527.297 434.144V432.213C527.297 429.538 529.261 427.37 531.685 427.37Z" fill="#54576B"/>
<path opacity="0.1" d="M554.683 352.505H556.047C557.93 352.505 559.457 354.19 559.457 356.268V435.224C559.457 437.303 557.93 438.988 556.047 438.988H554.683C552.8 438.988 551.273 437.303 551.273 435.224V356.268C551.273 354.19 552.8 352.505 554.683 352.505Z" fill="black"/>
<path opacity="0.1" d="M531.685 427.37H579.045C581.469 427.37 583.434 429.538 583.434 432.213V434.144C583.434 436.819 581.469 438.988 579.045 438.988H531.685C529.261 438.988 527.297 436.819 527.297 434.144V432.213C527.297 429.538 529.261 427.37 531.685 427.37Z" fill="black"/>
<path d="M553.515 352.505H554.879C556.762 352.505 558.289 354.19 558.289 356.268V435.224C558.289 437.303 556.762 438.988 554.879 438.988H553.515C551.632 438.988 550.105 437.303 550.105 435.224V356.268C550.105 354.19 551.632 352.505 553.515 352.505Z" fill="#54576B"/>
<path d="M530.517 427.37H577.877C580.301 427.37 582.265 429.538 582.265 432.213V434.144C582.265 436.819 580.301 438.988 577.877 438.988H530.517C528.093 438.988 526.128 436.819 526.128 434.144V432.213C526.128 429.538 528.093 427.37 530.517 427.37Z" fill="#54576B"/>
<path d="M505.448 359.822C509.837 370.361 516.872 379.29 525.72 385.548C534.568 391.807 544.856 395.134 555.365 395.134C565.874 395.134 576.163 391.807 585.01 385.548C593.858 379.29 600.893 370.361 605.282 359.822C611.098 350.616 616.181 332.259 616.181 334.44C616.181 343.255 614.608 351.983 611.552 360.127C608.496 368.27 604.016 375.67 598.369 381.902C592.721 388.135 586.017 393.08 578.638 396.453C571.26 399.826 563.352 401.562 555.365 401.562C547.379 401.562 539.47 399.826 532.092 396.453C524.713 393.08 518.009 388.135 512.362 381.902C506.714 375.67 502.235 368.27 499.178 360.127C496.122 351.983 494.549 343.255 494.549 334.44C494.549 332.259 499.632 350.616 505.448 359.822Z" fill="#54576B"/>
<path d="M555.365 267.311C565.175 267.314 574.839 269.937 583.532 274.956C592.224 279.976 599.687 287.243 605.282 296.136C608.618 304.091 610.341 312.753 610.334 321.519C610.334 323.674 610.231 325.829 610.025 327.972C608.65 313.029 602.298 299.18 592.201 289.109C582.103 279.039 568.978 273.464 555.368 273.464C541.759 273.464 528.634 279.039 518.536 289.109C508.438 299.18 502.087 313.029 500.712 327.972C500.506 325.829 500.402 323.674 500.403 321.519C500.395 312.753 502.119 304.091 505.454 296.136C511.049 287.244 518.511 279.977 527.202 274.958C535.893 269.938 545.556 267.315 555.365 267.311Z" fill="#54576B"/>
<path opacity="0.1" d="M554.197 363.474C552.907 363.474 551.86 362.32 551.86 360.896C551.86 359.472 552.907 358.317 554.197 358.317C555.487 358.317 556.533 359.472 556.533 360.896C556.533 362.32 555.487 363.474 554.197 363.474Z" fill="black"/>
<path opacity="0.2" d="M444.556 424.791C444.071 424.791 443.678 424.357 443.678 423.822C443.678 423.287 444.071 422.854 444.556 422.854C445.041 422.854 445.434 423.287 445.434 423.822C445.434 424.357 445.041 424.791 444.556 424.791Z" fill="black"/>
<path d="M477.67 443.309C481.161 443.333 484.612 442.497 487.773 440.863C499.556 434.743 505.366 435.517 514.156 436.681C522.393 437.934 530.725 438.268 539.023 437.677C541.337 437.559 543.598 436.872 545.641 435.666C547.684 434.46 549.457 432.766 550.831 430.708C563.865 412.03 555.144 362.854 554.765 360.77C554.726 360.612 554.634 360.476 554.508 360.39C554.382 360.304 554.23 360.273 554.085 360.305C553.939 360.337 553.81 360.429 553.723 360.561C553.636 360.694 553.598 360.859 553.616 361.021C553.704 361.523 562.614 411.703 549.903 429.914C548.63 431.827 546.986 433.403 545.09 434.526C543.195 435.648 541.096 436.289 538.947 436.402C530.729 436.984 522.478 436.65 514.32 435.405C505.328 434.207 499.386 433.412 487.3 439.692C468.021 449.707 445.427 424.234 445.206 423.976C445.095 423.87 444.952 423.813 444.805 423.818C444.659 423.823 444.519 423.888 444.413 424.001C444.308 424.114 444.245 424.266 444.236 424.428C444.227 424.589 444.274 424.749 444.367 424.875C444.537 425.098 460.696 443.309 477.67 443.309Z" fill="#DFE6F5"/>
<path d="M456.188 100.575C465.843 81.3746 485.443 68.2094 507.967 68.2094C540.046 68.2094 566.15 94.8464 566.15 127.589H570.274C570.274 92.3583 542.332 63.6932 507.999 63.6932C488.121 63.6932 470.389 73.297 458.979 88.2255C458.044 91.5708 457.33 94.9927 456.623 98.4077C456.465 99.1395 456.32 99.8574 456.188 100.575Z" fill="#535461"/>
<path d="M561.572 108.722H556.186V149.842H561.572C565.685 149.842 569.63 148.038 572.539 144.828C575.447 141.618 577.081 137.265 577.081 132.725V125.881C577.086 123.63 576.689 121.399 575.911 119.318C575.134 117.236 573.993 115.344 572.552 113.751C571.111 112.157 569.4 110.892 567.516 110.029C565.632 109.167 563.612 108.722 561.572 108.722Z" fill="#DFE6F5"/>
<path d="M555.422 108.757H556.95C559.053 108.757 560.758 110.639 560.758 112.96V145.639C560.758 147.96 559.053 149.842 556.95 149.842H555.422C553.319 149.842 551.614 147.96 551.614 145.639V112.96C551.614 110.639 553.319 108.757 555.422 108.757Z" fill="#535461"/>
<path d="M213.674 404.162C213.674 404.162 223.702 400.412 228.526 410.162C229.799 412.806 230.447 415.761 230.409 418.755C230.372 421.748 229.65 424.682 228.312 427.286C225.154 433.607 218.612 441.817 206.21 441.086C195.716 440.465 192.224 431.628 191.276 423.404C190.913 420.321 191.273 417.186 192.322 414.3C193.371 411.415 195.074 408.875 197.267 406.923C199.461 404.972 202.071 403.674 204.849 403.156C207.626 402.637 210.478 402.913 213.131 403.96L213.674 404.162Z" fill="#EC7580"/>
<path opacity="0.1" d="M226.19 428.164C227.528 425.561 228.25 422.626 228.287 419.633C228.325 416.639 227.677 413.684 226.405 411.04C221.58 401.283 211.553 405.04 211.553 405.04L211.041 404.838C207.218 403.311 203.015 403.415 199.258 405.13C201.331 403.768 203.653 402.93 206.055 402.677C208.457 402.424 210.881 402.762 213.15 403.667L213.662 403.869C213.662 403.869 223.689 400.119 228.514 409.87C229.786 412.513 230.434 415.469 230.397 418.462C230.359 421.455 229.638 424.39 228.299 426.993C226.209 431.175 222.666 436.13 216.933 438.841C220.845 436.284 224.047 432.591 226.19 428.164Z" fill="white"/>
<path opacity="0.2" d="M218.852 408.852C218.852 408.852 215.133 412.079 206.109 408.852H218.852Z" fill="black"/>
<path d="M219.648 385.407C219.648 385.407 213.276 404.454 213.807 409.438L208.755 408.852C208.755 408.852 217.286 392.146 215.133 385.407H219.648Z" fill="#6C63FF"/>
<path opacity="0.2" d="M219.648 385.407C219.648 385.407 213.276 404.454 213.807 409.438L208.755 408.852C208.755 408.852 217.286 392.146 215.133 385.407H219.648Z" fill="black"/>
<path d="M193.638 386.996C193.638 386.996 203.666 381.337 208.162 386.013C212.658 390.69 213.34 402.642 213.34 402.642C213.34 402.642 196.978 405.13 193.638 386.996Z" fill="#6C63FF"/>
<path opacity="0.1" d="M193.638 386.996C193.638 386.996 203.666 381.337 208.162 386.013C212.658 390.69 213.34 402.642 213.34 402.642C213.34 402.642 196.978 405.13 193.638 386.996Z" fill="white"/>
<path d="M213.333 402.642C213.333 402.642 210.7 388.766 193.638 386.996" stroke="#6C63FF" stroke-width="0.69637" stroke-miterlimit="10"/>
</g>
<defs>
<linearGradient id="paint0_linear" x1="345.139" y1="491.962" x2="345.139" y2="45.977" gradientUnits="userSpaceOnUse">
<stop stop-color="#808080" stop-opacity="0.25"/>
<stop offset="0.54" stop-color="#808080" stop-opacity="0.12"/>
<stop offset="1" stop-color="#808080" stop-opacity="0.1"/>
</linearGradient>
<clipPath id="clip0">
<rect width="720" height="540.824" fill="white" transform="matrix(-1 0 0 1 720 0)"/>
</clipPath>
</defs>
</svg>
